%TF.GenerationSoftware,KiCad,Pcbnew,9.0.2*%
%TF.CreationDate,2025-07-24T15:49:36+03:00*%
%TF.ProjectId,SBC,5342432e-6b69-4636-9164-5f7063625858,rev?*%
%TF.SameCoordinates,Original*%
%TF.FileFunction,Paste,Bot*%
%TF.FilePolarity,Positive*%
%FSLAX46Y46*%
G04 Gerber Fmt 4.6, Leading zero omitted, Abs format (unit mm)*
G04 Created by KiCad (PCBNEW 9.0.2) date 2025-07-24 15:49:36*
%MOMM*%
%LPD*%
G01*
G04 APERTURE LIST*
G04 Aperture macros list*
%AMRoundRect*
0 Rectangle with rounded corners*
0 $1 Rounding radius*
0 $2 $3 $4 $5 $6 $7 $8 $9 X,Y pos of 4 corners*
0 Add a 4 corners polygon primitive as box body*
4,1,4,$2,$3,$4,$5,$6,$7,$8,$9,$2,$3,0*
0 Add four circle primitives for the rounded corners*
1,1,$1+$1,$2,$3*
1,1,$1+$1,$4,$5*
1,1,$1+$1,$6,$7*
1,1,$1+$1,$8,$9*
0 Add four rect primitives between the rounded corners*
20,1,$1+$1,$2,$3,$4,$5,0*
20,1,$1+$1,$4,$5,$6,$7,0*
20,1,$1+$1,$6,$7,$8,$9,0*
20,1,$1+$1,$8,$9,$2,$3,0*%
G04 Aperture macros list end*
%ADD10RoundRect,0.225000X0.225000X0.375000X-0.225000X0.375000X-0.225000X-0.375000X0.225000X-0.375000X0*%
%ADD11RoundRect,0.250000X0.350000X0.450000X-0.350000X0.450000X-0.350000X-0.450000X0.350000X-0.450000X0*%
%ADD12RoundRect,0.225000X-0.375000X0.225000X-0.375000X-0.225000X0.375000X-0.225000X0.375000X0.225000X0*%
%ADD13RoundRect,0.250000X0.600000X-0.400000X0.600000X0.400000X-0.600000X0.400000X-0.600000X-0.400000X0*%
%ADD14RoundRect,0.250000X0.337500X0.475000X-0.337500X0.475000X-0.337500X-0.475000X0.337500X-0.475000X0*%
%ADD15RoundRect,0.090000X-0.139000X-0.090000X0.139000X-0.090000X0.139000X0.090000X-0.139000X0.090000X0*%
%ADD16RoundRect,0.250000X-0.475000X0.337500X-0.475000X-0.337500X0.475000X-0.337500X0.475000X0.337500X0*%
%ADD17RoundRect,0.250000X0.475000X-0.337500X0.475000X0.337500X-0.475000X0.337500X-0.475000X-0.337500X0*%
%ADD18RoundRect,0.250000X-0.450000X0.350000X-0.450000X-0.350000X0.450000X-0.350000X0.450000X0.350000X0*%
%ADD19RoundRect,0.250000X-0.400000X-0.600000X0.400000X-0.600000X0.400000X0.600000X-0.400000X0.600000X0*%
%ADD20RoundRect,0.250000X0.450000X-0.350000X0.450000X0.350000X-0.450000X0.350000X-0.450000X-0.350000X0*%
%ADD21RoundRect,0.090000X-0.090000X0.139000X-0.090000X-0.139000X0.090000X-0.139000X0.090000X0.139000X0*%
%ADD22RoundRect,0.250000X-0.350000X-0.450000X0.350000X-0.450000X0.350000X0.450000X-0.350000X0.450000X0*%
%ADD23RoundRect,0.250000X-0.337500X-0.475000X0.337500X-0.475000X0.337500X0.475000X-0.337500X0.475000X0*%
%ADD24RoundRect,0.237500X-0.287500X-0.237500X0.287500X-0.237500X0.287500X0.237500X-0.287500X0.237500X0*%
%ADD25RoundRect,0.200000X0.200000X-0.750000X0.200000X0.750000X-0.200000X0.750000X-0.200000X-0.750000X0*%
%ADD26RoundRect,0.250000X-0.600000X0.400000X-0.600000X-0.400000X0.600000X-0.400000X0.600000X0.400000X0*%
%ADD27RoundRect,0.237500X0.287500X0.237500X-0.287500X0.237500X-0.287500X-0.237500X0.287500X-0.237500X0*%
%ADD28RoundRect,0.090000X0.090000X-0.139000X0.090000X0.139000X-0.090000X0.139000X-0.090000X-0.139000X0*%
%ADD29RoundRect,0.225000X0.375000X-0.225000X0.375000X0.225000X-0.375000X0.225000X-0.375000X-0.225000X0*%
%ADD30RoundRect,0.250000X-0.800000X0.450000X-0.800000X-0.450000X0.800000X-0.450000X0.800000X0.450000X0*%
%ADD31RoundRect,0.090000X0.139000X0.090000X-0.139000X0.090000X-0.139000X-0.090000X0.139000X-0.090000X0*%
%ADD32RoundRect,0.150000X0.825000X0.150000X-0.825000X0.150000X-0.825000X-0.150000X0.825000X-0.150000X0*%
%ADD33RoundRect,0.150000X0.150000X-0.587500X0.150000X0.587500X-0.150000X0.587500X-0.150000X-0.587500X0*%
%ADD34RoundRect,0.237500X-0.237500X0.287500X-0.237500X-0.287500X0.237500X-0.287500X0.237500X0.287500X0*%
G04 APERTURE END LIST*
D10*
%TO.C,ZD22*%
X167510000Y-63770000D03*
X164210000Y-63770000D03*
%TD*%
%TO.C,ZD21*%
X170970000Y-58600000D03*
X167670000Y-58600000D03*
%TD*%
D11*
%TO.C,R60*%
X261760000Y-65130000D03*
X263760000Y-65130000D03*
%TD*%
D12*
%TO.C,ZD20*%
X261390000Y-70740000D03*
X261390000Y-67440000D03*
%TD*%
D13*
%TO.C,ZD9*%
X259690000Y-48720000D03*
X259690000Y-45220000D03*
%TD*%
D14*
%TO.C,C53*%
X173250000Y-149750000D03*
X175325000Y-149750000D03*
%TD*%
D15*
%TO.C,C47*%
X239410000Y-134250000D03*
X240275000Y-134250000D03*
%TD*%
D16*
%TO.C,C65*%
X232000000Y-138825000D03*
X232000000Y-136750000D03*
%TD*%
D17*
%TO.C,C50*%
X175250000Y-102962500D03*
X175250000Y-105037500D03*
%TD*%
D18*
%TO.C,C29*%
X177750000Y-105000000D03*
X177750000Y-103000000D03*
%TD*%
%TO.C,R21*%
X209500000Y-95750000D03*
X209500000Y-97750000D03*
%TD*%
D19*
%TO.C,D45*%
X255750000Y-118500000D03*
X259250000Y-118500000D03*
%TD*%
D20*
%TO.C,R114*%
X255750000Y-120500000D03*
X255750000Y-122500000D03*
%TD*%
D11*
%TO.C,C35*%
X267540000Y-57680000D03*
X265540000Y-57680000D03*
%TD*%
D13*
%TO.C,D15*%
X205100000Y-156900000D03*
X205100000Y-153400000D03*
%TD*%
D21*
%TO.C,C45*%
X197700000Y-66175000D03*
X197700000Y-67040000D03*
%TD*%
D22*
%TO.C,R27*%
X182000000Y-88640000D03*
X184000000Y-88640000D03*
%TD*%
%TO.C,C100*%
X200250000Y-64000000D03*
X202250000Y-64000000D03*
%TD*%
D23*
%TO.C,F7*%
X260925000Y-138790000D03*
X263000000Y-138790000D03*
%TD*%
D18*
%TO.C,C40*%
X242000000Y-100000000D03*
X242000000Y-102000000D03*
%TD*%
D17*
%TO.C,C63*%
X186250000Y-155750000D03*
X186250000Y-153675000D03*
%TD*%
D13*
%TO.C,ZD36*%
X224500000Y-122500000D03*
X224500000Y-119000000D03*
%TD*%
D20*
%TO.C,C25*%
X263010000Y-59200000D03*
X263010000Y-57200000D03*
%TD*%
D24*
%TO.C,D6*%
X186450000Y-43200000D03*
X184700000Y-43200000D03*
%TD*%
D22*
%TO.C,C92*%
X231750000Y-109750000D03*
X233750000Y-109750000D03*
%TD*%
D25*
%TO.C,Q11*%
X246400000Y-121750000D03*
X244500000Y-121750000D03*
X245450000Y-118750000D03*
%TD*%
D17*
%TO.C,C76*%
X268500000Y-137365000D03*
X268500000Y-135290000D03*
%TD*%
D10*
%TO.C,ZD34*%
X172050000Y-157750000D03*
X168750000Y-157750000D03*
%TD*%
D22*
%TO.C,C83*%
X231750000Y-107750000D03*
X233750000Y-107750000D03*
%TD*%
D19*
%TO.C,D21*%
X250750000Y-154750000D03*
X254250000Y-154750000D03*
%TD*%
D14*
%TO.C,C105*%
X207250000Y-95500000D03*
X205175000Y-95500000D03*
%TD*%
D22*
%TO.C,C20*%
X196000000Y-95000000D03*
X198000000Y-95000000D03*
%TD*%
D26*
%TO.C,ZD31*%
X230500000Y-131250000D03*
X230500000Y-134750000D03*
%TD*%
D27*
%TO.C,D57*%
X240500000Y-95000000D03*
X238750000Y-95000000D03*
%TD*%
D22*
%TO.C,R118*%
X225500000Y-98000000D03*
X227500000Y-98000000D03*
%TD*%
D16*
%TO.C,C9*%
X263000000Y-77750000D03*
X263000000Y-79825000D03*
%TD*%
D23*
%TO.C,C15*%
X188162500Y-45800000D03*
X190237500Y-45800000D03*
%TD*%
D13*
%TO.C,D24*%
X258250000Y-158250000D03*
X258250000Y-154750000D03*
%TD*%
D21*
%TO.C,C18*%
X253500000Y-103635000D03*
X253500000Y-104500000D03*
%TD*%
D22*
%TO.C,R59*%
X231500000Y-99000000D03*
X233500000Y-99000000D03*
%TD*%
D20*
%TO.C,R66*%
X169500000Y-69250000D03*
X169500000Y-67250000D03*
%TD*%
D17*
%TO.C,C80*%
X224750000Y-155825000D03*
X224750000Y-153750000D03*
%TD*%
D28*
%TO.C,C44*%
X164500000Y-72932500D03*
X164500000Y-72067500D03*
%TD*%
D29*
%TO.C,ZD33*%
X170250000Y-155500000D03*
X170250000Y-152200000D03*
%TD*%
D17*
%TO.C,C79*%
X222750000Y-155825000D03*
X222750000Y-153750000D03*
%TD*%
D23*
%TO.C,C101*%
X205000000Y-65500000D03*
X207075000Y-65500000D03*
%TD*%
D11*
%TO.C,R30*%
X199750000Y-68500000D03*
X197750000Y-68500000D03*
%TD*%
D14*
%TO.C,C69*%
X199500000Y-133000000D03*
X197425000Y-133000000D03*
%TD*%
D10*
%TO.C,ZD18*%
X172300000Y-104500000D03*
X169000000Y-104500000D03*
%TD*%
D18*
%TO.C,R54*%
X237000000Y-105000000D03*
X237000000Y-107000000D03*
%TD*%
%TO.C,R58*%
X240000000Y-100000000D03*
X240000000Y-102000000D03*
%TD*%
D13*
%TO.C,D26*%
X258250000Y-105750000D03*
X258250000Y-102250000D03*
%TD*%
%TO.C,D38*%
X169250000Y-91500000D03*
X169250000Y-88000000D03*
%TD*%
D14*
%TO.C,C71*%
X199750000Y-136000000D03*
X197675000Y-136000000D03*
%TD*%
D13*
%TO.C,D11*%
X242500000Y-130250000D03*
X242500000Y-126750000D03*
%TD*%
D22*
%TO.C,R16*%
X220960000Y-61970000D03*
X222960000Y-61970000D03*
%TD*%
D23*
%TO.C,C48*%
X180750000Y-95000000D03*
X182825000Y-95000000D03*
%TD*%
D26*
%TO.C,D10*%
X250000000Y-118000000D03*
X250000000Y-121500000D03*
%TD*%
D11*
%TO.C,R72*%
X252250000Y-124750000D03*
X250250000Y-124750000D03*
%TD*%
D14*
%TO.C,C70*%
X199250000Y-127500000D03*
X197175000Y-127500000D03*
%TD*%
D20*
%TO.C,C39*%
X225500000Y-104500000D03*
X225500000Y-102500000D03*
%TD*%
D10*
%TO.C,ZD17*%
X171300000Y-102000000D03*
X168000000Y-102000000D03*
%TD*%
D30*
%TO.C,F3*%
X260750000Y-101750000D03*
X260750000Y-106150000D03*
%TD*%
D24*
%TO.C,D49*%
X219750000Y-101250000D03*
X221500000Y-101250000D03*
%TD*%
D19*
%TO.C,D17*%
X260000000Y-134290000D03*
X263500000Y-134290000D03*
%TD*%
D11*
%TO.C,R67*%
X267540000Y-72720000D03*
X265540000Y-72720000D03*
%TD*%
D31*
%TO.C,C41*%
X264275000Y-67000000D03*
X263410000Y-67000000D03*
%TD*%
D32*
%TO.C,U9*%
X234475000Y-102095000D03*
X234475000Y-103365000D03*
X234475000Y-104635000D03*
X234475000Y-105905000D03*
X229525000Y-105905000D03*
X229525000Y-104635000D03*
X229525000Y-103365000D03*
X229525000Y-102095000D03*
%TD*%
D26*
%TO.C,D20*%
X255750000Y-124750000D03*
X255750000Y-128250000D03*
%TD*%
D13*
%TO.C,D16*%
X231000000Y-156250000D03*
X231000000Y-152750000D03*
%TD*%
D22*
%TO.C,C103*%
X200500000Y-95500000D03*
X202500000Y-95500000D03*
%TD*%
D17*
%TO.C,C5*%
X169500000Y-79325000D03*
X169500000Y-77250000D03*
%TD*%
D19*
%TO.C,ZD3*%
X188000000Y-48200000D03*
X191500000Y-48200000D03*
%TD*%
D22*
%TO.C,C102*%
X230500000Y-93750000D03*
X232500000Y-93750000D03*
%TD*%
D19*
%TO.C,D18*%
X263500000Y-156250000D03*
X267000000Y-156250000D03*
%TD*%
D11*
%TO.C,R64*%
X267540000Y-63350000D03*
X265540000Y-63350000D03*
%TD*%
D14*
%TO.C,C104*%
X227750000Y-94000000D03*
X225675000Y-94000000D03*
%TD*%
D21*
%TO.C,C22*%
X189300000Y-91467500D03*
X189300000Y-92332500D03*
%TD*%
D20*
%TO.C,R101*%
X237250000Y-140500000D03*
X237250000Y-138500000D03*
%TD*%
D13*
%TO.C,D19*%
X262000000Y-123500000D03*
X262000000Y-120000000D03*
%TD*%
D23*
%TO.C,C77*%
X264500000Y-123500000D03*
X266575000Y-123500000D03*
%TD*%
D11*
%TO.C,R117*%
X248250000Y-155500000D03*
X246250000Y-155500000D03*
%TD*%
D16*
%TO.C,C17*%
X251750000Y-103000000D03*
X251750000Y-105075000D03*
%TD*%
D26*
%TO.C,D37*%
X166000000Y-88000000D03*
X166000000Y-91500000D03*
%TD*%
D17*
%TO.C,C49*%
X199000000Y-155787500D03*
X199000000Y-153712500D03*
%TD*%
D20*
%TO.C,C85*%
X229750000Y-100000000D03*
X229750000Y-98000000D03*
%TD*%
D24*
%TO.C,D7*%
X237000000Y-97000000D03*
X238750000Y-97000000D03*
%TD*%
D11*
%TO.C,R53*%
X226750000Y-100500000D03*
X224750000Y-100500000D03*
%TD*%
D26*
%TO.C,ZD4*%
X186400000Y-90200000D03*
X186400000Y-93700000D03*
%TD*%
D16*
%TO.C,F5*%
X262500000Y-125925000D03*
X262500000Y-128000000D03*
%TD*%
D22*
%TO.C,R74*%
X245500000Y-129750000D03*
X247500000Y-129750000D03*
%TD*%
%TO.C,R69*%
X173250000Y-95000000D03*
X175250000Y-95000000D03*
%TD*%
D18*
%TO.C,R55*%
X237000000Y-101500000D03*
X237000000Y-103500000D03*
%TD*%
D11*
%TO.C,R57*%
X238000000Y-99000000D03*
X236000000Y-99000000D03*
%TD*%
D18*
%TO.C,R71*%
X174250000Y-157000000D03*
X174250000Y-159000000D03*
%TD*%
%TO.C,R113*%
X239750000Y-147000000D03*
X239750000Y-149000000D03*
%TD*%
D28*
%TO.C,C78*%
X234500000Y-154970000D03*
X234500000Y-154105000D03*
%TD*%
D22*
%TO.C,R52*%
X224750000Y-106250000D03*
X226750000Y-106250000D03*
%TD*%
D23*
%TO.C,C75*%
X264500000Y-150750000D03*
X266575000Y-150750000D03*
%TD*%
%TO.C,C98*%
X230425000Y-64500000D03*
X232500000Y-64500000D03*
%TD*%
%TO.C,C90*%
X196455000Y-39770000D03*
X198530000Y-39770000D03*
%TD*%
%TO.C,C52*%
X187175000Y-119750000D03*
X189250000Y-119750000D03*
%TD*%
D26*
%TO.C,D39*%
X163750000Y-88000000D03*
X163750000Y-91500000D03*
%TD*%
D11*
%TO.C,R73*%
X252250000Y-127500000D03*
X250250000Y-127500000D03*
%TD*%
D13*
%TO.C,D29*%
X269000000Y-85500000D03*
X269000000Y-82000000D03*
%TD*%
D22*
%TO.C,R61*%
X261520000Y-72860000D03*
X263520000Y-72860000D03*
%TD*%
D18*
%TO.C,R63*%
X171750000Y-67000000D03*
X171750000Y-69000000D03*
%TD*%
%TO.C,R23*%
X185890000Y-88410000D03*
X185890000Y-86410000D03*
%TD*%
D21*
%TO.C,C43*%
X165050000Y-68605000D03*
X165050000Y-69470000D03*
%TD*%
D26*
%TO.C,D30*%
X266000000Y-82500000D03*
X266000000Y-86000000D03*
%TD*%
D18*
%TO.C,R89*%
X228750000Y-107500000D03*
X228750000Y-109500000D03*
%TD*%
D13*
%TO.C,D32*%
X263250000Y-93500000D03*
X263250000Y-90000000D03*
%TD*%
D14*
%TO.C,C72*%
X199500000Y-130000000D03*
X197425000Y-130000000D03*
%TD*%
D33*
%TO.C,Q10*%
X246750000Y-126250000D03*
X244850000Y-126250000D03*
X245800000Y-124375000D03*
%TD*%
D22*
%TO.C,R68*%
X169500000Y-71250000D03*
X171500000Y-71250000D03*
%TD*%
D34*
%TO.C,D66*%
X182000000Y-91000000D03*
X182000000Y-92750000D03*
%TD*%
D23*
%TO.C,C67*%
X181675000Y-149500000D03*
X183750000Y-149500000D03*
%TD*%
D13*
%TO.C,D8*%
X269000000Y-105250000D03*
X269000000Y-101750000D03*
%TD*%
D31*
%TO.C,C42*%
X264275000Y-70842500D03*
X263410000Y-70842500D03*
%TD*%
D13*
%TO.C,D40*%
X172000000Y-91500000D03*
X172000000Y-88000000D03*
%TD*%
%TO.C,D31*%
X263250000Y-88000000D03*
X263250000Y-84500000D03*
%TD*%
D18*
%TO.C,R70*%
X176500000Y-157000000D03*
X176500000Y-159000000D03*
%TD*%
D28*
%TO.C,C36*%
X166130000Y-40637500D03*
X166130000Y-41502500D03*
%TD*%
D11*
%TO.C,C99*%
X227250000Y-64250000D03*
X225250000Y-64250000D03*
%TD*%
D17*
%TO.C,C94*%
X253250000Y-119825000D03*
X253250000Y-117750000D03*
%TD*%
D18*
%TO.C,R26*%
X184000000Y-90400000D03*
X184000000Y-92400000D03*
%TD*%
D11*
%TO.C,C24*%
X168930000Y-52760000D03*
X166930000Y-52760000D03*
%TD*%
M02*
