%TF.GenerationSoftware,KiCad,Pcbnew,9.0.2*%
%TF.CreationDate,2025-07-24T15:49:36+03:00*%
%TF.ProjectId,SBC,5342432e-6b69-4636-9164-5f7063625858,rev?*%
%TF.SameCoordinates,Original*%
%TF.FileFunction,Paste,Top*%
%TF.FilePolarity,Positive*%
%FSLAX46Y46*%
G04 Gerber Fmt 4.6, Leading zero omitted, Abs format (unit mm)*
G04 Created by KiCad (PCBNEW 9.0.2) date 2025-07-24 15:49:36*
%MOMM*%
%LPD*%
G01*
G04 APERTURE LIST*
G04 Aperture macros list*
%AMRoundRect*
0 Rectangle with rounded corners*
0 $1 Rounding radius*
0 $2 $3 $4 $5 $6 $7 $8 $9 X,Y pos of 4 corners*
0 Add a 4 corners polygon primitive as box body*
4,1,4,$2,$3,$4,$5,$6,$7,$8,$9,$2,$3,0*
0 Add four circle primitives for the rounded corners*
1,1,$1+$1,$2,$3*
1,1,$1+$1,$4,$5*
1,1,$1+$1,$6,$7*
1,1,$1+$1,$8,$9*
0 Add four rect primitives between the rounded corners*
20,1,$1+$1,$2,$3,$4,$5,0*
20,1,$1+$1,$4,$5,$6,$7,0*
20,1,$1+$1,$6,$7,$8,$9,0*
20,1,$1+$1,$8,$9,$2,$3,0*%
G04 Aperture macros list end*
%ADD10C,0.010000*%
%ADD11RoundRect,0.225000X0.375000X-0.225000X0.375000X0.225000X-0.375000X0.225000X-0.375000X-0.225000X0*%
%ADD12RoundRect,0.237500X-0.237500X0.287500X-0.237500X-0.287500X0.237500X-0.287500X0.237500X0.287500X0*%
%ADD13RoundRect,0.250000X0.830000X0.310000X-0.830000X0.310000X-0.830000X-0.310000X0.830000X-0.310000X0*%
%ADD14RoundRect,0.250000X-0.450000X0.350000X-0.450000X-0.350000X0.450000X-0.350000X0.450000X0.350000X0*%
%ADD15RoundRect,0.150000X0.587500X0.150000X-0.587500X0.150000X-0.587500X-0.150000X0.587500X-0.150000X0*%
%ADD16RoundRect,0.250000X-0.350000X-0.450000X0.350000X-0.450000X0.350000X0.450000X-0.350000X0.450000X0*%
%ADD17RoundRect,0.250000X-0.475000X0.337500X-0.475000X-0.337500X0.475000X-0.337500X0.475000X0.337500X0*%
%ADD18RoundRect,0.150000X0.825000X0.150000X-0.825000X0.150000X-0.825000X-0.150000X0.825000X-0.150000X0*%
%ADD19RoundRect,0.090000X-0.090000X0.139000X-0.090000X-0.139000X0.090000X-0.139000X0.090000X0.139000X0*%
%ADD20RoundRect,0.250000X0.350000X0.450000X-0.350000X0.450000X-0.350000X-0.450000X0.350000X-0.450000X0*%
%ADD21RoundRect,0.250000X0.450000X-0.350000X0.450000X0.350000X-0.450000X0.350000X-0.450000X-0.350000X0*%
%ADD22RoundRect,0.250000X0.600000X-0.400000X0.600000X0.400000X-0.600000X0.400000X-0.600000X-0.400000X0*%
%ADD23RoundRect,0.250000X0.475000X-0.337500X0.475000X0.337500X-0.475000X0.337500X-0.475000X-0.337500X0*%
%ADD24RoundRect,0.237500X0.237500X-0.287500X0.237500X0.287500X-0.237500X0.287500X-0.237500X-0.287500X0*%
%ADD25RoundRect,0.225000X0.225000X0.375000X-0.225000X0.375000X-0.225000X-0.375000X0.225000X-0.375000X0*%
%ADD26RoundRect,0.250000X-0.400000X-0.600000X0.400000X-0.600000X0.400000X0.600000X-0.400000X0.600000X0*%
%ADD27RoundRect,0.250000X-0.600000X0.400000X-0.600000X-0.400000X0.600000X-0.400000X0.600000X0.400000X0*%
%ADD28RoundRect,0.237500X-0.287500X-0.237500X0.287500X-0.237500X0.287500X0.237500X-0.287500X0.237500X0*%
%ADD29RoundRect,0.250000X0.337500X0.475000X-0.337500X0.475000X-0.337500X-0.475000X0.337500X-0.475000X0*%
%ADD30R,0.800000X3.810000*%
%ADD31RoundRect,0.250000X0.400000X0.600000X-0.400000X0.600000X-0.400000X-0.600000X0.400000X-0.600000X0*%
%ADD32RoundRect,0.225000X-0.375000X0.225000X-0.375000X-0.225000X0.375000X-0.225000X0.375000X0.225000X0*%
%ADD33RoundRect,0.090000X0.090000X-0.139000X0.090000X0.139000X-0.090000X0.139000X-0.090000X-0.139000X0*%
%ADD34RoundRect,0.250000X2.375000X-2.025000X2.375000X2.025000X-2.375000X2.025000X-2.375000X-2.025000X0*%
%ADD35RoundRect,0.250000X0.300000X-2.050000X0.300000X2.050000X-0.300000X2.050000X-0.300000X-2.050000X0*%
%ADD36RoundRect,0.150000X0.150000X-0.587500X0.150000X0.587500X-0.150000X0.587500X-0.150000X-0.587500X0*%
%ADD37RoundRect,0.249999X-1.425001X0.450001X-1.425001X-0.450001X1.425001X-0.450001X1.425001X0.450001X0*%
%ADD38RoundRect,0.090000X-0.139000X-0.090000X0.139000X-0.090000X0.139000X0.090000X-0.139000X0.090000X0*%
%ADD39RoundRect,0.250000X-2.375000X2.025000X-2.375000X-2.025000X2.375000X-2.025000X2.375000X2.025000X0*%
%ADD40RoundRect,0.250000X-0.300000X2.050000X-0.300000X-2.050000X0.300000X-2.050000X0.300000X2.050000X0*%
%ADD41RoundRect,0.225000X-0.225000X-0.375000X0.225000X-0.375000X0.225000X0.375000X-0.225000X0.375000X0*%
%ADD42RoundRect,0.250000X0.550000X-1.050000X0.550000X1.050000X-0.550000X1.050000X-0.550000X-1.050000X0*%
%ADD43RoundRect,0.150000X-0.150000X0.587500X-0.150000X-0.587500X0.150000X-0.587500X0.150000X0.587500X0*%
%ADD44RoundRect,0.250000X-0.310000X0.830000X-0.310000X-0.830000X0.310000X-0.830000X0.310000X0.830000X0*%
%ADD45RoundRect,0.250000X-1.275000X-1.125000X1.275000X-1.125000X1.275000X1.125000X-1.275000X1.125000X0*%
%ADD46RoundRect,0.250000X-0.850000X-0.350000X0.850000X-0.350000X0.850000X0.350000X-0.850000X0.350000X0*%
%ADD47RoundRect,0.250000X-0.337500X-0.475000X0.337500X-0.475000X0.337500X0.475000X-0.337500X0.475000X0*%
%ADD48RoundRect,0.150000X-0.587500X-0.150000X0.587500X-0.150000X0.587500X0.150000X-0.587500X0.150000X0*%
%ADD49RoundRect,0.250000X-0.830000X-0.310000X0.830000X-0.310000X0.830000X0.310000X-0.830000X0.310000X0*%
%ADD50RoundRect,0.250000X-0.450000X-0.800000X0.450000X-0.800000X0.450000X0.800000X-0.450000X0.800000X0*%
%ADD51RoundRect,0.237500X0.287500X0.237500X-0.287500X0.237500X-0.287500X-0.237500X0.287500X-0.237500X0*%
%ADD52RoundRect,0.250000X0.550000X-0.400000X0.550000X0.400000X-0.550000X0.400000X-0.550000X-0.400000X0*%
%ADD53RoundRect,0.250000X0.550000X-0.750000X0.550000X0.750000X-0.550000X0.750000X-0.550000X-0.750000X0*%
%ADD54R,1.866900X0.431800*%
%ADD55RoundRect,0.250000X-1.125000X1.275000X-1.125000X-1.275000X1.125000X-1.275000X1.125000X1.275000X0*%
%ADD56RoundRect,0.250000X-0.350000X0.850000X-0.350000X-0.850000X0.350000X-0.850000X0.350000X0.850000X0*%
%ADD57RoundRect,0.249999X1.425001X-0.450001X1.425001X0.450001X-1.425001X0.450001X-1.425001X-0.450001X0*%
%ADD58RoundRect,0.250000X-0.550000X0.400000X-0.550000X-0.400000X0.550000X-0.400000X0.550000X0.400000X0*%
%ADD59RoundRect,0.250000X-0.550000X0.750000X-0.550000X-0.750000X0.550000X-0.750000X0.550000X0.750000X0*%
%ADD60RoundRect,0.375000X0.625000X0.375000X-0.625000X0.375000X-0.625000X-0.375000X0.625000X-0.375000X0*%
%ADD61RoundRect,0.500000X0.500000X1.400000X-0.500000X1.400000X-0.500000X-1.400000X0.500000X-1.400000X0*%
G04 APERTURE END LIST*
D10*
%TO.C,U2*%
X208490000Y-88300000D02*
X207140000Y-88300000D01*
X207140000Y-86650000D01*
X208490000Y-86650000D01*
X208490000Y-88300000D01*
G36*
X208490000Y-88300000D02*
G01*
X207140000Y-88300000D01*
X207140000Y-86650000D01*
X208490000Y-86650000D01*
X208490000Y-88300000D01*
G37*
X208490000Y-85540000D02*
X207140000Y-85540000D01*
X207140000Y-83890000D01*
X208490000Y-83890000D01*
X208490000Y-85540000D01*
G36*
X208490000Y-85540000D02*
G01*
X207140000Y-85540000D01*
X207140000Y-83890000D01*
X208490000Y-83890000D01*
X208490000Y-85540000D01*
G37*
X208490000Y-82780000D02*
X207140000Y-82780000D01*
X207140000Y-81130000D01*
X208490000Y-81130000D01*
X208490000Y-82780000D01*
G36*
X208490000Y-82780000D02*
G01*
X207140000Y-82780000D01*
X207140000Y-81130000D01*
X208490000Y-81130000D01*
X208490000Y-82780000D01*
G37*
X206470000Y-88300000D02*
X205120000Y-88300000D01*
X205120000Y-86650000D01*
X206470000Y-86650000D01*
X206470000Y-88300000D01*
G36*
X206470000Y-88300000D02*
G01*
X205120000Y-88300000D01*
X205120000Y-86650000D01*
X206470000Y-86650000D01*
X206470000Y-88300000D01*
G37*
X206470000Y-85540000D02*
X205120000Y-85540000D01*
X205120000Y-83890000D01*
X206470000Y-83890000D01*
X206470000Y-85540000D01*
G36*
X206470000Y-85540000D02*
G01*
X205120000Y-85540000D01*
X205120000Y-83890000D01*
X206470000Y-83890000D01*
X206470000Y-85540000D01*
G37*
X206470000Y-82780000D02*
X205120000Y-82780000D01*
X205120000Y-81130000D01*
X206470000Y-81130000D01*
X206470000Y-82780000D01*
G36*
X206470000Y-82780000D02*
G01*
X205120000Y-82780000D01*
X205120000Y-81130000D01*
X206470000Y-81130000D01*
X206470000Y-82780000D01*
G37*
X204450000Y-88300000D02*
X203100000Y-88300000D01*
X203100000Y-86650000D01*
X204450000Y-86650000D01*
X204450000Y-88300000D01*
G36*
X204450000Y-88300000D02*
G01*
X203100000Y-88300000D01*
X203100000Y-86650000D01*
X204450000Y-86650000D01*
X204450000Y-88300000D01*
G37*
X204450000Y-85540000D02*
X203100000Y-85540000D01*
X203100000Y-83890000D01*
X204450000Y-83890000D01*
X204450000Y-85540000D01*
G36*
X204450000Y-85540000D02*
G01*
X203100000Y-85540000D01*
X203100000Y-83890000D01*
X204450000Y-83890000D01*
X204450000Y-85540000D01*
G37*
X204450000Y-82780000D02*
X203100000Y-82780000D01*
X203100000Y-81130000D01*
X204450000Y-81130000D01*
X204450000Y-82780000D01*
G36*
X204450000Y-82780000D02*
G01*
X203100000Y-82780000D01*
X203100000Y-81130000D01*
X204450000Y-81130000D01*
X204450000Y-82780000D01*
G37*
X202430000Y-88300000D02*
X201080000Y-88300000D01*
X201080000Y-86650000D01*
X202430000Y-86650000D01*
X202430000Y-88300000D01*
G36*
X202430000Y-88300000D02*
G01*
X201080000Y-88300000D01*
X201080000Y-86650000D01*
X202430000Y-86650000D01*
X202430000Y-88300000D01*
G37*
X202430000Y-85540000D02*
X201080000Y-85540000D01*
X201080000Y-83890000D01*
X202430000Y-83890000D01*
X202430000Y-85540000D01*
G36*
X202430000Y-85540000D02*
G01*
X201080000Y-85540000D01*
X201080000Y-83890000D01*
X202430000Y-83890000D01*
X202430000Y-85540000D01*
G37*
X202430000Y-82780000D02*
X201080000Y-82780000D01*
X201080000Y-81130000D01*
X202430000Y-81130000D01*
X202430000Y-82780000D01*
G36*
X202430000Y-82780000D02*
G01*
X201080000Y-82780000D01*
X201080000Y-81130000D01*
X202430000Y-81130000D01*
X202430000Y-82780000D01*
G37*
X200410000Y-88300000D02*
X199060000Y-88300000D01*
X199060000Y-86650000D01*
X200410000Y-86650000D01*
X200410000Y-88300000D01*
G36*
X200410000Y-88300000D02*
G01*
X199060000Y-88300000D01*
X199060000Y-86650000D01*
X200410000Y-86650000D01*
X200410000Y-88300000D01*
G37*
X200410000Y-85540000D02*
X199060000Y-85540000D01*
X199060000Y-83890000D01*
X200410000Y-83890000D01*
X200410000Y-85540000D01*
G36*
X200410000Y-85540000D02*
G01*
X199060000Y-85540000D01*
X199060000Y-83890000D01*
X200410000Y-83890000D01*
X200410000Y-85540000D01*
G37*
X200410000Y-82780000D02*
X199060000Y-82780000D01*
X199060000Y-81130000D01*
X200410000Y-81130000D01*
X200410000Y-82780000D01*
G36*
X200410000Y-82780000D02*
G01*
X199060000Y-82780000D01*
X199060000Y-81130000D01*
X200410000Y-81130000D01*
X200410000Y-82780000D01*
G37*
%TO.C,U7*%
X225410000Y-82780000D02*
X224060000Y-82780000D01*
X224060000Y-81130000D01*
X225410000Y-81130000D01*
X225410000Y-82780000D01*
G36*
X225410000Y-82780000D02*
G01*
X224060000Y-82780000D01*
X224060000Y-81130000D01*
X225410000Y-81130000D01*
X225410000Y-82780000D01*
G37*
X225410000Y-85540000D02*
X224060000Y-85540000D01*
X224060000Y-83890000D01*
X225410000Y-83890000D01*
X225410000Y-85540000D01*
G36*
X225410000Y-85540000D02*
G01*
X224060000Y-85540000D01*
X224060000Y-83890000D01*
X225410000Y-83890000D01*
X225410000Y-85540000D01*
G37*
X225410000Y-88300000D02*
X224060000Y-88300000D01*
X224060000Y-86650000D01*
X225410000Y-86650000D01*
X225410000Y-88300000D01*
G36*
X225410000Y-88300000D02*
G01*
X224060000Y-88300000D01*
X224060000Y-86650000D01*
X225410000Y-86650000D01*
X225410000Y-88300000D01*
G37*
X227430000Y-82780000D02*
X226080000Y-82780000D01*
X226080000Y-81130000D01*
X227430000Y-81130000D01*
X227430000Y-82780000D01*
G36*
X227430000Y-82780000D02*
G01*
X226080000Y-82780000D01*
X226080000Y-81130000D01*
X227430000Y-81130000D01*
X227430000Y-82780000D01*
G37*
X227430000Y-85540000D02*
X226080000Y-85540000D01*
X226080000Y-83890000D01*
X227430000Y-83890000D01*
X227430000Y-85540000D01*
G36*
X227430000Y-85540000D02*
G01*
X226080000Y-85540000D01*
X226080000Y-83890000D01*
X227430000Y-83890000D01*
X227430000Y-85540000D01*
G37*
X227430000Y-88300000D02*
X226080000Y-88300000D01*
X226080000Y-86650000D01*
X227430000Y-86650000D01*
X227430000Y-88300000D01*
G36*
X227430000Y-88300000D02*
G01*
X226080000Y-88300000D01*
X226080000Y-86650000D01*
X227430000Y-86650000D01*
X227430000Y-88300000D01*
G37*
X229450000Y-82780000D02*
X228100000Y-82780000D01*
X228100000Y-81130000D01*
X229450000Y-81130000D01*
X229450000Y-82780000D01*
G36*
X229450000Y-82780000D02*
G01*
X228100000Y-82780000D01*
X228100000Y-81130000D01*
X229450000Y-81130000D01*
X229450000Y-82780000D01*
G37*
X229450000Y-85540000D02*
X228100000Y-85540000D01*
X228100000Y-83890000D01*
X229450000Y-83890000D01*
X229450000Y-85540000D01*
G36*
X229450000Y-85540000D02*
G01*
X228100000Y-85540000D01*
X228100000Y-83890000D01*
X229450000Y-83890000D01*
X229450000Y-85540000D01*
G37*
X229450000Y-88300000D02*
X228100000Y-88300000D01*
X228100000Y-86650000D01*
X229450000Y-86650000D01*
X229450000Y-88300000D01*
G36*
X229450000Y-88300000D02*
G01*
X228100000Y-88300000D01*
X228100000Y-86650000D01*
X229450000Y-86650000D01*
X229450000Y-88300000D01*
G37*
X231470000Y-82780000D02*
X230120000Y-82780000D01*
X230120000Y-81130000D01*
X231470000Y-81130000D01*
X231470000Y-82780000D01*
G36*
X231470000Y-82780000D02*
G01*
X230120000Y-82780000D01*
X230120000Y-81130000D01*
X231470000Y-81130000D01*
X231470000Y-82780000D01*
G37*
X231470000Y-85540000D02*
X230120000Y-85540000D01*
X230120000Y-83890000D01*
X231470000Y-83890000D01*
X231470000Y-85540000D01*
G36*
X231470000Y-85540000D02*
G01*
X230120000Y-85540000D01*
X230120000Y-83890000D01*
X231470000Y-83890000D01*
X231470000Y-85540000D01*
G37*
X231470000Y-88300000D02*
X230120000Y-88300000D01*
X230120000Y-86650000D01*
X231470000Y-86650000D01*
X231470000Y-88300000D01*
G36*
X231470000Y-88300000D02*
G01*
X230120000Y-88300000D01*
X230120000Y-86650000D01*
X231470000Y-86650000D01*
X231470000Y-88300000D01*
G37*
X233490000Y-82780000D02*
X232140000Y-82780000D01*
X232140000Y-81130000D01*
X233490000Y-81130000D01*
X233490000Y-82780000D01*
G36*
X233490000Y-82780000D02*
G01*
X232140000Y-82780000D01*
X232140000Y-81130000D01*
X233490000Y-81130000D01*
X233490000Y-82780000D01*
G37*
X233490000Y-85540000D02*
X232140000Y-85540000D01*
X232140000Y-83890000D01*
X233490000Y-83890000D01*
X233490000Y-85540000D01*
G36*
X233490000Y-85540000D02*
G01*
X232140000Y-85540000D01*
X232140000Y-83890000D01*
X233490000Y-83890000D01*
X233490000Y-85540000D01*
G37*
X233490000Y-88300000D02*
X232140000Y-88300000D01*
X232140000Y-86650000D01*
X233490000Y-86650000D01*
X233490000Y-88300000D01*
G36*
X233490000Y-88300000D02*
G01*
X232140000Y-88300000D01*
X232140000Y-86650000D01*
X233490000Y-86650000D01*
X233490000Y-88300000D01*
G37*
%TO.C,U3*%
X200385000Y-73065000D02*
X199035000Y-73065000D01*
X199035000Y-71415000D01*
X200385000Y-71415000D01*
X200385000Y-73065000D01*
G36*
X200385000Y-73065000D02*
G01*
X199035000Y-73065000D01*
X199035000Y-71415000D01*
X200385000Y-71415000D01*
X200385000Y-73065000D01*
G37*
X200385000Y-75825000D02*
X199035000Y-75825000D01*
X199035000Y-74175000D01*
X200385000Y-74175000D01*
X200385000Y-75825000D01*
G36*
X200385000Y-75825000D02*
G01*
X199035000Y-75825000D01*
X199035000Y-74175000D01*
X200385000Y-74175000D01*
X200385000Y-75825000D01*
G37*
X200385000Y-78585000D02*
X199035000Y-78585000D01*
X199035000Y-76935000D01*
X200385000Y-76935000D01*
X200385000Y-78585000D01*
G36*
X200385000Y-78585000D02*
G01*
X199035000Y-78585000D01*
X199035000Y-76935000D01*
X200385000Y-76935000D01*
X200385000Y-78585000D01*
G37*
X202405000Y-73065000D02*
X201055000Y-73065000D01*
X201055000Y-71415000D01*
X202405000Y-71415000D01*
X202405000Y-73065000D01*
G36*
X202405000Y-73065000D02*
G01*
X201055000Y-73065000D01*
X201055000Y-71415000D01*
X202405000Y-71415000D01*
X202405000Y-73065000D01*
G37*
X202405000Y-75825000D02*
X201055000Y-75825000D01*
X201055000Y-74175000D01*
X202405000Y-74175000D01*
X202405000Y-75825000D01*
G36*
X202405000Y-75825000D02*
G01*
X201055000Y-75825000D01*
X201055000Y-74175000D01*
X202405000Y-74175000D01*
X202405000Y-75825000D01*
G37*
X202405000Y-78585000D02*
X201055000Y-78585000D01*
X201055000Y-76935000D01*
X202405000Y-76935000D01*
X202405000Y-78585000D01*
G36*
X202405000Y-78585000D02*
G01*
X201055000Y-78585000D01*
X201055000Y-76935000D01*
X202405000Y-76935000D01*
X202405000Y-78585000D01*
G37*
X204425000Y-73065000D02*
X203075000Y-73065000D01*
X203075000Y-71415000D01*
X204425000Y-71415000D01*
X204425000Y-73065000D01*
G36*
X204425000Y-73065000D02*
G01*
X203075000Y-73065000D01*
X203075000Y-71415000D01*
X204425000Y-71415000D01*
X204425000Y-73065000D01*
G37*
X204425000Y-75825000D02*
X203075000Y-75825000D01*
X203075000Y-74175000D01*
X204425000Y-74175000D01*
X204425000Y-75825000D01*
G36*
X204425000Y-75825000D02*
G01*
X203075000Y-75825000D01*
X203075000Y-74175000D01*
X204425000Y-74175000D01*
X204425000Y-75825000D01*
G37*
X204425000Y-78585000D02*
X203075000Y-78585000D01*
X203075000Y-76935000D01*
X204425000Y-76935000D01*
X204425000Y-78585000D01*
G36*
X204425000Y-78585000D02*
G01*
X203075000Y-78585000D01*
X203075000Y-76935000D01*
X204425000Y-76935000D01*
X204425000Y-78585000D01*
G37*
X206445000Y-73065000D02*
X205095000Y-73065000D01*
X205095000Y-71415000D01*
X206445000Y-71415000D01*
X206445000Y-73065000D01*
G36*
X206445000Y-73065000D02*
G01*
X205095000Y-73065000D01*
X205095000Y-71415000D01*
X206445000Y-71415000D01*
X206445000Y-73065000D01*
G37*
X206445000Y-75825000D02*
X205095000Y-75825000D01*
X205095000Y-74175000D01*
X206445000Y-74175000D01*
X206445000Y-75825000D01*
G36*
X206445000Y-75825000D02*
G01*
X205095000Y-75825000D01*
X205095000Y-74175000D01*
X206445000Y-74175000D01*
X206445000Y-75825000D01*
G37*
X206445000Y-78585000D02*
X205095000Y-78585000D01*
X205095000Y-76935000D01*
X206445000Y-76935000D01*
X206445000Y-78585000D01*
G36*
X206445000Y-78585000D02*
G01*
X205095000Y-78585000D01*
X205095000Y-76935000D01*
X206445000Y-76935000D01*
X206445000Y-78585000D01*
G37*
X208465000Y-73065000D02*
X207115000Y-73065000D01*
X207115000Y-71415000D01*
X208465000Y-71415000D01*
X208465000Y-73065000D01*
G36*
X208465000Y-73065000D02*
G01*
X207115000Y-73065000D01*
X207115000Y-71415000D01*
X208465000Y-71415000D01*
X208465000Y-73065000D01*
G37*
X208465000Y-75825000D02*
X207115000Y-75825000D01*
X207115000Y-74175000D01*
X208465000Y-74175000D01*
X208465000Y-75825000D01*
G36*
X208465000Y-75825000D02*
G01*
X207115000Y-75825000D01*
X207115000Y-74175000D01*
X208465000Y-74175000D01*
X208465000Y-75825000D01*
G37*
X208465000Y-78585000D02*
X207115000Y-78585000D01*
X207115000Y-76935000D01*
X208465000Y-76935000D01*
X208465000Y-78585000D01*
G36*
X208465000Y-78585000D02*
G01*
X207115000Y-78585000D01*
X207115000Y-76935000D01*
X208465000Y-76935000D01*
X208465000Y-78585000D01*
G37*
%TO.C,U8*%
X225410000Y-72990000D02*
X224060000Y-72990000D01*
X224060000Y-71340000D01*
X225410000Y-71340000D01*
X225410000Y-72990000D01*
G36*
X225410000Y-72990000D02*
G01*
X224060000Y-72990000D01*
X224060000Y-71340000D01*
X225410000Y-71340000D01*
X225410000Y-72990000D01*
G37*
X225410000Y-75750000D02*
X224060000Y-75750000D01*
X224060000Y-74100000D01*
X225410000Y-74100000D01*
X225410000Y-75750000D01*
G36*
X225410000Y-75750000D02*
G01*
X224060000Y-75750000D01*
X224060000Y-74100000D01*
X225410000Y-74100000D01*
X225410000Y-75750000D01*
G37*
X225410000Y-78510000D02*
X224060000Y-78510000D01*
X224060000Y-76860000D01*
X225410000Y-76860000D01*
X225410000Y-78510000D01*
G36*
X225410000Y-78510000D02*
G01*
X224060000Y-78510000D01*
X224060000Y-76860000D01*
X225410000Y-76860000D01*
X225410000Y-78510000D01*
G37*
X227430000Y-72990000D02*
X226080000Y-72990000D01*
X226080000Y-71340000D01*
X227430000Y-71340000D01*
X227430000Y-72990000D01*
G36*
X227430000Y-72990000D02*
G01*
X226080000Y-72990000D01*
X226080000Y-71340000D01*
X227430000Y-71340000D01*
X227430000Y-72990000D01*
G37*
X227430000Y-75750000D02*
X226080000Y-75750000D01*
X226080000Y-74100000D01*
X227430000Y-74100000D01*
X227430000Y-75750000D01*
G36*
X227430000Y-75750000D02*
G01*
X226080000Y-75750000D01*
X226080000Y-74100000D01*
X227430000Y-74100000D01*
X227430000Y-75750000D01*
G37*
X227430000Y-78510000D02*
X226080000Y-78510000D01*
X226080000Y-76860000D01*
X227430000Y-76860000D01*
X227430000Y-78510000D01*
G36*
X227430000Y-78510000D02*
G01*
X226080000Y-78510000D01*
X226080000Y-76860000D01*
X227430000Y-76860000D01*
X227430000Y-78510000D01*
G37*
X229450000Y-72990000D02*
X228100000Y-72990000D01*
X228100000Y-71340000D01*
X229450000Y-71340000D01*
X229450000Y-72990000D01*
G36*
X229450000Y-72990000D02*
G01*
X228100000Y-72990000D01*
X228100000Y-71340000D01*
X229450000Y-71340000D01*
X229450000Y-72990000D01*
G37*
X229450000Y-75750000D02*
X228100000Y-75750000D01*
X228100000Y-74100000D01*
X229450000Y-74100000D01*
X229450000Y-75750000D01*
G36*
X229450000Y-75750000D02*
G01*
X228100000Y-75750000D01*
X228100000Y-74100000D01*
X229450000Y-74100000D01*
X229450000Y-75750000D01*
G37*
X229450000Y-78510000D02*
X228100000Y-78510000D01*
X228100000Y-76860000D01*
X229450000Y-76860000D01*
X229450000Y-78510000D01*
G36*
X229450000Y-78510000D02*
G01*
X228100000Y-78510000D01*
X228100000Y-76860000D01*
X229450000Y-76860000D01*
X229450000Y-78510000D01*
G37*
X231470000Y-72990000D02*
X230120000Y-72990000D01*
X230120000Y-71340000D01*
X231470000Y-71340000D01*
X231470000Y-72990000D01*
G36*
X231470000Y-72990000D02*
G01*
X230120000Y-72990000D01*
X230120000Y-71340000D01*
X231470000Y-71340000D01*
X231470000Y-72990000D01*
G37*
X231470000Y-75750000D02*
X230120000Y-75750000D01*
X230120000Y-74100000D01*
X231470000Y-74100000D01*
X231470000Y-75750000D01*
G36*
X231470000Y-75750000D02*
G01*
X230120000Y-75750000D01*
X230120000Y-74100000D01*
X231470000Y-74100000D01*
X231470000Y-75750000D01*
G37*
X231470000Y-78510000D02*
X230120000Y-78510000D01*
X230120000Y-76860000D01*
X231470000Y-76860000D01*
X231470000Y-78510000D01*
G36*
X231470000Y-78510000D02*
G01*
X230120000Y-78510000D01*
X230120000Y-76860000D01*
X231470000Y-76860000D01*
X231470000Y-78510000D01*
G37*
X233490000Y-72990000D02*
X232140000Y-72990000D01*
X232140000Y-71340000D01*
X233490000Y-71340000D01*
X233490000Y-72990000D01*
G36*
X233490000Y-72990000D02*
G01*
X232140000Y-72990000D01*
X232140000Y-71340000D01*
X233490000Y-71340000D01*
X233490000Y-72990000D01*
G37*
X233490000Y-75750000D02*
X232140000Y-75750000D01*
X232140000Y-74100000D01*
X233490000Y-74100000D01*
X233490000Y-75750000D01*
G36*
X233490000Y-75750000D02*
G01*
X232140000Y-75750000D01*
X232140000Y-74100000D01*
X233490000Y-74100000D01*
X233490000Y-75750000D01*
G37*
X233490000Y-78510000D02*
X232140000Y-78510000D01*
X232140000Y-76860000D01*
X233490000Y-76860000D01*
X233490000Y-78510000D01*
G36*
X233490000Y-78510000D02*
G01*
X232140000Y-78510000D01*
X232140000Y-76860000D01*
X233490000Y-76860000D01*
X233490000Y-78510000D01*
G37*
%TD*%
D11*
%TO.C,ZD26*%
X197560000Y-54220000D03*
X197560000Y-57520000D03*
%TD*%
D12*
%TO.C,D68*%
X176250000Y-67380000D03*
X176250000Y-65630000D03*
%TD*%
D13*
%TO.C,SW7*%
X187970000Y-54220000D03*
X181240000Y-54220000D03*
%TD*%
D14*
%TO.C,R107*%
X166320000Y-40080000D03*
X166320000Y-42080000D03*
%TD*%
D15*
%TO.C,Q1*%
X176095000Y-57270000D03*
X177970000Y-56320000D03*
X177970000Y-58220000D03*
%TD*%
D16*
%TO.C,R4*%
X192280000Y-62430000D03*
X194280000Y-62430000D03*
%TD*%
D14*
%TO.C,R9*%
X194530000Y-64240000D03*
X194530000Y-66240000D03*
%TD*%
D17*
%TO.C,C1*%
X192570000Y-66375000D03*
X192570000Y-64300000D03*
%TD*%
D14*
%TO.C,R1*%
X190690000Y-60110000D03*
X190690000Y-58110000D03*
%TD*%
D18*
%TO.C,U1*%
X185105000Y-65610000D03*
X185105000Y-64340000D03*
X185105000Y-63070000D03*
X185105000Y-61800000D03*
X180155000Y-61800000D03*
X180155000Y-63070000D03*
X180155000Y-64340000D03*
X180155000Y-65610000D03*
%TD*%
D19*
%TO.C,C2*%
X191000000Y-64565000D03*
X191000000Y-65430000D03*
%TD*%
D20*
%TO.C,R10*%
X176930000Y-63720000D03*
X174930000Y-63720000D03*
%TD*%
D21*
%TO.C,R11*%
X175077500Y-61250000D03*
X175077500Y-59250000D03*
%TD*%
D22*
%TO.C,ZD1*%
X172890000Y-61797500D03*
X172890000Y-58297500D03*
%TD*%
D23*
%TO.C,C8*%
X177380000Y-61890000D03*
X177380000Y-59815000D03*
%TD*%
D24*
%TO.C,D56*%
X186680000Y-57355000D03*
X186680000Y-59105000D03*
%TD*%
D20*
%TO.C,R3*%
X181930000Y-59410000D03*
X183930000Y-59410000D03*
%TD*%
D21*
%TO.C,R6*%
X180080000Y-59100000D03*
X180080000Y-57100000D03*
%TD*%
D25*
%TO.C,ZD14*%
X185227500Y-57260000D03*
X181927500Y-57260000D03*
%TD*%
D14*
%TO.C,R8*%
X175180000Y-53650000D03*
X175180000Y-55650000D03*
%TD*%
D21*
%TO.C,R32*%
X211500000Y-49400000D03*
X211500000Y-51400000D03*
%TD*%
D24*
%TO.C,D67*%
X266100000Y-44850000D03*
X266100000Y-43100000D03*
%TD*%
D16*
%TO.C,R42*%
X262511906Y-51235000D03*
X264511906Y-51235000D03*
%TD*%
D21*
%TO.C,C33*%
X264111906Y-44535000D03*
X264111906Y-42535000D03*
%TD*%
%TO.C,R100*%
X268511906Y-49335000D03*
X268511906Y-47335000D03*
%TD*%
D26*
%TO.C,ZD6*%
X256311906Y-42535000D03*
X259811906Y-42535000D03*
%TD*%
D14*
%TO.C,C31*%
X264111906Y-46435000D03*
X264111906Y-48435000D03*
%TD*%
D27*
%TO.C,ZD8*%
X266411906Y-50135000D03*
X266411906Y-46635000D03*
%TD*%
D20*
%TO.C,R99*%
X258611906Y-39635000D03*
X256611906Y-39635000D03*
%TD*%
D21*
%TO.C,C82*%
X256711906Y-46935000D03*
X256711906Y-44935000D03*
%TD*%
D26*
%TO.C,D25*%
X260711906Y-39735000D03*
X264211906Y-39735000D03*
%TD*%
D19*
%TO.C,C11*%
X253300000Y-80332500D03*
X253300000Y-79467500D03*
%TD*%
D26*
%TO.C,ZD11*%
X245800000Y-40000000D03*
X242300000Y-40000000D03*
%TD*%
D23*
%TO.C,C10*%
X166630000Y-44805000D03*
X166630000Y-46880000D03*
%TD*%
D16*
%TO.C,R122*%
X192130000Y-54090000D03*
X190130000Y-54090000D03*
%TD*%
D22*
%TO.C,D44*%
X238200000Y-42100000D03*
X238200000Y-45600000D03*
%TD*%
D14*
%TO.C,R112*%
X240300000Y-45800000D03*
X240300000Y-43800000D03*
%TD*%
D20*
%TO.C,R109*%
X177400000Y-54590000D03*
X179400000Y-54590000D03*
%TD*%
D26*
%TO.C,D43*%
X260250000Y-98500000D03*
X256750000Y-98500000D03*
%TD*%
D28*
%TO.C,D3*%
X205850000Y-51722382D03*
X207600000Y-51722382D03*
%TD*%
D21*
%TO.C,R87*%
X196500000Y-129750000D03*
X196500000Y-131750000D03*
%TD*%
D16*
%TO.C,C89*%
X204380000Y-47270000D03*
X202380000Y-47270000D03*
%TD*%
%TO.C,R33*%
X201360000Y-49690000D03*
X203360000Y-49690000D03*
%TD*%
%TO.C,R51*%
X200300000Y-44600000D03*
X202300000Y-44600000D03*
%TD*%
D29*
%TO.C,C7*%
X200550000Y-40822382D03*
X198475000Y-40822382D03*
%TD*%
D20*
%TO.C,C93*%
X200300000Y-42700000D03*
X198300000Y-42700000D03*
%TD*%
D18*
%TO.C,U4*%
X209750000Y-45410000D03*
X209750000Y-44140000D03*
X209750000Y-42870000D03*
X209750000Y-41600000D03*
X204800000Y-41600000D03*
X204800000Y-42870000D03*
X204800000Y-44140000D03*
X204800000Y-45410000D03*
%TD*%
D16*
%TO.C,R25*%
X214650000Y-45795634D03*
X216650000Y-45795634D03*
%TD*%
D21*
%TO.C,C28*%
X213850000Y-49522382D03*
X213850000Y-47522382D03*
%TD*%
D14*
%TO.C,C21*%
X214300000Y-41900000D03*
X214300000Y-43900000D03*
%TD*%
%TO.C,R24*%
X216210000Y-40320000D03*
X216210000Y-42320000D03*
%TD*%
D16*
%TO.C,R29*%
X209550000Y-47322382D03*
X211550000Y-47322382D03*
%TD*%
D14*
%TO.C,R22*%
X207000000Y-47700000D03*
X207000000Y-49700000D03*
%TD*%
D21*
%TO.C,R31*%
X209450000Y-49622382D03*
X209450000Y-51622382D03*
%TD*%
%TO.C,R28*%
X212300000Y-43072382D03*
X212300000Y-41072382D03*
%TD*%
D30*
%TO.C,U2*%
X207585000Y-94375000D03*
X206315000Y-94375000D03*
X205045000Y-94375000D03*
X203775000Y-94375000D03*
X202505000Y-94375000D03*
X201235000Y-94375000D03*
X199965000Y-94375000D03*
%TD*%
D21*
%TO.C,R96*%
X236750000Y-57750000D03*
X236750000Y-59750000D03*
%TD*%
D12*
%TO.C,D62*%
X226000000Y-104000000D03*
X226000000Y-105750000D03*
%TD*%
D26*
%TO.C,ZD5*%
X233000000Y-47750000D03*
X236500000Y-47750000D03*
%TD*%
D16*
%TO.C,R111*%
X257250000Y-96250000D03*
X259250000Y-96250000D03*
%TD*%
D31*
%TO.C,D1*%
X191200000Y-50500000D03*
X187700000Y-50500000D03*
%TD*%
D25*
%TO.C,ZD30*%
X228520000Y-53310000D03*
X225220000Y-53310000D03*
%TD*%
D12*
%TO.C,D47*%
X221000000Y-53625000D03*
X221000000Y-55375000D03*
%TD*%
D16*
%TO.C,R7*%
X191060000Y-89760000D03*
X193060000Y-89760000D03*
%TD*%
D17*
%TO.C,C3*%
X195500000Y-77425000D03*
X195500000Y-79500000D03*
%TD*%
D19*
%TO.C,C11*%
X242300000Y-79467500D03*
X242300000Y-80332500D03*
%TD*%
D24*
%TO.C,D55*%
X248250000Y-91250000D03*
X248250000Y-89500000D03*
%TD*%
D16*
%TO.C,R126*%
X225000000Y-55500000D03*
X227000000Y-55500000D03*
%TD*%
D32*
%TO.C,ZD13*%
X185250000Y-91200000D03*
X185250000Y-94500000D03*
%TD*%
D33*
%TO.C,C26*%
X197750000Y-155682500D03*
X197750000Y-154817500D03*
%TD*%
D22*
%TO.C,D50*%
X246300000Y-81000000D03*
X246300000Y-77500000D03*
%TD*%
D34*
%TO.C,Q8*%
X213450000Y-87850000D03*
X219000000Y-87850000D03*
X213450000Y-83000000D03*
X219000000Y-83000000D03*
D35*
X213685000Y-94575000D03*
X216225000Y-94575000D03*
X218765000Y-94575000D03*
%TD*%
D21*
%TO.C,R92*%
X198500000Y-101250000D03*
X198500000Y-99250000D03*
%TD*%
D36*
%TO.C,Q7*%
X210500000Y-100750000D03*
X212400000Y-100750000D03*
X211450000Y-98875000D03*
%TD*%
D37*
%TO.C,R48*%
X222000000Y-100000000D03*
X222000000Y-106100000D03*
%TD*%
D20*
%TO.C,C74*%
X254475000Y-151000000D03*
X252475000Y-151000000D03*
%TD*%
D21*
%TO.C,R40*%
X232400000Y-41800000D03*
X232400000Y-39800000D03*
%TD*%
D24*
%TO.C,D63*%
X227750000Y-105250000D03*
X227750000Y-103500000D03*
%TD*%
D16*
%TO.C,R95*%
X228750000Y-55250000D03*
X230750000Y-55250000D03*
%TD*%
D14*
%TO.C,R77*%
X242250000Y-134000000D03*
X242250000Y-136000000D03*
%TD*%
D32*
%TO.C,ZD23*%
X204000000Y-103700000D03*
X204000000Y-107000000D03*
%TD*%
D38*
%TO.C,C87*%
X222910000Y-57250000D03*
X223775000Y-57250000D03*
%TD*%
D16*
%TO.C,R12*%
X206000000Y-99500000D03*
X208000000Y-99500000D03*
%TD*%
D20*
%TO.C,R47*%
X216000000Y-98500000D03*
X214000000Y-98500000D03*
%TD*%
D14*
%TO.C,R115*%
X248500000Y-81000000D03*
X248500000Y-83000000D03*
%TD*%
D39*
%TO.C,Q4*%
X219050000Y-72150000D03*
X213500000Y-72150000D03*
X219050000Y-77000000D03*
X213500000Y-77000000D03*
D40*
X218815000Y-65425000D03*
X216275000Y-65425000D03*
X213735000Y-65425000D03*
%TD*%
D27*
%TO.C,D53*%
X183100000Y-74600000D03*
X183100000Y-78100000D03*
%TD*%
D14*
%TO.C,R105*%
X232350000Y-43700000D03*
X232350000Y-45700000D03*
%TD*%
D16*
%TO.C,R34*%
X249750000Y-90250000D03*
X251750000Y-90250000D03*
%TD*%
D13*
%TO.C,SW1*%
X190115000Y-138500000D03*
X183385000Y-138500000D03*
%TD*%
D16*
%TO.C,R110*%
X253500000Y-90000000D03*
X255500000Y-90000000D03*
%TD*%
D28*
%TO.C,D54*%
X187500000Y-90500000D03*
X189250000Y-90500000D03*
%TD*%
D41*
%TO.C,ZD16*%
X240787500Y-96950000D03*
X244087500Y-96950000D03*
%TD*%
D20*
%TO.C,R41*%
X254250000Y-109250000D03*
X252250000Y-109250000D03*
%TD*%
D16*
%TO.C,R85*%
X195250000Y-125250000D03*
X197250000Y-125250000D03*
%TD*%
D42*
%TO.C,C81*%
X232000000Y-156350000D03*
X232000000Y-152750000D03*
%TD*%
D41*
%TO.C,ZD28*%
X232200000Y-103000000D03*
X235500000Y-103000000D03*
%TD*%
D14*
%TO.C,R88*%
X244975000Y-144402500D03*
X244975000Y-146402500D03*
%TD*%
D19*
%TO.C,C4*%
X173750000Y-77855000D03*
X173750000Y-78720000D03*
%TD*%
D14*
%TO.C,R5*%
X188000000Y-92250000D03*
X188000000Y-94250000D03*
%TD*%
D24*
%TO.C,D61*%
X232750000Y-55500000D03*
X232750000Y-53750000D03*
%TD*%
D27*
%TO.C,D51*%
X250700000Y-77500000D03*
X250700000Y-81000000D03*
%TD*%
D21*
%TO.C,R46*%
X238500000Y-50000000D03*
X238500000Y-48000000D03*
%TD*%
D20*
%TO.C,R36*%
X254750000Y-95500000D03*
X252750000Y-95500000D03*
%TD*%
D43*
%TO.C,Q3*%
X221000000Y-58000000D03*
X219100000Y-58000000D03*
X220050000Y-59875000D03*
%TD*%
D20*
%TO.C,R125*%
X234500000Y-109500000D03*
X232500000Y-109500000D03*
%TD*%
D22*
%TO.C,D13*%
X240000000Y-137250000D03*
X240000000Y-133750000D03*
%TD*%
D23*
%TO.C,C5*%
X175500000Y-79400000D03*
X175500000Y-77325000D03*
%TD*%
D16*
%TO.C,R94*%
X204500000Y-60500000D03*
X206500000Y-60500000D03*
%TD*%
D44*
%TO.C,SW6*%
X196600000Y-45835000D03*
X196600000Y-52565000D03*
%TD*%
D45*
%TO.C,U13*%
X253150000Y-144450000D03*
X253150000Y-147500000D03*
X256500000Y-144450000D03*
X256500000Y-147500000D03*
D46*
X248525000Y-143695000D03*
X248525000Y-148255000D03*
%TD*%
D31*
%TO.C,ZD35*%
X245475000Y-148652500D03*
X241975000Y-148652500D03*
%TD*%
D23*
%TO.C,C13*%
X244000000Y-81037500D03*
X244000000Y-78962500D03*
%TD*%
D24*
%TO.C,D58*%
X197000000Y-101250000D03*
X197000000Y-99500000D03*
%TD*%
D32*
%TO.C,ZD19*%
X258640000Y-66982500D03*
X258640000Y-70282500D03*
%TD*%
D37*
%TO.C,R49*%
X219000000Y-100000000D03*
X219000000Y-106100000D03*
%TD*%
D14*
%TO.C,R91*%
X203500000Y-99500000D03*
X203500000Y-101500000D03*
%TD*%
D31*
%TO.C,D5*%
X236250000Y-50250000D03*
X232750000Y-50250000D03*
%TD*%
D14*
%TO.C,R15*%
X223250000Y-59500000D03*
X223250000Y-61500000D03*
%TD*%
D26*
%TO.C,ZD7*%
X243975000Y-140652500D03*
X247475000Y-140652500D03*
%TD*%
D22*
%TO.C,D14*%
X175250000Y-131750000D03*
X175250000Y-128250000D03*
%TD*%
D47*
%TO.C,C68*%
X180962500Y-127250000D03*
X183037500Y-127250000D03*
%TD*%
D14*
%TO.C,R39*%
X258750000Y-91250000D03*
X258750000Y-93250000D03*
%TD*%
D23*
%TO.C,C13*%
X236750000Y-80825000D03*
X236750000Y-78750000D03*
%TD*%
D22*
%TO.C,D33*%
X240500000Y-79250000D03*
X240500000Y-75750000D03*
%TD*%
D14*
%TO.C,R116*%
X181200000Y-78100000D03*
X181200000Y-80100000D03*
%TD*%
D23*
%TO.C,C64*%
X195500000Y-155750000D03*
X195500000Y-153675000D03*
%TD*%
D22*
%TO.C,D52*%
X179200000Y-78100000D03*
X179200000Y-74600000D03*
%TD*%
D24*
%TO.C,D46*%
X219000000Y-51500000D03*
X219000000Y-49750000D03*
%TD*%
D48*
%TO.C,Q2*%
X191522500Y-91570000D03*
X191522500Y-93470000D03*
X193397500Y-92520000D03*
%TD*%
D21*
%TO.C,R90*%
X207500000Y-106000000D03*
X207500000Y-104000000D03*
%TD*%
D11*
%TO.C,ZD29*%
X234000000Y-61000000D03*
X234000000Y-57700000D03*
%TD*%
D14*
%TO.C,R37*%
X242937500Y-92450000D03*
X242937500Y-94450000D03*
%TD*%
D22*
%TO.C,D42*%
X216500000Y-60500000D03*
X216500000Y-57000000D03*
%TD*%
D13*
%TO.C,SW3*%
X190250000Y-145250000D03*
X183520000Y-145250000D03*
%TD*%
D41*
%TO.C,ZD27*%
X232250000Y-106750000D03*
X235550000Y-106750000D03*
%TD*%
D14*
%TO.C,R2*%
X182500000Y-91000000D03*
X182500000Y-93000000D03*
%TD*%
D21*
%TO.C,R14*%
X221000000Y-51500000D03*
X221000000Y-49500000D03*
%TD*%
%TO.C,R127*%
X231250000Y-60000000D03*
X231250000Y-58000000D03*
%TD*%
D24*
%TO.C,D65*%
X195560000Y-58750000D03*
X195560000Y-57000000D03*
%TD*%
D30*
%TO.C,U7*%
X224965000Y-94375000D03*
X226235000Y-94375000D03*
X227505000Y-94375000D03*
X228775000Y-94375000D03*
X230045000Y-94375000D03*
X231315000Y-94375000D03*
X232585000Y-94375000D03*
%TD*%
D16*
%TO.C,R43*%
X232000000Y-98500000D03*
X234000000Y-98500000D03*
%TD*%
D27*
%TO.C,D34*%
X240500000Y-80500000D03*
X240500000Y-84000000D03*
%TD*%
D41*
%TO.C,ZD15*%
X249000000Y-93250000D03*
X252300000Y-93250000D03*
%TD*%
D49*
%TO.C,SW5*%
X239270000Y-89500000D03*
X246000000Y-89500000D03*
%TD*%
D27*
%TO.C,ZD10*%
X256500000Y-137250000D03*
X256500000Y-140750000D03*
%TD*%
D20*
%TO.C,R75*%
X262250000Y-144750000D03*
X260250000Y-144750000D03*
%TD*%
D13*
%TO.C,SW4*%
X190250000Y-131750000D03*
X183520000Y-131750000D03*
%TD*%
D14*
%TO.C,R120*%
X211500000Y-102500000D03*
X211500000Y-104500000D03*
%TD*%
D30*
%TO.C,U3*%
X207560000Y-65340000D03*
X206290000Y-65340000D03*
X205020000Y-65340000D03*
X203750000Y-65340000D03*
X202480000Y-65340000D03*
X201210000Y-65340000D03*
X199940000Y-65340000D03*
%TD*%
D17*
%TO.C,C51*%
X235250000Y-94750000D03*
X235250000Y-96825000D03*
%TD*%
D26*
%TO.C,D4*%
X256250000Y-109250000D03*
X259750000Y-109250000D03*
%TD*%
D29*
%TO.C,C66*%
X259000000Y-151500000D03*
X256925000Y-151500000D03*
%TD*%
D22*
%TO.C,ZD12*%
X242750000Y-146500000D03*
X242750000Y-143000000D03*
%TD*%
D30*
%TO.C,U8*%
X232585000Y-65265000D03*
X231315000Y-65265000D03*
X230045000Y-65265000D03*
X228775000Y-65265000D03*
X227505000Y-65265000D03*
X226235000Y-65265000D03*
X224965000Y-65265000D03*
%TD*%
D11*
%TO.C,ZD25*%
X203500000Y-58550000D03*
X203500000Y-55250000D03*
%TD*%
D23*
%TO.C,C16*%
X209500000Y-97825000D03*
X209500000Y-95750000D03*
%TD*%
D20*
%TO.C,C34*%
X224500000Y-108500000D03*
X222500000Y-108500000D03*
%TD*%
D48*
%TO.C,Q6*%
X245562500Y-93300000D03*
X245562500Y-95200000D03*
X247437500Y-94250000D03*
%TD*%
D21*
%TO.C,R86*%
X195750000Y-143500000D03*
X195750000Y-141500000D03*
%TD*%
D14*
%TO.C,R13*%
X219000000Y-53500000D03*
X219000000Y-55500000D03*
%TD*%
D20*
%TO.C,C32*%
X236200000Y-45200000D03*
X234200000Y-45200000D03*
%TD*%
D22*
%TO.C,D41*%
X223000000Y-98250000D03*
X223000000Y-94750000D03*
%TD*%
D24*
%TO.C,D64*%
X206250000Y-58250000D03*
X206250000Y-56500000D03*
%TD*%
D50*
%TO.C,F4*%
X245600000Y-151750000D03*
X250000000Y-151750000D03*
%TD*%
D20*
%TO.C,C73*%
X251725000Y-140652500D03*
X249725000Y-140652500D03*
%TD*%
D32*
%TO.C,ZD24*%
X198500000Y-104000000D03*
X198500000Y-107300000D03*
%TD*%
D16*
%TO.C,R124*%
X232000000Y-100500000D03*
X234000000Y-100500000D03*
%TD*%
D14*
%TO.C,R93*%
X193350000Y-56092500D03*
X193350000Y-58092500D03*
%TD*%
D22*
%TO.C,D35*%
X192750000Y-79750000D03*
X192750000Y-76250000D03*
%TD*%
D16*
%TO.C,R35*%
X239000000Y-92750000D03*
X241000000Y-92750000D03*
%TD*%
D31*
%TO.C,D12*%
X266750000Y-144750000D03*
X263250000Y-144750000D03*
%TD*%
D21*
%TO.C,R119*%
X214500000Y-104500000D03*
X214500000Y-102500000D03*
%TD*%
%TO.C,R84*%
X196000000Y-138250000D03*
X196000000Y-136250000D03*
%TD*%
%TO.C,R121*%
X196000000Y-106500000D03*
X196000000Y-104500000D03*
%TD*%
D27*
%TO.C,D36*%
X190500000Y-78000000D03*
X190500000Y-81500000D03*
%TD*%
D51*
%TO.C,D48*%
X213625000Y-107000000D03*
X211875000Y-107000000D03*
%TD*%
D16*
%TO.C,R76*%
X177250000Y-128250000D03*
X179250000Y-128250000D03*
%TD*%
D28*
%TO.C,D59*%
X206250000Y-101500000D03*
X208000000Y-101500000D03*
%TD*%
D21*
%TO.C,R98*%
X226000000Y-101500000D03*
X226000000Y-99500000D03*
%TD*%
D48*
%TO.C,Q5*%
X254500000Y-91850000D03*
X254500000Y-93750000D03*
X256375000Y-92800000D03*
%TD*%
D12*
%TO.C,D60*%
X238900000Y-58350000D03*
X238900000Y-60100000D03*
%TD*%
D52*
%TO.C,RV2*%
X239600000Y-104250000D03*
D53*
X242500000Y-105500000D03*
D52*
X239600000Y-106750000D03*
%TD*%
D21*
%TO.C,R123*%
X199770000Y-56940000D03*
X199770000Y-54940000D03*
%TD*%
D20*
%TO.C,C30*%
X236200000Y-42100000D03*
X234200000Y-42100000D03*
%TD*%
D21*
%TO.C,R38*%
X248750000Y-98000000D03*
X248750000Y-96000000D03*
%TD*%
%TO.C,R50*%
X225250000Y-60250000D03*
X225250000Y-58250000D03*
%TD*%
%TO.C,R56*%
X228250000Y-60250000D03*
X228250000Y-58250000D03*
%TD*%
%TO.C,R97*%
X228250000Y-101500000D03*
X228250000Y-99500000D03*
%TD*%
D44*
%TO.C,SW2*%
X174500000Y-134385000D03*
X174500000Y-141115000D03*
%TD*%
D16*
%TO.C,R17*%
X187800000Y-48400000D03*
X189800000Y-48400000D03*
%TD*%
%TO.C,R65*%
X171750000Y-103750000D03*
X173750000Y-103750000D03*
%TD*%
D54*
%TO.C,IC1*%
X176745100Y-43999998D03*
X176745100Y-44649999D03*
X176745100Y-45299997D03*
X176745100Y-45949999D03*
X176745100Y-46599997D03*
X176745100Y-47249996D03*
X176745100Y-47899997D03*
X176745100Y-48549996D03*
X176745100Y-49199997D03*
X176745100Y-49849996D03*
X184200000Y-49849998D03*
X184200000Y-49200000D03*
X184200000Y-48549999D03*
X184200000Y-47900000D03*
X184200000Y-47249999D03*
X184200000Y-46600000D03*
X184200000Y-45949999D03*
X184200000Y-45300000D03*
X184200000Y-44649999D03*
X184200000Y-44000000D03*
%TD*%
D20*
%TO.C,R80*%
X197000000Y-134000000D03*
X195000000Y-134000000D03*
%TD*%
D21*
%TO.C,R104*%
X240400000Y-42000000D03*
X240400000Y-40000000D03*
%TD*%
D20*
%TO.C,C38*%
X181372550Y-41700000D03*
X179372550Y-41700000D03*
%TD*%
%TO.C,R102*%
X242000000Y-140750000D03*
X240000000Y-140750000D03*
%TD*%
D22*
%TO.C,ZD2*%
X170970000Y-47450000D03*
X170970000Y-43950000D03*
%TD*%
D17*
%TO.C,C95*%
X238000000Y-138675000D03*
X238000000Y-140750000D03*
%TD*%
D21*
%TO.C,C86*%
X242200000Y-46200000D03*
X242200000Y-44200000D03*
%TD*%
D55*
%TO.C,U12*%
X244855000Y-47425000D03*
X247905000Y-47425000D03*
X244855000Y-50775000D03*
X247905000Y-50775000D03*
D56*
X248660000Y-42800000D03*
X244100000Y-42800000D03*
%TD*%
D12*
%TO.C,D2*%
X251900000Y-44600000D03*
X251900000Y-46350000D03*
%TD*%
D21*
%TO.C,R62*%
X171980000Y-66050000D03*
X171980000Y-64050000D03*
%TD*%
D16*
%TO.C,R106*%
X251172500Y-41700000D03*
X253172500Y-41700000D03*
%TD*%
%TO.C,C84*%
X247600000Y-40100000D03*
X249600000Y-40100000D03*
%TD*%
D14*
%TO.C,R19*%
X193990000Y-52370000D03*
X193990000Y-54370000D03*
%TD*%
D57*
%TO.C,R20*%
X212500000Y-60100000D03*
X212500000Y-54000000D03*
%TD*%
D23*
%TO.C,C14*%
X216500000Y-55325000D03*
X216500000Y-53250000D03*
%TD*%
D57*
%TO.C,R18*%
X209420000Y-60100000D03*
X209420000Y-54000000D03*
%TD*%
D58*
%TO.C,RV1*%
X220980000Y-44010000D03*
D59*
X218080000Y-42760000D03*
D58*
X220980000Y-41510000D03*
%TD*%
D60*
%TO.C,U5*%
X230150000Y-46900000D03*
X230150000Y-44600000D03*
D61*
X223850000Y-44600000D03*
D60*
X230150000Y-42300000D03*
%TD*%
M02*
