%TF.GenerationSoftware,KiCad,Pcbnew,9.0.2*%
%TF.CreationDate,2025-07-24T15:49:36+03:00*%
%TF.ProjectId,SBC,5342432e-6b69-4636-9164-5f7063625858,rev?*%
%TF.SameCoordinates,Original*%
%TF.FileFunction,Copper,L2,Bot*%
%TF.FilePolarity,Positive*%
%FSLAX46Y46*%
G04 Gerber Fmt 4.6, Leading zero omitted, Abs format (unit mm)*
G04 Created by KiCad (PCBNEW 9.0.2) date 2025-07-24 15:49:36*
%MOMM*%
%LPD*%
G01*
G04 APERTURE LIST*
G04 Aperture macros list*
%AMRoundRect*
0 Rectangle with rounded corners*
0 $1 Rounding radius*
0 $2 $3 $4 $5 $6 $7 $8 $9 X,Y pos of 4 corners*
0 Add a 4 corners polygon primitive as box body*
4,1,4,$2,$3,$4,$5,$6,$7,$8,$9,$2,$3,0*
0 Add four circle primitives for the rounded corners*
1,1,$1+$1,$2,$3*
1,1,$1+$1,$4,$5*
1,1,$1+$1,$6,$7*
1,1,$1+$1,$8,$9*
0 Add four rect primitives between the rounded corners*
20,1,$1+$1,$2,$3,$4,$5,0*
20,1,$1+$1,$4,$5,$6,$7,0*
20,1,$1+$1,$6,$7,$8,$9,0*
20,1,$1+$1,$8,$9,$2,$3,0*%
G04 Aperture macros list end*
%TA.AperFunction,SMDPad,CuDef*%
%ADD10RoundRect,0.225000X0.225000X0.375000X-0.225000X0.375000X-0.225000X-0.375000X0.225000X-0.375000X0*%
%TD*%
%TA.AperFunction,SMDPad,CuDef*%
%ADD11RoundRect,0.250000X0.350000X0.450000X-0.350000X0.450000X-0.350000X-0.450000X0.350000X-0.450000X0*%
%TD*%
%TA.AperFunction,SMDPad,CuDef*%
%ADD12RoundRect,0.225000X-0.375000X0.225000X-0.375000X-0.225000X0.375000X-0.225000X0.375000X0.225000X0*%
%TD*%
%TA.AperFunction,ComponentPad*%
%ADD13R,1.370000X1.370000*%
%TD*%
%TA.AperFunction,ComponentPad*%
%ADD14C,1.370000*%
%TD*%
%TA.AperFunction,ComponentPad*%
%ADD15R,2.000000X1.905000*%
%TD*%
%TA.AperFunction,ComponentPad*%
%ADD16O,2.000000X1.905000*%
%TD*%
%TA.AperFunction,SMDPad,CuDef*%
%ADD17RoundRect,0.250000X0.600000X-0.400000X0.600000X0.400000X-0.600000X0.400000X-0.600000X-0.400000X0*%
%TD*%
%TA.AperFunction,ComponentPad*%
%ADD18RoundRect,0.250000X-0.550000X-0.550000X0.550000X-0.550000X0.550000X0.550000X-0.550000X0.550000X0*%
%TD*%
%TA.AperFunction,ComponentPad*%
%ADD19C,1.600000*%
%TD*%
%TA.AperFunction,ComponentPad*%
%ADD20C,1.508000*%
%TD*%
%TA.AperFunction,ComponentPad*%
%ADD21R,1.508000X1.508000*%
%TD*%
%TA.AperFunction,SMDPad,CuDef*%
%ADD22RoundRect,0.250000X0.337500X0.475000X-0.337500X0.475000X-0.337500X-0.475000X0.337500X-0.475000X0*%
%TD*%
%TA.AperFunction,SMDPad,CuDef*%
%ADD23RoundRect,0.100000X-0.217500X-0.100000X0.217500X-0.100000X0.217500X0.100000X-0.217500X0.100000X0*%
%TD*%
%TA.AperFunction,SMDPad,CuDef*%
%ADD24RoundRect,0.250000X-0.475000X0.337500X-0.475000X-0.337500X0.475000X-0.337500X0.475000X0.337500X0*%
%TD*%
%TA.AperFunction,ComponentPad*%
%ADD25C,2.000000*%
%TD*%
%TA.AperFunction,ComponentPad*%
%ADD26R,2.000000X2.000000*%
%TD*%
%TA.AperFunction,SMDPad,CuDef*%
%ADD27RoundRect,0.250000X0.475000X-0.337500X0.475000X0.337500X-0.475000X0.337500X-0.475000X-0.337500X0*%
%TD*%
%TA.AperFunction,SMDPad,CuDef*%
%ADD28RoundRect,0.250000X-0.450000X0.350000X-0.450000X-0.350000X0.450000X-0.350000X0.450000X0.350000X0*%
%TD*%
%TA.AperFunction,SMDPad,CuDef*%
%ADD29RoundRect,0.250000X-0.400000X-0.600000X0.400000X-0.600000X0.400000X0.600000X-0.400000X0.600000X0*%
%TD*%
%TA.AperFunction,SMDPad,CuDef*%
%ADD30RoundRect,0.250000X0.450000X-0.350000X0.450000X0.350000X-0.450000X0.350000X-0.450000X-0.350000X0*%
%TD*%
%TA.AperFunction,ComponentPad*%
%ADD31RoundRect,0.250000X-0.550000X0.550000X-0.550000X-0.550000X0.550000X-0.550000X0.550000X0.550000X0*%
%TD*%
%TA.AperFunction,ComponentPad*%
%ADD32C,1.803400*%
%TD*%
%TA.AperFunction,ComponentPad*%
%ADD33R,2.000000X4.600000*%
%TD*%
%TA.AperFunction,ComponentPad*%
%ADD34O,2.000000X4.200000*%
%TD*%
%TA.AperFunction,ComponentPad*%
%ADD35O,4.200000X2.000000*%
%TD*%
%TA.AperFunction,ComponentPad*%
%ADD36R,1.650000X1.650000*%
%TD*%
%TA.AperFunction,ComponentPad*%
%ADD37C,1.650000*%
%TD*%
%TA.AperFunction,ComponentPad*%
%ADD38RoundRect,0.250000X0.350000X-0.350000X0.350000X0.350000X-0.350000X0.350000X-0.350000X-0.350000X0*%
%TD*%
%TA.AperFunction,ComponentPad*%
%ADD39C,1.200000*%
%TD*%
%TA.AperFunction,ComponentPad*%
%ADD40R,1.700000X1.700000*%
%TD*%
%TA.AperFunction,ComponentPad*%
%ADD41C,1.700000*%
%TD*%
%TA.AperFunction,ComponentPad*%
%ADD42C,6.000000*%
%TD*%
%TA.AperFunction,ComponentPad*%
%ADD43R,6.000000X6.000000*%
%TD*%
%TA.AperFunction,ComponentPad*%
%ADD44R,1.778000X1.778000*%
%TD*%
%TA.AperFunction,ComponentPad*%
%ADD45C,1.778000*%
%TD*%
%TA.AperFunction,ComponentPad*%
%ADD46C,5.080000*%
%TD*%
%TA.AperFunction,ComponentPad*%
%ADD47RoundRect,0.250000X0.550000X0.550000X-0.550000X0.550000X-0.550000X-0.550000X0.550000X-0.550000X0*%
%TD*%
%TA.AperFunction,SMDPad,CuDef*%
%ADD48RoundRect,0.100000X-0.100000X0.217500X-0.100000X-0.217500X0.100000X-0.217500X0.100000X0.217500X0*%
%TD*%
%TA.AperFunction,ComponentPad*%
%ADD49RoundRect,0.250000X0.550000X-0.550000X0.550000X0.550000X-0.550000X0.550000X-0.550000X-0.550000X0*%
%TD*%
%TA.AperFunction,SMDPad,CuDef*%
%ADD50RoundRect,0.250000X-0.350000X-0.450000X0.350000X-0.450000X0.350000X0.450000X-0.350000X0.450000X0*%
%TD*%
%TA.AperFunction,SMDPad,CuDef*%
%ADD51RoundRect,0.250000X-0.337500X-0.475000X0.337500X-0.475000X0.337500X0.475000X-0.337500X0.475000X0*%
%TD*%
%TA.AperFunction,SMDPad,CuDef*%
%ADD52RoundRect,0.237500X-0.287500X-0.237500X0.287500X-0.237500X0.287500X0.237500X-0.287500X0.237500X0*%
%TD*%
%TA.AperFunction,SMDPad,CuDef*%
%ADD53RoundRect,0.200000X0.200000X-0.750000X0.200000X0.750000X-0.200000X0.750000X-0.200000X-0.750000X0*%
%TD*%
%TA.AperFunction,SMDPad,CuDef*%
%ADD54RoundRect,0.250000X-0.600000X0.400000X-0.600000X-0.400000X0.600000X-0.400000X0.600000X0.400000X0*%
%TD*%
%TA.AperFunction,SMDPad,CuDef*%
%ADD55RoundRect,0.237500X0.287500X0.237500X-0.287500X0.237500X-0.287500X-0.237500X0.287500X-0.237500X0*%
%TD*%
%TA.AperFunction,SMDPad,CuDef*%
%ADD56RoundRect,0.100000X0.100000X-0.217500X0.100000X0.217500X-0.100000X0.217500X-0.100000X-0.217500X0*%
%TD*%
%TA.AperFunction,SMDPad,CuDef*%
%ADD57RoundRect,0.225000X0.375000X-0.225000X0.375000X0.225000X-0.375000X0.225000X-0.375000X-0.225000X0*%
%TD*%
%TA.AperFunction,SMDPad,CuDef*%
%ADD58RoundRect,0.250000X-0.800000X0.450000X-0.800000X-0.450000X0.800000X-0.450000X0.800000X0.450000X0*%
%TD*%
%TA.AperFunction,SMDPad,CuDef*%
%ADD59RoundRect,0.100000X0.217500X0.100000X-0.217500X0.100000X-0.217500X-0.100000X0.217500X-0.100000X0*%
%TD*%
%TA.AperFunction,SMDPad,CuDef*%
%ADD60RoundRect,0.150000X0.825000X0.150000X-0.825000X0.150000X-0.825000X-0.150000X0.825000X-0.150000X0*%
%TD*%
%TA.AperFunction,SMDPad,CuDef*%
%ADD61RoundRect,0.150000X0.150000X-0.587500X0.150000X0.587500X-0.150000X0.587500X-0.150000X-0.587500X0*%
%TD*%
%TA.AperFunction,SMDPad,CuDef*%
%ADD62RoundRect,0.237500X-0.237500X0.287500X-0.237500X-0.287500X0.237500X-0.287500X0.237500X0.287500X0*%
%TD*%
%TA.AperFunction,ViaPad*%
%ADD63C,1.700000*%
%TD*%
%TA.AperFunction,ViaPad*%
%ADD64C,0.600000*%
%TD*%
%TA.AperFunction,Conductor*%
%ADD65C,0.800000*%
%TD*%
%TA.AperFunction,Conductor*%
%ADD66C,0.400000*%
%TD*%
%TA.AperFunction,Conductor*%
%ADD67C,0.500000*%
%TD*%
%TA.AperFunction,Conductor*%
%ADD68C,3.000000*%
%TD*%
%TA.AperFunction,Conductor*%
%ADD69C,1.000000*%
%TD*%
%TA.AperFunction,Conductor*%
%ADD70C,4.000000*%
%TD*%
%TA.AperFunction,Conductor*%
%ADD71C,1.200000*%
%TD*%
G04 APERTURE END LIST*
D10*
%TO.P,ZD22,1,K*%
%TO.N,A2*%
X167510000Y-63770000D03*
%TO.P,ZD22,2,A*%
%TO.N,GND*%
X164210000Y-63770000D03*
%TD*%
%TO.P,ZD21,1,K*%
%TO.N,B2*%
X170970000Y-58600000D03*
%TO.P,ZD21,2,A*%
%TO.N,GND*%
X167670000Y-58600000D03*
%TD*%
D11*
%TO.P,R60,2*%
%TO.N,B1*%
X261760000Y-65130000D03*
%TO.P,R60,1*%
%TO.N,Net-(C41-Pad1)*%
X263760000Y-65130000D03*
%TD*%
D12*
%TO.P,ZD20,2,A*%
%TO.N,GND*%
X261390000Y-70740000D03*
%TO.P,ZD20,1,K*%
%TO.N,A1*%
X261390000Y-67440000D03*
%TD*%
D13*
%TO.P,J1,1*%
%TO.N,Net-(C2-Pad1)*%
X189230000Y-65310000D03*
D14*
%TO.P,J1,2*%
%TO.N,Net-(U1-RC)*%
X189230000Y-62770000D03*
%TO.P,J1,3*%
%TO.N,Net-(J1-Pad3)*%
X189230000Y-60230000D03*
%TD*%
D15*
%TO.P,U14,1,IN*%
%TO.N,Net-(U14-IN)*%
X261911906Y-48375000D03*
D16*
%TO.P,U14,2,GND*%
%TO.N,GND*%
X261911906Y-45835000D03*
%TO.P,U14,3,OUT*%
%TO.N,Net-(D25-A)*%
X261911906Y-43295000D03*
%TD*%
D17*
%TO.P,ZD9,1,K*%
%TO.N,Net-(U14-IN)*%
X259690000Y-48720000D03*
%TO.P,ZD9,2,A*%
%TO.N,GND*%
X259690000Y-45220000D03*
%TD*%
D18*
%TO.P,C60,1*%
%TO.N,HV*%
X245930000Y-64450000D03*
D19*
%TO.P,C60,2*%
%TO.N,GND*%
X250930000Y-64450000D03*
%TD*%
D20*
%TO.P,J2,5*%
%TO.N,PGC*%
X195500000Y-41400000D03*
%TO.P,J2,4*%
%TO.N,PGD*%
X193000000Y-41400000D03*
%TO.P,J2,3*%
%TO.N,GND*%
X190500000Y-41400000D03*
%TO.P,J2,2*%
%TO.N,Net-(D6-A)*%
X188000000Y-41400000D03*
D21*
%TO.P,J2,1*%
%TO.N,Mcler*%
X185500000Y-41400000D03*
%TD*%
D22*
%TO.P,C53,2*%
%TO.N,GND*%
X173250000Y-149750000D03*
%TO.P,C53,1*%
%TO.N,3.3v*%
X175325000Y-149750000D03*
%TD*%
D23*
%TO.P,C47,1*%
%TO.N,3.3v*%
X239435000Y-134250000D03*
%TO.P,C47,2*%
%TO.N,GND*%
X240250000Y-134250000D03*
%TD*%
D24*
%TO.P,C65,2*%
%TO.N,Net-(U11-3.3V)*%
X232000000Y-138825000D03*
%TO.P,C65,1*%
%TO.N,GND*%
X232000000Y-136750000D03*
%TD*%
D25*
%TO.P,U10,30,VIN*%
%TO.N,5v+*%
X202100000Y-155940000D03*
%TO.P,U10,29,GND*%
%TO.N,GND*%
X202100000Y-153400000D03*
%TO.P,U10,28,D13*%
%TO.N,FRQ*%
X202100000Y-150860000D03*
%TO.P,U10,27,D12*%
%TO.N,careuu*%
X202100000Y-148320000D03*
%TO.P,U10,26,D14*%
%TO.N,Mcler*%
X202100000Y-145780000D03*
%TO.P,U10,25,D27*%
%TO.N,IRQ*%
X202100000Y-143240000D03*
%TO.P,U10,24,D26*%
%TO.N,unconnected-(U10-D26-Pad24)*%
X202100000Y-140700000D03*
%TO.P,U10,23,D25*%
%TO.N,unconnected-(U10-D25-Pad23)*%
X202100000Y-138160000D03*
%TO.P,U10,22,D33*%
%TO.N,SW2*%
X202100000Y-135620000D03*
%TO.P,U10,21,D32*%
%TO.N,SW1*%
X202100000Y-133080000D03*
%TO.P,U10,20,D35*%
%TO.N,SW3*%
X202100000Y-130540000D03*
%TO.P,U10,19,D34*%
%TO.N,SW4*%
X202100000Y-128000000D03*
%TO.P,U10,18,VN*%
%TO.N,unconnected-(U10-VN-Pad18)*%
X202100000Y-125460000D03*
%TO.P,U10,17,VP*%
%TO.N,unconnected-(U10-VP-Pad17)*%
X202100000Y-122920000D03*
%TO.P,U10,16,EN*%
%TO.N,unconnected-(U10-EN-Pad16)*%
X202100000Y-120380000D03*
%TO.P,U10,15,D23*%
%TO.N,Data_ready*%
X227500000Y-120380000D03*
%TO.P,U10,14,D22*%
%TO.N,SCL*%
X227500000Y-122920000D03*
%TO.P,U10,13,TX0*%
%TO.N,care0*%
X227500000Y-125460000D03*
%TO.P,U10,12,RX0*%
X227500000Y-128000000D03*
%TO.P,U10,11,D21*%
%TO.N,SDA*%
X227500000Y-130540000D03*
%TO.P,U10,10,D19*%
%TO.N,int_a*%
X227500000Y-133080000D03*
%TO.P,U10,9,D18*%
%TO.N,FSYC*%
X227500000Y-135620000D03*
%TO.P,U10,8,D5*%
%TO.N,detect*%
X227500000Y-138160000D03*
%TO.P,U10,7,TX2*%
%TO.N,SDA2*%
X227500000Y-140700000D03*
%TO.P,U10,6,RX2*%
%TO.N,SCL2*%
X227500000Y-143240000D03*
%TO.P,U10,5,D4*%
%TO.N,buzz*%
X227500000Y-145780000D03*
%TO.P,U10,4,D2*%
%TO.N,carei*%
X227500000Y-148320000D03*
%TO.P,U10,3,D15*%
%TO.N,carett*%
X227500000Y-150860000D03*
%TO.P,U10,2,GND*%
%TO.N,GND*%
X227500000Y-153400000D03*
D26*
%TO.P,U10,1,3V3*%
%TO.N,Net-(D16-A1)*%
X227500000Y-155940000D03*
%TD*%
D27*
%TO.P,C50,2*%
%TO.N,GND*%
X175250000Y-102962500D03*
%TO.P,C50,1*%
%TO.N,3.3v*%
X175250000Y-105037500D03*
%TD*%
D28*
%TO.P,C29,2*%
%TO.N,5v+*%
X177750000Y-105000000D03*
%TO.P,C29,1*%
%TO.N,GND*%
X177750000Y-103000000D03*
%TD*%
%TO.P,R21,1*%
%TO.N,error 2*%
X209500000Y-95750000D03*
%TO.P,R21,2*%
%TO.N,GND*%
X209500000Y-97750000D03*
%TD*%
D29*
%TO.P,D45,1,K*%
%TO.N,Net-(D45-K)*%
X255750000Y-118500000D03*
%TO.P,D45,2,A*%
%TO.N,5v+*%
X259250000Y-118500000D03*
%TD*%
D30*
%TO.P,R114,2*%
%TO.N,Net-(D45-K)*%
X255750000Y-120500000D03*
%TO.P,R114,1*%
%TO.N,buzzing_vcc*%
X255750000Y-122500000D03*
%TD*%
D11*
%TO.P,C35,1*%
%TO.N,3.3v*%
X267540000Y-57680000D03*
%TO.P,C35,2*%
%TO.N,GND*%
X265540000Y-57680000D03*
%TD*%
D31*
%TO.P,C6,1*%
%TO.N,HV*%
X236500000Y-145750000D03*
D19*
%TO.P,C6,2*%
%TO.N,GND*%
X236500000Y-150750000D03*
%TD*%
D32*
%TO.P,J7,1*%
%TO.N,GND*%
X166250000Y-55750000D03*
%TO.P,J7,2*%
%TO.N,5v+*%
X166250000Y-60750000D03*
%TO.P,J7,3*%
%TO.N,Net-(C43-Pad1)*%
X166250000Y-65750000D03*
%TO.P,J7,4*%
%TO.N,Net-(C44-Pad1)*%
X166250000Y-70750001D03*
%TO.P,J7,5*%
%TO.N,M2_L*%
X166250000Y-75750001D03*
%TO.P,J7,6*%
%TO.N,M2_R*%
X166250000Y-80750001D03*
%TD*%
D33*
%TO.P,J15,1*%
%TO.N,HV*%
X261900000Y-153150000D03*
D34*
%TO.P,J15,2*%
%TO.N,GND*%
X268200000Y-153150000D03*
D35*
%TO.P,J15,3*%
%TO.N,N/C*%
X264800000Y-148350000D03*
%TD*%
D36*
%TO.P,J11,1,Pin_1*%
%TO.N,Net-(J11-Pin_1)*%
X266250000Y-126540000D03*
D37*
%TO.P,J11,2,Pin_2*%
%TO.N,buzzing_gnd*%
X266250000Y-121460000D03*
%TD*%
D31*
%TO.P,C88,1*%
%TO.N,9v+*%
X254250000Y-45340000D03*
D19*
%TO.P,C88,2*%
%TO.N,GND*%
X254250000Y-50340000D03*
%TD*%
D38*
%TO.P,C91,1*%
%TO.N,M2_R*%
X186500000Y-79250000D03*
D39*
%TO.P,C91,2*%
%TO.N,M2_L*%
X186500000Y-77750000D03*
%TD*%
D40*
%TO.P,U11,1,VCC*%
%TO.N,Net-(U11-VCC)*%
X234750000Y-141490000D03*
D41*
%TO.P,U11,2,3.3V*%
%TO.N,Net-(U11-3.3V)*%
X234750000Y-138950000D03*
%TO.P,U11,3,GND*%
%TO.N,GND*%
X234750000Y-136410000D03*
%TO.P,U11,4,SCL*%
%TO.N,SCL2*%
X234750000Y-133870000D03*
%TO.P,U11,5,SDA*%
%TO.N,SDA2*%
X234750000Y-131330000D03*
%TO.P,U11,6,FSSYNC*%
%TO.N,FSYC*%
X234750000Y-128790000D03*
%TO.P,U11,7,INTA*%
%TO.N,int_a*%
X234750000Y-126250000D03*
%TO.P,U11,8,DRDY*%
%TO.N,Data_ready*%
X234750000Y-123710000D03*
%TD*%
D42*
%TO.P,J6,N,NEG*%
%TO.N,GND*%
X266000000Y-100000000D03*
D43*
%TO.P,J6,P,POS*%
%TO.N,HV*%
X266000000Y-107200000D03*
%TD*%
D17*
%TO.P,D15,1,A1*%
%TO.N,5v+*%
X205100000Y-156900000D03*
%TO.P,D15,2,A2*%
%TO.N,GND*%
X205100000Y-153400000D03*
%TD*%
D36*
%TO.P,J3,1,Pin_1*%
%TO.N,HV*%
X266000000Y-92750000D03*
D37*
%TO.P,J3,2,Pin_2*%
%TO.N,GND*%
X266000000Y-87670000D03*
%TD*%
D44*
%TO.P,J10,1,1*%
%TO.N,GND*%
X183979600Y-152750000D03*
D45*
%TO.P,J10,2,2*%
%TO.N,HV*%
X181236400Y-152750000D03*
%TO.P,J10,3,3*%
%TO.N,5v+*%
X178493200Y-152750000D03*
%TO.P,J10,4,4*%
%TO.N,3.3v*%
X175750000Y-152750000D03*
%TO.P,J10,5,5*%
%TO.N,GND*%
X173006800Y-152750000D03*
%TO.P,J10,6,6*%
%TO.N,HV*%
X182608000Y-155594800D03*
%TO.P,J10,7,7*%
%TO.N,Mcler*%
X179864800Y-155594800D03*
%TO.P,J10,8,8*%
%TO.N,SCL*%
X177121600Y-155594800D03*
%TO.P,J10,9,9*%
%TO.N,SDA*%
X174378400Y-155594800D03*
D46*
%TO.P,J10,G1,G1*%
%TO.N,GND*%
X190990000Y-154172400D03*
%TO.P,J10,G2,G2*%
X165996400Y-154172400D03*
%TD*%
D47*
%TO.P,C57,1*%
%TO.N,HV*%
X178652651Y-98750000D03*
D19*
%TO.P,C57,2*%
%TO.N,GND*%
X173652651Y-98750000D03*
%TD*%
D31*
%TO.P,C54,1*%
%TO.N,HV*%
X253500000Y-101500000D03*
D19*
%TO.P,C54,2*%
%TO.N,GND*%
X253500000Y-106500000D03*
%TD*%
D38*
%TO.P,C12,1*%
%TO.N,M1_R*%
X256250000Y-80722600D03*
D39*
%TO.P,C12,2*%
%TO.N,M1_L*%
X256250000Y-79222600D03*
%TD*%
D36*
%TO.P,J14,1,Pin_1*%
%TO.N,5v block*%
X266250000Y-138790000D03*
D37*
%TO.P,J14,2,Pin_2*%
%TO.N,GND*%
X266250000Y-133710000D03*
%TD*%
D18*
%TO.P,C96,1*%
%TO.N,HV*%
X187097349Y-98000000D03*
D19*
%TO.P,C96,2*%
%TO.N,Net-(D42-K)*%
X192097349Y-98000000D03*
%TD*%
D48*
%TO.P,C45,1*%
%TO.N,HV*%
X197700000Y-66200000D03*
%TO.P,C45,2*%
%TO.N,GND*%
X197700000Y-67015000D03*
%TD*%
D32*
%TO.P,J5,1*%
%TO.N,GND*%
X266000000Y-55750000D03*
%TO.P,J5,2*%
%TO.N,5v+*%
X266000000Y-60750000D03*
%TO.P,J5,3*%
%TO.N,Net-(C41-Pad1)*%
X266000000Y-65750000D03*
%TO.P,J5,4*%
%TO.N,Net-(C42-Pad1)*%
X266000000Y-70750001D03*
%TO.P,J5,5*%
%TO.N,M1_L*%
X266000000Y-75750001D03*
%TO.P,J5,6*%
%TO.N,M1_R*%
X266000000Y-80750001D03*
%TD*%
D49*
%TO.P,C27,1*%
%TO.N,5v+*%
X245250000Y-132652651D03*
D19*
%TO.P,C27,2*%
%TO.N,GND*%
X245250000Y-127652651D03*
%TD*%
D47*
%TO.P,C23,1*%
%TO.N,HV*%
X168750000Y-94000000D03*
D19*
%TO.P,C23,2*%
%TO.N,GND*%
X163750000Y-94000000D03*
%TD*%
D40*
%TO.P,J13,1,Pin_1*%
%TO.N,GND*%
X254330000Y-157250000D03*
D41*
%TO.P,J13,2,Pin_2*%
%TO.N,detect*%
X251790000Y-157250000D03*
%TO.P,J13,3,Pin_3*%
%TO.N,FRQ*%
X249250000Y-157250000D03*
%TO.P,J13,4,Pin_4*%
%TO.N,Net-(J13-Pin_4)*%
X246710000Y-157250000D03*
%TD*%
D50*
%TO.P,R27,1*%
%TO.N,Net-(D66-K)*%
X182000000Y-88640000D03*
%TO.P,R27,2*%
%TO.N,Net-(ZD4-K)*%
X184000000Y-88640000D03*
%TD*%
%TO.P,C100,1*%
%TO.N,Net-(D42-K)*%
X200250000Y-64000000D03*
%TO.P,C100,2*%
%TO.N,HV*%
X202250000Y-64000000D03*
%TD*%
D51*
%TO.P,F7,1*%
%TO.N,5v+*%
X260925000Y-138790000D03*
%TO.P,F7,2*%
%TO.N,5v block*%
X263000000Y-138790000D03*
%TD*%
D28*
%TO.P,C40,1*%
%TO.N,Net-(D7-A)*%
X242000000Y-100000000D03*
%TO.P,C40,2*%
%TO.N,GND*%
X242000000Y-102000000D03*
%TD*%
D27*
%TO.P,C63,1*%
%TO.N,HV*%
X186250000Y-155750000D03*
%TO.P,C63,2*%
%TO.N,GND*%
X186250000Y-153675000D03*
%TD*%
D17*
%TO.P,ZD36,1,K*%
%TO.N,SCL*%
X224500000Y-122500000D03*
%TO.P,ZD36,2,A*%
%TO.N,GND*%
X224500000Y-119000000D03*
%TD*%
D30*
%TO.P,C25,1*%
%TO.N,5v+*%
X263010000Y-59200000D03*
%TO.P,C25,2*%
%TO.N,GND*%
X263010000Y-57200000D03*
%TD*%
D52*
%TO.P,D6,2,A*%
%TO.N,Net-(D6-A)*%
X186450000Y-43200000D03*
%TO.P,D6,1,K*%
%TO.N,3.3v*%
X184700000Y-43200000D03*
%TD*%
D50*
%TO.P,C92,1*%
%TO.N,Net-(C92-Pad1)*%
X231750000Y-109750000D03*
%TO.P,C92,2*%
%TO.N,GND*%
X233750000Y-109750000D03*
%TD*%
D53*
%TO.P,Q11,1,G*%
%TO.N,Net-(Q10-C)*%
X246400000Y-121750000D03*
%TO.P,Q11,2,S*%
%TO.N,GND*%
X244500000Y-121750000D03*
%TO.P,Q11,3,D*%
%TO.N,buzzing_gnd*%
X245450000Y-118750000D03*
%TD*%
D27*
%TO.P,C76,1*%
%TO.N,5v+*%
X268500000Y-137365000D03*
%TO.P,C76,2*%
%TO.N,GND*%
X268500000Y-135290000D03*
%TD*%
D10*
%TO.P,ZD34,1,K*%
%TO.N,SDA*%
X172050000Y-157750000D03*
%TO.P,ZD34,2,A*%
%TO.N,GND*%
X168750000Y-157750000D03*
%TD*%
D50*
%TO.P,C83,1*%
%TO.N,Current_limt1*%
X231750000Y-107750000D03*
%TO.P,C83,2*%
%TO.N,GND*%
X233750000Y-107750000D03*
%TD*%
D29*
%TO.P,D21,1,K*%
%TO.N,FRQ*%
X250750000Y-154750000D03*
%TO.P,D21,2,A*%
%TO.N,GND*%
X254250000Y-154750000D03*
%TD*%
D22*
%TO.P,C105,1*%
%TO.N,HV*%
X207250000Y-95500000D03*
%TO.P,C105,2*%
%TO.N,Net-(D41-K)*%
X205175000Y-95500000D03*
%TD*%
D50*
%TO.P,C20,1*%
%TO.N,GND*%
X196000000Y-95000000D03*
%TO.P,C20,2*%
%TO.N,HV*%
X198000000Y-95000000D03*
%TD*%
D54*
%TO.P,ZD31,1,K*%
%TO.N,SDA*%
X230500000Y-131250000D03*
%TO.P,ZD31,2,A*%
%TO.N,GND*%
X230500000Y-134750000D03*
%TD*%
D55*
%TO.P,D57,1,K*%
%TO.N,Net-(D57-K)*%
X240500000Y-95000000D03*
%TO.P,D57,2,A*%
%TO.N,Motor1_OFF*%
X238750000Y-95000000D03*
%TD*%
D50*
%TO.P,R118,1*%
%TO.N,kill1*%
X225500000Y-98000000D03*
%TO.P,R118,2*%
%TO.N,Net-(R118-Pad2)*%
X227500000Y-98000000D03*
%TD*%
D24*
%TO.P,C9,1*%
%TO.N,M1_L*%
X263000000Y-77750000D03*
%TO.P,C9,2*%
%TO.N,M1_R*%
X263000000Y-79825000D03*
%TD*%
D51*
%TO.P,C15,1*%
%TO.N,M1_current_sen*%
X188162500Y-45800000D03*
%TO.P,C15,2*%
%TO.N,GND*%
X190237500Y-45800000D03*
%TD*%
D17*
%TO.P,D24,1,K*%
%TO.N,detect*%
X258250000Y-158250000D03*
%TO.P,D24,2,A*%
%TO.N,GND*%
X258250000Y-154750000D03*
%TD*%
D48*
%TO.P,C18,1*%
%TO.N,HV*%
X253500000Y-103660000D03*
%TO.P,C18,2*%
%TO.N,GND*%
X253500000Y-104475000D03*
%TD*%
D50*
%TO.P,R59,1*%
%TO.N,M1_current_sen*%
X231500000Y-99000000D03*
%TO.P,R59,2*%
%TO.N,Net-(R55-Pad1)*%
X233500000Y-99000000D03*
%TD*%
D30*
%TO.P,R66,1*%
%TO.N,Net-(R66-Pad1)*%
X169500000Y-69250000D03*
%TO.P,R66,2*%
%TO.N,Net-(C43-Pad1)*%
X169500000Y-67250000D03*
%TD*%
D27*
%TO.P,C80,1*%
%TO.N,Net-(D16-A1)*%
X224750000Y-155825000D03*
%TO.P,C80,2*%
%TO.N,GND*%
X224750000Y-153750000D03*
%TD*%
D56*
%TO.P,C44,1*%
%TO.N,Net-(C44-Pad1)*%
X164500000Y-72907500D03*
%TO.P,C44,2*%
%TO.N,GND*%
X164500000Y-72092500D03*
%TD*%
D57*
%TO.P,ZD33,1,K*%
%TO.N,SCL*%
X170250000Y-155500000D03*
%TO.P,ZD33,2,A*%
%TO.N,GND*%
X170250000Y-152200000D03*
%TD*%
D27*
%TO.P,C79,1*%
%TO.N,Net-(D16-A1)*%
X222750000Y-155825000D03*
%TO.P,C79,2*%
%TO.N,GND*%
X222750000Y-153750000D03*
%TD*%
D51*
%TO.P,C101,1*%
%TO.N,HV*%
X205000000Y-65500000D03*
%TO.P,C101,2*%
%TO.N,Net-(D42-K)*%
X207075000Y-65500000D03*
%TD*%
D11*
%TO.P,R30,1*%
%TO.N,Net-(U3-SR)*%
X199750000Y-68500000D03*
%TO.P,R30,2*%
%TO.N,GND*%
X197750000Y-68500000D03*
%TD*%
D22*
%TO.P,C69,1*%
%TO.N,SW1*%
X199500000Y-133000000D03*
%TO.P,C69,2*%
%TO.N,GND*%
X197425000Y-133000000D03*
%TD*%
D10*
%TO.P,ZD18,1,K*%
%TO.N,SCL*%
X172300000Y-104500000D03*
%TO.P,ZD18,2,A*%
%TO.N,GND*%
X169000000Y-104500000D03*
%TD*%
D28*
%TO.P,R54,1*%
%TO.N,Net-(C39-Pad1)*%
X237000000Y-105000000D03*
%TO.P,R54,2*%
%TO.N,GND*%
X237000000Y-107000000D03*
%TD*%
%TO.P,R58,1*%
%TO.N,Net-(D7-A)*%
X240000000Y-100000000D03*
%TO.P,R58,2*%
%TO.N,GND*%
X240000000Y-102000000D03*
%TD*%
D17*
%TO.P,D26,1,K*%
%TO.N,HV*%
X258250000Y-105750000D03*
%TO.P,D26,2,A*%
%TO.N,Net-(D26-A)*%
X258250000Y-102250000D03*
%TD*%
%TO.P,D38,1,K*%
%TO.N,HV*%
X169250000Y-91500000D03*
%TO.P,D38,2,A*%
%TO.N,M2_R*%
X169250000Y-88000000D03*
%TD*%
D22*
%TO.P,C71,1*%
%TO.N,SW2*%
X199750000Y-136000000D03*
%TO.P,C71,2*%
%TO.N,GND*%
X197675000Y-136000000D03*
%TD*%
D17*
%TO.P,D11,1,K*%
%TO.N,buzz*%
X242500000Y-130250000D03*
%TO.P,D11,2,A*%
%TO.N,GND*%
X242500000Y-126750000D03*
%TD*%
D50*
%TO.P,R16,1*%
%TO.N,Net-(IC1-RC1)*%
X220960000Y-61970000D03*
%TO.P,R16,2*%
%TO.N,error 1*%
X222960000Y-61970000D03*
%TD*%
D51*
%TO.P,C48,1*%
%TO.N,HV*%
X180750000Y-95000000D03*
%TO.P,C48,2*%
%TO.N,GND*%
X182825000Y-95000000D03*
%TD*%
D54*
%TO.P,D10,1,K*%
%TO.N,buzzing_gnd*%
X250000000Y-118000000D03*
%TO.P,D10,2,A*%
%TO.N,Net-(D10-A)*%
X250000000Y-121500000D03*
%TD*%
D11*
%TO.P,R72,1*%
%TO.N,buzzing_vcc*%
X252250000Y-124750000D03*
%TO.P,R72,2*%
%TO.N,Net-(D10-A)*%
X250250000Y-124750000D03*
%TD*%
D22*
%TO.P,C70,1*%
%TO.N,SW4*%
X199250000Y-127500000D03*
%TO.P,C70,2*%
%TO.N,GND*%
X197175000Y-127500000D03*
%TD*%
D30*
%TO.P,C39,1*%
%TO.N,Net-(C39-Pad1)*%
X225500000Y-104500000D03*
%TO.P,C39,2*%
%TO.N,Net-(C39-Pad2)*%
X225500000Y-102500000D03*
%TD*%
D10*
%TO.P,ZD17,1,K*%
%TO.N,SDA*%
X171300000Y-102000000D03*
%TO.P,ZD17,2,A*%
%TO.N,GND*%
X168000000Y-102000000D03*
%TD*%
D58*
%TO.P,F3,1*%
%TO.N,Net-(D26-A)*%
X260750000Y-101750000D03*
%TO.P,F3,2*%
%TO.N,HV*%
X260750000Y-106150000D03*
%TD*%
D52*
%TO.P,D49,1,K*%
%TO.N,Net-(D49-K)*%
X219750000Y-101250000D03*
%TO.P,D49,2,A*%
%TO.N,kill1*%
X221500000Y-101250000D03*
%TD*%
D29*
%TO.P,D17,1,A1*%
%TO.N,5v+*%
X260000000Y-134290000D03*
%TO.P,D17,2,A2*%
%TO.N,GND*%
X263500000Y-134290000D03*
%TD*%
D11*
%TO.P,R67,1*%
%TO.N,3.3v*%
X267540000Y-72720000D03*
%TO.P,R67,2*%
%TO.N,Net-(C42-Pad1)*%
X265540000Y-72720000D03*
%TD*%
D59*
%TO.P,C41,1*%
%TO.N,Net-(C41-Pad1)*%
X264250000Y-67000000D03*
%TO.P,C41,2*%
%TO.N,GND*%
X263435000Y-67000000D03*
%TD*%
D60*
%TO.P,U9,1*%
%TO.N,Net-(R55-Pad1)*%
X234475000Y-102095000D03*
%TO.P,U9,2*%
%TO.N,Net-(C39-Pad2)*%
X234475000Y-103365000D03*
%TO.P,U9,3*%
%TO.N,Net-(C39-Pad1)*%
X234475000Y-104635000D03*
%TO.P,U9,4,VCC-*%
%TO.N,GND*%
X234475000Y-105905000D03*
%TO.P,U9,5*%
%TO.N,Current_limt1*%
X229525000Y-105905000D03*
%TO.P,U9,6*%
%TO.N,Net-(C92-Pad1)*%
X229525000Y-104635000D03*
%TO.P,U9,7*%
%TO.N,Net-(R118-Pad2)*%
X229525000Y-103365000D03*
%TO.P,U9,8,VCC+*%
%TO.N,9v+*%
X229525000Y-102095000D03*
%TD*%
D54*
%TO.P,D20,1,K*%
%TO.N,buzzing_vcc*%
X255750000Y-124750000D03*
%TO.P,D20,2,A*%
%TO.N,HV*%
X255750000Y-128250000D03*
%TD*%
D17*
%TO.P,D16,1,A1*%
%TO.N,Net-(D16-A1)*%
X231000000Y-156250000D03*
%TO.P,D16,2,A2*%
%TO.N,GND*%
X231000000Y-152750000D03*
%TD*%
D50*
%TO.P,C103,1*%
%TO.N,Net-(D41-K)*%
X200500000Y-95500000D03*
%TO.P,C103,2*%
%TO.N,HV*%
X202500000Y-95500000D03*
%TD*%
D27*
%TO.P,C5,1*%
%TO.N,M2_R*%
X169500000Y-79325000D03*
%TO.P,C5,2*%
%TO.N,M2_L*%
X169500000Y-77250000D03*
%TD*%
D29*
%TO.P,ZD3,1,K*%
%TO.N,M1_current_sen*%
X188000000Y-48200000D03*
%TO.P,ZD3,2,A*%
%TO.N,GND*%
X191500000Y-48200000D03*
%TD*%
D50*
%TO.P,C102,1*%
%TO.N,Net-(D42-K)*%
X230500000Y-93750000D03*
%TO.P,C102,2*%
%TO.N,HV*%
X232500000Y-93750000D03*
%TD*%
D29*
%TO.P,D18,1,A1*%
%TO.N,HV*%
X263500000Y-156250000D03*
%TO.P,D18,2,A2*%
%TO.N,GND*%
X267000000Y-156250000D03*
%TD*%
D11*
%TO.P,R64,1*%
%TO.N,3.3v*%
X267540000Y-63350000D03*
%TO.P,R64,2*%
%TO.N,Net-(C41-Pad1)*%
X265540000Y-63350000D03*
%TD*%
D22*
%TO.P,C104,1*%
%TO.N,HV*%
X227750000Y-94000000D03*
%TO.P,C104,2*%
%TO.N,Net-(D42-K)*%
X225675000Y-94000000D03*
%TD*%
D48*
%TO.P,C22,1*%
%TO.N,Net-(ZD4-K)*%
X189300000Y-91492500D03*
%TO.P,C22,2*%
%TO.N,GND*%
X189300000Y-92307500D03*
%TD*%
D30*
%TO.P,R101,1*%
%TO.N,3.3v*%
X237250000Y-140500000D03*
%TO.P,R101,2*%
%TO.N,Net-(U11-3.3V)*%
X237250000Y-138500000D03*
%TD*%
D17*
%TO.P,D19,1,A1*%
%TO.N,buzzing_vcc*%
X262000000Y-123500000D03*
%TO.P,D19,2,A2*%
%TO.N,buzzing_gnd*%
X262000000Y-120000000D03*
%TD*%
D51*
%TO.P,C77,1*%
%TO.N,buzzing_vcc*%
X264500000Y-123500000D03*
%TO.P,C77,2*%
%TO.N,buzzing_gnd*%
X266575000Y-123500000D03*
%TD*%
D11*
%TO.P,R117,1*%
%TO.N,HV*%
X248250000Y-155500000D03*
%TO.P,R117,2*%
%TO.N,Net-(J13-Pin_4)*%
X246250000Y-155500000D03*
%TD*%
D24*
%TO.P,C17,1*%
%TO.N,HV*%
X251750000Y-103000000D03*
%TO.P,C17,2*%
%TO.N,GND*%
X251750000Y-105075000D03*
%TD*%
D54*
%TO.P,D37,1,K*%
%TO.N,M2_R*%
X166000000Y-88000000D03*
%TO.P,D37,2,A*%
%TO.N,GND*%
X166000000Y-91500000D03*
%TD*%
D27*
%TO.P,C49,1*%
%TO.N,5v+*%
X199000000Y-155787500D03*
%TO.P,C49,2*%
%TO.N,GND*%
X199000000Y-153712500D03*
%TD*%
D30*
%TO.P,C85,1*%
%TO.N,9v+*%
X229750000Y-100000000D03*
%TO.P,C85,2*%
%TO.N,GND*%
X229750000Y-98000000D03*
%TD*%
D52*
%TO.P,D7,1,K*%
%TO.N,CS*%
X237000000Y-97000000D03*
%TO.P,D7,2,A*%
%TO.N,Net-(D7-A)*%
X238750000Y-97000000D03*
%TD*%
D11*
%TO.P,R53,1*%
%TO.N,Net-(C39-Pad2)*%
X226750000Y-100500000D03*
%TO.P,R53,2*%
%TO.N,GND*%
X224750000Y-100500000D03*
%TD*%
D54*
%TO.P,ZD4,1,K*%
%TO.N,Net-(ZD4-K)*%
X186400000Y-90200000D03*
%TO.P,ZD4,2,A*%
%TO.N,GND*%
X186400000Y-93700000D03*
%TD*%
D24*
%TO.P,F5,1*%
%TO.N,buzzing_vcc*%
X262500000Y-125925000D03*
%TO.P,F5,2*%
%TO.N,Net-(J11-Pin_1)*%
X262500000Y-128000000D03*
%TD*%
D50*
%TO.P,R74,1*%
%TO.N,buzz*%
X245500000Y-129750000D03*
%TO.P,R74,2*%
%TO.N,Net-(Q10-B)*%
X247500000Y-129750000D03*
%TD*%
%TO.P,R69,1*%
%TO.N,SDA*%
X173250000Y-95000000D03*
%TO.P,R69,2*%
%TO.N,3.3v*%
X175250000Y-95000000D03*
%TD*%
D28*
%TO.P,R55,1*%
%TO.N,Net-(R55-Pad1)*%
X237000000Y-101500000D03*
%TO.P,R55,2*%
%TO.N,Net-(C39-Pad2)*%
X237000000Y-103500000D03*
%TD*%
D11*
%TO.P,R57,1*%
%TO.N,Net-(D7-A)*%
X238000000Y-99000000D03*
%TO.P,R57,2*%
%TO.N,Net-(R55-Pad1)*%
X236000000Y-99000000D03*
%TD*%
D28*
%TO.P,R71,1*%
%TO.N,SDA*%
X174250000Y-157000000D03*
%TO.P,R71,2*%
%TO.N,3.3v*%
X174250000Y-159000000D03*
%TD*%
%TO.P,R113,1*%
%TO.N,3.3v*%
X239750000Y-147000000D03*
%TO.P,R113,2*%
%TO.N,Net-(D16-A1)*%
X239750000Y-149000000D03*
%TD*%
D56*
%TO.P,C78,1*%
%TO.N,Net-(D16-A1)*%
X234500000Y-154945000D03*
%TO.P,C78,2*%
%TO.N,GND*%
X234500000Y-154130000D03*
%TD*%
D50*
%TO.P,R52,1*%
%TO.N,Net-(D41-A)*%
X224750000Y-106250000D03*
%TO.P,R52,2*%
%TO.N,Net-(C39-Pad1)*%
X226750000Y-106250000D03*
%TD*%
D51*
%TO.P,C75,1*%
%TO.N,HV*%
X264500000Y-150750000D03*
%TO.P,C75,2*%
%TO.N,GND*%
X266575000Y-150750000D03*
%TD*%
%TO.P,C98,1*%
%TO.N,HV*%
X230425000Y-64500000D03*
%TO.P,C98,2*%
%TO.N,Net-(D41-K)*%
X232500000Y-64500000D03*
%TD*%
%TO.P,C90,1*%
%TO.N,Mcler*%
X196455000Y-39770000D03*
%TO.P,C90,2*%
%TO.N,GND*%
X198530000Y-39770000D03*
%TD*%
%TO.P,C52,1*%
%TO.N,5v+*%
X187175000Y-119750000D03*
%TO.P,C52,2*%
%TO.N,GND*%
X189250000Y-119750000D03*
%TD*%
D54*
%TO.P,D39,1,K*%
%TO.N,M2_L*%
X163750000Y-88000000D03*
%TO.P,D39,2,A*%
%TO.N,GND*%
X163750000Y-91500000D03*
%TD*%
D11*
%TO.P,R73,1*%
%TO.N,buzzing_vcc*%
X252250000Y-127500000D03*
%TO.P,R73,2*%
%TO.N,Net-(Q10-C)*%
X250250000Y-127500000D03*
%TD*%
D17*
%TO.P,D29,1,K*%
%TO.N,HV*%
X269000000Y-85500000D03*
%TO.P,D29,2,A*%
%TO.N,M1_R*%
X269000000Y-82000000D03*
%TD*%
D50*
%TO.P,R61,1*%
%TO.N,A1*%
X261520000Y-72860000D03*
%TO.P,R61,2*%
%TO.N,Net-(C42-Pad1)*%
X263520000Y-72860000D03*
%TD*%
D28*
%TO.P,R63,1*%
%TO.N,A2*%
X171750000Y-67000000D03*
%TO.P,R63,2*%
%TO.N,Net-(C44-Pad1)*%
X171750000Y-69000000D03*
%TD*%
%TO.P,R23,2*%
%TO.N,Net-(ZD4-K)*%
X185890000Y-88410000D03*
%TO.P,R23,1*%
%TO.N,voltge_sen*%
X185890000Y-86410000D03*
%TD*%
D48*
%TO.P,C43,1*%
%TO.N,Net-(C43-Pad1)*%
X165050000Y-68630000D03*
%TO.P,C43,2*%
%TO.N,GND*%
X165050000Y-69445000D03*
%TD*%
D54*
%TO.P,D30,1,K*%
%TO.N,M1_R*%
X266000000Y-82500000D03*
%TO.P,D30,2,A*%
%TO.N,GND*%
X266000000Y-86000000D03*
%TD*%
D28*
%TO.P,R89,1*%
%TO.N,Net-(C92-Pad1)*%
X228750000Y-107500000D03*
%TO.P,R89,2*%
%TO.N,Net-(R89-Pad2)*%
X228750000Y-109500000D03*
%TD*%
D17*
%TO.P,D32,1,K*%
%TO.N,HV*%
X263250000Y-93500000D03*
%TO.P,D32,2,A*%
%TO.N,M1_L*%
X263250000Y-90000000D03*
%TD*%
D22*
%TO.P,C72,1*%
%TO.N,SW3*%
X199500000Y-130000000D03*
%TO.P,C72,2*%
%TO.N,GND*%
X197425000Y-130000000D03*
%TD*%
D61*
%TO.P,Q10,1,B*%
%TO.N,Net-(Q10-B)*%
X246750000Y-126250000D03*
%TO.P,Q10,2,E*%
%TO.N,GND*%
X244850000Y-126250000D03*
%TO.P,Q10,3,C*%
%TO.N,Net-(Q10-C)*%
X245800000Y-124375000D03*
%TD*%
D50*
%TO.P,R68,1*%
%TO.N,Net-(R66-Pad1)*%
X169500000Y-71250000D03*
%TO.P,R68,2*%
%TO.N,Net-(C44-Pad1)*%
X171500000Y-71250000D03*
%TD*%
D62*
%TO.P,D66,1,K*%
%TO.N,Net-(D66-K)*%
X182000000Y-91000000D03*
%TO.P,D66,2,A*%
%TO.N,HV*%
X182000000Y-92750000D03*
%TD*%
D51*
%TO.P,C67,1*%
%TO.N,5v+*%
X181675000Y-149500000D03*
%TO.P,C67,2*%
%TO.N,GND*%
X183750000Y-149500000D03*
%TD*%
D17*
%TO.P,D8,1,A1*%
%TO.N,HV*%
X269000000Y-105250000D03*
%TO.P,D8,2,A2*%
%TO.N,GND*%
X269000000Y-101750000D03*
%TD*%
D59*
%TO.P,C42,1*%
%TO.N,Net-(C42-Pad1)*%
X264250000Y-70842500D03*
%TO.P,C42,2*%
%TO.N,GND*%
X263435000Y-70842500D03*
%TD*%
D17*
%TO.P,D40,1,K*%
%TO.N,HV*%
X172000000Y-91500000D03*
%TO.P,D40,2,A*%
%TO.N,M2_L*%
X172000000Y-88000000D03*
%TD*%
%TO.P,D31,1,K*%
%TO.N,M1_L*%
X263250000Y-88000000D03*
%TO.P,D31,2,A*%
%TO.N,GND*%
X263250000Y-84500000D03*
%TD*%
D28*
%TO.P,R70,1*%
%TO.N,SCL*%
X176500000Y-157000000D03*
%TO.P,R70,2*%
%TO.N,3.3v*%
X176500000Y-159000000D03*
%TD*%
D56*
%TO.P,C36,2*%
%TO.N,GND*%
X166130000Y-40662500D03*
%TO.P,C36,1*%
%TO.N,3.3v*%
X166130000Y-41477500D03*
%TD*%
D11*
%TO.P,C99,1*%
%TO.N,Net-(D41-K)*%
X227250000Y-64250000D03*
%TO.P,C99,2*%
%TO.N,HV*%
X225250000Y-64250000D03*
%TD*%
D27*
%TO.P,C94,1*%
%TO.N,buzzing_vcc*%
X253250000Y-119825000D03*
%TO.P,C94,2*%
%TO.N,buzzing_gnd*%
X253250000Y-117750000D03*
%TD*%
D28*
%TO.P,R26,1*%
%TO.N,Net-(ZD4-K)*%
X184000000Y-90400000D03*
%TO.P,R26,2*%
%TO.N,GND*%
X184000000Y-92400000D03*
%TD*%
D44*
%TO.P,J8,1,1*%
%TO.N,GND*%
X183233200Y-116672400D03*
D45*
%TO.P,J8,2,2*%
%TO.N,HV*%
X180490000Y-116672400D03*
%TO.P,J8,3,3*%
%TO.N,5v+*%
X177746800Y-116672400D03*
%TO.P,J8,4,4*%
%TO.N,3.3v*%
X175003600Y-116672400D03*
%TO.P,J8,5,5*%
%TO.N,GND*%
X172260400Y-116672400D03*
%TO.P,J8,6,6*%
%TO.N,HV*%
X181861600Y-113827600D03*
%TO.P,J8,7,7*%
%TO.N,Mcler*%
X179118400Y-113827600D03*
%TO.P,J8,8,8*%
%TO.N,SCL*%
X176375200Y-113827600D03*
%TO.P,J8,9,9*%
%TO.N,SDA*%
X173632000Y-113827600D03*
D46*
%TO.P,J8,G1,G1*%
%TO.N,GND*%
X190243600Y-115250000D03*
%TO.P,J8,G2,G2*%
X165250000Y-115250000D03*
%TD*%
%TO.P,J4,G2,G2*%
%TO.N,GND*%
X165250000Y-108500000D03*
%TO.P,J4,G1,G1*%
X190243600Y-108500000D03*
D45*
%TO.P,J4,9,9*%
%TO.N,SDA*%
X173632000Y-109922400D03*
%TO.P,J4,8,8*%
%TO.N,SCL*%
X176375200Y-109922400D03*
%TO.P,J4,7,7*%
%TO.N,Mcler*%
X179118400Y-109922400D03*
%TO.P,J4,6,6*%
%TO.N,HV*%
X181861600Y-109922400D03*
%TO.P,J4,5,5*%
%TO.N,GND*%
X172260400Y-107077600D03*
%TO.P,J4,4,4*%
%TO.N,3.3v*%
X175003600Y-107077600D03*
%TO.P,J4,3,3*%
%TO.N,5v+*%
X177746800Y-107077600D03*
%TO.P,J4,2,2*%
%TO.N,HV*%
X180490000Y-107077600D03*
D44*
%TO.P,J4,1,1*%
%TO.N,GND*%
X183233200Y-107077600D03*
%TD*%
D47*
%TO.P,C19,1*%
%TO.N,HV*%
X175152651Y-123250000D03*
D19*
%TO.P,C19,2*%
%TO.N,GND*%
X170152651Y-123250000D03*
%TD*%
D18*
%TO.P,C37,1*%
%TO.N,3.3v*%
X241270000Y-56400000D03*
D19*
%TO.P,C37,2*%
%TO.N,GND*%
X246270000Y-56400000D03*
%TD*%
D31*
%TO.P,C97,1*%
%TO.N,HV*%
X239340000Y-64057349D03*
D19*
%TO.P,C97,2*%
%TO.N,Net-(D41-K)*%
X239340000Y-69057349D03*
%TD*%
D11*
%TO.P,C24,1*%
%TO.N,3.3v*%
X168930000Y-52760000D03*
%TO.P,C24,2*%
%TO.N,GND*%
X166930000Y-52760000D03*
%TD*%
D63*
%TO.N,Mcler*%
X167825000Y-49025000D03*
%TO.N,3.3v*%
X229770000Y-50510000D03*
%TO.N,kill2*%
X221240000Y-55360000D03*
%TO.N,GND*%
X198705000Y-39595000D03*
%TO.N,kill2*%
X200300000Y-44960000D03*
%TO.N,M2_L*%
X167315000Y-76815000D03*
%TO.N,M2_R*%
X166250000Y-82130000D03*
X166250000Y-83360000D03*
X167275000Y-82025000D03*
%TO.N,M2_L*%
X168780000Y-75700000D03*
%TO.N,HV*%
X197070000Y-71030000D03*
%TO.N,B1*%
X183130000Y-67670000D03*
%TO.N,PWM*%
X180080000Y-89150000D03*
X176300000Y-61890000D03*
%TO.N,M2_D1*%
X178850000Y-90990000D03*
X175487500Y-56662500D03*
%TO.N,5v+*%
X221370000Y-41410000D03*
X189080000Y-52240000D03*
%TO.N,M2_current_sen*%
X170970000Y-47450000D03*
%TO.N,Mcler*%
X173780000Y-45910000D03*
%TO.N,GND*%
X164650000Y-45630000D03*
%TO.N,M2_current_sen*%
X193680000Y-47720000D03*
%TO.N,A1*%
X261070000Y-67620000D03*
X180250000Y-67750000D03*
X177560000Y-51790000D03*
%TO.N,voltge_sen*%
X179460000Y-51730000D03*
%TO.N,B1*%
X174290000Y-43830000D03*
%TO.N,M1_S1*%
X193040000Y-60730000D03*
X209420000Y-62760000D03*
X181390000Y-43750000D03*
X183310000Y-55780000D03*
%TO.N,Net-(IC1-RC1)*%
X196960000Y-59760000D03*
X183630000Y-53770000D03*
X181190000Y-45850000D03*
%TO.N,Motor1_OFF*%
X242210000Y-90240000D03*
X237540000Y-95270000D03*
X189060000Y-87990000D03*
X181150000Y-47890000D03*
%TO.N,M2_S1*%
X186970000Y-57260000D03*
X186200000Y-47570000D03*
%TO.N,A2*%
X170390000Y-56340000D03*
X168450000Y-64270000D03*
X170890000Y-50900000D03*
%TO.N,B2*%
X170850000Y-62170000D03*
X173700000Y-49880000D03*
%TO.N,3.3v*%
X166040000Y-42800000D03*
%TO.N,GND*%
X216290000Y-47070000D03*
X215880000Y-52910000D03*
%TO.N,PGD*%
X197710000Y-49530000D03*
%TO.N,Net-(D42-A)*%
X218570000Y-40610000D03*
X216500000Y-57000000D03*
%TO.N,5v+*%
X259110000Y-119780000D03*
X257520000Y-87610000D03*
%TO.N,INH1*%
X246830000Y-92060000D03*
%TO.N,M1_S1*%
X239080000Y-61350000D03*
X248150000Y-89380000D03*
%TO.N,INH1*%
X235520000Y-54150000D03*
%TO.N,9v+*%
X204830000Y-47540000D03*
X223150000Y-59280000D03*
%TO.N,CS*%
X187280000Y-62970000D03*
X203720000Y-52020000D03*
%TO.N,GND*%
X177970000Y-56320000D03*
X177380000Y-59815000D03*
X246290000Y-50350000D03*
X259411906Y-45335000D03*
%TO.N,9v+*%
X256540000Y-43490000D03*
%TO.N,5v+*%
X225200000Y-39890000D03*
X176620000Y-53850000D03*
%TO.N,INH2*%
X195560000Y-57000000D03*
%TO.N,GND*%
X192610000Y-66320000D03*
X212115000Y-40915000D03*
X219950000Y-45400000D03*
%TO.N,Mcler*%
X196600000Y-45500000D03*
%TO.N,GND*%
X230000000Y-48400000D03*
X236200000Y-43900000D03*
X201100000Y-55250000D03*
%TO.N,Net-(C93-Pad1)*%
X200300000Y-42800000D03*
X217000000Y-43800000D03*
%TO.N,3.3v*%
X175750000Y-98750000D03*
X175300000Y-91600000D03*
%TO.N,SCL*%
X175600000Y-51800000D03*
X175400000Y-89500000D03*
%TO.N,M1_current_sen*%
X188112500Y-46700000D03*
%TO.N,3.3v*%
X179113774Y-41683774D03*
%TO.N,GND*%
X176920000Y-41590000D03*
%TO.N,tst1*%
X227000000Y-90300000D03*
X231000000Y-90800000D03*
%TO.N,3.3v*%
X230800000Y-117100000D03*
%TO.N,GND*%
X243200000Y-94900000D03*
%TO.N,INH2*%
X194750000Y-89500000D03*
%TO.N,GND*%
X196750000Y-127500000D03*
%TO.N,3.3v*%
X192750000Y-133750000D03*
X226000000Y-112500000D03*
%TO.N,SDA*%
X169500000Y-147750000D03*
X171250000Y-138250000D03*
%TO.N,GND*%
X240000000Y-136000000D03*
%TO.N,HV*%
X178500000Y-133750000D03*
%TO.N,buzz*%
X240000000Y-144250000D03*
%TO.N,5v+*%
X212000000Y-155250000D03*
X243975000Y-140652500D03*
X241750000Y-153250000D03*
%TO.N,HV*%
X255750000Y-128500000D03*
%TO.N,SCL*%
X222250000Y-135000000D03*
%TO.N,GND*%
X189000000Y-129750000D03*
%TO.N,5v+*%
X186500000Y-149000000D03*
X186750000Y-130000000D03*
%TO.N,3.3v*%
X179750000Y-128000000D03*
%TO.N,Mcler*%
X197500000Y-121500000D03*
%TO.N,5v+*%
X259750000Y-136750000D03*
%TO.N,HV*%
X245500000Y-148250000D03*
%TO.N,detect*%
X236500000Y-153500000D03*
%TO.N,GND*%
X182500000Y-100250000D03*
%TO.N,SDA*%
X170000000Y-102500000D03*
%TO.N,SCL*%
X171750000Y-103750000D03*
%TO.N,3.3v*%
X175750000Y-98750000D03*
%TO.N,Net-(U3-SR)*%
X202500000Y-67920000D03*
%TO.N,HV*%
X236000000Y-92000000D03*
%TO.N,Net-(C39-Pad1)*%
X226500000Y-107750000D03*
X232250000Y-104750000D03*
%TO.N,Net-(D41-A)*%
X222500000Y-103000000D03*
%TO.N,Net-(D57-K)*%
X240750000Y-95000000D03*
%TO.N,HV*%
X208250000Y-93500000D03*
%TO.N,error 2*%
X206750000Y-97750000D03*
%TO.N,GND*%
X209750000Y-98500000D03*
%TO.N,Net-(D41-K)*%
X210375000Y-90375000D03*
%TO.N,HV*%
X195210000Y-100150000D03*
%TO.N,GND*%
X183250000Y-95000000D03*
X194250000Y-95000000D03*
%TO.N,error 2*%
X200000000Y-62250000D03*
%TO.N,GND*%
X234000000Y-96750000D03*
X212250000Y-104250000D03*
X268500000Y-91250000D03*
%TO.N,Net-(R89-Pad2)*%
X226750000Y-110250000D03*
%TO.N,GND*%
X235500000Y-108250000D03*
%TO.N,Net-(D42-K)*%
X209750000Y-65250000D03*
%TO.N,HV*%
X198720000Y-65630000D03*
X223000000Y-66500000D03*
%TO.N,Net-(D41-K)*%
X234500000Y-64500000D03*
%TO.N,Net-(D41-A)*%
X224500000Y-109000000D03*
%TO.N,PGD*%
X211000000Y-108500000D03*
D64*
X211000000Y-108500000D03*
%TO.N,Net-(D49-K)*%
X217250000Y-102500000D03*
D63*
%TO.N,GND*%
X254570000Y-48130000D03*
%TD*%
D65*
%TO.N,GND*%
X175680000Y-39580000D02*
X173110000Y-39580000D01*
X173110000Y-39580000D02*
X173100000Y-39590000D01*
X175680000Y-39780000D02*
X175680000Y-39580000D01*
X173100000Y-39590000D02*
X166450000Y-39590000D01*
D66*
X176920000Y-41020000D02*
X176770000Y-40870000D01*
D65*
X176920000Y-41020000D02*
X175680000Y-39780000D01*
X176920000Y-41590000D02*
X176920000Y-41020000D01*
%TO.N,3.3v*%
X226670000Y-50510000D02*
X229770000Y-50510000D01*
X225090000Y-48930000D02*
X226670000Y-50510000D01*
X225090000Y-44480000D02*
X225090000Y-48930000D01*
X228280000Y-41290000D02*
X225090000Y-44480000D01*
X227390000Y-40400000D02*
X228280000Y-41290000D01*
X199770000Y-37830000D02*
X200310000Y-38370000D01*
X200310000Y-38370000D02*
X227390000Y-38370000D01*
X194960000Y-38400000D02*
X195530000Y-37830000D01*
X195530000Y-37830000D02*
X199770000Y-37830000D01*
X179746226Y-41683774D02*
X183030000Y-38400000D01*
X183030000Y-38400000D02*
X194960000Y-38400000D01*
X227390000Y-38370000D02*
X227390000Y-40400000D01*
X179113774Y-41683774D02*
X179746226Y-41683774D01*
D67*
%TO.N,Mcler*%
X168100000Y-49300000D02*
X167690000Y-48890000D01*
X173780000Y-47550000D02*
X172030000Y-49300000D01*
X173780000Y-45910000D02*
X173780000Y-47550000D01*
X172030000Y-49300000D02*
X168100000Y-49300000D01*
D65*
%TO.N,9v+*%
X208840000Y-51550000D02*
X208840000Y-58490000D01*
X204830000Y-47540000D02*
X208840000Y-51550000D01*
D67*
%TO.N,5v+*%
X221370000Y-46290000D02*
X221370000Y-41410000D01*
X220260000Y-47400000D02*
X221370000Y-46290000D01*
X218870000Y-47400000D02*
X220260000Y-47400000D01*
X217260000Y-45790000D02*
X218870000Y-47400000D01*
X217260000Y-45510000D02*
X217260000Y-45790000D01*
X202860000Y-45510000D02*
X217260000Y-45510000D01*
X202230000Y-50690000D02*
X202230000Y-46140000D01*
X196910000Y-51070000D02*
X201850000Y-51070000D01*
X201850000Y-51070000D02*
X202230000Y-50690000D01*
X195070000Y-49230000D02*
X196910000Y-51070000D01*
X193410000Y-49230000D02*
X195070000Y-49230000D01*
X190400000Y-52240000D02*
X193410000Y-49230000D01*
X189080000Y-52240000D02*
X190400000Y-52240000D01*
X202230000Y-46140000D02*
X202860000Y-45510000D01*
D65*
%TO.N,9v+*%
X218680000Y-58710000D02*
X218460000Y-58490000D01*
X220120000Y-57270000D02*
X218680000Y-58710000D01*
X218460000Y-58490000D02*
X208840000Y-58490000D01*
X221140000Y-57270000D02*
X220120000Y-57270000D01*
D67*
%TO.N,Net-(IC1-RC1)*%
X218900000Y-59910000D02*
X220960000Y-61970000D01*
X198220000Y-59910000D02*
X218900000Y-59910000D01*
X198070000Y-59760000D02*
X198220000Y-59910000D01*
X196960000Y-59760000D02*
X198070000Y-59760000D01*
D66*
%TO.N,3.3v*%
X166040000Y-49810000D02*
X166040000Y-42800000D01*
X168840000Y-50530000D02*
X166760000Y-50530000D01*
X166760000Y-50530000D02*
X166040000Y-49810000D01*
X168840000Y-62140000D02*
X168840000Y-50530000D01*
X173300000Y-66600000D02*
X168840000Y-62140000D01*
X173300000Y-89600000D02*
X173300000Y-66600000D01*
X175300000Y-91600000D02*
X173300000Y-89600000D01*
%TO.N,kill2*%
X223860000Y-54200000D02*
X222700000Y-55360000D01*
X222700000Y-55360000D02*
X221240000Y-55360000D01*
X223800000Y-39250000D02*
X223860000Y-39310000D01*
X217030000Y-39250000D02*
X223800000Y-39250000D01*
X223860000Y-39310000D02*
X223860000Y-54200000D01*
D67*
%TO.N,Net-(D42-A)*%
X222880000Y-50690000D02*
X216570000Y-57000000D01*
X222880000Y-39960000D02*
X222880000Y-50690000D01*
X219220000Y-39960000D02*
X222880000Y-39960000D01*
X216570000Y-57000000D02*
X216500000Y-57000000D01*
X218570000Y-40610000D02*
X219220000Y-39960000D01*
%TO.N,GND*%
X219950000Y-44450000D02*
X219950000Y-45400000D01*
X217950000Y-42450000D02*
X219950000Y-44450000D01*
X213650000Y-42450000D02*
X217950000Y-42450000D01*
X212115000Y-40915000D02*
X213650000Y-42450000D01*
D65*
%TO.N,Net-(C93-Pad1)*%
X201490000Y-43990000D02*
X200300000Y-42800000D01*
X216810000Y-43990000D02*
X201490000Y-43990000D01*
X217000000Y-43800000D02*
X216810000Y-43990000D01*
D67*
%TO.N,kill2*%
X202011522Y-39250000D02*
X217030000Y-39250000D01*
X199415761Y-41845761D02*
X202011522Y-39250000D01*
D65*
%TO.N,Mcler*%
X187500000Y-39400000D02*
X185500000Y-41400000D01*
X197100000Y-45000000D02*
X197100000Y-39400000D01*
X196600000Y-45500000D02*
X197100000Y-45000000D01*
X197100000Y-39400000D02*
X187500000Y-39400000D01*
D67*
%TO.N,kill2*%
X198460000Y-42801522D02*
X199415761Y-41845761D01*
X198460000Y-43160000D02*
X198460000Y-42801522D01*
D66*
%TO.N,GND*%
X198460000Y-40500000D02*
X198460000Y-39810000D01*
D67*
%TO.N,kill2*%
X198500000Y-43160000D02*
X198460000Y-43160000D01*
X200300000Y-44960000D02*
X198500000Y-43160000D01*
D68*
%TO.N,M2_R*%
X167330000Y-82080000D02*
X167530000Y-82080000D01*
X167275000Y-82025000D02*
X167330000Y-82080000D01*
X167530000Y-82080000D02*
X166250000Y-83360000D01*
X166250000Y-80750001D02*
X166250000Y-82130000D01*
D67*
%TO.N,M2_L*%
X167315000Y-76815000D02*
X166250000Y-75750001D01*
D69*
%TO.N,M2_R*%
X166250000Y-83360000D02*
X166250000Y-82130000D01*
D70*
%TO.N,M2_L*%
X168729999Y-75750001D02*
X168780000Y-75700000D01*
X166250000Y-75750001D02*
X168729999Y-75750001D01*
D67*
%TO.N,HV*%
X205000000Y-69380000D02*
X205000000Y-65500000D01*
X197070000Y-71030000D02*
X198360000Y-69740000D01*
X204640000Y-69740000D02*
X205000000Y-69380000D01*
X198360000Y-69740000D02*
X204640000Y-69740000D01*
D66*
%TO.N,M1_S1*%
X207220000Y-60560000D02*
X209420000Y-62760000D01*
X198750000Y-60560000D02*
X207220000Y-60560000D01*
X197280000Y-62030000D02*
X198750000Y-60560000D01*
X193530000Y-60730000D02*
X194830000Y-62030000D01*
X194830000Y-62030000D02*
X197280000Y-62030000D01*
X193040000Y-60730000D02*
X193530000Y-60730000D01*
D67*
%TO.N,voltge_sen*%
X183930000Y-84450000D02*
X185890000Y-86410000D01*
X183930000Y-83290000D02*
X183930000Y-84450000D01*
X183900000Y-83260000D02*
X183930000Y-83290000D01*
X183900000Y-72570000D02*
X183900000Y-83260000D01*
X181680000Y-70350000D02*
X183900000Y-72570000D01*
X182460000Y-57840000D02*
X181680000Y-58620000D01*
X182460000Y-57790000D02*
X182460000Y-57840000D01*
X181680000Y-58620000D02*
X181680000Y-70350000D01*
X180550000Y-55880000D02*
X182460000Y-57790000D01*
X179470000Y-52100000D02*
X180550000Y-53180000D01*
X179470000Y-51740000D02*
X179470000Y-52100000D01*
X180550000Y-53180000D02*
X180550000Y-55880000D01*
X179460000Y-51730000D02*
X179470000Y-51740000D01*
D66*
%TO.N,A1*%
X177560000Y-52460000D02*
X177560000Y-51790000D01*
X179630000Y-54530000D02*
X177560000Y-52460000D01*
X179630000Y-67130000D02*
X179630000Y-54530000D01*
X180250000Y-67750000D02*
X179630000Y-67130000D01*
D67*
%TO.N,PWM*%
X179700000Y-88380000D02*
X180080000Y-88760000D01*
X176300000Y-84980000D02*
X179700000Y-88380000D01*
X180080000Y-88760000D02*
X180080000Y-89150000D01*
X176300000Y-61890000D02*
X176300000Y-84980000D01*
%TO.N,M2_D1*%
X174870000Y-85330000D02*
X178430000Y-88890000D01*
X174870000Y-57280000D02*
X174870000Y-85330000D01*
X178430000Y-90570000D02*
X178850000Y-90990000D01*
X175487500Y-56662500D02*
X174870000Y-57280000D01*
X178430000Y-88890000D02*
X178430000Y-90570000D01*
D69*
%TO.N,HV*%
X195210000Y-98790000D02*
X197125000Y-96875000D01*
X195210000Y-100150000D02*
X195210000Y-98790000D01*
D67*
%TO.N,B2*%
X170970000Y-58600000D02*
X171240000Y-58600000D01*
D65*
X171895000Y-59255000D02*
X172460000Y-58690000D01*
D67*
X171240000Y-58600000D02*
X171895000Y-59255000D01*
%TO.N,GND*%
X167670000Y-57170000D02*
X166250000Y-55750000D01*
X167670000Y-58600000D02*
X167670000Y-57170000D01*
D66*
%TO.N,M1_S1*%
X181820000Y-51330000D02*
X181820000Y-54290000D01*
X178980000Y-46340000D02*
X178980000Y-48490000D01*
X181820000Y-54290000D02*
X183310000Y-55780000D01*
X179870000Y-45450000D02*
X178980000Y-46340000D01*
X178980000Y-48490000D02*
X181820000Y-51330000D01*
X179870000Y-44130000D02*
X179870000Y-45450000D01*
X181010000Y-44130000D02*
X179870000Y-44130000D01*
X181390000Y-43750000D02*
X181010000Y-44130000D01*
D67*
%TO.N,M2_current_sen*%
X170970000Y-44570000D02*
X172130000Y-43410000D01*
X170970000Y-47450000D02*
X170970000Y-44570000D01*
D66*
%TO.N,A2*%
X171240000Y-55490000D02*
X170390000Y-56340000D01*
X171240000Y-51250000D02*
X171240000Y-55490000D01*
X170890000Y-50900000D02*
X171240000Y-51250000D01*
%TO.N,M2_current_sen*%
X172990000Y-42550000D02*
X172130000Y-43410000D01*
X175330000Y-42550000D02*
X172990000Y-42550000D01*
X175760000Y-42980000D02*
X175330000Y-42550000D01*
X177970000Y-44020000D02*
X176800000Y-44020000D01*
X176800000Y-44020000D02*
X175760000Y-42980000D01*
%TO.N,3.3v*%
X166130000Y-42710000D02*
X166040000Y-42800000D01*
X166130000Y-41477500D02*
X166130000Y-42710000D01*
%TO.N,GND*%
X166130000Y-39910000D02*
X166450000Y-39590000D01*
X166130000Y-40662500D02*
X166130000Y-39910000D01*
D65*
X166450000Y-39590000D02*
X164160000Y-39590000D01*
X164180000Y-45630000D02*
X164020000Y-45470000D01*
X164650000Y-45630000D02*
X164180000Y-45630000D01*
X164020000Y-39730000D02*
X164020000Y-45470000D01*
X164160000Y-39590000D02*
X164020000Y-39730000D01*
D66*
%TO.N,B1*%
X174290000Y-43830000D02*
X174290000Y-44430000D01*
D65*
%TO.N,3.3v*%
X179113774Y-41683774D02*
X178876226Y-41683774D01*
D66*
%TO.N,M2_current_sen*%
X180640000Y-42310000D02*
X178930000Y-44020000D01*
X178930000Y-44020000D02*
X178720000Y-44020000D01*
X180650000Y-42300000D02*
X180640000Y-42310000D01*
X182390000Y-42300000D02*
X180650000Y-42300000D01*
X178720000Y-44020000D02*
X177970000Y-44020000D01*
X182920000Y-44690000D02*
X182920000Y-42830000D01*
X182920000Y-42830000D02*
X182390000Y-42300000D01*
%TO.N,3.3v*%
X182510000Y-41010000D02*
X184700000Y-43200000D01*
X179787548Y-41010000D02*
X182510000Y-41010000D01*
X179113774Y-41683774D02*
X179787548Y-41010000D01*
%TO.N,M2_current_sen*%
X189310000Y-42870000D02*
X187490000Y-44690000D01*
X189310000Y-40310000D02*
X189310000Y-42870000D01*
X189200000Y-40200000D02*
X189310000Y-40310000D01*
X189240000Y-40240000D02*
X189200000Y-40200000D01*
X191790000Y-40240000D02*
X189240000Y-40240000D01*
X187490000Y-44690000D02*
X182920000Y-44690000D01*
X191680000Y-40350000D02*
X191790000Y-40240000D01*
X191680000Y-42150000D02*
X191680000Y-40350000D01*
X192110000Y-42580000D02*
X191680000Y-42150000D01*
X192110000Y-44820000D02*
X192110000Y-42580000D01*
X193680000Y-47720000D02*
X192110000Y-46150000D01*
X192110000Y-46150000D02*
X192110000Y-44820000D01*
%TO.N,A1*%
X261210000Y-67620000D02*
X261390000Y-67440000D01*
X261070000Y-67620000D02*
X261210000Y-67620000D01*
D67*
%TO.N,Net-(U3-SR)*%
X202250000Y-68500000D02*
X199750000Y-68500000D01*
X202500000Y-68250000D02*
X202250000Y-68500000D01*
X202500000Y-67920000D02*
X202500000Y-68250000D01*
D65*
%TO.N,GND*%
X177380000Y-58320000D02*
X177380000Y-59815000D01*
X177970000Y-57730000D02*
X177380000Y-58320000D01*
X177970000Y-56320000D02*
X177970000Y-57730000D01*
D67*
%TO.N,Net-(ZD4-K)*%
X188110000Y-90200000D02*
X189300000Y-91390000D01*
X186400000Y-90200000D02*
X188110000Y-90200000D01*
X186200000Y-90400000D02*
X186400000Y-90200000D01*
X184000000Y-90400000D02*
X186200000Y-90400000D01*
X184000000Y-88640000D02*
X184000000Y-90400000D01*
X184230000Y-88410000D02*
X184000000Y-88640000D01*
X185890000Y-88410000D02*
X184230000Y-88410000D01*
D71*
%TO.N,Net-(D66-K)*%
X182000000Y-88640000D02*
X182000000Y-91000000D01*
D67*
%TO.N,SCL*%
X174120000Y-53280000D02*
X175600000Y-51800000D01*
X175400000Y-89500000D02*
X174120000Y-88220000D01*
X174120000Y-88220000D02*
X174120000Y-53280000D01*
D66*
%TO.N,M1_S1*%
X210840000Y-64180000D02*
X209420000Y-62760000D01*
X213480000Y-64180000D02*
X210840000Y-64180000D01*
X222830000Y-64180000D02*
X213480000Y-64180000D01*
X222880000Y-64130000D02*
X222830000Y-64180000D01*
X228110000Y-61390000D02*
X225620000Y-61390000D01*
X231770000Y-55700000D02*
X231770000Y-57730000D01*
X236440000Y-52250000D02*
X235220000Y-52250000D01*
X235220000Y-52250000D02*
X231770000Y-55700000D01*
X239080000Y-54890000D02*
X236440000Y-52250000D01*
X225620000Y-61390000D02*
X222880000Y-64130000D01*
X239080000Y-61350000D02*
X239080000Y-54890000D01*
X231770000Y-57730000D02*
X228110000Y-61390000D01*
D67*
%TO.N,Net-(IC1-RC1)*%
X221350000Y-62360000D02*
X220960000Y-61970000D01*
X221350000Y-62360000D02*
X221610000Y-62360000D01*
%TO.N,INH2*%
X193700000Y-57000000D02*
X195560000Y-57000000D01*
X190800000Y-59900000D02*
X193700000Y-57000000D01*
X190720000Y-67250000D02*
X190800000Y-67170000D01*
X192000000Y-68530000D02*
X190720000Y-67250000D01*
X190800000Y-67170000D02*
X190800000Y-59900000D01*
X192000000Y-70300000D02*
X192000000Y-68530000D01*
D66*
%TO.N,Net-(IC1-RC1)*%
X180980000Y-49570000D02*
X183630000Y-52220000D01*
X179650000Y-48240000D02*
X180980000Y-49570000D01*
X179650000Y-46660000D02*
X179650000Y-48240000D01*
X180460000Y-45850000D02*
X179650000Y-46660000D01*
X181190000Y-45850000D02*
X180460000Y-45850000D01*
X183630000Y-52220000D02*
X183630000Y-53770000D01*
%TO.N,Motor1_OFF*%
X188310000Y-87240000D02*
X189060000Y-87990000D01*
X188310000Y-84890000D02*
X188310000Y-87240000D01*
X184890000Y-81470000D02*
X188310000Y-84890000D01*
X184890000Y-47860000D02*
X184890000Y-81470000D01*
X181960000Y-47860000D02*
X184890000Y-47860000D01*
X181930000Y-47890000D02*
X181960000Y-47860000D01*
X181150000Y-47890000D02*
X181930000Y-47890000D01*
X238480000Y-95270000D02*
X238750000Y-95000000D01*
X237540000Y-95270000D02*
X238480000Y-95270000D01*
X234930000Y-90590000D02*
X241860000Y-90590000D01*
X233370000Y-89030000D02*
X234930000Y-90590000D01*
X221880000Y-89030000D02*
X228110000Y-89030000D01*
X214560000Y-96350000D02*
X221880000Y-89030000D01*
X209190000Y-101720000D02*
X214560000Y-96350000D01*
X190390000Y-101640000D02*
X190470000Y-101720000D01*
X190390000Y-97160000D02*
X190390000Y-101640000D01*
X228110000Y-89030000D02*
X233370000Y-89030000D01*
X191970000Y-95580000D02*
X190390000Y-97160000D01*
X241860000Y-90590000D02*
X242210000Y-90240000D01*
X191970000Y-91060000D02*
X191970000Y-95580000D01*
X190470000Y-101720000D02*
X209190000Y-101720000D01*
X189060000Y-88150000D02*
X191970000Y-91060000D01*
X189060000Y-87990000D02*
X189060000Y-88150000D01*
X189060000Y-87990000D02*
X189210000Y-87990000D01*
X189210000Y-87990000D02*
X189340000Y-88120000D01*
%TO.N,M2_S1*%
X186200000Y-56490000D02*
X186970000Y-57260000D01*
X186200000Y-47570000D02*
X186200000Y-56490000D01*
D65*
%TO.N,CS*%
X192490000Y-52020000D02*
X203720000Y-52020000D01*
X190100000Y-56680000D02*
X190100000Y-54410000D01*
X190100000Y-54410000D02*
X192490000Y-52020000D01*
X187280000Y-59500000D02*
X190100000Y-56680000D01*
X187280000Y-62970000D02*
X187280000Y-59500000D01*
D66*
%TO.N,A2*%
X168450000Y-64270000D02*
X171180000Y-67000000D01*
X171180000Y-67000000D02*
X171750000Y-67000000D01*
D65*
%TO.N,B2*%
X172460000Y-58690000D02*
X172460000Y-51120000D01*
X171190000Y-59960000D02*
X171895000Y-59255000D01*
X172460000Y-51120000D02*
X173700000Y-49880000D01*
X171190000Y-61830000D02*
X171190000Y-59960000D01*
X170850000Y-62170000D02*
X171190000Y-61830000D01*
D71*
%TO.N,GND*%
X165750000Y-55750000D02*
X166250000Y-55750000D01*
X163720000Y-65870000D02*
X163600000Y-65750000D01*
X163600000Y-65750000D02*
X163600000Y-57900000D01*
X163600000Y-57900000D02*
X165750000Y-55750000D01*
X163720000Y-69970000D02*
X163720000Y-65870000D01*
X164500000Y-70750000D02*
X163720000Y-69970000D01*
D66*
X164500000Y-69995000D02*
X164500000Y-70750000D01*
X165050000Y-69445000D02*
X164500000Y-69995000D01*
%TO.N,Net-(C43-Pad1)*%
X165050000Y-66950000D02*
X166250000Y-65750000D01*
X165050000Y-68630000D02*
X165050000Y-66950000D01*
D67*
%TO.N,3.3v*%
X184700000Y-43200000D02*
X184720000Y-43200000D01*
D65*
%TO.N,M1_S1*%
X242930000Y-65820000D02*
X248150000Y-71040000D01*
X239190000Y-60420000D02*
X242930000Y-60420000D01*
X242930000Y-60420000D02*
X242930000Y-65820000D01*
X248150000Y-71040000D02*
X248150000Y-89380000D01*
X239080000Y-60530000D02*
X239190000Y-60420000D01*
X239080000Y-61350000D02*
X239080000Y-60530000D01*
D67*
%TO.N,GND*%
X215880000Y-47480000D02*
X216290000Y-47070000D01*
X215880000Y-52910000D02*
X215880000Y-47480000D01*
%TO.N,PGD*%
X197630000Y-49450000D02*
X197710000Y-49530000D01*
X197580000Y-49450000D02*
X197630000Y-49450000D01*
%TO.N,5v+*%
X259110000Y-118640000D02*
X259110000Y-119780000D01*
X259250000Y-118500000D02*
X259110000Y-118640000D01*
X254010000Y-68200000D02*
X263010000Y-59200000D01*
X254010000Y-81390000D02*
X254010000Y-68200000D01*
X257520000Y-84900000D02*
X254010000Y-81390000D01*
X257520000Y-87610000D02*
X257520000Y-84900000D01*
D65*
%TO.N,INH1*%
X241800000Y-87030000D02*
X246830000Y-92060000D01*
X241800000Y-74410000D02*
X241800000Y-87030000D01*
X241800000Y-69250000D02*
X241800000Y-74410000D01*
X241800000Y-74410000D02*
X241750000Y-74460000D01*
X235520000Y-62970000D02*
X241800000Y-69250000D01*
X235520000Y-54150000D02*
X235520000Y-62970000D01*
D69*
%TO.N,HV*%
X251750000Y-99760000D02*
X243990000Y-92000000D01*
X243990000Y-92000000D02*
X236000000Y-92000000D01*
X251750000Y-103000000D02*
X251750000Y-99760000D01*
D65*
%TO.N,9v+*%
X226580000Y-59280000D02*
X223150000Y-59280000D01*
X239410000Y-45340000D02*
X226790000Y-57960000D01*
X226790000Y-57960000D02*
X226790000Y-59070000D01*
X254250000Y-45340000D02*
X239410000Y-45340000D01*
X226790000Y-59070000D02*
X226580000Y-59280000D01*
X223150000Y-59280000D02*
X221140000Y-57270000D01*
%TO.N,PGD*%
X193000000Y-44870000D02*
X197580000Y-49450000D01*
X193000000Y-41400000D02*
X193000000Y-44870000D01*
D71*
%TO.N,GND*%
X266000000Y-55750000D02*
X259660000Y-55750000D01*
X259660000Y-55750000D02*
X254250000Y-50340000D01*
X263010000Y-57200000D02*
X261110000Y-57200000D01*
X261110000Y-57200000D02*
X254250000Y-50340000D01*
X246270000Y-56400000D02*
X246270000Y-50370000D01*
X246270000Y-50370000D02*
X246290000Y-50350000D01*
X246300000Y-50340000D02*
X246290000Y-50350000D01*
X254250000Y-50340000D02*
X246300000Y-50340000D01*
X250930000Y-61060000D02*
X246270000Y-56400000D01*
X250930000Y-64450000D02*
X250930000Y-61060000D01*
D65*
%TO.N,9v+*%
X254690000Y-45340000D02*
X256540000Y-43490000D01*
X254250000Y-45340000D02*
X254690000Y-45340000D01*
%TO.N,Net-(U14-IN)*%
X260035000Y-48375000D02*
X259690000Y-48720000D01*
X261911906Y-48375000D02*
X260035000Y-48375000D01*
%TO.N,GND*%
X260305000Y-45835000D02*
X259690000Y-45220000D01*
X261911906Y-45835000D02*
X260305000Y-45835000D01*
D67*
%TO.N,3.3v*%
X267540000Y-64060000D02*
X267540000Y-57680000D01*
X267540000Y-64060000D02*
X267540000Y-63350000D01*
X267540000Y-72720000D02*
X267540000Y-64060000D01*
%TO.N,Net-(C42-Pad1)*%
X263660000Y-72720000D02*
X263520000Y-72860000D01*
X265540000Y-72720000D02*
X263660000Y-72720000D01*
X265540000Y-71210001D02*
X266000000Y-70750001D01*
X265540000Y-72720000D02*
X265540000Y-71210001D01*
%TO.N,Net-(C41-Pad1)*%
X265540000Y-65290000D02*
X266000000Y-65750000D01*
X265540000Y-63350000D02*
X265540000Y-65290000D01*
%TO.N,GND*%
X264810000Y-57690000D02*
X264435000Y-57315000D01*
X264435000Y-57315000D02*
X266000000Y-55750000D01*
X265510000Y-57690000D02*
X264810000Y-57690000D01*
X263080000Y-57270000D02*
X264390000Y-57270000D01*
X263010000Y-57200000D02*
X263080000Y-57270000D01*
X265420000Y-57180000D02*
X264995000Y-56755000D01*
X264995000Y-56755000D02*
X266000000Y-55750000D01*
%TO.N,5v+*%
X264450000Y-59200000D02*
X266000000Y-60750000D01*
X263860000Y-59200000D02*
X263010000Y-59200000D01*
X263930000Y-59270000D02*
X263860000Y-59200000D01*
X263010000Y-59200000D02*
X264450000Y-59200000D01*
%TO.N,GND*%
X197700000Y-68450000D02*
X197750000Y-68500000D01*
X197700000Y-67015000D02*
X197700000Y-68450000D01*
%TO.N,HV*%
X198150000Y-66200000D02*
X198720000Y-65630000D01*
X197700000Y-66200000D02*
X198150000Y-66200000D01*
D66*
X200000000Y-66250000D02*
X202250000Y-64000000D01*
X199340000Y-66250000D02*
X200000000Y-66250000D01*
X198720000Y-65630000D02*
X199340000Y-66250000D01*
D67*
%TO.N,GND*%
X194790000Y-68500000D02*
X192610000Y-66320000D01*
X197750000Y-68500000D02*
X194790000Y-68500000D01*
%TO.N,Net-(D41-K)*%
X237057349Y-69057349D02*
X232500000Y-64500000D01*
X239340000Y-69057349D02*
X237057349Y-69057349D01*
D65*
%TO.N,GND*%
X234500000Y-43900000D02*
X230000000Y-48400000D01*
X236200000Y-43900000D02*
X234500000Y-43900000D01*
D66*
%TO.N,Net-(D6-A)*%
X187700000Y-42500000D02*
X188300000Y-41900000D01*
X186450000Y-43200000D02*
X187150000Y-42500000D01*
X187150000Y-42500000D02*
X187700000Y-42500000D01*
%TO.N,GND*%
X190800000Y-45237500D02*
X190237500Y-45800000D01*
X190800000Y-41700000D02*
X190800000Y-45237500D01*
X190500000Y-41400000D02*
X190800000Y-41700000D01*
%TO.N,M1_current_sen*%
X188112500Y-46700000D02*
X188112500Y-46000000D01*
D65*
%TO.N,SDA*%
X170000000Y-102500000D02*
X171300000Y-101200000D01*
D69*
X171300000Y-100900000D02*
X171300000Y-96950000D01*
D65*
X171300000Y-101200000D02*
X171300000Y-100900000D01*
D71*
%TO.N,HV*%
X181650000Y-93100000D02*
X182000000Y-92750000D01*
X180600000Y-94850000D02*
X180600000Y-93100000D01*
X180600000Y-93100000D02*
X181650000Y-93100000D01*
X180750000Y-95000000D02*
X180600000Y-94850000D01*
D69*
X179050000Y-93300000D02*
X172000000Y-93300000D01*
X172000000Y-93300000D02*
X172000000Y-91500000D01*
X180750000Y-95000000D02*
X179050000Y-93300000D01*
D65*
%TO.N,M2_R*%
X169250000Y-88500000D02*
X169250000Y-88000000D01*
D66*
%TO.N,M1_current_sen*%
X188162500Y-46650000D02*
X188112500Y-46700000D01*
X188162500Y-45800000D02*
X188162500Y-46650000D01*
X188112500Y-48100000D02*
X188112500Y-46700000D01*
%TO.N,GND*%
X191512500Y-47075000D02*
X190237500Y-45800000D01*
X191512500Y-48200000D02*
X191512500Y-47075000D01*
D67*
X190862500Y-45800000D02*
X190962500Y-45900000D01*
X190237500Y-45800000D02*
X190862500Y-45800000D01*
D66*
X188010000Y-93700000D02*
X189300000Y-92410000D01*
X186400000Y-93700000D02*
X188010000Y-93700000D01*
X185100000Y-95000000D02*
X186400000Y-93700000D01*
X183250000Y-95000000D02*
X185100000Y-95000000D01*
X185100000Y-92400000D02*
X184000000Y-92400000D01*
X186400000Y-93700000D02*
X185100000Y-92400000D01*
D65*
X197750000Y-68500000D02*
X197750000Y-67950000D01*
%TO.N,INH2*%
X192000000Y-86500000D02*
X192000000Y-70300000D01*
D71*
%TO.N,HV*%
X228425000Y-66500000D02*
X230425000Y-64500000D01*
X223000000Y-66500000D02*
X228425000Y-66500000D01*
X221300000Y-68200000D02*
X221300000Y-68400000D01*
X225250000Y-64250000D02*
X221300000Y-68200000D01*
X206100000Y-68400000D02*
X221300000Y-68400000D01*
X205000000Y-67300000D02*
X206100000Y-68400000D01*
X205000000Y-65500000D02*
X205000000Y-67300000D01*
X209400000Y-68500000D02*
X209500000Y-68400000D01*
X209400000Y-87500000D02*
X209400000Y-68500000D01*
D65*
X209500000Y-68400000D02*
X206100000Y-68400000D01*
D71*
X209500000Y-87600000D02*
X209400000Y-87500000D01*
X211000000Y-87600000D02*
X209500000Y-87600000D01*
X213100000Y-89700000D02*
X211000000Y-87600000D01*
X213100000Y-91100000D02*
X213100000Y-89700000D01*
X210700000Y-93500000D02*
X213100000Y-91100000D01*
X208250000Y-93500000D02*
X210700000Y-93500000D01*
D65*
X209400000Y-71500000D02*
X209400000Y-87500000D01*
X210100000Y-70800000D02*
X209400000Y-71500000D01*
X207400000Y-68100000D02*
X210100000Y-70800000D01*
X205800000Y-68100000D02*
X207400000Y-68100000D01*
X205800000Y-68100000D02*
X205000000Y-67300000D01*
X206100000Y-68400000D02*
X205800000Y-68100000D01*
X223000000Y-66700000D02*
X221300000Y-68400000D01*
X221300000Y-68400000D02*
X209500000Y-68400000D01*
X223000000Y-66500000D02*
X223000000Y-66700000D01*
D67*
%TO.N,tst1*%
X227000000Y-90400000D02*
X227000000Y-90300000D01*
X227500000Y-90900000D02*
X227000000Y-90400000D01*
X227600000Y-90800000D02*
X227500000Y-90900000D01*
X231000000Y-90800000D02*
X227600000Y-90800000D01*
D66*
%TO.N,Net-(R55-Pad1)*%
X236405000Y-102095000D02*
X237000000Y-101500000D01*
X234475000Y-102095000D02*
X236405000Y-102095000D01*
%TO.N,3.3v*%
X231100000Y-117100000D02*
X230800000Y-117100000D01*
X235250000Y-121250000D02*
X231100000Y-117100000D01*
D67*
X197250000Y-118250000D02*
X192750000Y-122750000D01*
X197250000Y-113750000D02*
X197250000Y-118250000D01*
X197750000Y-113250000D02*
X197250000Y-113750000D01*
X225250000Y-113250000D02*
X197750000Y-113250000D01*
X192750000Y-122750000D02*
X192750000Y-132000000D01*
X226000000Y-112500000D02*
X225250000Y-113250000D01*
D66*
%TO.N,GND*%
X243200000Y-93500000D02*
X243200000Y-94900000D01*
X243100000Y-93400000D02*
X243200000Y-93500000D01*
X234000000Y-96750000D02*
X237350000Y-93400000D01*
X237350000Y-93400000D02*
X243100000Y-93400000D01*
X228218630Y-95600000D02*
X223800000Y-95600000D01*
X229750000Y-97131370D02*
X228218630Y-95600000D01*
X223800000Y-95600000D02*
X222000000Y-97400000D01*
X229750000Y-98000000D02*
X229750000Y-97131370D01*
X222000000Y-97400000D02*
X222000000Y-99250000D01*
%TO.N,Net-(D42-K)*%
X228550000Y-91800000D02*
X230500000Y-93750000D01*
X225700000Y-91800000D02*
X228550000Y-91800000D01*
X225700000Y-93975000D02*
X225700000Y-91800000D01*
X225675000Y-94000000D02*
X225700000Y-93975000D01*
%TO.N,HV*%
X232400000Y-93850000D02*
X232500000Y-93750000D01*
X232400000Y-95500000D02*
X232400000Y-93850000D01*
X229250000Y-95500000D02*
X232400000Y-95500000D01*
X227750000Y-94000000D02*
X229250000Y-95500000D01*
D65*
%TO.N,INH2*%
X194750000Y-89500000D02*
X194750000Y-89250000D01*
X194750000Y-89250000D02*
X192000000Y-86500000D01*
D66*
%TO.N,GND*%
X166827600Y-108500000D02*
X165250000Y-108500000D01*
X169000000Y-106327600D02*
X166827600Y-108500000D01*
X169000000Y-104500000D02*
X169000000Y-106327600D01*
X169000000Y-107077600D02*
X169000000Y-104500000D01*
X172260400Y-107077600D02*
X169000000Y-107077600D01*
D71*
X166672400Y-107077600D02*
X165250000Y-108500000D01*
X172260400Y-107077600D02*
X166672400Y-107077600D01*
X184655600Y-115250000D02*
X183233200Y-116672400D01*
X190243600Y-115250000D02*
X184655600Y-115250000D01*
%TO.N,5v+*%
X186000000Y-104250000D02*
X185250000Y-105000000D01*
X194500000Y-104250000D02*
X186000000Y-104250000D01*
X191000000Y-132000000D02*
X191000000Y-121000000D01*
X186750000Y-132000000D02*
X191000000Y-132000000D01*
X194500000Y-117500000D02*
X194500000Y-104250000D01*
X186500000Y-131750000D02*
X186750000Y-132000000D01*
X186750000Y-131500000D02*
X186500000Y-131750000D01*
X191000000Y-121000000D02*
X194500000Y-117500000D01*
X186750000Y-130000000D02*
X186750000Y-131500000D01*
D65*
%TO.N,GND*%
X226000000Y-114250000D02*
X233000000Y-114250000D01*
X224500000Y-115750000D02*
X226000000Y-114250000D01*
X224500000Y-119000000D02*
X224500000Y-115750000D01*
D68*
X170152651Y-123250000D02*
X166500000Y-123250000D01*
X165250000Y-115250000D02*
X165250000Y-122000000D01*
X165250000Y-122000000D02*
X166500000Y-123250000D01*
D65*
%TO.N,3.3v*%
X170000000Y-111250000D02*
X170750000Y-110500000D01*
X174250000Y-119000000D02*
X170000000Y-119000000D01*
X170000000Y-119000000D02*
X170000000Y-111250000D01*
X174500000Y-118750000D02*
X174250000Y-119000000D01*
D69*
%TO.N,5v+*%
X243975000Y-133927651D02*
X245250000Y-132652651D01*
X243975000Y-140652500D02*
X243975000Y-133927651D01*
D65*
X241750000Y-141250000D02*
X241750000Y-153250000D01*
X242072500Y-140927500D02*
X241750000Y-141250000D01*
X243700000Y-140927500D02*
X242072500Y-140927500D01*
X243975000Y-140652500D02*
X243700000Y-140927500D01*
D69*
%TO.N,3.3v*%
X238250000Y-124250000D02*
X235250000Y-121250000D01*
X238250000Y-134500000D02*
X238250000Y-124250000D01*
D67*
X238250000Y-134500000D02*
X239032500Y-134500000D01*
D69*
%TO.N,GND*%
X236000000Y-119750000D02*
X242500000Y-119750000D01*
X236000000Y-116540000D02*
X236000000Y-119750000D01*
X235710000Y-116250000D02*
X236000000Y-116540000D01*
X242500000Y-119750000D02*
X244500000Y-121750000D01*
X234475000Y-106275000D02*
X234475000Y-105935000D01*
X233750000Y-107000000D02*
X234475000Y-106275000D01*
X233750000Y-107750000D02*
X233750000Y-107000000D01*
X233750000Y-109750000D02*
X233750000Y-107750000D01*
X236750000Y-107000000D02*
X235500000Y-108250000D01*
X237000000Y-107000000D02*
X236750000Y-107000000D01*
X233750000Y-107750000D02*
X235000000Y-107750000D01*
X235000000Y-107750000D02*
X235500000Y-108250000D01*
X234000000Y-109750000D02*
X233750000Y-109750000D01*
X235500000Y-108250000D02*
X234000000Y-109750000D01*
X233750000Y-113500000D02*
X233750000Y-109750000D01*
X233000000Y-114250000D02*
X233750000Y-113500000D01*
X233000000Y-116250000D02*
X233000000Y-114250000D01*
X235710000Y-116250000D02*
X233000000Y-116250000D01*
D67*
X196750000Y-127500000D02*
X197175000Y-127500000D01*
%TO.N,Mcler*%
X194500000Y-138180000D02*
X202100000Y-145780000D01*
X194500000Y-124500000D02*
X194500000Y-138180000D01*
X197500000Y-121500000D02*
X194500000Y-124500000D01*
%TO.N,GND*%
X197175000Y-127500000D02*
X197500000Y-127175000D01*
X197675000Y-133250000D02*
X197425000Y-133000000D01*
X197675000Y-136000000D02*
X197675000Y-133250000D01*
X197425000Y-130000000D02*
X197425000Y-133000000D01*
X197175000Y-127500000D02*
X197175000Y-129750000D01*
X197175000Y-129750000D02*
X197425000Y-130000000D01*
%TO.N,SW4*%
X201600000Y-127500000D02*
X202100000Y-128000000D01*
X199250000Y-127500000D02*
X201600000Y-127500000D01*
%TO.N,SW3*%
X200040000Y-130540000D02*
X202100000Y-130540000D01*
X199500000Y-130000000D02*
X200040000Y-130540000D01*
%TO.N,SW2*%
X201720000Y-136000000D02*
X202100000Y-135620000D01*
X199750000Y-136000000D02*
X201720000Y-136000000D01*
%TO.N,SW1*%
X202020000Y-133000000D02*
X202100000Y-133080000D01*
X199500000Y-133000000D02*
X202020000Y-133000000D01*
%TO.N,3.3v*%
X192750000Y-133750000D02*
X192750000Y-132000000D01*
X192750000Y-134000000D02*
X192750000Y-132000000D01*
D66*
%TO.N,Mcler*%
X202570000Y-146250000D02*
X202100000Y-145780000D01*
D67*
%TO.N,3.3v*%
X238000000Y-145250000D02*
X239750000Y-147000000D01*
X238000000Y-142750000D02*
X238000000Y-145250000D01*
%TO.N,buzz*%
X240250000Y-138000000D02*
X242500000Y-135750000D01*
X240000000Y-144250000D02*
X240250000Y-144250000D01*
X240250000Y-144250000D02*
X240250000Y-138000000D01*
X242500000Y-135750000D02*
X242500000Y-130250000D01*
%TO.N,3.3v*%
X237250000Y-142000000D02*
X238000000Y-142750000D01*
X237250000Y-140500000D02*
X237250000Y-142000000D01*
X238250000Y-140500000D02*
X237250000Y-140500000D01*
X238500000Y-140750000D02*
X238250000Y-140500000D01*
X238750000Y-140500000D02*
X238500000Y-140750000D01*
X238750000Y-137250000D02*
X238750000Y-140500000D01*
X238000000Y-136500000D02*
X238750000Y-137250000D01*
X238000000Y-134500000D02*
X238000000Y-136500000D01*
%TO.N,Net-(U11-3.3V)*%
X236000000Y-138500000D02*
X235550000Y-138950000D01*
X237250000Y-138500000D02*
X236000000Y-138500000D01*
X235550000Y-138950000D02*
X234750000Y-138950000D01*
%TO.N,Net-(D16-A1)*%
X231000000Y-156250000D02*
X236250000Y-156250000D01*
X239750000Y-149000000D02*
X239750000Y-152750000D01*
X239750000Y-152750000D02*
X236250000Y-156250000D01*
D69*
%TO.N,SDA*%
X169500000Y-140000000D02*
X169500000Y-147750000D01*
X171250000Y-138250000D02*
X169500000Y-140000000D01*
%TO.N,3.3v*%
X175325000Y-149750000D02*
X175325000Y-147175000D01*
X175325000Y-147175000D02*
X179750000Y-142750000D01*
D65*
X181875000Y-140625000D02*
X179750000Y-142750000D01*
D67*
X175325000Y-150325000D02*
X175750000Y-150750000D01*
X175750000Y-150750000D02*
X175750000Y-152750000D01*
X175325000Y-149750000D02*
X175325000Y-150325000D01*
%TO.N,GND*%
X173006800Y-149500000D02*
X173006800Y-152750000D01*
D65*
%TO.N,3.3v*%
X179750000Y-142750000D02*
X178750000Y-143750000D01*
X181875000Y-134250000D02*
X181875000Y-140625000D01*
D67*
X239032500Y-134500000D02*
X239282500Y-134250000D01*
X238000000Y-134500000D02*
X238250000Y-134500000D01*
%TO.N,GND*%
X242000000Y-127250000D02*
X242500000Y-126750000D01*
X240000000Y-136000000D02*
X240500000Y-135500000D01*
X240500000Y-135500000D02*
X240500000Y-127250000D01*
X240500000Y-127250000D02*
X242000000Y-127250000D01*
%TO.N,buzz*%
X244250000Y-130250000D02*
X242500000Y-130250000D01*
X244750000Y-129750000D02*
X244250000Y-130250000D01*
X245500000Y-129750000D02*
X244750000Y-129750000D01*
%TO.N,GND*%
X234410000Y-136750000D02*
X234750000Y-136410000D01*
X232000000Y-136750000D02*
X234410000Y-136750000D01*
X232000000Y-136250000D02*
X232000000Y-136750000D01*
X230500000Y-134750000D02*
X232000000Y-136250000D01*
%TO.N,Net-(U11-3.3V)*%
X231625000Y-138950000D02*
X231500000Y-138825000D01*
X234750000Y-138950000D02*
X231625000Y-138950000D01*
D65*
%TO.N,Data_ready*%
X231420000Y-120380000D02*
X234750000Y-123710000D01*
X227500000Y-120380000D02*
X231420000Y-120380000D01*
D66*
%TO.N,3.3v*%
X181437500Y-133812500D02*
X181875000Y-134250000D01*
D65*
X181875000Y-134250000D02*
X185500000Y-134250000D01*
X179750000Y-132125000D02*
X181875000Y-134250000D01*
X179750000Y-128000000D02*
X179750000Y-132125000D01*
D66*
%TO.N,HV*%
X178500000Y-131500000D02*
X178250000Y-131250000D01*
X178500000Y-133750000D02*
X178500000Y-131500000D01*
X178250000Y-126347349D02*
X175152651Y-123250000D01*
X178250000Y-131250000D02*
X178250000Y-126347349D01*
%TO.N,GND*%
X168750000Y-156926000D02*
X165996400Y-154172400D01*
X168750000Y-157750000D02*
X168750000Y-156926000D01*
X168277600Y-154172400D02*
X170250000Y-152200000D01*
X165996400Y-154172400D02*
X168277600Y-154172400D01*
%TO.N,3.3v*%
X185500000Y-134250000D02*
X185750000Y-134000000D01*
%TO.N,GND*%
X244500000Y-121750000D02*
X244500000Y-125900000D01*
X244500000Y-125900000D02*
X244850000Y-126250000D01*
D67*
%TO.N,5v+*%
X258750000Y-133040000D02*
X258750000Y-119000000D01*
D66*
X259250000Y-118500000D02*
X258750000Y-119000000D01*
D65*
X237250000Y-157750000D02*
X241750000Y-153250000D01*
X218250000Y-155000000D02*
X221000000Y-157750000D01*
X212250000Y-155000000D02*
X218250000Y-155000000D01*
X221000000Y-157750000D02*
X237250000Y-157750000D01*
X212000000Y-155250000D02*
X212250000Y-155000000D01*
%TO.N,FRQ*%
X210000000Y-152470000D02*
X208390000Y-150860000D01*
X208390000Y-150860000D02*
X202100000Y-150860000D01*
X210000000Y-157500000D02*
X210000000Y-152470000D01*
X211600000Y-159100000D02*
X210000000Y-157500000D01*
X249420000Y-158680000D02*
X249000000Y-159100000D01*
X249000000Y-159100000D02*
X211600000Y-159100000D01*
X249420000Y-157750000D02*
X249420000Y-158680000D01*
%TO.N,HV*%
X255750000Y-128500000D02*
X255750000Y-128250000D01*
D67*
%TO.N,GND*%
X268200000Y-145550000D02*
X268200000Y-153150000D01*
X270000000Y-143750000D02*
X268200000Y-145550000D01*
X270000000Y-136500000D02*
X270000000Y-143750000D01*
X268790000Y-135290000D02*
X270000000Y-136500000D01*
X268500000Y-135290000D02*
X268790000Y-135290000D01*
D65*
%TO.N,5v+*%
X204940000Y-155940000D02*
X205500000Y-156500000D01*
X202100000Y-155940000D02*
X204940000Y-155940000D01*
%TO.N,GND*%
X205100000Y-153400000D02*
X205500000Y-153000000D01*
X202100000Y-153400000D02*
X205100000Y-153400000D01*
%TO.N,5v+*%
X195500000Y-155750000D02*
X198962500Y-155750000D01*
X195500000Y-152500000D02*
X195500000Y-155750000D01*
X192000000Y-149000000D02*
X195500000Y-152500000D01*
X198962500Y-155750000D02*
X199000000Y-155787500D01*
X186500000Y-149000000D02*
X192000000Y-149000000D01*
%TO.N,GND*%
X186747400Y-154172400D02*
X186250000Y-153675000D01*
X190990000Y-154172400D02*
X186747400Y-154172400D01*
%TO.N,3.3v*%
X179750000Y-125250000D02*
X179750000Y-124000000D01*
%TO.N,SCL*%
X224420000Y-122920000D02*
X227500000Y-122920000D01*
X224000000Y-122500000D02*
X224420000Y-122920000D01*
X226580000Y-122920000D02*
X227500000Y-122920000D01*
X222250000Y-127250000D02*
X226580000Y-122920000D01*
X222250000Y-135000000D02*
X222250000Y-127250000D01*
%TO.N,GND*%
X189000000Y-116493600D02*
X190243600Y-115250000D01*
X189000000Y-129750000D02*
X189000000Y-116493600D01*
%TO.N,5v+*%
X187175000Y-119750000D02*
X186750000Y-120175000D01*
X181675000Y-148075000D02*
X181675000Y-149500000D01*
X182750000Y-147000000D02*
X181675000Y-148075000D01*
X184500000Y-147000000D02*
X182750000Y-147000000D01*
X186500000Y-149000000D02*
X184500000Y-147000000D01*
%TO.N,3.3v*%
X175003600Y-118246400D02*
X175003600Y-116672400D01*
X174500000Y-118750000D02*
X175003600Y-118246400D01*
X179750000Y-124000000D02*
X174500000Y-118750000D01*
X179750000Y-128000000D02*
X179750000Y-125250000D01*
X185750000Y-134000000D02*
X192750000Y-134000000D01*
D66*
%TO.N,HV*%
X181861600Y-109922400D02*
X181861600Y-113827600D01*
D65*
%TO.N,5v+*%
X260925000Y-141175000D02*
X260925000Y-138790000D01*
X261500000Y-141500000D02*
X261250000Y-141500000D01*
X267250000Y-141750000D02*
X261750000Y-141750000D01*
X261250000Y-141500000D02*
X260925000Y-141175000D01*
X268500000Y-140500000D02*
X267250000Y-141750000D01*
X268500000Y-137365000D02*
X268500000Y-140500000D01*
X261750000Y-141750000D02*
X261500000Y-141500000D01*
X259750000Y-137615000D02*
X260925000Y-138790000D01*
X259750000Y-136750000D02*
X259750000Y-137615000D01*
%TO.N,HV*%
X245750000Y-148250000D02*
X245500000Y-148250000D01*
X249625000Y-152125000D02*
X245750000Y-148250000D01*
D67*
X250000000Y-151750000D02*
X249625000Y-152125000D01*
D65*
%TO.N,detect*%
X229410000Y-138160000D02*
X227500000Y-138160000D01*
X230250000Y-139000000D02*
X229410000Y-138160000D01*
X236500000Y-153500000D02*
X230250000Y-147250000D01*
X230250000Y-147250000D02*
X230250000Y-139000000D01*
D67*
%TO.N,5v+*%
X187175000Y-119675000D02*
X185750000Y-118250000D01*
X187175000Y-119750000D02*
X187175000Y-119675000D01*
%TO.N,GND*%
X190243600Y-118756400D02*
X190243600Y-115250000D01*
X189250000Y-119750000D02*
X190243600Y-118756400D01*
D65*
X178000000Y-103000000D02*
X181625000Y-99375000D01*
D69*
X182500000Y-100250000D02*
X181625000Y-99375000D01*
D65*
%TO.N,HV*%
X180490000Y-108550800D02*
X181861600Y-109922400D01*
X180490000Y-107077600D02*
X180490000Y-108550800D01*
D66*
%TO.N,3.3v*%
X175003600Y-107077600D02*
X174507586Y-107077600D01*
D65*
%TO.N,HV*%
X180490000Y-115199200D02*
X181861600Y-113827600D01*
X180490000Y-116672400D02*
X180490000Y-115199200D01*
%TO.N,5v+*%
X181074400Y-120000000D02*
X177746800Y-116672400D01*
X185750000Y-118250000D02*
X184000000Y-120000000D01*
X185250000Y-105000000D02*
X185750000Y-105500000D01*
X184000000Y-120000000D02*
X181074400Y-120000000D01*
X177750000Y-105000000D02*
X185250000Y-105000000D01*
%TO.N,Mcler*%
X179118400Y-109922400D02*
X179118400Y-113827600D01*
%TO.N,SCL*%
X176375200Y-109922400D02*
X176375200Y-113827600D01*
%TO.N,SDA*%
X173632000Y-109922400D02*
X173632000Y-113827600D01*
D67*
%TO.N,GND*%
X240000000Y-107000000D02*
X240000000Y-102000000D01*
X237000000Y-107000000D02*
X240000000Y-107000000D01*
D66*
%TO.N,SCL*%
X171750000Y-103750000D02*
X171750000Y-104750000D01*
X172000000Y-104500000D02*
X172300000Y-104500000D01*
X171750000Y-104250000D02*
X172000000Y-104500000D01*
X171750000Y-103750000D02*
X171750000Y-104250000D01*
%TO.N,SDA*%
X170800000Y-102500000D02*
X171300000Y-102000000D01*
X170000000Y-102500000D02*
X170800000Y-102500000D01*
D65*
%TO.N,GND*%
X183000000Y-95175000D02*
X182825000Y-95000000D01*
X183000000Y-98000000D02*
X183000000Y-95175000D01*
X181625000Y-99375000D02*
X183000000Y-98000000D01*
X177750000Y-103000000D02*
X178000000Y-103000000D01*
D67*
%TO.N,3.3v*%
X175750000Y-98750000D02*
X175250000Y-98250000D01*
X175250000Y-98250000D02*
X175250000Y-95000000D01*
D69*
%TO.N,GND*%
X245075000Y-105075000D02*
X242000000Y-102000000D01*
X251750000Y-105075000D02*
X245075000Y-105075000D01*
%TO.N,HV*%
X198000000Y-97750000D02*
X201000000Y-97750000D01*
X197125000Y-96875000D02*
X198000000Y-97750000D01*
X197125000Y-96875000D02*
X198000000Y-96000000D01*
X202500000Y-96250000D02*
X201000000Y-97750000D01*
X202500000Y-95500000D02*
X202500000Y-96250000D01*
D65*
%TO.N,Net-(C39-Pad1)*%
X226750000Y-107500000D02*
X226500000Y-107750000D01*
X226750000Y-106250000D02*
X226750000Y-107500000D01*
%TO.N,Net-(D41-A)*%
X225000000Y-108500000D02*
X225000000Y-106500000D01*
X224500000Y-109000000D02*
X225000000Y-108500000D01*
%TO.N,Net-(C39-Pad1)*%
X232365000Y-104635000D02*
X232250000Y-104750000D01*
X234475000Y-104635000D02*
X232365000Y-104635000D01*
%TO.N,Net-(D41-A)*%
X222500000Y-104000000D02*
X222500000Y-103000000D01*
X224750000Y-106250000D02*
X222500000Y-104000000D01*
%TO.N,GND*%
X262925000Y-71250000D02*
X263332500Y-70842500D01*
X261500000Y-71250000D02*
X262925000Y-71250000D01*
X261500000Y-82750000D02*
X261500000Y-71250000D01*
X263250000Y-84500000D02*
X261500000Y-82750000D01*
%TO.N,M1_L*%
X256472600Y-79000000D02*
X256250000Y-79222600D01*
X258500000Y-79000000D02*
X256472600Y-79000000D01*
X259500000Y-80000000D02*
X258500000Y-79000000D01*
X259500000Y-87750000D02*
X259500000Y-80000000D01*
X261000000Y-87750000D02*
X259500000Y-87750000D01*
X263250000Y-90000000D02*
X261000000Y-87750000D01*
%TO.N,HV*%
X257750000Y-105750000D02*
X253500000Y-101500000D01*
X258250000Y-105750000D02*
X257750000Y-105750000D01*
X255250000Y-101500000D02*
X253500000Y-101500000D01*
X263250000Y-93500000D02*
X255250000Y-101500000D01*
%TO.N,Net-(D57-K)*%
X240750000Y-95000000D02*
X240500000Y-95000000D01*
D69*
%TO.N,GND*%
X175250000Y-102962500D02*
X174537500Y-102250000D01*
X175250000Y-103175000D02*
X175250000Y-102962500D01*
X174537500Y-102250000D02*
X173652651Y-102250000D01*
X175425000Y-103000000D02*
X175250000Y-103175000D01*
X177750000Y-103000000D02*
X175425000Y-103000000D01*
%TO.N,5v+*%
X177750000Y-107074400D02*
X177746800Y-107077600D01*
X177750000Y-105000000D02*
X177750000Y-107074400D01*
%TO.N,3.3v*%
X175250000Y-106750000D02*
X175250000Y-105250000D01*
X175003600Y-106996400D02*
X175250000Y-106750000D01*
X175003600Y-107077600D02*
X175003600Y-106996400D01*
%TO.N,GND*%
X173652651Y-102250000D02*
X173652651Y-105685349D01*
X173652651Y-105685349D02*
X172260400Y-107077600D01*
X173652651Y-98750000D02*
X173652651Y-102250000D01*
X165250000Y-100500000D02*
X165875000Y-99875000D01*
X165250000Y-108500000D02*
X165250000Y-100500000D01*
X165875000Y-99875000D02*
X163750000Y-97750000D01*
X168000000Y-103250000D02*
X169250000Y-104500000D01*
X168000000Y-102000000D02*
X168000000Y-103500000D01*
X163750000Y-97750000D02*
X163750000Y-94000000D01*
X168000000Y-102000000D02*
X165875000Y-99875000D01*
%TO.N,SDA*%
X171300000Y-96950000D02*
X173250000Y-95000000D01*
X171300000Y-102000000D02*
X171300000Y-100900000D01*
%TO.N,GND*%
X163750000Y-94000000D02*
X163750000Y-91500000D01*
X166000000Y-91500000D02*
X163750000Y-91500000D01*
%TO.N,HV*%
X172000000Y-91500000D02*
X169250000Y-91500000D01*
D66*
%TO.N,GND*%
X164500000Y-70750000D02*
X164500000Y-72092500D01*
D69*
%TO.N,Net-(C44-Pad1)*%
X165935000Y-73000000D02*
X165842500Y-72907500D01*
X170750000Y-73000000D02*
X165935000Y-73000000D01*
X171500000Y-72250000D02*
X170750000Y-73000000D01*
X171500000Y-71250000D02*
X171500000Y-72250000D01*
X166250000Y-72500000D02*
X165842500Y-72907500D01*
X166250000Y-70750001D02*
X166250000Y-72500000D01*
%TO.N,M2_R*%
X166000000Y-88000000D02*
X166250000Y-87750000D01*
X166250000Y-87750000D02*
X166250000Y-83360000D01*
%TO.N,M2_L*%
X163750000Y-78250001D02*
X166250000Y-75750001D01*
X163750000Y-88000000D02*
X163750000Y-78250001D01*
D67*
X172000000Y-79750000D02*
X169500000Y-77250000D01*
X172000000Y-88000000D02*
X172000000Y-79750000D01*
%TO.N,M2_R*%
X169500000Y-87750000D02*
X169500000Y-79325000D01*
X169250000Y-88000000D02*
X169500000Y-87750000D01*
%TO.N,Net-(C41-Pad1)*%
X265500000Y-65750000D02*
X266000000Y-65750000D01*
%TO.N,Net-(C42-Pad1)*%
X265907501Y-70842500D02*
X264250000Y-70842500D01*
X266000000Y-70750001D02*
X265907501Y-70842500D01*
D65*
%TO.N,M1_R*%
X266000000Y-82500000D02*
X266000000Y-80750001D01*
X265074999Y-79825000D02*
X266000000Y-80750001D01*
X263000000Y-79825000D02*
X265074999Y-79825000D01*
%TO.N,M1_L*%
X264000001Y-77750000D02*
X266000000Y-75750001D01*
X263000000Y-77750000D02*
X264000001Y-77750000D01*
%TO.N,HV*%
X207250000Y-94500000D02*
X208250000Y-93500000D01*
X207250000Y-95500000D02*
X207250000Y-94500000D01*
%TO.N,error 2*%
X208260755Y-96739245D02*
X207500000Y-97500000D01*
X208260755Y-96510755D02*
X208260755Y-96739245D01*
X207500000Y-97500000D02*
X207000000Y-97500000D01*
X207000000Y-97500000D02*
X206750000Y-97750000D01*
X208739245Y-96510755D02*
X208260755Y-96510755D01*
X209500000Y-95750000D02*
X208739245Y-96510755D01*
D67*
%TO.N,HV*%
X207000000Y-95500000D02*
X207250000Y-95500000D01*
X205750000Y-96750000D02*
X207000000Y-95500000D01*
X202500000Y-95500000D02*
X203750000Y-96750000D01*
X203750000Y-96750000D02*
X205750000Y-96750000D01*
D65*
%TO.N,GND*%
X209750000Y-98000000D02*
X209750000Y-98500000D01*
X209500000Y-97750000D02*
X209750000Y-98000000D01*
D71*
%TO.N,Net-(D41-K)*%
X205000000Y-95325000D02*
X205175000Y-95500000D01*
X205000000Y-92500000D02*
X205000000Y-95325000D01*
X206500000Y-91000000D02*
X205000000Y-92500000D01*
X209750000Y-91000000D02*
X206500000Y-91000000D01*
X210375000Y-90375000D02*
X209750000Y-91000000D01*
D69*
%TO.N,HV*%
X198000000Y-96000000D02*
X198000000Y-95000000D01*
D67*
%TO.N,GND*%
X183250000Y-95000000D02*
X182825000Y-95000000D01*
%TO.N,M2_L*%
X172500000Y-88500000D02*
X172000000Y-88000000D01*
%TO.N,GND*%
X194250000Y-95000000D02*
X196000000Y-95000000D01*
%TO.N,M2_R*%
X166000000Y-88000000D02*
X169250000Y-88000000D01*
%TO.N,GND*%
X163500000Y-91500000D02*
X163250000Y-91250000D01*
X166000000Y-91500000D02*
X163500000Y-91500000D01*
X163750000Y-91750000D02*
X163250000Y-91250000D01*
X163750000Y-94000000D02*
X163750000Y-91750000D01*
%TO.N,HV*%
X168750000Y-92000000D02*
X169250000Y-91500000D01*
X168750000Y-94000000D02*
X168750000Y-92000000D01*
X178652651Y-98750000D02*
X178652651Y-97097349D01*
X178652651Y-97097349D02*
X180750000Y-95000000D01*
%TO.N,Net-(D41-K)*%
X200500000Y-94000000D02*
X200500000Y-95500000D01*
X201250000Y-93250000D02*
X200500000Y-94000000D01*
X205175000Y-93925000D02*
X204500000Y-93250000D01*
X204500000Y-93250000D02*
X201250000Y-93250000D01*
X205175000Y-95500000D02*
X205175000Y-93925000D01*
D66*
%TO.N,Net-(C44-Pad1)*%
X171750000Y-71000000D02*
X171500000Y-71250000D01*
X171750000Y-69000000D02*
X171750000Y-71000000D01*
X164500000Y-72907500D02*
X165842500Y-72907500D01*
%TO.N,Net-(C43-Pad1)*%
X169500000Y-67250000D02*
X168500000Y-66250000D01*
X168000000Y-65750000D02*
X169500000Y-67250000D01*
X166250000Y-65750000D02*
X168000000Y-65750000D01*
D67*
%TO.N,HV*%
X264950000Y-106150000D02*
X266000000Y-107200000D01*
X260750000Y-106150000D02*
X264950000Y-106150000D01*
X258650000Y-106150000D02*
X260750000Y-106150000D01*
X258250000Y-105750000D02*
X258650000Y-106150000D01*
X267050000Y-107200000D02*
X266000000Y-107200000D01*
X269000000Y-105250000D02*
X267050000Y-107200000D01*
%TO.N,GND*%
X267250000Y-100000000D02*
X269000000Y-101750000D01*
X266000000Y-100000000D02*
X267250000Y-100000000D01*
%TO.N,Net-(D26-A)*%
X258750000Y-101750000D02*
X260750000Y-101750000D01*
X258250000Y-102250000D02*
X258750000Y-101750000D01*
%TO.N,HV*%
X253500000Y-101500000D02*
X252000000Y-103000000D01*
X252000000Y-103000000D02*
X251750000Y-103000000D01*
X252410000Y-103660000D02*
X251750000Y-103000000D01*
X253500000Y-103660000D02*
X252410000Y-103660000D01*
%TO.N,GND*%
X252350000Y-104475000D02*
X251750000Y-105075000D01*
X253500000Y-104475000D02*
X252350000Y-104475000D01*
X252075000Y-105075000D02*
X251750000Y-105075000D01*
X253500000Y-106500000D02*
X252075000Y-105075000D01*
D65*
X231000000Y-96750000D02*
X234000000Y-96750000D01*
X229750000Y-98000000D02*
X231000000Y-96750000D01*
X219500000Y-99250000D02*
X217750000Y-101000000D01*
X222000000Y-99250000D02*
X219500000Y-99250000D01*
X223250000Y-100500000D02*
X222000000Y-99250000D01*
X217750000Y-101000000D02*
X216500000Y-101000000D01*
X224750000Y-100500000D02*
X223250000Y-100500000D01*
X215500000Y-101000000D02*
X212250000Y-104250000D01*
X216500000Y-101000000D02*
X215500000Y-101000000D01*
D67*
X264500000Y-84500000D02*
X266000000Y-86000000D01*
X263250000Y-84500000D02*
X264500000Y-84500000D01*
X266000000Y-87670000D02*
X266000000Y-86000000D01*
%TO.N,HV*%
X265250000Y-93500000D02*
X263250000Y-93500000D01*
X266000000Y-92750000D02*
X265250000Y-93500000D01*
%TO.N,M1_L*%
X263250000Y-88000000D02*
X263250000Y-89750000D01*
%TO.N,HV*%
X269250000Y-92750000D02*
X266000000Y-92750000D01*
X270000000Y-92000000D02*
X269250000Y-92750000D01*
X270000000Y-87250000D02*
X270000000Y-92000000D01*
X269000000Y-86250000D02*
X270000000Y-87250000D01*
X269000000Y-85500000D02*
X269000000Y-86250000D01*
%TO.N,M1_R*%
X266500000Y-82000000D02*
X266000000Y-82500000D01*
X269000000Y-82000000D02*
X266500000Y-82000000D01*
%TO.N,Net-(R89-Pad2)*%
X227500000Y-109500000D02*
X226750000Y-110250000D01*
X228750000Y-109500000D02*
X227500000Y-109500000D01*
%TO.N,Net-(C92-Pad1)*%
X228000000Y-107250000D02*
X229000000Y-108250000D01*
X228000000Y-105000000D02*
X228000000Y-107250000D01*
X228365000Y-104635000D02*
X228000000Y-105000000D01*
X229525000Y-104635000D02*
X228365000Y-104635000D01*
%TO.N,Current_limt1*%
X229905000Y-105905000D02*
X229525000Y-105905000D01*
X231750000Y-107750000D02*
X229905000Y-105905000D01*
%TO.N,Net-(C92-Pad1)*%
X229250000Y-108250000D02*
X229000000Y-108250000D01*
X230750000Y-109750000D02*
X229250000Y-108250000D01*
X232000000Y-109750000D02*
X230750000Y-109750000D01*
%TO.N,Net-(R118-Pad2)*%
X228115000Y-103365000D02*
X229525000Y-103365000D01*
X228000000Y-103250000D02*
X228115000Y-103365000D01*
X228000000Y-98750000D02*
X228000000Y-103250000D01*
X227750000Y-98500000D02*
X228000000Y-98750000D01*
%TO.N,GND*%
X235125000Y-106875000D02*
X235375000Y-106875000D01*
X234000000Y-108000000D02*
X235125000Y-106875000D01*
X235375000Y-106875000D02*
X235750000Y-107250000D01*
X242000000Y-102000000D02*
X240000000Y-102000000D01*
%TO.N,Net-(D7-A)*%
X238750000Y-98250000D02*
X238000000Y-99000000D01*
X238750000Y-97000000D02*
X238750000Y-98250000D01*
X239000000Y-100000000D02*
X240000000Y-100000000D01*
X238000000Y-99000000D02*
X239000000Y-100000000D01*
X240000000Y-100000000D02*
X242000000Y-100000000D01*
%TO.N,Net-(C39-Pad1)*%
X236635000Y-104635000D02*
X237000000Y-105000000D01*
X234475000Y-104635000D02*
X236635000Y-104635000D01*
%TO.N,Net-(C39-Pad2)*%
X236865000Y-103365000D02*
X237000000Y-103500000D01*
X234475000Y-103365000D02*
X236865000Y-103365000D01*
%TO.N,GND*%
X235750000Y-107250000D02*
X236000000Y-107000000D01*
X234475000Y-105975000D02*
X235375000Y-106875000D01*
X234475000Y-105905000D02*
X234475000Y-105975000D01*
X236000000Y-107000000D02*
X237000000Y-107000000D01*
%TO.N,Net-(C39-Pad1)*%
X227000000Y-106000000D02*
X227000000Y-106500000D01*
X225500000Y-104500000D02*
X227000000Y-106000000D01*
%TO.N,Net-(C39-Pad2)*%
X225500000Y-102500000D02*
X227000000Y-101000000D01*
X227000000Y-101000000D02*
X227000000Y-100500000D01*
D66*
%TO.N,Net-(R55-Pad1)*%
X233500000Y-99000000D02*
X236000000Y-99000000D01*
X236000000Y-100500000D02*
X236000000Y-99000000D01*
X237000000Y-101500000D02*
X236000000Y-100500000D01*
%TO.N,9v+*%
X229750000Y-100000000D02*
X229750000Y-101870000D01*
X229750000Y-101870000D02*
X229525000Y-102095000D01*
%TO.N,Net-(D41-K)*%
X231250000Y-63250000D02*
X228250000Y-63250000D01*
X232500000Y-64500000D02*
X231250000Y-63250000D01*
X228250000Y-63250000D02*
X227250000Y-64250000D01*
D67*
%TO.N,GND*%
X183979600Y-149729600D02*
X183750000Y-149500000D01*
X183979600Y-152750000D02*
X183979600Y-149729600D01*
%TO.N,3.3v*%
X178500000Y-154750000D02*
X176500000Y-152750000D01*
X176500000Y-152750000D02*
X175750000Y-152750000D01*
X178500000Y-158250000D02*
X178500000Y-154750000D01*
X177750000Y-159000000D02*
X178500000Y-158250000D01*
X177250000Y-159000000D02*
X177750000Y-159000000D01*
%TO.N,SCL*%
X177121600Y-155871600D02*
X177250000Y-156000000D01*
X177250000Y-156000000D02*
X177250000Y-157000000D01*
X177121600Y-155594800D02*
X177121600Y-155871600D01*
%TO.N,3.3v*%
X175500000Y-159000000D02*
X174250000Y-159000000D01*
X175750000Y-158750000D02*
X175500000Y-159000000D01*
X177000000Y-158750000D02*
X175750000Y-158750000D01*
X177250000Y-159000000D02*
X177000000Y-158750000D01*
%TO.N,SDA*%
X174378400Y-156871600D02*
X174378400Y-155594800D01*
X174250000Y-157000000D02*
X174378400Y-156871600D01*
X172223200Y-157750000D02*
X174378400Y-155594800D01*
X172050000Y-157750000D02*
X172223200Y-157750000D01*
X174378400Y-156378400D02*
X174378400Y-155594800D01*
%TO.N,GND*%
X170800000Y-152750000D02*
X170250000Y-152200000D01*
X173006800Y-152750000D02*
X170800000Y-152750000D01*
%TO.N,SCL*%
X177000000Y-155473200D02*
X177121600Y-155594800D01*
X177000000Y-154250000D02*
X177000000Y-155473200D01*
X171500000Y-154250000D02*
X177000000Y-154250000D01*
X170250000Y-155500000D02*
X171500000Y-154250000D01*
%TO.N,HV*%
X186094800Y-155594800D02*
X186250000Y-155750000D01*
X182608000Y-155594800D02*
X186094800Y-155594800D01*
X181236400Y-154223200D02*
X182608000Y-155594800D01*
X181236400Y-152750000D02*
X181236400Y-154223200D01*
%TO.N,GND*%
X185325000Y-152750000D02*
X186250000Y-153675000D01*
X183979600Y-152750000D02*
X185325000Y-152750000D01*
%TO.N,5v+*%
X178493200Y-152681800D02*
X181675000Y-149500000D01*
X178493200Y-152750000D02*
X178493200Y-152681800D01*
%TO.N,3.3v*%
X174925000Y-149500000D02*
X174975000Y-149500000D01*
%TO.N,GND*%
X164250000Y-152426000D02*
X165996400Y-154172400D01*
%TO.N,SW3*%
X202140000Y-130500000D02*
X202100000Y-130540000D01*
%TO.N,SW2*%
X202220000Y-135500000D02*
X202100000Y-135620000D01*
%TO.N,SW1*%
X202180000Y-133000000D02*
X202100000Y-133080000D01*
%TO.N,GND*%
X191449900Y-153712500D02*
X190990000Y-154172400D01*
%TO.N,5v+*%
X199152500Y-155940000D02*
X199000000Y-155787500D01*
X202100000Y-155940000D02*
X199152500Y-155940000D01*
%TO.N,GND*%
X201787500Y-153712500D02*
X199000000Y-153712500D01*
X202100000Y-153400000D02*
X201787500Y-153712500D01*
X232380000Y-154130000D02*
X231000000Y-152750000D01*
%TO.N,Net-(D16-A1)*%
X232305000Y-154945000D02*
X231000000Y-156250000D01*
X234500000Y-154945000D02*
X232305000Y-154945000D01*
X227810000Y-156250000D02*
X227500000Y-155940000D01*
X231000000Y-156250000D02*
X227810000Y-156250000D01*
X227385000Y-155825000D02*
X227500000Y-155940000D01*
X224750000Y-155825000D02*
X227385000Y-155825000D01*
X224750000Y-155825000D02*
X222750000Y-155825000D01*
%TO.N,GND*%
X227150000Y-153750000D02*
X227500000Y-153400000D01*
X224750000Y-153750000D02*
X227150000Y-153750000D01*
X222750000Y-153750000D02*
X224750000Y-153750000D01*
X228150000Y-152750000D02*
X227500000Y-153400000D01*
X231000000Y-152750000D02*
X228150000Y-152750000D01*
%TO.N,HV*%
X249625000Y-152125000D02*
X248250000Y-153500000D01*
X260500000Y-151750000D02*
X250000000Y-151750000D01*
X261900000Y-153150000D02*
X260500000Y-151750000D01*
X248250000Y-153500000D02*
X248250000Y-155500000D01*
%TO.N,5v+*%
X258750000Y-118500000D02*
X259250000Y-118000000D01*
X258750000Y-119000000D02*
X258750000Y-118500000D01*
X260000000Y-134290000D02*
X258750000Y-133040000D01*
%TO.N,buzzing_vcc*%
X256000000Y-122250000D02*
X255750000Y-122500000D01*
X257250000Y-122250000D02*
X256000000Y-122250000D01*
X257250000Y-117250000D02*
X257250000Y-122250000D01*
X257800000Y-116700000D02*
X257250000Y-117250000D01*
X260450000Y-116700000D02*
X257800000Y-116700000D01*
X260700000Y-116950000D02*
X260450000Y-116700000D01*
X260700000Y-122200000D02*
X260700000Y-116950000D01*
X262000000Y-123500000D02*
X260700000Y-122200000D01*
%TO.N,5v+*%
X260000000Y-137865000D02*
X260925000Y-138790000D01*
X260000000Y-134290000D02*
X260000000Y-137865000D01*
%TO.N,GND*%
X261250000Y-157750000D02*
X258250000Y-154750000D01*
X265250000Y-158000000D02*
X261250000Y-158000000D01*
X261250000Y-158000000D02*
X261250000Y-157750000D01*
X267000000Y-156250000D02*
X265250000Y-158000000D01*
X268200000Y-155050000D02*
X268200000Y-153150000D01*
X267000000Y-156250000D02*
X268200000Y-155050000D01*
X266575000Y-151525000D02*
X268200000Y-153150000D01*
X266575000Y-150750000D02*
X266575000Y-151525000D01*
%TO.N,HV*%
X262100000Y-153150000D02*
X261900000Y-153150000D01*
X264500000Y-150750000D02*
X262100000Y-153150000D01*
X263500000Y-154750000D02*
X261900000Y-153150000D01*
X263500000Y-156250000D02*
X263500000Y-154750000D01*
%TO.N,detect*%
X257250000Y-159250000D02*
X253460000Y-159250000D01*
X258250000Y-158250000D02*
X257250000Y-159250000D01*
X253460000Y-159250000D02*
X251960000Y-157750000D01*
%TO.N,FRQ*%
X249420000Y-156830000D02*
X249420000Y-157750000D01*
X250750000Y-155500000D02*
X249420000Y-156830000D01*
X250750000Y-154750000D02*
X250750000Y-155500000D01*
%TO.N,Net-(J13-Pin_4)*%
X246880000Y-156130000D02*
X246880000Y-157750000D01*
X246250000Y-155500000D02*
X246880000Y-156130000D01*
%TO.N,GND*%
X254250000Y-154750000D02*
X254250000Y-157500000D01*
X254250000Y-157500000D02*
X254500000Y-157750000D01*
X254250000Y-154750000D02*
X258250000Y-154750000D01*
%TO.N,5v block*%
X263000000Y-138790000D02*
X266250000Y-138790000D01*
%TO.N,GND*%
X264080000Y-133710000D02*
X263500000Y-134290000D01*
X266250000Y-133710000D02*
X264080000Y-133710000D01*
X266920000Y-133710000D02*
X268500000Y-135290000D01*
X266250000Y-133710000D02*
X266920000Y-133710000D01*
%TO.N,buzzing_gnd*%
X255000000Y-116000000D02*
X253250000Y-117750000D01*
X262000000Y-117250000D02*
X260750000Y-116000000D01*
X262000000Y-120000000D02*
X262000000Y-117250000D01*
X260750000Y-116000000D02*
X255000000Y-116000000D01*
X264790000Y-120000000D02*
X262000000Y-120000000D01*
X266250000Y-121460000D02*
X264790000Y-120000000D01*
%TO.N,buzzing_vcc*%
X255750000Y-124750000D02*
X255750000Y-122500000D01*
%TO.N,Net-(D45-K)*%
X255750000Y-120500000D02*
X255750000Y-118000000D01*
%TO.N,buzzing_vcc*%
X254000000Y-123000000D02*
X254500000Y-122500000D01*
X253250000Y-122250000D02*
X254000000Y-123000000D01*
X253250000Y-119825000D02*
X253250000Y-122250000D01*
X254500000Y-122500000D02*
X255750000Y-122500000D01*
X252250000Y-127500000D02*
X252250000Y-124750000D01*
X255750000Y-124750000D02*
X252250000Y-124750000D01*
%TO.N,Net-(J11-Pin_1)*%
X264790000Y-128000000D02*
X266250000Y-126540000D01*
X262500000Y-128000000D02*
X264790000Y-128000000D01*
%TO.N,buzzing_vcc*%
X262500000Y-125925000D02*
X262500000Y-124000000D01*
X262500000Y-124000000D02*
X262000000Y-123500000D01*
X264500000Y-123500000D02*
X262000000Y-123500000D01*
%TO.N,buzzing_gnd*%
X266575000Y-121785000D02*
X266250000Y-121460000D01*
X266575000Y-123500000D02*
X266575000Y-121785000D01*
X250250000Y-117750000D02*
X250000000Y-118000000D01*
X253250000Y-117750000D02*
X250250000Y-117750000D01*
X249250000Y-118750000D02*
X250000000Y-118000000D01*
X245450000Y-118750000D02*
X249250000Y-118750000D01*
%TO.N,Net-(Q10-C)*%
X245800000Y-124375000D02*
X247125000Y-124375000D01*
X247125000Y-124375000D02*
X250250000Y-127500000D01*
%TO.N,Net-(D10-A)*%
X250000000Y-124500000D02*
X250000000Y-121500000D01*
X250250000Y-124750000D02*
X250000000Y-124500000D01*
%TO.N,Net-(Q10-B)*%
X246750000Y-128250000D02*
X247500000Y-129000000D01*
X246750000Y-126250000D02*
X246750000Y-128250000D01*
%TO.N,Net-(Q10-C)*%
X245800000Y-122350000D02*
X246400000Y-121750000D01*
X245800000Y-124375000D02*
X245800000Y-122350000D01*
%TO.N,GND*%
X243000000Y-126250000D02*
X242500000Y-126750000D01*
X244850000Y-126250000D02*
X243000000Y-126250000D01*
%TO.N,SDA*%
X230210000Y-130540000D02*
X230250000Y-130500000D01*
X227500000Y-130540000D02*
X230210000Y-130540000D01*
D66*
%TO.N,Net-(D42-K)*%
X207325000Y-65250000D02*
X209750000Y-65250000D01*
X207075000Y-65500000D02*
X207325000Y-65250000D01*
X207075000Y-64325000D02*
X207075000Y-65500000D01*
X201750000Y-62500000D02*
X205250000Y-62500000D01*
X205250000Y-62500000D02*
X207075000Y-64325000D01*
X200250000Y-64000000D02*
X201750000Y-62500000D01*
%TO.N,HV*%
X205000000Y-65500000D02*
X203750000Y-65500000D01*
X203750000Y-65500000D02*
X202250000Y-64000000D01*
X225250000Y-64250000D02*
X223000000Y-66500000D01*
X228175000Y-66500000D02*
X223000000Y-66500000D01*
X230425000Y-64250000D02*
X228175000Y-66500000D01*
%TO.N,Net-(D41-K)*%
X234250000Y-64250000D02*
X234500000Y-64500000D01*
X232500000Y-64250000D02*
X234250000Y-64250000D01*
D67*
%TO.N,PGD*%
X210750000Y-108750000D02*
X209250000Y-108750000D01*
X211000000Y-108500000D02*
X210750000Y-108750000D01*
%TO.N,M2_L*%
X167749999Y-77250000D02*
X167315000Y-76815000D01*
X169500000Y-77250000D02*
X167749999Y-77250000D01*
%TO.N,M2_R*%
X169500000Y-79325000D02*
X167675001Y-79325000D01*
X167675001Y-79325000D02*
X166250000Y-80750001D01*
%TO.N,GND*%
X166250000Y-55750000D02*
X166250000Y-54500000D01*
D66*
%TO.N,Net-(R66-Pad1)*%
X169500000Y-71250000D02*
X169500000Y-69250000D01*
D65*
%TO.N,Net-(D49-K)*%
X218375000Y-102500000D02*
X219375000Y-101500000D01*
X217250000Y-102500000D02*
X218375000Y-102500000D01*
D66*
%TO.N,3.3v*%
X175003600Y-107077600D02*
X174790429Y-107077600D01*
X173809014Y-108059015D02*
X173389621Y-108059015D01*
X174790429Y-107077600D02*
X173809014Y-108059015D01*
X173389621Y-108059015D02*
X170948636Y-110500000D01*
X170948636Y-110500000D02*
X170750000Y-110500000D01*
D65*
%TO.N,5v+*%
X186750000Y-120175000D02*
X186750000Y-130000000D01*
D67*
%TO.N,GND*%
X234500000Y-154130000D02*
X232380000Y-154130000D01*
X263435000Y-70842500D02*
X263435000Y-67000000D01*
%TO.N,Net-(C41-Pad1)*%
X264250000Y-67000000D02*
X265500000Y-65750000D01*
D71*
%TO.N,GND*%
X167100000Y-54900000D02*
X166250000Y-55750000D01*
X167100000Y-51750000D02*
X167100000Y-54900000D01*
D65*
X164020000Y-45470000D02*
X164020000Y-51750000D01*
X164020000Y-51750000D02*
X167100000Y-51750000D01*
D66*
%TO.N,B1*%
X175680000Y-45220000D02*
X174290000Y-43830000D01*
X176830000Y-45220000D02*
X175680000Y-45220000D01*
X181200000Y-51700000D02*
X178360000Y-48860000D01*
X181200000Y-55490000D02*
X181200000Y-51700000D01*
X183130000Y-57420000D02*
X181200000Y-55490000D01*
X183130000Y-67670000D02*
X183130000Y-57420000D01*
X176830000Y-48860000D02*
X176830000Y-45220000D01*
X178360000Y-48860000D02*
X176830000Y-48860000D01*
%TD*%
M02*
