%TF.GenerationSoftware,KiCad,Pcbnew,9.0.2*%
%TF.CreationDate,2025-07-25T23:00:18+03:00*%
%TF.ProjectId,SBC,5342432e-6b69-4636-9164-5f7063625858,rev?*%
%TF.SameCoordinates,Original*%
%TF.FileFunction,Soldermask,Bot*%
%TF.FilePolarity,Negative*%
%FSLAX46Y46*%
G04 Gerber Fmt 4.6, Leading zero omitted, Abs format (unit mm)*
G04 Created by KiCad (PCBNEW 9.0.2) date 2025-07-25 23:00:18*
%MOMM*%
%LPD*%
G01*
G04 APERTURE LIST*
G04 Aperture macros list*
%AMRoundRect*
0 Rectangle with rounded corners*
0 $1 Rounding radius*
0 $2 $3 $4 $5 $6 $7 $8 $9 X,Y pos of 4 corners*
0 Add a 4 corners polygon primitive as box body*
4,1,4,$2,$3,$4,$5,$6,$7,$8,$9,$2,$3,0*
0 Add four circle primitives for the rounded corners*
1,1,$1+$1,$2,$3*
1,1,$1+$1,$4,$5*
1,1,$1+$1,$6,$7*
1,1,$1+$1,$8,$9*
0 Add four rect primitives between the rounded corners*
20,1,$1+$1,$2,$3,$4,$5,0*
20,1,$1+$1,$4,$5,$6,$7,0*
20,1,$1+$1,$6,$7,$8,$9,0*
20,1,$1+$1,$8,$9,$2,$3,0*%
G04 Aperture macros list end*
%ADD10RoundRect,0.250000X0.475000X-0.337500X0.475000X0.337500X-0.475000X0.337500X-0.475000X-0.337500X0*%
%ADD11RoundRect,0.250000X0.450000X-0.350000X0.450000X0.350000X-0.450000X0.350000X-0.450000X-0.350000X0*%
%ADD12RoundRect,0.250000X0.350000X0.450000X-0.350000X0.450000X-0.350000X-0.450000X0.350000X-0.450000X0*%
%ADD13RoundRect,0.100000X0.100000X-0.217500X0.100000X0.217500X-0.100000X0.217500X-0.100000X-0.217500X0*%
%ADD14RoundRect,0.250000X-0.450000X0.350000X-0.450000X-0.350000X0.450000X-0.350000X0.450000X0.350000X0*%
%ADD15RoundRect,0.250000X0.600000X-0.400000X0.600000X0.400000X-0.600000X0.400000X-0.600000X-0.400000X0*%
%ADD16RoundRect,0.100000X0.217500X0.100000X-0.217500X0.100000X-0.217500X-0.100000X0.217500X-0.100000X0*%
%ADD17RoundRect,0.102000X-0.685000X0.685000X-0.685000X-0.685000X0.685000X-0.685000X0.685000X0.685000X0*%
%ADD18C,1.574000*%
%ADD19RoundRect,0.250000X-0.337500X-0.475000X0.337500X-0.475000X0.337500X0.475000X-0.337500X0.475000X0*%
%ADD20RoundRect,0.237500X0.287500X0.237500X-0.287500X0.237500X-0.287500X-0.237500X0.287500X-0.237500X0*%
%ADD21RoundRect,0.100000X-0.100000X0.217500X-0.100000X-0.217500X0.100000X-0.217500X0.100000X0.217500X0*%
%ADD22RoundRect,0.237500X-0.237500X0.287500X-0.237500X-0.287500X0.237500X-0.287500X0.237500X0.287500X0*%
%ADD23RoundRect,0.250000X-0.350000X-0.450000X0.350000X-0.450000X0.350000X0.450000X-0.350000X0.450000X0*%
%ADD24RoundRect,0.150000X0.150000X-0.587500X0.150000X0.587500X-0.150000X0.587500X-0.150000X-0.587500X0*%
%ADD25RoundRect,0.100000X-0.217500X-0.100000X0.217500X-0.100000X0.217500X0.100000X-0.217500X0.100000X0*%
%ADD26RoundRect,0.250000X0.337500X0.475000X-0.337500X0.475000X-0.337500X-0.475000X0.337500X-0.475000X0*%
%ADD27RoundRect,0.250000X-0.600000X0.400000X-0.600000X-0.400000X0.600000X-0.400000X0.600000X0.400000X0*%
%ADD28RoundRect,0.225000X0.225000X0.375000X-0.225000X0.375000X-0.225000X-0.375000X0.225000X-0.375000X0*%
%ADD29RoundRect,0.250000X0.400000X0.600000X-0.400000X0.600000X-0.400000X-0.600000X0.400000X-0.600000X0*%
%ADD30RoundRect,0.250000X-0.475000X0.337500X-0.475000X-0.337500X0.475000X-0.337500X0.475000X0.337500X0*%
%ADD31RoundRect,0.225000X-0.225000X-0.375000X0.225000X-0.375000X0.225000X0.375000X-0.225000X0.375000X0*%
%ADD32RoundRect,0.250000X-0.400000X-0.600000X0.400000X-0.600000X0.400000X0.600000X-0.400000X0.600000X0*%
%ADD33RoundRect,0.225000X-0.375000X0.225000X-0.375000X-0.225000X0.375000X-0.225000X0.375000X0.225000X0*%
%ADD34RoundRect,0.237500X-0.287500X-0.237500X0.287500X-0.237500X0.287500X0.237500X-0.287500X0.237500X0*%
%ADD35RoundRect,0.250000X-0.800000X0.450000X-0.800000X-0.450000X0.800000X-0.450000X0.800000X0.450000X0*%
%ADD36RoundRect,0.102000X-0.889000X-0.889000X0.889000X-0.889000X0.889000X0.889000X-0.889000X0.889000X0*%
%ADD37C,1.982000*%
%ADD38C,5.284000*%
%ADD39RoundRect,0.225000X0.375000X-0.225000X0.375000X0.225000X-0.375000X0.225000X-0.375000X-0.225000X0*%
%ADD40RoundRect,0.150000X-0.587500X-0.150000X0.587500X-0.150000X0.587500X0.150000X-0.587500X0.150000X0*%
%ADD41RoundRect,0.200000X0.200000X-0.750000X0.200000X0.750000X-0.200000X0.750000X-0.200000X-0.750000X0*%
%ADD42R,1.700000X1.700000*%
%ADD43C,1.700000*%
%ADD44RoundRect,0.250000X0.550000X0.550000X-0.550000X0.550000X-0.550000X-0.550000X0.550000X-0.550000X0*%
%ADD45C,1.600000*%
%ADD46RoundRect,0.250000X-0.550000X0.550000X-0.550000X-0.550000X0.550000X-0.550000X0.550000X0.550000X0*%
%ADD47C,1.803400*%
%ADD48RoundRect,0.250000X-0.550000X-0.550000X0.550000X-0.550000X0.550000X0.550000X-0.550000X0.550000X0*%
%ADD49RoundRect,0.102000X0.825000X-0.825000X0.825000X0.825000X-0.825000X0.825000X-0.825000X-0.825000X0*%
%ADD50C,1.854000*%
%ADD51RoundRect,0.250000X0.350000X-0.350000X0.350000X0.350000X-0.350000X0.350000X-0.350000X-0.350000X0*%
%ADD52C,1.200000*%
%ADD53R,2.000000X1.905000*%
%ADD54O,2.000000X1.905000*%
%ADD55C,3.200000*%
%ADD56C,6.204000*%
%ADD57RoundRect,0.102000X3.000000X-3.000000X3.000000X3.000000X-3.000000X3.000000X-3.000000X-3.000000X0*%
%ADD58R,2.000000X4.600000*%
%ADD59O,2.000000X4.200000*%
%ADD60O,4.200000X2.000000*%
%ADD61C,3.000000*%
%ADD62RoundRect,0.102000X1.000000X1.000000X-1.000000X1.000000X-1.000000X-1.000000X1.000000X-1.000000X0*%
%ADD63C,2.204000*%
%ADD64RoundRect,0.102000X0.754000X0.754000X-0.754000X0.754000X-0.754000X-0.754000X0.754000X-0.754000X0*%
%ADD65C,1.712000*%
G04 APERTURE END LIST*
D10*
%TO.C,C94*%
X253250000Y-119825000D03*
X253250000Y-117750000D03*
%TD*%
D11*
%TO.C,R114*%
X255750000Y-122500000D03*
X255750000Y-120500000D03*
%TD*%
D12*
%TO.C,C99*%
X227250000Y-65500000D03*
X225250000Y-65500000D03*
%TD*%
D13*
%TO.C,C36*%
X166130000Y-41477500D03*
X166130000Y-40662500D03*
%TD*%
D14*
%TO.C,R70*%
X176500000Y-157000000D03*
X176500000Y-159000000D03*
%TD*%
D15*
%TO.C,D31*%
X263250000Y-88000000D03*
X263250000Y-84500000D03*
%TD*%
%TO.C,D40*%
X171300000Y-91200000D03*
X171300000Y-87700000D03*
%TD*%
D16*
%TO.C,C42*%
X264250000Y-70842500D03*
X263435000Y-70842500D03*
%TD*%
D15*
%TO.C,D8*%
X269000000Y-105250000D03*
X269000000Y-101750000D03*
%TD*%
D17*
%TO.C,J1*%
X189230000Y-65310000D03*
D18*
X189230000Y-62770000D03*
X189230000Y-60230000D03*
%TD*%
D19*
%TO.C,C67*%
X181675000Y-149500000D03*
X183750000Y-149500000D03*
%TD*%
D20*
%TO.C,D48*%
X214825000Y-108500000D03*
X213075000Y-108500000D03*
%TD*%
D21*
%TO.C,C45*%
X197700000Y-66200000D03*
X197700000Y-67015000D03*
%TD*%
D22*
%TO.C,D66*%
X182000000Y-91000000D03*
X182000000Y-92750000D03*
%TD*%
D23*
%TO.C,R68*%
X169500000Y-71250000D03*
X171500000Y-71250000D03*
%TD*%
D24*
%TO.C,Q10*%
X246750000Y-126250000D03*
X244850000Y-126250000D03*
X245800000Y-124375000D03*
%TD*%
D11*
%TO.C,R119*%
X216675000Y-108600000D03*
X216675000Y-106600000D03*
%TD*%
D25*
%TO.C,C47*%
X239435000Y-134250000D03*
X240250000Y-134250000D03*
%TD*%
D26*
%TO.C,C72*%
X199500000Y-130000000D03*
X197425000Y-130000000D03*
%TD*%
D15*
%TO.C,D32*%
X263250000Y-93500000D03*
X263250000Y-90000000D03*
%TD*%
D27*
%TO.C,D30*%
X266000000Y-82500000D03*
X266000000Y-86000000D03*
%TD*%
D21*
%TO.C,C43*%
X165050000Y-68630000D03*
X165050000Y-69445000D03*
%TD*%
D23*
%TO.C,R23*%
X181200000Y-86700000D03*
X183200000Y-86700000D03*
%TD*%
D14*
%TO.C,R63*%
X170700000Y-67100000D03*
X170700000Y-69100000D03*
%TD*%
D28*
%TO.C,ZD22*%
X167510000Y-63770000D03*
X164210000Y-63770000D03*
%TD*%
D29*
%TO.C,D29*%
X268900000Y-78900000D03*
X265400000Y-78900000D03*
%TD*%
D12*
%TO.C,R73*%
X252250000Y-127500000D03*
X250250000Y-127500000D03*
%TD*%
D14*
%TO.C,R26*%
X184000000Y-90400000D03*
X184000000Y-92400000D03*
%TD*%
D27*
%TO.C,D39*%
X163750000Y-88000000D03*
X163750000Y-91500000D03*
%TD*%
D19*
%TO.C,C52*%
X187175000Y-119750000D03*
X189250000Y-119750000D03*
%TD*%
%TO.C,C90*%
X196455000Y-39770000D03*
X198530000Y-39770000D03*
%TD*%
%TO.C,C98*%
X230425000Y-64500000D03*
X232500000Y-64500000D03*
%TD*%
D11*
%TO.C,C34*%
X220800000Y-103600000D03*
X220800000Y-101600000D03*
%TD*%
D19*
%TO.C,C75*%
X264500000Y-150750000D03*
X266575000Y-150750000D03*
%TD*%
D13*
%TO.C,C78*%
X234500000Y-154945000D03*
X234500000Y-154130000D03*
%TD*%
D14*
%TO.C,R113*%
X239750000Y-147000000D03*
X239750000Y-149000000D03*
%TD*%
%TO.C,R71*%
X174250000Y-157000000D03*
X174250000Y-159000000D03*
%TD*%
D23*
%TO.C,R69*%
X173250000Y-95000000D03*
X175250000Y-95000000D03*
%TD*%
%TO.C,R74*%
X245500000Y-129750000D03*
X247500000Y-129750000D03*
%TD*%
D11*
%TO.C,R120*%
X216500000Y-104700000D03*
X216500000Y-102700000D03*
%TD*%
D30*
%TO.C,F5*%
X262500000Y-125925000D03*
X262500000Y-128000000D03*
%TD*%
D27*
%TO.C,ZD4*%
X186400000Y-90200000D03*
X186400000Y-93700000D03*
%TD*%
%TO.C,ZD10*%
X262100000Y-142150000D03*
X262100000Y-145650000D03*
%TD*%
D11*
%TO.C,C85*%
X229200000Y-105900000D03*
X229200000Y-103900000D03*
%TD*%
D10*
%TO.C,C49*%
X199000000Y-155787500D03*
X199000000Y-153712500D03*
%TD*%
D12*
%TO.C,R60*%
X263760000Y-65130000D03*
X261760000Y-65130000D03*
%TD*%
D27*
%TO.C,D37*%
X166000000Y-88000000D03*
X166000000Y-91500000D03*
%TD*%
D30*
%TO.C,C17*%
X251750000Y-103000000D03*
X251750000Y-105075000D03*
%TD*%
D12*
%TO.C,R117*%
X248250000Y-155500000D03*
X246250000Y-155500000D03*
%TD*%
D19*
%TO.C,C77*%
X264500000Y-123500000D03*
X266575000Y-123500000D03*
%TD*%
D15*
%TO.C,D19*%
X262000000Y-123500000D03*
X262000000Y-120000000D03*
%TD*%
D12*
%TO.C,R101*%
X238400000Y-138800000D03*
X236400000Y-138800000D03*
%TD*%
D21*
%TO.C,C22*%
X186600000Y-91392500D03*
X186600000Y-92207500D03*
%TD*%
D31*
%TO.C,ZD27*%
X229350000Y-100200000D03*
X232650000Y-100200000D03*
%TD*%
D26*
%TO.C,C104*%
X231775000Y-92800000D03*
X229700000Y-92800000D03*
%TD*%
D12*
%TO.C,R64*%
X267540000Y-63350000D03*
X265540000Y-63350000D03*
%TD*%
D32*
%TO.C,D18*%
X263500000Y-156250000D03*
X267000000Y-156250000D03*
%TD*%
D23*
%TO.C,C102*%
X229800000Y-94300000D03*
X231800000Y-94300000D03*
%TD*%
D32*
%TO.C,ZD3*%
X188050000Y-47600000D03*
X191550000Y-47600000D03*
%TD*%
D10*
%TO.C,C5*%
X169500000Y-79325000D03*
X169500000Y-77250000D03*
%TD*%
D23*
%TO.C,C103*%
X205100000Y-93600000D03*
X207100000Y-93600000D03*
%TD*%
D15*
%TO.C,D16*%
X231000000Y-156250000D03*
X231000000Y-152750000D03*
%TD*%
D27*
%TO.C,D20*%
X255750000Y-124750000D03*
X255750000Y-128250000D03*
%TD*%
D14*
%TO.C,C29*%
X177750000Y-103000000D03*
X177750000Y-105000000D03*
%TD*%
D16*
%TO.C,C41*%
X264250000Y-67000000D03*
X263435000Y-67000000D03*
%TD*%
D12*
%TO.C,R67*%
X267540000Y-72720000D03*
X265540000Y-72720000D03*
%TD*%
D32*
%TO.C,D17*%
X260000000Y-134290000D03*
X263500000Y-134290000D03*
%TD*%
D33*
%TO.C,ZD19*%
X258900000Y-67250000D03*
X258900000Y-70550000D03*
%TD*%
D15*
%TO.C,D15*%
X205100000Y-156900000D03*
X205100000Y-153400000D03*
%TD*%
D34*
%TO.C,D49*%
X223525000Y-108100000D03*
X225275000Y-108100000D03*
%TD*%
D35*
%TO.C,F3*%
X260750000Y-101750000D03*
X260750000Y-106150000D03*
%TD*%
D28*
%TO.C,ZD17*%
X171300000Y-102000000D03*
X168000000Y-102000000D03*
%TD*%
D26*
%TO.C,C70*%
X199250000Y-127500000D03*
X197175000Y-127500000D03*
%TD*%
D12*
%TO.C,R72*%
X252250000Y-124750000D03*
X250250000Y-124750000D03*
%TD*%
D27*
%TO.C,D10*%
X250000000Y-118000000D03*
X250000000Y-121500000D03*
%TD*%
D10*
%TO.C,C50*%
X175250000Y-105037500D03*
X175250000Y-102962500D03*
%TD*%
D15*
%TO.C,ZD9*%
X259690000Y-48720000D03*
X259690000Y-45220000D03*
%TD*%
D19*
%TO.C,C48*%
X180750000Y-95000000D03*
X182825000Y-95000000D03*
%TD*%
D23*
%TO.C,R16*%
X220960000Y-61970000D03*
X222960000Y-61970000D03*
%TD*%
D15*
%TO.C,D11*%
X242500000Y-130250000D03*
X242500000Y-126750000D03*
%TD*%
D26*
%TO.C,C71*%
X199750000Y-136000000D03*
X197675000Y-136000000D03*
%TD*%
D15*
%TO.C,D38*%
X169250000Y-91500000D03*
X169250000Y-88000000D03*
%TD*%
%TO.C,D26*%
X258250000Y-105750000D03*
X258250000Y-102250000D03*
%TD*%
D28*
%TO.C,ZD18*%
X172300000Y-104500000D03*
X169000000Y-104500000D03*
%TD*%
D26*
%TO.C,C69*%
X199500000Y-133000000D03*
X197425000Y-133000000D03*
%TD*%
D12*
%TO.C,R30*%
X197300000Y-68700000D03*
X195300000Y-68700000D03*
%TD*%
D19*
%TO.C,C101*%
X205000000Y-65500000D03*
X207075000Y-65500000D03*
%TD*%
D36*
%TO.C,J8*%
X183233200Y-116672400D03*
D37*
X180490000Y-116672400D03*
X177746800Y-116672400D03*
X175003600Y-116672400D03*
X172260400Y-116672400D03*
X181861600Y-113827600D03*
X179118400Y-113827600D03*
X176375200Y-113827600D03*
X173632000Y-113827600D03*
D38*
X190243600Y-115250000D03*
X165250000Y-115250000D03*
%TD*%
D12*
%TO.C,R47*%
X226900000Y-106300000D03*
X224900000Y-106300000D03*
%TD*%
D10*
%TO.C,C79*%
X222750000Y-155825000D03*
X222750000Y-153750000D03*
%TD*%
D39*
%TO.C,ZD33*%
X170250000Y-155500000D03*
X170250000Y-152200000D03*
%TD*%
D13*
%TO.C,C44*%
X164500000Y-72907500D03*
X164500000Y-72092500D03*
%TD*%
D26*
%TO.C,C53*%
X175325000Y-149750000D03*
X173250000Y-149750000D03*
%TD*%
D10*
%TO.C,C80*%
X224750000Y-155825000D03*
X224750000Y-153750000D03*
%TD*%
D11*
%TO.C,R66*%
X168300000Y-69250000D03*
X168300000Y-67250000D03*
%TD*%
D30*
%TO.C,C65*%
X232000000Y-136750000D03*
X232000000Y-138825000D03*
%TD*%
D40*
%TO.C,Q7*%
X220725000Y-107750000D03*
X220725000Y-105850000D03*
X222600000Y-106800000D03*
%TD*%
D21*
%TO.C,C18*%
X253500000Y-103660000D03*
X253500000Y-104475000D03*
%TD*%
D15*
%TO.C,D24*%
X258250000Y-158250000D03*
X258250000Y-154750000D03*
%TD*%
D33*
%TO.C,ZD20*%
X261390000Y-67440000D03*
X261390000Y-70740000D03*
%TD*%
D19*
%TO.C,C15*%
X188162500Y-45800000D03*
X190237500Y-45800000D03*
%TD*%
D30*
%TO.C,C9*%
X263000000Y-77750000D03*
X263000000Y-79825000D03*
%TD*%
D32*
%TO.C,D45*%
X255750000Y-118500000D03*
X259250000Y-118500000D03*
%TD*%
D20*
%TO.C,D57*%
X238575000Y-93800000D03*
X236825000Y-93800000D03*
%TD*%
D27*
%TO.C,ZD31*%
X230500000Y-131250000D03*
X230500000Y-134750000D03*
%TD*%
D11*
%TO.C,C20*%
X195000000Y-66400000D03*
X195000000Y-64400000D03*
%TD*%
D26*
%TO.C,C105*%
X207250000Y-95500000D03*
X205175000Y-95500000D03*
%TD*%
D32*
%TO.C,D21*%
X250750000Y-154750000D03*
X254250000Y-154750000D03*
%TD*%
D12*
%TO.C,C24*%
X168930000Y-52760000D03*
X166930000Y-52760000D03*
%TD*%
D28*
%TO.C,ZD34*%
X172050000Y-157750000D03*
X168750000Y-157750000D03*
%TD*%
D11*
%TO.C,R100*%
X266300000Y-48900000D03*
X266300000Y-46900000D03*
%TD*%
D19*
%TO.C,C76*%
X265262500Y-141900000D03*
X267337500Y-141900000D03*
%TD*%
D41*
%TO.C,Q11*%
X246400000Y-121750000D03*
X244500000Y-121750000D03*
X245450000Y-118750000D03*
%TD*%
D12*
%TO.C,C35*%
X267540000Y-57680000D03*
X265540000Y-57680000D03*
%TD*%
D28*
%TO.C,ZD21*%
X170970000Y-58600000D03*
X167670000Y-58600000D03*
%TD*%
D34*
%TO.C,D6*%
X184700000Y-43200000D03*
X186450000Y-43200000D03*
%TD*%
D11*
%TO.C,C25*%
X263010000Y-59200000D03*
X263010000Y-57200000D03*
%TD*%
D15*
%TO.C,ZD36*%
X224500000Y-122500000D03*
X224500000Y-119000000D03*
%TD*%
D10*
%TO.C,C63*%
X186250000Y-155750000D03*
X186250000Y-153675000D03*
%TD*%
D14*
%TO.C,R21*%
X209500000Y-95750000D03*
X209500000Y-97750000D03*
%TD*%
D19*
%TO.C,F7*%
X260925000Y-138790000D03*
X263000000Y-138790000D03*
%TD*%
D12*
%TO.C,C100*%
X207000000Y-63600000D03*
X205000000Y-63600000D03*
%TD*%
D23*
%TO.C,R27*%
X182000000Y-88640000D03*
X184000000Y-88640000D03*
%TD*%
D42*
%TO.C,J13*%
X254330000Y-157250000D03*
D43*
X251790000Y-157250000D03*
X249250000Y-157250000D03*
X246710000Y-157250000D03*
%TD*%
D44*
%TO.C,C23*%
X168750000Y-94000000D03*
D45*
X163750000Y-94000000D03*
%TD*%
D46*
%TO.C,C27*%
X257200000Y-134300000D03*
D45*
X257200000Y-139300000D03*
%TD*%
D47*
%TO.C,J5*%
X266000000Y-55750000D03*
X266000000Y-60750000D03*
X266000000Y-65750000D03*
X266000000Y-70750001D03*
X266000000Y-75750001D03*
X266000000Y-80750001D03*
%TD*%
D48*
%TO.C,C60*%
X245930000Y-64450000D03*
D45*
X250930000Y-64450000D03*
%TD*%
D48*
%TO.C,C96*%
X186400000Y-98100000D03*
D45*
X191400000Y-98100000D03*
%TD*%
D49*
%TO.C,J14*%
X266250000Y-138790000D03*
D50*
X266250000Y-133710000D03*
%TD*%
D36*
%TO.C,J4*%
X183233200Y-107077600D03*
D37*
X180490000Y-107077600D03*
X177746800Y-107077600D03*
X175003600Y-107077600D03*
X172260400Y-107077600D03*
X181861600Y-109922400D03*
X179118400Y-109922400D03*
X176375200Y-109922400D03*
X173632000Y-109922400D03*
D38*
X190243600Y-108500000D03*
X165250000Y-108500000D03*
%TD*%
D51*
%TO.C,C12*%
X256100000Y-80900000D03*
D52*
X256100000Y-79400000D03*
%TD*%
D53*
%TO.C,U14*%
X261911906Y-48375000D03*
D54*
X261911906Y-45835000D03*
X261911906Y-43295000D03*
%TD*%
D46*
%TO.C,C54*%
X253500000Y-101500000D03*
D45*
X253500000Y-106500000D03*
%TD*%
D55*
%TO.C,REF\u002A\u002A*%
X191400000Y-80000000D03*
%TD*%
%TO.C,REF\u002A\u002A*%
X237200000Y-80200000D03*
%TD*%
D44*
%TO.C,C57*%
X178652651Y-98750000D03*
D45*
X173652651Y-98750000D03*
%TD*%
D36*
%TO.C,J10*%
X183979600Y-152750000D03*
D37*
X181236400Y-152750000D03*
X178493200Y-152750000D03*
X175750000Y-152750000D03*
X173006800Y-152750000D03*
X182608000Y-155594800D03*
X179864800Y-155594800D03*
X177121600Y-155594800D03*
X174378400Y-155594800D03*
D38*
X190990000Y-154172400D03*
X165996400Y-154172400D03*
%TD*%
D49*
%TO.C,J3*%
X266000000Y-92750000D03*
D50*
X266000000Y-87670000D03*
%TD*%
D56*
%TO.C,J6*%
X266000000Y-100000000D03*
D57*
X266000000Y-107200000D03*
%TD*%
D42*
%TO.C,U11*%
X234750000Y-141490000D03*
D43*
X234750000Y-138950000D03*
X234750000Y-136410000D03*
X234750000Y-133870000D03*
X234750000Y-131330000D03*
X234750000Y-128790000D03*
X234750000Y-126250000D03*
X234750000Y-123710000D03*
%TD*%
D51*
%TO.C,C91*%
X186500000Y-80422600D03*
D52*
X186500000Y-78922600D03*
%TD*%
D46*
%TO.C,C88*%
X254250000Y-45340000D03*
D45*
X254250000Y-50340000D03*
%TD*%
D49*
%TO.C,J11*%
X266250000Y-126540000D03*
D50*
X266250000Y-121460000D03*
%TD*%
D46*
%TO.C,C97*%
X239340000Y-64057349D03*
D45*
X239340000Y-69057349D03*
%TD*%
D58*
%TO.C,J15*%
X261900000Y-153150000D03*
D59*
X268200000Y-153150000D03*
D60*
X264800000Y-148350000D03*
%TD*%
D48*
%TO.C,C37*%
X241270000Y-56400000D03*
D45*
X246270000Y-56400000D03*
%TD*%
D47*
%TO.C,J7*%
X166250000Y-55750000D03*
X166250000Y-60750000D03*
X166250000Y-65750000D03*
X166250000Y-70750001D03*
X166250000Y-75750001D03*
X166250000Y-80750001D03*
%TD*%
D61*
%TO.C,U10*%
X227080000Y-163900000D03*
X227080000Y-116950000D03*
X202570000Y-163900000D03*
X202570000Y-116950000D03*
D62*
X227500000Y-155940000D03*
D63*
X227500000Y-153400000D03*
X227500000Y-150860000D03*
X227500000Y-148320000D03*
X227500000Y-145780000D03*
X227500000Y-143240000D03*
X227500000Y-140700000D03*
X227500000Y-138160000D03*
X227500000Y-135620000D03*
X227500000Y-133080000D03*
X227500000Y-130540000D03*
X227500000Y-128000000D03*
X227500000Y-125460000D03*
X227500000Y-122920000D03*
X227500000Y-120380000D03*
X202100000Y-120380000D03*
X202100000Y-122920000D03*
X202100000Y-125460000D03*
X202100000Y-128000000D03*
X202100000Y-130540000D03*
X202100000Y-133080000D03*
X202100000Y-135620000D03*
X202100000Y-138160000D03*
X202100000Y-140700000D03*
X202100000Y-143240000D03*
X202100000Y-145780000D03*
X202100000Y-148320000D03*
X202100000Y-150860000D03*
X202100000Y-153400000D03*
X202100000Y-155940000D03*
%TD*%
D46*
%TO.C,C6*%
X236500000Y-145750000D03*
D45*
X236500000Y-150750000D03*
%TD*%
D44*
%TO.C,C19*%
X175152651Y-123250000D03*
D45*
X170152651Y-123250000D03*
%TD*%
D64*
%TO.C,J2*%
X185500000Y-41400000D03*
D65*
X188000000Y-41400000D03*
X190500000Y-41400000D03*
X193000000Y-41400000D03*
X195500000Y-41400000D03*
%TD*%
M02*
