%TF.GenerationSoftware,KiCad,Pcbnew,9.0.2*%
%TF.CreationDate,2025-07-24T15:49:36+03:00*%
%TF.ProjectId,SBC,5342432e-6b69-4636-9164-5f7063625858,rev?*%
%TF.SameCoordinates,Original*%
%TF.FileFunction,Copper,L1,Top*%
%TF.FilePolarity,Positive*%
%FSLAX46Y46*%
G04 Gerber Fmt 4.6, Leading zero omitted, Abs format (unit mm)*
G04 Created by KiCad (PCBNEW 9.0.2) date 2025-07-24 15:49:36*
%MOMM*%
%LPD*%
G01*
G04 APERTURE LIST*
G04 Aperture macros list*
%AMRoundRect*
0 Rectangle with rounded corners*
0 $1 Rounding radius*
0 $2 $3 $4 $5 $6 $7 $8 $9 X,Y pos of 4 corners*
0 Add a 4 corners polygon primitive as box body*
4,1,4,$2,$3,$4,$5,$6,$7,$8,$9,$2,$3,0*
0 Add four circle primitives for the rounded corners*
1,1,$1+$1,$2,$3*
1,1,$1+$1,$4,$5*
1,1,$1+$1,$6,$7*
1,1,$1+$1,$8,$9*
0 Add four rect primitives between the rounded corners*
20,1,$1+$1,$2,$3,$4,$5,0*
20,1,$1+$1,$4,$5,$6,$7,0*
20,1,$1+$1,$6,$7,$8,$9,0*
20,1,$1+$1,$8,$9,$2,$3,0*%
G04 Aperture macros list end*
%TA.AperFunction,Conductor*%
%ADD10C,0.200000*%
%TD*%
%TA.AperFunction,SMDPad,CuDef*%
%ADD11RoundRect,0.225000X0.375000X-0.225000X0.375000X0.225000X-0.375000X0.225000X-0.375000X-0.225000X0*%
%TD*%
%TA.AperFunction,SMDPad,CuDef*%
%ADD12RoundRect,0.237500X-0.237500X0.287500X-0.237500X-0.287500X0.237500X-0.287500X0.237500X0.287500X0*%
%TD*%
%TA.AperFunction,SMDPad,CuDef*%
%ADD13RoundRect,0.250000X0.830000X0.310000X-0.830000X0.310000X-0.830000X-0.310000X0.830000X-0.310000X0*%
%TD*%
%TA.AperFunction,ComponentPad*%
%ADD14R,1.370000X1.370000*%
%TD*%
%TA.AperFunction,ComponentPad*%
%ADD15C,1.370000*%
%TD*%
%TA.AperFunction,SMDPad,CuDef*%
%ADD16RoundRect,0.250000X-0.450000X0.350000X-0.450000X-0.350000X0.450000X-0.350000X0.450000X0.350000X0*%
%TD*%
%TA.AperFunction,SMDPad,CuDef*%
%ADD17RoundRect,0.150000X0.587500X0.150000X-0.587500X0.150000X-0.587500X-0.150000X0.587500X-0.150000X0*%
%TD*%
%TA.AperFunction,SMDPad,CuDef*%
%ADD18RoundRect,0.250000X-0.350000X-0.450000X0.350000X-0.450000X0.350000X0.450000X-0.350000X0.450000X0*%
%TD*%
%TA.AperFunction,SMDPad,CuDef*%
%ADD19RoundRect,0.250000X-0.475000X0.337500X-0.475000X-0.337500X0.475000X-0.337500X0.475000X0.337500X0*%
%TD*%
%TA.AperFunction,SMDPad,CuDef*%
%ADD20RoundRect,0.150000X0.825000X0.150000X-0.825000X0.150000X-0.825000X-0.150000X0.825000X-0.150000X0*%
%TD*%
%TA.AperFunction,SMDPad,CuDef*%
%ADD21RoundRect,0.100000X-0.100000X0.217500X-0.100000X-0.217500X0.100000X-0.217500X0.100000X0.217500X0*%
%TD*%
%TA.AperFunction,SMDPad,CuDef*%
%ADD22RoundRect,0.250000X0.350000X0.450000X-0.350000X0.450000X-0.350000X-0.450000X0.350000X-0.450000X0*%
%TD*%
%TA.AperFunction,SMDPad,CuDef*%
%ADD23RoundRect,0.250000X0.450000X-0.350000X0.450000X0.350000X-0.450000X0.350000X-0.450000X-0.350000X0*%
%TD*%
%TA.AperFunction,SMDPad,CuDef*%
%ADD24RoundRect,0.250000X0.600000X-0.400000X0.600000X0.400000X-0.600000X0.400000X-0.600000X-0.400000X0*%
%TD*%
%TA.AperFunction,SMDPad,CuDef*%
%ADD25RoundRect,0.250000X0.475000X-0.337500X0.475000X0.337500X-0.475000X0.337500X-0.475000X-0.337500X0*%
%TD*%
%TA.AperFunction,SMDPad,CuDef*%
%ADD26RoundRect,0.237500X0.237500X-0.287500X0.237500X0.287500X-0.237500X0.287500X-0.237500X-0.287500X0*%
%TD*%
%TA.AperFunction,SMDPad,CuDef*%
%ADD27RoundRect,0.225000X0.225000X0.375000X-0.225000X0.375000X-0.225000X-0.375000X0.225000X-0.375000X0*%
%TD*%
%TA.AperFunction,ComponentPad*%
%ADD28R,2.000000X1.905000*%
%TD*%
%TA.AperFunction,ComponentPad*%
%ADD29O,2.000000X1.905000*%
%TD*%
%TA.AperFunction,SMDPad,CuDef*%
%ADD30RoundRect,0.250000X-0.400000X-0.600000X0.400000X-0.600000X0.400000X0.600000X-0.400000X0.600000X0*%
%TD*%
%TA.AperFunction,SMDPad,CuDef*%
%ADD31RoundRect,0.250000X-0.600000X0.400000X-0.600000X-0.400000X0.600000X-0.400000X0.600000X0.400000X0*%
%TD*%
%TA.AperFunction,ComponentPad*%
%ADD32RoundRect,0.250000X-0.550000X-0.550000X0.550000X-0.550000X0.550000X0.550000X-0.550000X0.550000X0*%
%TD*%
%TA.AperFunction,ComponentPad*%
%ADD33C,1.600000*%
%TD*%
%TA.AperFunction,ComponentPad*%
%ADD34C,1.508000*%
%TD*%
%TA.AperFunction,ComponentPad*%
%ADD35R,1.508000X1.508000*%
%TD*%
%TA.AperFunction,SMDPad,CuDef*%
%ADD36RoundRect,0.237500X-0.287500X-0.237500X0.287500X-0.237500X0.287500X0.237500X-0.287500X0.237500X0*%
%TD*%
%TA.AperFunction,ComponentPad*%
%ADD37C,2.000000*%
%TD*%
%TA.AperFunction,ComponentPad*%
%ADD38R,2.000000X2.000000*%
%TD*%
%TA.AperFunction,SMDPad,CuDef*%
%ADD39RoundRect,0.250000X0.337500X0.475000X-0.337500X0.475000X-0.337500X-0.475000X0.337500X-0.475000X0*%
%TD*%
%TA.AperFunction,SMDPad,CuDef*%
%ADD40R,10.070000X8.290000*%
%TD*%
%TA.AperFunction,SMDPad,CuDef*%
%ADD41R,0.800000X3.810000*%
%TD*%
%TA.AperFunction,SMDPad,CuDef*%
%ADD42RoundRect,0.250000X0.400000X0.600000X-0.400000X0.600000X-0.400000X-0.600000X0.400000X-0.600000X0*%
%TD*%
%TA.AperFunction,SMDPad,CuDef*%
%ADD43RoundRect,0.225000X-0.375000X0.225000X-0.375000X-0.225000X0.375000X-0.225000X0.375000X0.225000X0*%
%TD*%
%TA.AperFunction,SMDPad,CuDef*%
%ADD44RoundRect,0.100000X0.100000X-0.217500X0.100000X0.217500X-0.100000X0.217500X-0.100000X-0.217500X0*%
%TD*%
%TA.AperFunction,ComponentPad*%
%ADD45RoundRect,0.250000X-0.550000X0.550000X-0.550000X-0.550000X0.550000X-0.550000X0.550000X0.550000X0*%
%TD*%
%TA.AperFunction,SMDPad,CuDef*%
%ADD46RoundRect,0.250000X0.300000X-2.050000X0.300000X2.050000X-0.300000X2.050000X-0.300000X-2.050000X0*%
%TD*%
%TA.AperFunction,SMDPad,CuDef*%
%ADD47RoundRect,0.250002X5.149998X-4.449998X5.149998X4.449998X-5.149998X4.449998X-5.149998X-4.449998X0*%
%TD*%
%TA.AperFunction,ComponentPad*%
%ADD48C,1.803400*%
%TD*%
%TA.AperFunction,ComponentPad*%
%ADD49R,2.000000X4.600000*%
%TD*%
%TA.AperFunction,ComponentPad*%
%ADD50O,2.000000X4.200000*%
%TD*%
%TA.AperFunction,ComponentPad*%
%ADD51O,4.200000X2.000000*%
%TD*%
%TA.AperFunction,SMDPad,CuDef*%
%ADD52RoundRect,0.150000X0.150000X-0.587500X0.150000X0.587500X-0.150000X0.587500X-0.150000X-0.587500X0*%
%TD*%
%TA.AperFunction,SMDPad,CuDef*%
%ADD53RoundRect,0.249999X-1.425001X0.450001X-1.425001X-0.450001X1.425001X-0.450001X1.425001X0.450001X0*%
%TD*%
%TA.AperFunction,ComponentPad*%
%ADD54R,1.650000X1.650000*%
%TD*%
%TA.AperFunction,ComponentPad*%
%ADD55C,1.650000*%
%TD*%
%TA.AperFunction,SMDPad,CuDef*%
%ADD56RoundRect,0.100000X-0.217500X-0.100000X0.217500X-0.100000X0.217500X0.100000X-0.217500X0.100000X0*%
%TD*%
%TA.AperFunction,SMDPad,CuDef*%
%ADD57RoundRect,0.250000X-0.300000X2.050000X-0.300000X-2.050000X0.300000X-2.050000X0.300000X2.050000X0*%
%TD*%
%TA.AperFunction,SMDPad,CuDef*%
%ADD58RoundRect,0.250002X-5.149998X4.449998X-5.149998X-4.449998X5.149998X-4.449998X5.149998X4.449998X0*%
%TD*%
%TA.AperFunction,ComponentPad*%
%ADD59RoundRect,0.250000X0.350000X-0.350000X0.350000X0.350000X-0.350000X0.350000X-0.350000X-0.350000X0*%
%TD*%
%TA.AperFunction,ComponentPad*%
%ADD60C,1.200000*%
%TD*%
%TA.AperFunction,SMDPad,CuDef*%
%ADD61RoundRect,0.225000X-0.225000X-0.375000X0.225000X-0.375000X0.225000X0.375000X-0.225000X0.375000X0*%
%TD*%
%TA.AperFunction,SMDPad,CuDef*%
%ADD62RoundRect,0.250000X0.550000X-1.050000X0.550000X1.050000X-0.550000X1.050000X-0.550000X-1.050000X0*%
%TD*%
%TA.AperFunction,ComponentPad*%
%ADD63R,1.700000X1.700000*%
%TD*%
%TA.AperFunction,ComponentPad*%
%ADD64C,1.700000*%
%TD*%
%TA.AperFunction,SMDPad,CuDef*%
%ADD65RoundRect,0.150000X-0.150000X0.587500X-0.150000X-0.587500X0.150000X-0.587500X0.150000X0.587500X0*%
%TD*%
%TA.AperFunction,ComponentPad*%
%ADD66C,6.000000*%
%TD*%
%TA.AperFunction,ComponentPad*%
%ADD67R,6.000000X6.000000*%
%TD*%
%TA.AperFunction,SMDPad,CuDef*%
%ADD68RoundRect,0.250000X-0.310000X0.830000X-0.310000X-0.830000X0.310000X-0.830000X0.310000X0.830000X0*%
%TD*%
%TA.AperFunction,SMDPad,CuDef*%
%ADD69RoundRect,0.250000X-0.850000X-0.350000X0.850000X-0.350000X0.850000X0.350000X-0.850000X0.350000X0*%
%TD*%
%TA.AperFunction,SMDPad,CuDef*%
%ADD70RoundRect,0.249997X-2.950003X-2.650003X2.950003X-2.650003X2.950003X2.650003X-2.950003X2.650003X0*%
%TD*%
%TA.AperFunction,SMDPad,CuDef*%
%ADD71RoundRect,0.250000X-0.337500X-0.475000X0.337500X-0.475000X0.337500X0.475000X-0.337500X0.475000X0*%
%TD*%
%TA.AperFunction,ComponentPad*%
%ADD72R,1.778000X1.778000*%
%TD*%
%TA.AperFunction,ComponentPad*%
%ADD73C,1.778000*%
%TD*%
%TA.AperFunction,ComponentPad*%
%ADD74C,5.080000*%
%TD*%
%TA.AperFunction,SMDPad,CuDef*%
%ADD75RoundRect,0.150000X-0.587500X-0.150000X0.587500X-0.150000X0.587500X0.150000X-0.587500X0.150000X0*%
%TD*%
%TA.AperFunction,ComponentPad*%
%ADD76RoundRect,0.250000X0.550000X0.550000X-0.550000X0.550000X-0.550000X-0.550000X0.550000X-0.550000X0*%
%TD*%
%TA.AperFunction,SMDPad,CuDef*%
%ADD77RoundRect,0.250000X-0.830000X-0.310000X0.830000X-0.310000X0.830000X0.310000X-0.830000X0.310000X0*%
%TD*%
%TA.AperFunction,SMDPad,CuDef*%
%ADD78RoundRect,0.250000X-0.450000X-0.800000X0.450000X-0.800000X0.450000X0.800000X-0.450000X0.800000X0*%
%TD*%
%TA.AperFunction,SMDPad,CuDef*%
%ADD79RoundRect,0.237500X0.287500X0.237500X-0.287500X0.237500X-0.287500X-0.237500X0.287500X-0.237500X0*%
%TD*%
%TA.AperFunction,ComponentPad*%
%ADD80RoundRect,0.250000X0.550000X-0.550000X0.550000X0.550000X-0.550000X0.550000X-0.550000X-0.550000X0*%
%TD*%
%TA.AperFunction,SMDPad,CuDef*%
%ADD81RoundRect,0.250000X0.550000X-0.400000X0.550000X0.400000X-0.550000X0.400000X-0.550000X-0.400000X0*%
%TD*%
%TA.AperFunction,SMDPad,CuDef*%
%ADD82RoundRect,0.250000X0.550000X-0.750000X0.550000X0.750000X-0.550000X0.750000X-0.550000X-0.750000X0*%
%TD*%
%TA.AperFunction,SMDPad,CuDef*%
%ADD83R,1.866900X0.431800*%
%TD*%
%TA.AperFunction,SMDPad,CuDef*%
%ADD84RoundRect,0.250000X-0.350000X0.850000X-0.350000X-0.850000X0.350000X-0.850000X0.350000X0.850000X0*%
%TD*%
%TA.AperFunction,SMDPad,CuDef*%
%ADD85RoundRect,0.249997X-2.650003X2.950003X-2.650003X-2.950003X2.650003X-2.950003X2.650003X2.950003X0*%
%TD*%
%TA.AperFunction,SMDPad,CuDef*%
%ADD86RoundRect,0.249999X1.425001X-0.450001X1.425001X0.450001X-1.425001X0.450001X-1.425001X-0.450001X0*%
%TD*%
%TA.AperFunction,SMDPad,CuDef*%
%ADD87RoundRect,0.250000X-0.550000X0.400000X-0.550000X-0.400000X0.550000X-0.400000X0.550000X0.400000X0*%
%TD*%
%TA.AperFunction,SMDPad,CuDef*%
%ADD88RoundRect,0.250000X-0.550000X0.750000X-0.550000X-0.750000X0.550000X-0.750000X0.550000X0.750000X0*%
%TD*%
%TA.AperFunction,SMDPad,CuDef*%
%ADD89RoundRect,0.375000X0.625000X0.375000X-0.625000X0.375000X-0.625000X-0.375000X0.625000X-0.375000X0*%
%TD*%
%TA.AperFunction,SMDPad,CuDef*%
%ADD90RoundRect,0.500000X0.500000X1.400000X-0.500000X1.400000X-0.500000X-1.400000X0.500000X-1.400000X0*%
%TD*%
%TA.AperFunction,ViaPad*%
%ADD91C,1.700000*%
%TD*%
%TA.AperFunction,ViaPad*%
%ADD92C,0.600000*%
%TD*%
%TA.AperFunction,Conductor*%
%ADD93C,0.500000*%
%TD*%
%TA.AperFunction,Conductor*%
%ADD94C,0.800000*%
%TD*%
%TA.AperFunction,Conductor*%
%ADD95C,0.400000*%
%TD*%
%TA.AperFunction,Conductor*%
%ADD96C,1.000000*%
%TD*%
%TA.AperFunction,Conductor*%
%ADD97C,4.000000*%
%TD*%
%TA.AperFunction,Conductor*%
%ADD98C,1.200000*%
%TD*%
%TA.AperFunction,Conductor*%
%ADD99C,3.000000*%
%TD*%
%TA.AperFunction,Conductor*%
%ADD100C,5.000000*%
%TD*%
%TA.AperFunction,Conductor*%
%ADD101C,2.000000*%
%TD*%
%TA.AperFunction,Conductor*%
%ADD102C,6.000000*%
%TD*%
G04 APERTURE END LIST*
D10*
%TO.N,Net-(C21-Pad1)*%
X216520000Y-42310000D02*
X215940000Y-42310000D01*
%TD*%
D11*
%TO.P,ZD26,2,A*%
%TO.N,GND*%
X197560000Y-54220000D03*
%TO.P,ZD26,1,K*%
%TO.N,tst2*%
X197560000Y-57520000D03*
%TD*%
D12*
%TO.P,D68,2,A*%
%TO.N,HV*%
X176250000Y-67380000D03*
%TO.P,D68,1,K*%
%TO.N,Net-(D68-K)*%
X176250000Y-65630000D03*
%TD*%
D13*
%TO.P,SW7,1,1*%
%TO.N,tst2*%
X187970000Y-54220000D03*
%TO.P,SW7,2,2*%
%TO.N,Net-(R109-Pad1)*%
X181240000Y-54220000D03*
%TD*%
D14*
%TO.P,J1,1*%
%TO.N,Net-(C2-Pad1)*%
X189230000Y-65310000D03*
D15*
%TO.P,J1,2*%
%TO.N,Net-(U1-RC)*%
X189230000Y-62770000D03*
%TO.P,J1,3*%
%TO.N,Net-(J1-Pad3)*%
X189230000Y-60230000D03*
%TD*%
D16*
%TO.P,R107,1*%
%TO.N,Mcler*%
X166320000Y-40080000D03*
%TO.P,R107,2*%
%TO.N,3.3v*%
X166320000Y-42080000D03*
%TD*%
D17*
%TO.P,Q1,3,C*%
%TO.N,M2_D1*%
X176095000Y-57270000D03*
%TO.P,Q1,2,E*%
%TO.N,GND*%
X177970000Y-56320000D03*
%TO.P,Q1,1,B*%
%TO.N,Net-(Q1-B)*%
X177970000Y-58220000D03*
%TD*%
D18*
%TO.P,R4,1*%
%TO.N,Net-(C2-Pad1)*%
X192280000Y-62430000D03*
%TO.P,R4,2*%
%TO.N,s5v+*%
X194280000Y-62430000D03*
%TD*%
D16*
%TO.P,R9,1*%
%TO.N,s5v+*%
X194530000Y-64240000D03*
%TO.P,R9,2*%
%TO.N,Net-(U1-COMP)*%
X194530000Y-66240000D03*
%TD*%
D19*
%TO.P,C1,2*%
%TO.N,GND*%
X192570000Y-66375000D03*
%TO.P,C1,1*%
%TO.N,s5v+*%
X192570000Y-64300000D03*
%TD*%
D16*
%TO.P,R1,2*%
%TO.N,Net-(J1-Pad3)*%
X190690000Y-60110000D03*
%TO.P,R1,1*%
%TO.N,PGC*%
X190690000Y-58110000D03*
%TD*%
D20*
%TO.P,U1,1,COMP*%
%TO.N,Net-(U1-COMP)*%
X185105000Y-65610000D03*
%TO.P,U1,2,FB*%
%TO.N,GND*%
X185105000Y-64340000D03*
%TO.P,U1,3,CS*%
%TO.N,CS*%
X185105000Y-63070000D03*
%TO.P,U1,4,RC*%
%TO.N,Net-(U1-RC)*%
X185105000Y-61800000D03*
%TO.P,U1,5,GND*%
%TO.N,GND*%
X180155000Y-61800000D03*
%TO.P,U1,6,OUT*%
%TO.N,Net-(U1-OUT)*%
X180155000Y-63070000D03*
%TO.P,U1,7,VCC*%
%TO.N,Net-(D68-K)*%
X180155000Y-64340000D03*
%TO.P,U1,8,VREF*%
%TO.N,s5v+*%
X180155000Y-65610000D03*
%TD*%
D21*
%TO.P,C2,1*%
%TO.N,Net-(C2-Pad1)*%
X191000000Y-64590000D03*
%TO.P,C2,2*%
%TO.N,GND*%
X191000000Y-65405000D03*
%TD*%
D22*
%TO.P,R10,1*%
%TO.N,Net-(U1-OUT)*%
X176930000Y-63720000D03*
%TO.P,R10,2*%
%TO.N,PWM*%
X174930000Y-63720000D03*
%TD*%
D23*
%TO.P,R11,1*%
%TO.N,PWM*%
X175077500Y-61250000D03*
%TO.P,R11,2*%
%TO.N,GND*%
X175077500Y-59250000D03*
%TD*%
D24*
%TO.P,ZD1,1,K*%
%TO.N,PWM*%
X172890000Y-61797500D03*
%TO.P,ZD1,2,A*%
%TO.N,GND*%
X172890000Y-58297500D03*
%TD*%
D25*
%TO.P,C8,1*%
%TO.N,PWM*%
X177380000Y-61890000D03*
%TO.P,C8,2*%
%TO.N,GND*%
X177380000Y-59815000D03*
%TD*%
D26*
%TO.P,D56,2,A*%
%TO.N,M2_S1*%
X186680000Y-57355000D03*
%TO.P,D56,1,K*%
%TO.N,Net-(D56-K)*%
X186680000Y-59105000D03*
%TD*%
D22*
%TO.P,R3,2*%
%TO.N,Net-(Q1-B)*%
X181930000Y-59410000D03*
%TO.P,R3,1*%
%TO.N,Net-(D56-K)*%
X183930000Y-59410000D03*
%TD*%
D23*
%TO.P,R6,1*%
%TO.N,Net-(Q1-B)*%
X180080000Y-59100000D03*
%TO.P,R6,2*%
%TO.N,GND*%
X180080000Y-57100000D03*
%TD*%
D27*
%TO.P,ZD14,1,K*%
%TO.N,Net-(D56-K)*%
X185227500Y-57260000D03*
%TO.P,ZD14,2,A*%
%TO.N,GND*%
X181927500Y-57260000D03*
%TD*%
D16*
%TO.P,R8,1*%
%TO.N,5v+*%
X175180000Y-53650000D03*
%TO.P,R8,2*%
%TO.N,M2_D1*%
X175180000Y-55650000D03*
%TD*%
D23*
%TO.P,R32,2*%
%TO.N,GND*%
X211500000Y-49400000D03*
%TO.P,R32,1*%
%TO.N,Net-(D3-A)*%
X211500000Y-51400000D03*
%TD*%
D26*
%TO.P,D67,1,K*%
%TO.N,Net-(D67-K)*%
X266100000Y-44850000D03*
%TO.P,D67,2,A*%
%TO.N,HV*%
X266100000Y-43100000D03*
%TD*%
D18*
%TO.P,R42,1*%
%TO.N,Net-(U14-IN)*%
X262511906Y-51235000D03*
%TO.P,R42,2*%
%TO.N,Net-(ZD8-A)*%
X264511906Y-51235000D03*
%TD*%
D28*
%TO.P,U14,1,IN*%
%TO.N,Net-(U14-IN)*%
X261911906Y-48375000D03*
D29*
%TO.P,U14,2,GND*%
%TO.N,GND*%
X261911906Y-45835000D03*
%TO.P,U14,3,OUT*%
%TO.N,Net-(D25-A)*%
X261911906Y-43295000D03*
%TD*%
D23*
%TO.P,C33,1*%
%TO.N,GND*%
X264111906Y-44535000D03*
%TO.P,C33,2*%
%TO.N,Net-(D25-A)*%
X264111906Y-42535000D03*
%TD*%
%TO.P,R100,1*%
%TO.N,Net-(ZD8-A)*%
X268511906Y-49335000D03*
%TO.P,R100,2*%
%TO.N,Net-(D67-K)*%
X268511906Y-47335000D03*
%TD*%
D30*
%TO.P,ZD6,1,K*%
%TO.N,9v+*%
X256311906Y-42535000D03*
%TO.P,ZD6,2,A*%
%TO.N,GND*%
X259811906Y-42535000D03*
%TD*%
D16*
%TO.P,C31,1*%
%TO.N,GND*%
X264111906Y-46435000D03*
%TO.P,C31,2*%
%TO.N,Net-(U14-IN)*%
X264111906Y-48435000D03*
%TD*%
D31*
%TO.P,ZD8,2,A*%
%TO.N,Net-(ZD8-A)*%
X266411906Y-50135000D03*
%TO.P,ZD8,1,K*%
%TO.N,Net-(D67-K)*%
X266411906Y-46635000D03*
%TD*%
D22*
%TO.P,R99,1*%
%TO.N,Net-(D25-K)*%
X258611906Y-39635000D03*
%TO.P,R99,2*%
%TO.N,9v+*%
X256611906Y-39635000D03*
%TD*%
D23*
%TO.P,C82,1*%
%TO.N,GND*%
X256711906Y-46935000D03*
%TO.P,C82,2*%
%TO.N,9v+*%
X256711906Y-44935000D03*
%TD*%
D30*
%TO.P,D25,1,K*%
%TO.N,Net-(D25-K)*%
X260711906Y-39735000D03*
%TO.P,D25,2,A*%
%TO.N,Net-(D25-A)*%
X264211906Y-39735000D03*
%TD*%
D32*
%TO.P,C60,1*%
%TO.N,HV*%
X245930000Y-64450000D03*
D33*
%TO.P,C60,2*%
%TO.N,GND*%
X250930000Y-64450000D03*
%TD*%
D21*
%TO.P,C11,2*%
%TO.N,M1_R*%
X253300000Y-80307500D03*
%TO.P,C11,1*%
%TO.N,M1_L*%
X253300000Y-79492500D03*
%TD*%
D34*
%TO.P,J2,5*%
%TO.N,PGC*%
X195500000Y-41400000D03*
%TO.P,J2,4*%
%TO.N,PGD*%
X193000000Y-41400000D03*
%TO.P,J2,3*%
%TO.N,GND*%
X190500000Y-41400000D03*
%TO.P,J2,2*%
%TO.N,Net-(D6-A)*%
X188000000Y-41400000D03*
D35*
%TO.P,J2,1*%
%TO.N,Mcler*%
X185500000Y-41400000D03*
%TD*%
D30*
%TO.P,ZD11,2,A*%
%TO.N,GND*%
X245800000Y-40000000D03*
%TO.P,ZD11,1,K*%
%TO.N,5v+*%
X242300000Y-40000000D03*
%TD*%
D25*
%TO.P,C10,2*%
%TO.N,GND*%
X166630000Y-44805000D03*
%TO.P,C10,1*%
%TO.N,M2_current_sen*%
X166630000Y-46880000D03*
%TD*%
D18*
%TO.P,R122,2*%
%TO.N,GND*%
X192130000Y-54090000D03*
%TO.P,R122,1*%
%TO.N,tst2*%
X190130000Y-54090000D03*
%TD*%
D24*
%TO.P,D44,2,A*%
%TO.N,5v+*%
X238200000Y-42100000D03*
%TO.P,D44,1,K*%
%TO.N,Net-(D44-K)*%
X238200000Y-45600000D03*
%TD*%
D16*
%TO.P,R112,2*%
%TO.N,GND*%
X240300000Y-45800000D03*
%TO.P,R112,1*%
%TO.N,Net-(D44-K)*%
X240300000Y-43800000D03*
%TD*%
D22*
%TO.P,R109,2*%
%TO.N,5v+*%
X177400000Y-54590000D03*
%TO.P,R109,1*%
%TO.N,Net-(R109-Pad1)*%
X179400000Y-54590000D03*
%TD*%
D30*
%TO.P,D43,2,A*%
%TO.N,9v+*%
X260250000Y-98500000D03*
%TO.P,D43,1,K*%
%TO.N,Net-(D43-K)*%
X256750000Y-98500000D03*
%TD*%
D36*
%TO.P,D3,1,K*%
%TO.N,CS*%
X205850000Y-51722382D03*
%TO.P,D3,2,A*%
%TO.N,Net-(D3-A)*%
X207600000Y-51722382D03*
%TD*%
D23*
%TO.P,R87,2*%
%TO.N,SW3*%
X196500000Y-129750000D03*
%TO.P,R87,1*%
%TO.N,Net-(R87-Pad1)*%
X196500000Y-131750000D03*
%TD*%
D37*
%TO.P,U10,30,VIN*%
%TO.N,5v+*%
X202100000Y-155940000D03*
%TO.P,U10,29,GND*%
%TO.N,GND*%
X202100000Y-153400000D03*
%TO.P,U10,28,D13*%
%TO.N,FRQ*%
X202100000Y-150860000D03*
%TO.P,U10,27,D12*%
%TO.N,careuu*%
X202100000Y-148320000D03*
%TO.P,U10,26,D14*%
%TO.N,Mcler*%
X202100000Y-145780000D03*
%TO.P,U10,25,D27*%
%TO.N,IRQ*%
X202100000Y-143240000D03*
%TO.P,U10,24,D26*%
%TO.N,unconnected-(U10-D26-Pad24)*%
X202100000Y-140700000D03*
%TO.P,U10,23,D25*%
%TO.N,unconnected-(U10-D25-Pad23)*%
X202100000Y-138160000D03*
%TO.P,U10,22,D33*%
%TO.N,SW2*%
X202100000Y-135620000D03*
%TO.P,U10,21,D32*%
%TO.N,SW1*%
X202100000Y-133080000D03*
%TO.P,U10,20,D35*%
%TO.N,SW3*%
X202100000Y-130540000D03*
%TO.P,U10,19,D34*%
%TO.N,SW4*%
X202100000Y-128000000D03*
%TO.P,U10,18,VN*%
%TO.N,unconnected-(U10-VN-Pad18)*%
X202100000Y-125460000D03*
%TO.P,U10,17,VP*%
%TO.N,unconnected-(U10-VP-Pad17)*%
X202100000Y-122920000D03*
%TO.P,U10,16,EN*%
%TO.N,unconnected-(U10-EN-Pad16)*%
X202100000Y-120380000D03*
%TO.P,U10,15,D23*%
%TO.N,Data_ready*%
X227500000Y-120380000D03*
%TO.P,U10,14,D22*%
%TO.N,SCL*%
X227500000Y-122920000D03*
%TO.P,U10,13,TX0*%
%TO.N,care0*%
X227500000Y-125460000D03*
%TO.P,U10,12,RX0*%
X227500000Y-128000000D03*
%TO.P,U10,11,D21*%
%TO.N,SDA*%
X227500000Y-130540000D03*
%TO.P,U10,10,D19*%
%TO.N,int_a*%
X227500000Y-133080000D03*
%TO.P,U10,9,D18*%
%TO.N,FSYC*%
X227500000Y-135620000D03*
%TO.P,U10,8,D5*%
%TO.N,detect*%
X227500000Y-138160000D03*
%TO.P,U10,7,TX2*%
%TO.N,SDA2*%
X227500000Y-140700000D03*
%TO.P,U10,6,RX2*%
%TO.N,SCL2*%
X227500000Y-143240000D03*
%TO.P,U10,5,D4*%
%TO.N,buzz*%
X227500000Y-145780000D03*
%TO.P,U10,4,D2*%
%TO.N,carei*%
X227500000Y-148320000D03*
%TO.P,U10,3,D15*%
%TO.N,carett*%
X227500000Y-150860000D03*
%TO.P,U10,2,GND*%
%TO.N,GND*%
X227500000Y-153400000D03*
D38*
%TO.P,U10,1,3V3*%
%TO.N,Net-(D16-A1)*%
X227500000Y-155940000D03*
%TD*%
D18*
%TO.P,C89,2*%
%TO.N,9v+*%
X204380000Y-47270000D03*
%TO.P,C89,1*%
%TO.N,GND*%
X202380000Y-47270000D03*
%TD*%
%TO.P,R33,1*%
%TO.N,M2_current_sen*%
X201360000Y-49690000D03*
%TO.P,R33,2*%
%TO.N,Net-(R22-Pad2)*%
X203360000Y-49690000D03*
%TD*%
%TO.P,R51,1*%
%TO.N,kill2*%
X200300000Y-44600000D03*
%TO.P,R51,2*%
%TO.N,Net-(R51-Pad2)*%
X202300000Y-44600000D03*
%TD*%
D39*
%TO.P,C7,1*%
%TO.N,Current_limt2*%
X200550000Y-40822382D03*
%TO.P,C7,2*%
%TO.N,GND*%
X198475000Y-40822382D03*
%TD*%
D22*
%TO.P,C93,1*%
%TO.N,Net-(C93-Pad1)*%
X200300000Y-42700000D03*
%TO.P,C93,2*%
%TO.N,GND*%
X198300000Y-42700000D03*
%TD*%
D20*
%TO.P,U4,1*%
%TO.N,Net-(R22-Pad2)*%
X209750000Y-45410000D03*
%TO.P,U4,2*%
%TO.N,Net-(C21-Pad2)*%
X209750000Y-44140000D03*
%TO.P,U4,3*%
%TO.N,Net-(C21-Pad1)*%
X209750000Y-42870000D03*
%TO.P,U4,4,VCC-*%
%TO.N,GND*%
X209750000Y-41600000D03*
%TO.P,U4,5*%
%TO.N,Current_limt2*%
X204800000Y-41600000D03*
%TO.P,U4,6*%
%TO.N,Net-(C93-Pad1)*%
X204800000Y-42870000D03*
%TO.P,U4,7*%
%TO.N,Net-(R51-Pad2)*%
X204800000Y-44140000D03*
%TO.P,U4,8,VCC+*%
%TO.N,9v+*%
X204800000Y-45410000D03*
%TD*%
D18*
%TO.P,R25,1*%
%TO.N,Net-(C21-Pad2)*%
X214650000Y-45795634D03*
%TO.P,R25,2*%
%TO.N,GND*%
X216650000Y-45795634D03*
%TD*%
D23*
%TO.P,C28,1*%
%TO.N,Net-(D3-A)*%
X213850000Y-49522382D03*
%TO.P,C28,2*%
%TO.N,GND*%
X213850000Y-47522382D03*
%TD*%
D16*
%TO.P,C21,1*%
%TO.N,Net-(C21-Pad1)*%
X214300000Y-41900000D03*
%TO.P,C21,2*%
%TO.N,Net-(C21-Pad2)*%
X214300000Y-43900000D03*
%TD*%
%TO.P,R24,1*%
%TO.N,Net-(D42-A)*%
X216210000Y-40320000D03*
%TO.P,R24,2*%
%TO.N,Net-(C21-Pad1)*%
X216210000Y-42320000D03*
%TD*%
D18*
%TO.P,R29,1*%
%TO.N,Net-(R22-Pad2)*%
X209550000Y-47322382D03*
%TO.P,R29,2*%
%TO.N,Net-(C21-Pad2)*%
X211550000Y-47322382D03*
%TD*%
D16*
%TO.P,R22,1*%
%TO.N,Current_limt2*%
X207000000Y-47700000D03*
%TO.P,R22,2*%
%TO.N,Net-(R22-Pad2)*%
X207000000Y-49700000D03*
%TD*%
D23*
%TO.P,R31,2*%
%TO.N,Net-(R22-Pad2)*%
X209450000Y-49622382D03*
%TO.P,R31,1*%
%TO.N,Net-(D3-A)*%
X209450000Y-51622382D03*
%TD*%
%TO.P,R28,1*%
%TO.N,Net-(C21-Pad1)*%
X212300000Y-43072382D03*
%TO.P,R28,2*%
%TO.N,GND*%
X212300000Y-41072382D03*
%TD*%
D40*
%TO.P,U2,8,OUT*%
%TO.N,M2_R*%
X203775000Y-84715000D03*
D41*
%TO.P,U2,7,VS*%
%TO.N,HV*%
X207585000Y-94375000D03*
%TO.P,U2,6,IS*%
%TO.N,error 2*%
X206315000Y-94375000D03*
%TO.P,U2,5,SR*%
%TO.N,Net-(U2-SR)*%
X205045000Y-94375000D03*
%TO.P,U2,4,OUT*%
%TO.N,M2_R*%
X203775000Y-94375000D03*
%TO.P,U2,3,INH*%
%TO.N,tst2*%
X202505000Y-94375000D03*
%TO.P,U2,2,IN*%
%TO.N,Net-(U2-IN)*%
X201235000Y-94375000D03*
%TO.P,U2,1,GND*%
%TO.N,Net-(D42-K)*%
X199965000Y-94375000D03*
%TD*%
D23*
%TO.P,R96,2*%
%TO.N,Net-(D60-K)*%
X236750000Y-57750000D03*
%TO.P,R96,1*%
%TO.N,Net-(U8-IN)*%
X236750000Y-59750000D03*
%TD*%
D12*
%TO.P,D62,1,K*%
%TO.N,Net-(D62-K)*%
X226000000Y-104000000D03*
%TO.P,D62,2,A*%
%TO.N,M1_D1*%
X226000000Y-105750000D03*
%TD*%
D30*
%TO.P,ZD5,1,K*%
%TO.N,3.3v*%
X233000000Y-47750000D03*
%TO.P,ZD5,2,A*%
%TO.N,GND*%
X236500000Y-47750000D03*
%TD*%
D18*
%TO.P,R111,1*%
%TO.N,Net-(D43-K)*%
X257250000Y-96250000D03*
%TO.P,R111,2*%
%TO.N,GND*%
X259250000Y-96250000D03*
%TD*%
D42*
%TO.P,D1,1,K*%
%TO.N,Net-(D1-K)*%
X191200000Y-50500000D03*
%TO.P,D1,2,A*%
%TO.N,Motor2_OFF*%
X187700000Y-50500000D03*
%TD*%
D27*
%TO.P,ZD30,1,K*%
%TO.N,tst1*%
X228520000Y-53310000D03*
%TO.P,ZD30,2,A*%
%TO.N,GND*%
X225220000Y-53310000D03*
%TD*%
D12*
%TO.P,D47,1,K*%
%TO.N,Net-(D47-K)*%
X221000000Y-53625000D03*
%TO.P,D47,2,A*%
%TO.N,kill2*%
X221000000Y-55375000D03*
%TD*%
D18*
%TO.P,R7,1*%
%TO.N,PWM*%
X191060000Y-89760000D03*
%TO.P,R7,2*%
%TO.N,INH2*%
X193060000Y-89760000D03*
%TD*%
D19*
%TO.P,C3,1*%
%TO.N,M2_L*%
X195500000Y-77425000D03*
%TO.P,C3,2*%
%TO.N,M2_R*%
X195500000Y-79500000D03*
%TD*%
D21*
%TO.P,C11,1*%
%TO.N,M1_L*%
X242300000Y-79492500D03*
%TO.P,C11,2*%
%TO.N,M1_R*%
X242300000Y-80307500D03*
%TD*%
D26*
%TO.P,D55,1,K*%
%TO.N,Net-(D55-K)*%
X248250000Y-91250000D03*
%TO.P,D55,2,A*%
%TO.N,M1_S1*%
X248250000Y-89500000D03*
%TD*%
D18*
%TO.P,R126,1*%
%TO.N,GND*%
X225000000Y-55500000D03*
%TO.P,R126,2*%
%TO.N,tst1*%
X227000000Y-55500000D03*
%TD*%
D43*
%TO.P,ZD13,1,K*%
%TO.N,Net-(D54-K)*%
X185250000Y-91200000D03*
%TO.P,ZD13,2,A*%
%TO.N,GND*%
X185250000Y-94500000D03*
%TD*%
D44*
%TO.P,C26,1*%
%TO.N,5v+*%
X197750000Y-155657500D03*
%TO.P,C26,2*%
%TO.N,GND*%
X197750000Y-154842500D03*
%TD*%
D24*
%TO.P,D50,1,K*%
%TO.N,Net-(D50-K)*%
X246300000Y-81000000D03*
%TO.P,D50,2,A*%
%TO.N,M1_L*%
X246300000Y-77500000D03*
%TD*%
D45*
%TO.P,C6,1*%
%TO.N,HV*%
X236500000Y-145750000D03*
D33*
%TO.P,C6,2*%
%TO.N,GND*%
X236500000Y-150750000D03*
%TD*%
D46*
%TO.P,Q8,1,G*%
%TO.N,Net-(Q7-C)*%
X213685000Y-94575000D03*
%TO.P,Q8,2,D*%
%TO.N,Net-(D41-K)*%
X216225000Y-94575000D03*
D47*
X216225000Y-85425000D03*
D46*
%TO.P,Q8,3,S*%
%TO.N,Net-(D41-A)*%
X218765000Y-94575000D03*
%TD*%
D48*
%TO.P,J7,1*%
%TO.N,GND*%
X166250000Y-55750000D03*
%TO.P,J7,2*%
%TO.N,5v+*%
X166250000Y-60750000D03*
%TO.P,J7,3*%
%TO.N,Net-(C43-Pad1)*%
X166250000Y-65750000D03*
%TO.P,J7,4*%
%TO.N,Net-(C44-Pad1)*%
X166250000Y-70750001D03*
%TO.P,J7,5*%
%TO.N,M2_L*%
X166250000Y-75750001D03*
%TO.P,J7,6*%
%TO.N,M2_R*%
X166250000Y-80750001D03*
%TD*%
D23*
%TO.P,R92,1*%
%TO.N,Net-(D58-K)*%
X198500000Y-101250000D03*
%TO.P,R92,2*%
%TO.N,Net-(U2-IN)*%
X198500000Y-99250000D03*
%TD*%
D49*
%TO.P,J15,1*%
%TO.N,HV*%
X261900000Y-153150000D03*
D50*
%TO.P,J15,2*%
%TO.N,GND*%
X268200000Y-153150000D03*
D51*
%TO.P,J15,3*%
%TO.N,N/C*%
X264800000Y-148350000D03*
%TD*%
D52*
%TO.P,Q7,1,B*%
%TO.N,Net-(D49-K)*%
X210500000Y-100750000D03*
%TO.P,Q7,2,E*%
%TO.N,Net-(D41-A)*%
X212400000Y-100750000D03*
%TO.P,Q7,3,C*%
%TO.N,Net-(Q7-C)*%
X211450000Y-98875000D03*
%TD*%
D53*
%TO.P,R48,1*%
%TO.N,Net-(D41-A)*%
X222000000Y-100000000D03*
%TO.P,R48,2*%
%TO.N,GND*%
X222000000Y-106100000D03*
%TD*%
D22*
%TO.P,C74,1*%
%TO.N,GND*%
X254475000Y-151000000D03*
%TO.P,C74,2*%
%TO.N,Net-(U13-OUT)*%
X252475000Y-151000000D03*
%TD*%
D23*
%TO.P,R40,1*%
%TO.N,Net-(U5-VI)*%
X232400000Y-41800000D03*
%TO.P,R40,2*%
%TO.N,5v+*%
X232400000Y-39800000D03*
%TD*%
D26*
%TO.P,D63,1,K*%
%TO.N,Net-(D63-K)*%
X227750000Y-105250000D03*
%TO.P,D63,2,A*%
%TO.N,INH1*%
X227750000Y-103500000D03*
%TD*%
D18*
%TO.P,R95,1*%
%TO.N,tst1*%
X228750000Y-55250000D03*
%TO.P,R95,2*%
%TO.N,Net-(D61-K)*%
X230750000Y-55250000D03*
%TD*%
D54*
%TO.P,J11,1,Pin_1*%
%TO.N,Net-(J11-Pin_1)*%
X266250000Y-126540000D03*
D55*
%TO.P,J11,2,Pin_2*%
%TO.N,buzzing_gnd*%
X266250000Y-121460000D03*
%TD*%
D16*
%TO.P,R77,1*%
%TO.N,Net-(D13-A)*%
X242250000Y-134000000D03*
%TO.P,R77,2*%
%TO.N,5v+*%
X242250000Y-136000000D03*
%TD*%
D43*
%TO.P,ZD23,1,K*%
%TO.N,tst2*%
X204000000Y-103700000D03*
%TO.P,ZD23,2,A*%
%TO.N,GND*%
X204000000Y-107000000D03*
%TD*%
D56*
%TO.P,C87,1*%
%TO.N,9v+*%
X222935000Y-57250000D03*
%TO.P,C87,2*%
%TO.N,GND*%
X223750000Y-57250000D03*
%TD*%
D18*
%TO.P,R12,1*%
%TO.N,Net-(U2-SR)*%
X206000000Y-99500000D03*
%TO.P,R12,2*%
%TO.N,GND*%
X208000000Y-99500000D03*
%TD*%
D22*
%TO.P,R47,1*%
%TO.N,9v+*%
X216000000Y-98500000D03*
%TO.P,R47,2*%
%TO.N,Net-(Q7-C)*%
X214000000Y-98500000D03*
%TD*%
D16*
%TO.P,R115,1*%
%TO.N,Net-(D50-K)*%
X248500000Y-81000000D03*
%TO.P,R115,2*%
%TO.N,M1_R*%
X248500000Y-83000000D03*
%TD*%
D45*
%TO.P,C88,1*%
%TO.N,9v+*%
X254250000Y-45340000D03*
D33*
%TO.P,C88,2*%
%TO.N,GND*%
X254250000Y-50340000D03*
%TD*%
D57*
%TO.P,Q4,1,G*%
%TO.N,Net-(Q3-C)*%
X218815000Y-65425000D03*
%TO.P,Q4,2,D*%
%TO.N,Net-(D42-K)*%
X216275000Y-65425000D03*
D58*
X216275000Y-74575000D03*
D57*
%TO.P,Q4,3,S*%
%TO.N,Net-(D42-A)*%
X213735000Y-65425000D03*
%TD*%
D31*
%TO.P,D53,1,K*%
%TO.N,M2_L*%
X183100000Y-74600000D03*
%TO.P,D53,2,A*%
%TO.N,Net-(D52-K)*%
X183100000Y-78100000D03*
%TD*%
D59*
%TO.P,C91,1*%
%TO.N,M2_R*%
X186500000Y-79250000D03*
D60*
%TO.P,C91,2*%
%TO.N,M2_L*%
X186500000Y-77750000D03*
%TD*%
D16*
%TO.P,R105,1*%
%TO.N,Net-(U5-VO)*%
X232350000Y-43700000D03*
%TO.P,R105,2*%
%TO.N,3.3v*%
X232350000Y-45700000D03*
%TD*%
D18*
%TO.P,R34,1*%
%TO.N,Net-(D55-K)*%
X249750000Y-90250000D03*
%TO.P,R34,2*%
%TO.N,Net-(Q5-B)*%
X251750000Y-90250000D03*
%TD*%
D13*
%TO.P,SW1,1,1*%
%TO.N,Net-(R84-Pad1)*%
X190115000Y-138500000D03*
%TO.P,SW1,2,2*%
%TO.N,GND*%
X183385000Y-138500000D03*
%TD*%
D18*
%TO.P,R110,1*%
%TO.N,Net-(R110-Pad1)*%
X253500000Y-90000000D03*
%TO.P,R110,2*%
%TO.N,5v+*%
X255500000Y-90000000D03*
%TD*%
D36*
%TO.P,D54,1,K*%
%TO.N,Net-(D54-K)*%
X187500000Y-90500000D03*
%TO.P,D54,2,A*%
%TO.N,Motor2_OFF*%
X189250000Y-90500000D03*
%TD*%
D61*
%TO.P,ZD16,1,K*%
%TO.N,Net-(D57-K)*%
X240787500Y-96950000D03*
%TO.P,ZD16,2,A*%
%TO.N,GND*%
X244087500Y-96950000D03*
%TD*%
D22*
%TO.P,R41,1*%
%TO.N,Net-(D4-K)*%
X254250000Y-109250000D03*
%TO.P,R41,2*%
%TO.N,GND*%
X252250000Y-109250000D03*
%TD*%
D18*
%TO.P,R85,1*%
%TO.N,Net-(R85-Pad1)*%
X195250000Y-125250000D03*
%TO.P,R85,2*%
%TO.N,SW4*%
X197250000Y-125250000D03*
%TD*%
D62*
%TO.P,C81,1*%
%TO.N,Net-(D16-A1)*%
X232000000Y-156350000D03*
%TO.P,C81,2*%
%TO.N,GND*%
X232000000Y-152750000D03*
%TD*%
D61*
%TO.P,ZD28,1,K*%
%TO.N,Net-(U7-IN)*%
X232200000Y-103000000D03*
%TO.P,ZD28,2,A*%
%TO.N,GND*%
X235500000Y-103000000D03*
%TD*%
D16*
%TO.P,R88,1*%
%TO.N,Net-(U13-IN)*%
X244975000Y-144402500D03*
%TO.P,R88,2*%
%TO.N,HV*%
X244975000Y-146402500D03*
%TD*%
D21*
%TO.P,C4,1*%
%TO.N,M2_L*%
X173750000Y-77880000D03*
%TO.P,C4,2*%
%TO.N,M2_R*%
X173750000Y-78695000D03*
%TD*%
D63*
%TO.P,U11,1,VCC*%
%TO.N,Net-(U11-VCC)*%
X234750000Y-141490000D03*
D64*
%TO.P,U11,2,3.3V*%
%TO.N,Net-(U11-3.3V)*%
X234750000Y-138950000D03*
%TO.P,U11,3,GND*%
%TO.N,GND*%
X234750000Y-136410000D03*
%TO.P,U11,4,SCL*%
%TO.N,SCL2*%
X234750000Y-133870000D03*
%TO.P,U11,5,SDA*%
%TO.N,SDA2*%
X234750000Y-131330000D03*
%TO.P,U11,6,FSSYNC*%
%TO.N,FSYC*%
X234750000Y-128790000D03*
%TO.P,U11,7,INTA*%
%TO.N,int_a*%
X234750000Y-126250000D03*
%TO.P,U11,8,DRDY*%
%TO.N,Data_ready*%
X234750000Y-123710000D03*
%TD*%
D16*
%TO.P,R5,1*%
%TO.N,Net-(Q2-B)*%
X188000000Y-92250000D03*
%TO.P,R5,2*%
%TO.N,GND*%
X188000000Y-94250000D03*
%TD*%
D26*
%TO.P,D61,1,K*%
%TO.N,Net-(D61-K)*%
X232750000Y-55500000D03*
%TO.P,D61,2,A*%
%TO.N,INH1*%
X232750000Y-53750000D03*
%TD*%
D31*
%TO.P,D51,1,K*%
%TO.N,M1_L*%
X250700000Y-77500000D03*
%TO.P,D51,2,A*%
%TO.N,Net-(D50-K)*%
X250700000Y-81000000D03*
%TD*%
D23*
%TO.P,R46,1*%
%TO.N,Net-(D5-K)*%
X238500000Y-50000000D03*
%TO.P,R46,2*%
%TO.N,GND*%
X238500000Y-48000000D03*
%TD*%
D22*
%TO.P,R36,1*%
%TO.N,Net-(Q5-B)*%
X254750000Y-95500000D03*
%TO.P,R36,2*%
%TO.N,GND*%
X252750000Y-95500000D03*
%TD*%
D65*
%TO.P,Q3,1,B*%
%TO.N,Net-(D47-K)*%
X221000000Y-58000000D03*
%TO.P,Q3,2,E*%
%TO.N,Net-(D42-A)*%
X219100000Y-58000000D03*
%TO.P,Q3,3,C*%
%TO.N,Net-(Q3-C)*%
X220050000Y-59875000D03*
%TD*%
D66*
%TO.P,J6,N,NEG*%
%TO.N,GND*%
X266000000Y-100000000D03*
D67*
%TO.P,J6,P,POS*%
%TO.N,HV*%
X266000000Y-107200000D03*
%TD*%
D22*
%TO.P,R125,1*%
%TO.N,GND*%
X234500000Y-109500000D03*
%TO.P,R125,2*%
%TO.N,tst1*%
X232500000Y-109500000D03*
%TD*%
D24*
%TO.P,D13,1,K*%
%TO.N,GND*%
X240000000Y-137250000D03*
%TO.P,D13,2,A*%
%TO.N,Net-(D13-A)*%
X240000000Y-133750000D03*
%TD*%
D25*
%TO.P,C5,1*%
%TO.N,M2_R*%
X175500000Y-79400000D03*
%TO.P,C5,2*%
%TO.N,M2_L*%
X175500000Y-77325000D03*
%TD*%
D18*
%TO.P,R94,1*%
%TO.N,Net-(U3-IN)*%
X204500000Y-60500000D03*
%TO.P,R94,2*%
%TO.N,Net-(D64-K)*%
X206500000Y-60500000D03*
%TD*%
D68*
%TO.P,SW6,1,1*%
%TO.N,Mcler*%
X196600000Y-45835000D03*
%TO.P,SW6,2,2*%
%TO.N,GND*%
X196600000Y-52565000D03*
%TD*%
D69*
%TO.P,U13,1,IN*%
%TO.N,Net-(U13-IN)*%
X248525000Y-143695000D03*
D70*
%TO.P,U13,2,GND*%
%TO.N,GND*%
X254825000Y-145975000D03*
D69*
%TO.P,U13,3,OUT*%
%TO.N,Net-(U13-OUT)*%
X248525000Y-148255000D03*
%TD*%
D42*
%TO.P,ZD35,1,K*%
%TO.N,HV*%
X245475000Y-148652500D03*
%TO.P,ZD35,2,A*%
%TO.N,GND*%
X241975000Y-148652500D03*
%TD*%
D25*
%TO.P,C13,1*%
%TO.N,M1_R*%
X244000000Y-81037500D03*
%TO.P,C13,2*%
%TO.N,M1_L*%
X244000000Y-78962500D03*
%TD*%
D26*
%TO.P,D58,1,K*%
%TO.N,Net-(D58-K)*%
X197000000Y-101250000D03*
%TO.P,D58,2,A*%
%TO.N,M2_D1*%
X197000000Y-99500000D03*
%TD*%
D43*
%TO.P,ZD19,1,K*%
%TO.N,B1*%
X258640000Y-66982500D03*
%TO.P,ZD19,2,A*%
%TO.N,GND*%
X258640000Y-70282500D03*
%TD*%
D54*
%TO.P,J3,1,Pin_1*%
%TO.N,HV*%
X266000000Y-92750000D03*
D55*
%TO.P,J3,2,Pin_2*%
%TO.N,GND*%
X266000000Y-87670000D03*
%TD*%
D53*
%TO.P,R49,1*%
%TO.N,Net-(D41-A)*%
X219000000Y-100000000D03*
%TO.P,R49,2*%
%TO.N,GND*%
X219000000Y-106100000D03*
%TD*%
D16*
%TO.P,R91,1*%
%TO.N,Net-(D59-K)*%
X203500000Y-99500000D03*
%TO.P,R91,2*%
%TO.N,tst2*%
X203500000Y-101500000D03*
%TD*%
D42*
%TO.P,D5,1,K*%
%TO.N,Net-(D5-K)*%
X236250000Y-50250000D03*
%TO.P,D5,2,A*%
%TO.N,3.3v*%
X232750000Y-50250000D03*
%TD*%
D16*
%TO.P,R15,1*%
%TO.N,9v+*%
X223250000Y-59500000D03*
%TO.P,R15,2*%
%TO.N,Net-(Q3-C)*%
X223250000Y-61500000D03*
%TD*%
D30*
%TO.P,ZD7,1,K*%
%TO.N,5v+*%
X243975000Y-140652500D03*
%TO.P,ZD7,2,A*%
%TO.N,GND*%
X247475000Y-140652500D03*
%TD*%
D24*
%TO.P,D14,1,K*%
%TO.N,GND*%
X175250000Y-131750000D03*
%TO.P,D14,2,A*%
%TO.N,Net-(D14-A)*%
X175250000Y-128250000D03*
%TD*%
D71*
%TO.P,C68,1*%
%TO.N,3.3v*%
X180962500Y-127250000D03*
%TO.P,C68,2*%
%TO.N,GND*%
X183037500Y-127250000D03*
%TD*%
D16*
%TO.P,R39,1*%
%TO.N,5v+*%
X258750000Y-91250000D03*
%TO.P,R39,2*%
%TO.N,M1_D1*%
X258750000Y-93250000D03*
%TD*%
D25*
%TO.P,C13,1*%
%TO.N,M1_R*%
X236750000Y-80825000D03*
%TO.P,C13,2*%
%TO.N,M1_L*%
X236750000Y-78750000D03*
%TD*%
D24*
%TO.P,D33,1,A1*%
%TO.N,Net-(D33-A1)*%
X240500000Y-79250000D03*
%TO.P,D33,2,A2*%
%TO.N,M1_L*%
X240500000Y-75750000D03*
%TD*%
D16*
%TO.P,R116,1*%
%TO.N,Net-(D52-K)*%
X181200000Y-78100000D03*
%TO.P,R116,2*%
%TO.N,M2_R*%
X181200000Y-80100000D03*
%TD*%
D25*
%TO.P,C64,1*%
%TO.N,5v+*%
X195500000Y-155750000D03*
%TO.P,C64,2*%
%TO.N,GND*%
X195500000Y-153675000D03*
%TD*%
D24*
%TO.P,D52,1,K*%
%TO.N,Net-(D52-K)*%
X179200000Y-78100000D03*
%TO.P,D52,2,A*%
%TO.N,M2_L*%
X179200000Y-74600000D03*
%TD*%
D72*
%TO.P,J10,1,1*%
%TO.N,GND*%
X183979600Y-152750000D03*
D73*
%TO.P,J10,2,2*%
%TO.N,HV*%
X181236400Y-152750000D03*
%TO.P,J10,3,3*%
%TO.N,5v+*%
X178493200Y-152750000D03*
%TO.P,J10,4,4*%
%TO.N,3.3v*%
X175750000Y-152750000D03*
%TO.P,J10,5,5*%
%TO.N,GND*%
X173006800Y-152750000D03*
%TO.P,J10,6,6*%
%TO.N,HV*%
X182608000Y-155594800D03*
%TO.P,J10,7,7*%
%TO.N,Mcler*%
X179864800Y-155594800D03*
%TO.P,J10,8,8*%
%TO.N,SCL*%
X177121600Y-155594800D03*
%TO.P,J10,9,9*%
%TO.N,SDA*%
X174378400Y-155594800D03*
D74*
%TO.P,J10,G1,G1*%
%TO.N,GND*%
X190990000Y-154172400D03*
%TO.P,J10,G2,G2*%
X165996400Y-154172400D03*
%TD*%
D26*
%TO.P,D46,1,K*%
%TO.N,Net-(D46-K)*%
X219000000Y-51500000D03*
%TO.P,D46,2,A*%
%TO.N,PGD*%
X219000000Y-49750000D03*
%TD*%
D75*
%TO.P,Q2,1,B*%
%TO.N,Net-(Q2-B)*%
X191522500Y-91570000D03*
%TO.P,Q2,2,E*%
%TO.N,GND*%
X191522500Y-93470000D03*
%TO.P,Q2,3,C*%
%TO.N,INH2*%
X193397500Y-92520000D03*
%TD*%
D23*
%TO.P,R90,1*%
%TO.N,GND*%
X207500000Y-106000000D03*
%TO.P,R90,2*%
%TO.N,tst2*%
X207500000Y-104000000D03*
%TD*%
D11*
%TO.P,ZD29,1,K*%
%TO.N,Net-(U8-IN)*%
X234000000Y-61000000D03*
%TO.P,ZD29,2,A*%
%TO.N,GND*%
X234000000Y-57700000D03*
%TD*%
D16*
%TO.P,R37,1*%
%TO.N,Net-(Q6-B)*%
X242937500Y-92450000D03*
%TO.P,R37,2*%
%TO.N,GND*%
X242937500Y-94450000D03*
%TD*%
D24*
%TO.P,D42,1,K*%
%TO.N,Net-(D42-K)*%
X216500000Y-60500000D03*
%TO.P,D42,2,A*%
%TO.N,Net-(D42-A)*%
X216500000Y-57000000D03*
%TD*%
D13*
%TO.P,SW3,1,1*%
%TO.N,Net-(R86-Pad1)*%
X190250000Y-145250000D03*
%TO.P,SW3,2,2*%
%TO.N,GND*%
X183520000Y-145250000D03*
%TD*%
D61*
%TO.P,ZD27,1,K*%
%TO.N,tst1*%
X232250000Y-106750000D03*
%TO.P,ZD27,2,A*%
%TO.N,GND*%
X235550000Y-106750000D03*
%TD*%
D76*
%TO.P,C57,1*%
%TO.N,HV*%
X178652651Y-98750000D03*
D33*
%TO.P,C57,2*%
%TO.N,GND*%
X173652651Y-98750000D03*
%TD*%
D16*
%TO.P,R2,1*%
%TO.N,Net-(D54-K)*%
X182500000Y-91000000D03*
%TO.P,R2,2*%
%TO.N,Net-(Q2-B)*%
X182500000Y-93000000D03*
%TD*%
D23*
%TO.P,R14,1*%
%TO.N,Net-(D47-K)*%
X221000000Y-51500000D03*
%TO.P,R14,2*%
%TO.N,GND*%
X221000000Y-49500000D03*
%TD*%
%TO.P,R127,1*%
%TO.N,Net-(U8-IN)*%
X231250000Y-60000000D03*
%TO.P,R127,2*%
%TO.N,GND*%
X231250000Y-58000000D03*
%TD*%
D26*
%TO.P,D65,1,K*%
%TO.N,Net-(D65-K)*%
X195560000Y-58750000D03*
%TO.P,D65,2,A*%
%TO.N,INH2*%
X195560000Y-57000000D03*
%TD*%
D41*
%TO.P,U7,1,GND*%
%TO.N,Net-(D41-K)*%
X224965000Y-94375000D03*
%TO.P,U7,2,IN*%
%TO.N,Net-(U7-IN)*%
X226235000Y-94375000D03*
%TO.P,U7,3,INH*%
%TO.N,tst1*%
X227505000Y-94375000D03*
%TO.P,U7,4,OUT*%
%TO.N,M1_R*%
X228775000Y-94375000D03*
%TO.P,U7,5,SR*%
%TO.N,Net-(U7-SR)*%
X230045000Y-94375000D03*
%TO.P,U7,6,IS*%
%TO.N,error 1*%
X231315000Y-94375000D03*
%TO.P,U7,7,VS*%
%TO.N,HV*%
X232585000Y-94375000D03*
D40*
%TO.P,U7,8,OUT*%
%TO.N,M1_R*%
X228775000Y-84715000D03*
%TD*%
D18*
%TO.P,R43,1*%
%TO.N,Net-(U7-SR)*%
X232000000Y-98500000D03*
%TO.P,R43,2*%
%TO.N,GND*%
X234000000Y-98500000D03*
%TD*%
D31*
%TO.P,D34,1,A1*%
%TO.N,Net-(D33-A1)*%
X240500000Y-80500000D03*
%TO.P,D34,2,A2*%
%TO.N,M1_R*%
X240500000Y-84000000D03*
%TD*%
D61*
%TO.P,ZD15,1,K*%
%TO.N,Net-(D55-K)*%
X249000000Y-93250000D03*
%TO.P,ZD15,2,A*%
%TO.N,GND*%
X252300000Y-93250000D03*
%TD*%
D77*
%TO.P,SW5,1,1*%
%TO.N,tst1*%
X239270000Y-89500000D03*
%TO.P,SW5,2,2*%
%TO.N,Net-(R110-Pad1)*%
X246000000Y-89500000D03*
%TD*%
D31*
%TO.P,ZD10,1,K*%
%TO.N,5v+*%
X256500000Y-137250000D03*
%TO.P,ZD10,2,A*%
%TO.N,GND*%
X256500000Y-140750000D03*
%TD*%
D22*
%TO.P,R75,1*%
%TO.N,Net-(D12-A)*%
X262250000Y-144750000D03*
%TO.P,R75,2*%
%TO.N,HV*%
X260250000Y-144750000D03*
%TD*%
D13*
%TO.P,SW4,1,1*%
%TO.N,Net-(R87-Pad1)*%
X190250000Y-131750000D03*
%TO.P,SW4,2,2*%
%TO.N,GND*%
X183520000Y-131750000D03*
%TD*%
D16*
%TO.P,R120,1*%
%TO.N,Net-(D49-K)*%
X211500000Y-102500000D03*
%TO.P,R120,2*%
%TO.N,GND*%
X211500000Y-104500000D03*
%TD*%
D41*
%TO.P,U3,1,GND*%
%TO.N,Net-(D42-K)*%
X207560000Y-65340000D03*
%TO.P,U3,2,IN*%
%TO.N,Net-(U3-IN)*%
X206290000Y-65340000D03*
%TO.P,U3,3,INH*%
%TO.N,tst2*%
X205020000Y-65340000D03*
%TO.P,U3,4,OUT*%
%TO.N,M2_L*%
X203750000Y-65340000D03*
%TO.P,U3,5,SR*%
%TO.N,Net-(U3-SR)*%
X202480000Y-65340000D03*
%TO.P,U3,6,IS*%
%TO.N,error 2*%
X201210000Y-65340000D03*
%TO.P,U3,7,VS*%
%TO.N,HV*%
X199940000Y-65340000D03*
D40*
%TO.P,U3,8,OUT*%
%TO.N,M2_L*%
X203750000Y-75000000D03*
%TD*%
D19*
%TO.P,C51,1*%
%TO.N,HV*%
X235250000Y-94750000D03*
%TO.P,C51,2*%
%TO.N,GND*%
X235250000Y-96825000D03*
%TD*%
D30*
%TO.P,D4,1,K*%
%TO.N,Net-(D4-K)*%
X256250000Y-109250000D03*
%TO.P,D4,2,A*%
%TO.N,HV*%
X259750000Y-109250000D03*
%TD*%
D39*
%TO.P,C66,1*%
%TO.N,HV*%
X259000000Y-151500000D03*
%TO.P,C66,2*%
%TO.N,GND*%
X256925000Y-151500000D03*
%TD*%
D45*
%TO.P,C54,1*%
%TO.N,HV*%
X253500000Y-101500000D03*
D33*
%TO.P,C54,2*%
%TO.N,GND*%
X253500000Y-106500000D03*
%TD*%
D24*
%TO.P,ZD12,1,K*%
%TO.N,HV*%
X242750000Y-146500000D03*
%TO.P,ZD12,2,A*%
%TO.N,Net-(U13-IN)*%
X242750000Y-143000000D03*
%TD*%
D41*
%TO.P,U8,1,GND*%
%TO.N,Net-(D41-K)*%
X232585000Y-65265000D03*
%TO.P,U8,2,IN*%
%TO.N,Net-(U8-IN)*%
X231315000Y-65265000D03*
%TO.P,U8,3,INH*%
%TO.N,tst1*%
X230045000Y-65265000D03*
%TO.P,U8,4,OUT*%
%TO.N,M1_L*%
X228775000Y-65265000D03*
%TO.P,U8,5,SR*%
%TO.N,Net-(U8-SR)*%
X227505000Y-65265000D03*
%TO.P,U8,6,IS*%
%TO.N,error 1*%
X226235000Y-65265000D03*
%TO.P,U8,7,VS*%
%TO.N,HV*%
X224965000Y-65265000D03*
D40*
%TO.P,U8,8,OUT*%
%TO.N,M1_L*%
X228775000Y-74925000D03*
%TD*%
D11*
%TO.P,ZD25,1,K*%
%TO.N,Net-(U3-IN)*%
X203500000Y-58550000D03*
%TO.P,ZD25,2,A*%
%TO.N,GND*%
X203500000Y-55250000D03*
%TD*%
D25*
%TO.P,C16,1*%
%TO.N,GND*%
X209500000Y-97825000D03*
%TO.P,C16,2*%
%TO.N,HV*%
X209500000Y-95750000D03*
%TD*%
D59*
%TO.P,C12,1*%
%TO.N,M1_R*%
X256250000Y-80722600D03*
D60*
%TO.P,C12,2*%
%TO.N,M1_L*%
X256250000Y-79222600D03*
%TD*%
D22*
%TO.P,C34,1*%
%TO.N,Net-(D41-A)*%
X224500000Y-108500000D03*
%TO.P,C34,2*%
%TO.N,GND*%
X222500000Y-108500000D03*
%TD*%
D75*
%TO.P,Q6,1,B*%
%TO.N,Net-(Q6-B)*%
X245562500Y-93300000D03*
%TO.P,Q6,2,E*%
%TO.N,GND*%
X245562500Y-95200000D03*
%TO.P,Q6,3,C*%
%TO.N,INH1*%
X247437500Y-94250000D03*
%TD*%
D23*
%TO.P,R86,1*%
%TO.N,Net-(R86-Pad1)*%
X195750000Y-143500000D03*
%TO.P,R86,2*%
%TO.N,SW2*%
X195750000Y-141500000D03*
%TD*%
D16*
%TO.P,R13,1*%
%TO.N,Net-(D46-K)*%
X219000000Y-53500000D03*
%TO.P,R13,2*%
%TO.N,Net-(D47-K)*%
X219000000Y-55500000D03*
%TD*%
D22*
%TO.P,C32,1*%
%TO.N,GND*%
X236200000Y-45200000D03*
%TO.P,C32,2*%
%TO.N,Net-(U5-VO)*%
X234200000Y-45200000D03*
%TD*%
D24*
%TO.P,D41,1,K*%
%TO.N,Net-(D41-K)*%
X223000000Y-98250000D03*
%TO.P,D41,2,A*%
%TO.N,Net-(D41-A)*%
X223000000Y-94750000D03*
%TD*%
D26*
%TO.P,D64,1,K*%
%TO.N,Net-(D64-K)*%
X206250000Y-58250000D03*
%TO.P,D64,2,A*%
%TO.N,M2_S1*%
X206250000Y-56500000D03*
%TD*%
D54*
%TO.P,J14,1,Pin_1*%
%TO.N,5v block*%
X266250000Y-138790000D03*
D55*
%TO.P,J14,2,Pin_2*%
%TO.N,GND*%
X266250000Y-133710000D03*
%TD*%
D32*
%TO.P,C96,1*%
%TO.N,HV*%
X187097349Y-98000000D03*
D33*
%TO.P,C96,2*%
%TO.N,Net-(D42-K)*%
X192097349Y-98000000D03*
%TD*%
D78*
%TO.P,F4,1*%
%TO.N,Net-(U13-OUT)*%
X245600000Y-151750000D03*
%TO.P,F4,2*%
%TO.N,5v+*%
X250000000Y-151750000D03*
%TD*%
D22*
%TO.P,C73,1*%
%TO.N,GND*%
X251725000Y-140652500D03*
%TO.P,C73,2*%
%TO.N,Net-(U13-IN)*%
X249725000Y-140652500D03*
%TD*%
D43*
%TO.P,ZD24,1,K*%
%TO.N,Net-(U2-IN)*%
X198500000Y-104000000D03*
%TO.P,ZD24,2,A*%
%TO.N,GND*%
X198500000Y-107300000D03*
%TD*%
D18*
%TO.P,R124,1*%
%TO.N,Net-(U7-IN)*%
X232000000Y-100500000D03*
%TO.P,R124,2*%
%TO.N,GND*%
X234000000Y-100500000D03*
%TD*%
D16*
%TO.P,R93,1*%
%TO.N,tst2*%
X193350000Y-56092500D03*
%TO.P,R93,2*%
%TO.N,Net-(D65-K)*%
X193350000Y-58092500D03*
%TD*%
D24*
%TO.P,D35,1,A1*%
%TO.N,Net-(D35-A1)*%
X192750000Y-79750000D03*
%TO.P,D35,2,A2*%
%TO.N,M2_L*%
X192750000Y-76250000D03*
%TD*%
D18*
%TO.P,R35,1*%
%TO.N,Net-(D57-K)*%
X239000000Y-92750000D03*
%TO.P,R35,2*%
%TO.N,Net-(Q6-B)*%
X241000000Y-92750000D03*
%TD*%
D42*
%TO.P,D12,1,K*%
%TO.N,GND*%
X266750000Y-144750000D03*
%TO.P,D12,2,A*%
%TO.N,Net-(D12-A)*%
X263250000Y-144750000D03*
%TD*%
D23*
%TO.P,R119,1*%
%TO.N,Net-(D48-K)*%
X214500000Y-104500000D03*
%TO.P,R119,2*%
%TO.N,Net-(D49-K)*%
X214500000Y-102500000D03*
%TD*%
%TO.P,R84,1*%
%TO.N,Net-(R84-Pad1)*%
X196000000Y-138250000D03*
%TO.P,R84,2*%
%TO.N,SW1*%
X196000000Y-136250000D03*
%TD*%
%TO.P,R121,1*%
%TO.N,GND*%
X196000000Y-106500000D03*
%TO.P,R121,2*%
%TO.N,Net-(U2-IN)*%
X196000000Y-104500000D03*
%TD*%
D31*
%TO.P,D36,1,A1*%
%TO.N,Net-(D35-A1)*%
X190500000Y-78000000D03*
%TO.P,D36,2,A2*%
%TO.N,M2_R*%
X190500000Y-81500000D03*
%TD*%
D48*
%TO.P,J5,1*%
%TO.N,GND*%
X266000000Y-55750000D03*
%TO.P,J5,2*%
%TO.N,5v+*%
X266000000Y-60750000D03*
%TO.P,J5,3*%
%TO.N,Net-(C41-Pad1)*%
X266000000Y-65750000D03*
%TO.P,J5,4*%
%TO.N,Net-(C42-Pad1)*%
X266000000Y-70750001D03*
%TO.P,J5,5*%
%TO.N,M1_L*%
X266000000Y-75750001D03*
%TO.P,J5,6*%
%TO.N,M1_R*%
X266000000Y-80750001D03*
%TD*%
D79*
%TO.P,D48,1,K*%
%TO.N,Net-(D48-K)*%
X213625000Y-107000000D03*
%TO.P,D48,2,A*%
%TO.N,PGD*%
X211875000Y-107000000D03*
%TD*%
D18*
%TO.P,R76,1*%
%TO.N,Net-(D14-A)*%
X177250000Y-128250000D03*
%TO.P,R76,2*%
%TO.N,3.3v*%
X179250000Y-128250000D03*
%TD*%
D36*
%TO.P,D59,1,K*%
%TO.N,Net-(D59-K)*%
X206250000Y-101500000D03*
%TO.P,D59,2,A*%
%TO.N,INH2*%
X208000000Y-101500000D03*
%TD*%
D23*
%TO.P,R98,1*%
%TO.N,Net-(D62-K)*%
X226000000Y-101500000D03*
%TO.P,R98,2*%
%TO.N,Net-(U7-IN)*%
X226000000Y-99500000D03*
%TD*%
D75*
%TO.P,Q5,1,B*%
%TO.N,Net-(Q5-B)*%
X254500000Y-91850000D03*
%TO.P,Q5,2,E*%
%TO.N,GND*%
X254500000Y-93750000D03*
%TO.P,Q5,3,C*%
%TO.N,M1_D1*%
X256375000Y-92800000D03*
%TD*%
D80*
%TO.P,C27,1*%
%TO.N,5v+*%
X245250000Y-132652651D03*
D33*
%TO.P,C27,2*%
%TO.N,GND*%
X245250000Y-127652651D03*
%TD*%
D12*
%TO.P,D60,1,K*%
%TO.N,Net-(D60-K)*%
X238900000Y-58350000D03*
%TO.P,D60,2,A*%
%TO.N,M1_S1*%
X238900000Y-60100000D03*
%TD*%
D81*
%TO.P,RV2,1,1*%
%TO.N,GND*%
X239600000Y-104250000D03*
D82*
%TO.P,RV2,2,2*%
%TO.N,Net-(R89-Pad2)*%
X242500000Y-105500000D03*
D81*
%TO.P,RV2,3,3*%
%TO.N,5v+*%
X239600000Y-106750000D03*
%TD*%
D23*
%TO.P,R123,1*%
%TO.N,Net-(U3-IN)*%
X199770000Y-56940000D03*
%TO.P,R123,2*%
%TO.N,GND*%
X199770000Y-54940000D03*
%TD*%
D76*
%TO.P,C23,1*%
%TO.N,HV*%
X168750000Y-94000000D03*
D33*
%TO.P,C23,2*%
%TO.N,GND*%
X163750000Y-94000000D03*
%TD*%
D22*
%TO.P,C30,1*%
%TO.N,GND*%
X236200000Y-42100000D03*
%TO.P,C30,2*%
%TO.N,Net-(U5-VI)*%
X234200000Y-42100000D03*
%TD*%
D63*
%TO.P,J13,1,Pin_1*%
%TO.N,GND*%
X254330000Y-157250000D03*
D64*
%TO.P,J13,2,Pin_2*%
%TO.N,detect*%
X251790000Y-157250000D03*
%TO.P,J13,3,Pin_3*%
%TO.N,FRQ*%
X249250000Y-157250000D03*
%TO.P,J13,4,Pin_4*%
%TO.N,Net-(J13-Pin_4)*%
X246710000Y-157250000D03*
%TD*%
D23*
%TO.P,R38,1*%
%TO.N,PWM*%
X248750000Y-98000000D03*
%TO.P,R38,2*%
%TO.N,INH1*%
X248750000Y-96000000D03*
%TD*%
%TO.P,R50,1*%
%TO.N,error 1*%
X225250000Y-60250000D03*
%TO.P,R50,2*%
%TO.N,GND*%
X225250000Y-58250000D03*
%TD*%
%TO.P,R56,1*%
%TO.N,Net-(U8-SR)*%
X228250000Y-60250000D03*
%TO.P,R56,2*%
%TO.N,GND*%
X228250000Y-58250000D03*
%TD*%
%TO.P,R97,1*%
%TO.N,Net-(D63-K)*%
X228250000Y-101500000D03*
%TO.P,R97,2*%
%TO.N,tst1*%
X228250000Y-99500000D03*
%TD*%
D68*
%TO.P,SW2,1,1*%
%TO.N,Net-(R85-Pad1)*%
X174500000Y-134385000D03*
%TO.P,SW2,2,2*%
%TO.N,GND*%
X174500000Y-141115000D03*
%TD*%
D18*
%TO.P,R17,1*%
%TO.N,Net-(IC1-RB5)*%
X187800000Y-48400000D03*
%TO.P,R17,2*%
%TO.N,error 2*%
X189800000Y-48400000D03*
%TD*%
%TO.P,R65,1*%
%TO.N,SCL*%
X171750000Y-103750000D03*
%TO.P,R65,2*%
%TO.N,3.3v*%
X173750000Y-103750000D03*
%TD*%
D83*
%TO.P,IC1,1,VDD*%
%TO.N,3.3v*%
X176745100Y-43999998D03*
%TO.P,IC1,2,RA5*%
%TO.N,B1*%
X176745100Y-44649999D03*
%TO.P,IC1,3,RA4*%
%TO.N,voltge_sen*%
X176745100Y-45299997D03*
%TO.P,IC1,4,~{MCLR}/VPP/RA3*%
%TO.N,Mcler*%
X176745100Y-45949999D03*
%TO.P,IC1,5,RC5*%
%TO.N,A1*%
X176745100Y-46599997D03*
%TO.P,IC1,6,RC4*%
%TO.N,M2_current_sen*%
X176745100Y-47249996D03*
%TO.P,IC1,7,RC3*%
%TO.N,A2*%
X176745100Y-47899997D03*
%TO.P,IC1,8,RC6*%
%TO.N,B2*%
X176745100Y-48549996D03*
%TO.P,IC1,9,RC7*%
%TO.N, SDA*%
X176745100Y-49199997D03*
%TO.P,IC1,10,RB7*%
%TO.N,SCL*%
X176745100Y-49849996D03*
%TO.P,IC1,11,RB6*%
%TO.N,Motor2_OFF*%
X184200000Y-49849998D03*
%TO.P,IC1,12,RB5*%
%TO.N,Net-(IC1-RB5)*%
X184200000Y-49200000D03*
%TO.P,IC1,13,RB4*%
%TO.N,M2_S1*%
X184200000Y-48549999D03*
%TO.P,IC1,14,RC2*%
%TO.N,Motor1_OFF*%
X184200000Y-47900000D03*
%TO.P,IC1,15,RC1*%
%TO.N,Net-(IC1-RC1)*%
X184200000Y-47249999D03*
%TO.P,IC1,16,RC0*%
%TO.N,M1_S1*%
X184200000Y-46600000D03*
%TO.P,IC1,17,RA2*%
%TO.N,M1_current_sen*%
X184200000Y-45949999D03*
%TO.P,IC1,18,RA1/ICSPCLK*%
%TO.N,PGC*%
X184200000Y-45300000D03*
%TO.P,IC1,19,RA0/ICSPDAT*%
%TO.N,PGD*%
X184200000Y-44649999D03*
%TO.P,IC1,20,VSS*%
%TO.N,GND*%
X184200000Y-44000000D03*
%TD*%
D22*
%TO.P,R80,1*%
%TO.N,SW1*%
X197000000Y-134000000D03*
%TO.P,R80,2*%
%TO.N,3.3v*%
X195000000Y-134000000D03*
%TD*%
D23*
%TO.P,R104,1*%
%TO.N,Net-(U12-OUT)*%
X240400000Y-42000000D03*
%TO.P,R104,2*%
%TO.N,5v+*%
X240400000Y-40000000D03*
%TD*%
D22*
%TO.P,C38,1*%
%TO.N,GND*%
X181372550Y-41700000D03*
%TO.P,C38,2*%
%TO.N,3.3v*%
X179372550Y-41700000D03*
%TD*%
%TO.P,R102,1*%
%TO.N,5v+*%
X242000000Y-140750000D03*
%TO.P,R102,2*%
%TO.N,Net-(U11-VCC)*%
X240000000Y-140750000D03*
%TD*%
D24*
%TO.P,ZD2,1,K*%
%TO.N,M2_current_sen*%
X170970000Y-47450000D03*
%TO.P,ZD2,2,A*%
%TO.N,GND*%
X170970000Y-43950000D03*
%TD*%
D19*
%TO.P,C95,1*%
%TO.N,GND*%
X238000000Y-138675000D03*
%TO.P,C95,2*%
%TO.N,Net-(U11-VCC)*%
X238000000Y-140750000D03*
%TD*%
D23*
%TO.P,C86,1*%
%TO.N,GND*%
X242200000Y-46200000D03*
%TO.P,C86,2*%
%TO.N,Net-(U12-OUT)*%
X242200000Y-44200000D03*
%TD*%
D84*
%TO.P,U12,1,IN*%
%TO.N,Net-(U12-IN)*%
X248660000Y-42800000D03*
D85*
%TO.P,U12,2,GND*%
%TO.N,GND*%
X246380000Y-49100000D03*
D84*
%TO.P,U12,3,OUT*%
%TO.N,Net-(U12-OUT)*%
X244100000Y-42800000D03*
%TD*%
D12*
%TO.P,D2,1,K*%
%TO.N,Net-(D2-K)*%
X251900000Y-44600000D03*
%TO.P,D2,2,A*%
%TO.N,9v+*%
X251900000Y-46350000D03*
%TD*%
D23*
%TO.P,R62,1*%
%TO.N,Net-(C43-Pad1)*%
X171980000Y-66050000D03*
%TO.P,R62,2*%
%TO.N,B2*%
X171980000Y-64050000D03*
%TD*%
D18*
%TO.P,R106,1*%
%TO.N,Net-(U12-IN)*%
X251172500Y-41700000D03*
%TO.P,R106,2*%
%TO.N,Net-(D2-K)*%
X253172500Y-41700000D03*
%TD*%
%TO.P,C84,1*%
%TO.N,GND*%
X247600000Y-40100000D03*
%TO.P,C84,2*%
%TO.N,Net-(U12-IN)*%
X249600000Y-40100000D03*
%TD*%
D16*
%TO.P,R19,1*%
%TO.N,Net-(D1-K)*%
X193990000Y-52370000D03*
%TO.P,R19,2*%
%TO.N,GND*%
X193990000Y-54370000D03*
%TD*%
D86*
%TO.P,R20,1*%
%TO.N,Net-(D42-A)*%
X212500000Y-60100000D03*
%TO.P,R20,2*%
%TO.N,GND*%
X212500000Y-54000000D03*
%TD*%
D25*
%TO.P,C14,1*%
%TO.N,Net-(D42-A)*%
X216500000Y-55325000D03*
%TO.P,C14,2*%
%TO.N,GND*%
X216500000Y-53250000D03*
%TD*%
D86*
%TO.P,R18,1*%
%TO.N,Net-(D42-A)*%
X209420000Y-60100000D03*
%TO.P,R18,2*%
%TO.N,GND*%
X209420000Y-54000000D03*
%TD*%
D87*
%TO.P,RV1,1,1*%
%TO.N,GND*%
X220980000Y-44010000D03*
D88*
%TO.P,RV1,2,2*%
%TO.N,Net-(C93-Pad1)*%
X218080000Y-42760000D03*
D87*
%TO.P,RV1,3,3*%
%TO.N,5v+*%
X220980000Y-41510000D03*
%TD*%
D72*
%TO.P,J8,1,1*%
%TO.N,GND*%
X183233200Y-116672400D03*
D73*
%TO.P,J8,2,2*%
%TO.N,HV*%
X180490000Y-116672400D03*
%TO.P,J8,3,3*%
%TO.N,5v+*%
X177746800Y-116672400D03*
%TO.P,J8,4,4*%
%TO.N,3.3v*%
X175003600Y-116672400D03*
%TO.P,J8,5,5*%
%TO.N,GND*%
X172260400Y-116672400D03*
%TO.P,J8,6,6*%
%TO.N,HV*%
X181861600Y-113827600D03*
%TO.P,J8,7,7*%
%TO.N,Mcler*%
X179118400Y-113827600D03*
%TO.P,J8,8,8*%
%TO.N,SCL*%
X176375200Y-113827600D03*
%TO.P,J8,9,9*%
%TO.N,SDA*%
X173632000Y-113827600D03*
D74*
%TO.P,J8,G1,G1*%
%TO.N,GND*%
X190243600Y-115250000D03*
%TO.P,J8,G2,G2*%
X165250000Y-115250000D03*
%TD*%
%TO.P,J4,G2,G2*%
%TO.N,GND*%
X165250000Y-108500000D03*
%TO.P,J4,G1,G1*%
X190243600Y-108500000D03*
D73*
%TO.P,J4,9,9*%
%TO.N,SDA*%
X173632000Y-109922400D03*
%TO.P,J4,8,8*%
%TO.N,SCL*%
X176375200Y-109922400D03*
%TO.P,J4,7,7*%
%TO.N,Mcler*%
X179118400Y-109922400D03*
%TO.P,J4,6,6*%
%TO.N,HV*%
X181861600Y-109922400D03*
%TO.P,J4,5,5*%
%TO.N,GND*%
X172260400Y-107077600D03*
%TO.P,J4,4,4*%
%TO.N,3.3v*%
X175003600Y-107077600D03*
%TO.P,J4,3,3*%
%TO.N,5v+*%
X177746800Y-107077600D03*
%TO.P,J4,2,2*%
%TO.N,HV*%
X180490000Y-107077600D03*
D72*
%TO.P,J4,1,1*%
%TO.N,GND*%
X183233200Y-107077600D03*
%TD*%
D76*
%TO.P,C19,1*%
%TO.N,HV*%
X175152651Y-123250000D03*
D33*
%TO.P,C19,2*%
%TO.N,GND*%
X170152651Y-123250000D03*
%TD*%
D89*
%TO.P,U5,1,GND*%
%TO.N,GND*%
X230150000Y-46900000D03*
%TO.P,U5,2,VO*%
%TO.N,Net-(U5-VO)*%
X230150000Y-44600000D03*
D90*
X223850000Y-44600000D03*
D89*
%TO.P,U5,3,VI*%
%TO.N,Net-(U5-VI)*%
X230150000Y-42300000D03*
%TD*%
D32*
%TO.P,C37,1*%
%TO.N,3.3v*%
X241270000Y-56400000D03*
D33*
%TO.P,C37,2*%
%TO.N,GND*%
X246270000Y-56400000D03*
%TD*%
D45*
%TO.P,C97,1*%
%TO.N,HV*%
X239340000Y-64057349D03*
D33*
%TO.P,C97,2*%
%TO.N,Net-(D41-K)*%
X239340000Y-69057349D03*
%TD*%
D91*
%TO.N,Mcler*%
X167825000Y-49025000D03*
%TO.N,3.3v*%
X229770000Y-50510000D03*
%TO.N,kill2*%
X221240000Y-55360000D03*
%TO.N,GND*%
X198705000Y-39595000D03*
%TO.N,kill2*%
X200300000Y-44960000D03*
%TO.N,M2_L*%
X167315000Y-76815000D03*
%TO.N,M2_R*%
X166250000Y-82130000D03*
X166250000Y-83360000D03*
X167275000Y-82025000D03*
%TO.N,M2_L*%
X168780000Y-75700000D03*
%TO.N,HV*%
X197070000Y-71030000D03*
%TO.N,B1*%
X183130000Y-67670000D03*
%TO.N,PWM*%
X180080000Y-89150000D03*
X176300000Y-61890000D03*
%TO.N,M2_D1*%
X178850000Y-90990000D03*
X175487500Y-56662500D03*
%TO.N,5v+*%
X221370000Y-41410000D03*
X189080000Y-52240000D03*
%TO.N,M2_current_sen*%
X170970000Y-47450000D03*
%TO.N,Mcler*%
X173780000Y-45910000D03*
%TO.N,GND*%
X164650000Y-45630000D03*
%TO.N,M2_current_sen*%
X193680000Y-47720000D03*
%TO.N,A1*%
X261070000Y-67620000D03*
X180250000Y-67750000D03*
X177560000Y-51790000D03*
%TO.N,voltge_sen*%
X179460000Y-51730000D03*
%TO.N,B1*%
X174290000Y-43830000D03*
%TO.N,M1_S1*%
X193040000Y-60730000D03*
X209420000Y-62760000D03*
X181390000Y-43750000D03*
X183310000Y-55780000D03*
%TO.N,Net-(IC1-RC1)*%
X196960000Y-59760000D03*
X183630000Y-53770000D03*
X181190000Y-45850000D03*
%TO.N,Motor1_OFF*%
X242210000Y-90240000D03*
X237540000Y-95270000D03*
X189060000Y-87990000D03*
X181150000Y-47890000D03*
%TO.N,M2_S1*%
X186970000Y-57260000D03*
X186200000Y-47570000D03*
%TO.N,A2*%
X170390000Y-56340000D03*
X168450000Y-64270000D03*
X170890000Y-50900000D03*
%TO.N,B2*%
X170850000Y-62170000D03*
X173700000Y-49880000D03*
%TO.N,3.3v*%
X166040000Y-42800000D03*
%TO.N,GND*%
X216290000Y-47070000D03*
X215880000Y-52910000D03*
%TO.N,PGD*%
X197710000Y-49530000D03*
%TO.N,Net-(D42-A)*%
X218570000Y-40610000D03*
X216500000Y-57000000D03*
%TO.N,5v+*%
X259110000Y-119780000D03*
X257520000Y-87610000D03*
%TO.N,INH1*%
X246830000Y-92060000D03*
%TO.N,M1_S1*%
X239080000Y-61350000D03*
X248150000Y-89380000D03*
%TO.N,INH1*%
X235520000Y-54150000D03*
%TO.N,9v+*%
X204830000Y-47540000D03*
X223150000Y-59280000D03*
%TO.N,CS*%
X187280000Y-62970000D03*
X203720000Y-52020000D03*
%TO.N,GND*%
X177970000Y-56320000D03*
X177380000Y-59815000D03*
X246290000Y-50350000D03*
X259411906Y-45335000D03*
%TO.N,9v+*%
X256540000Y-43490000D03*
%TO.N,5v+*%
X225200000Y-39890000D03*
X176620000Y-53850000D03*
%TO.N,INH2*%
X195560000Y-57000000D03*
%TO.N,GND*%
X192610000Y-66320000D03*
X212115000Y-40915000D03*
X219950000Y-45400000D03*
%TO.N,Mcler*%
X196600000Y-45500000D03*
%TO.N,GND*%
X230000000Y-48400000D03*
X236200000Y-43900000D03*
X201100000Y-55250000D03*
%TO.N,Net-(C93-Pad1)*%
X200300000Y-42800000D03*
X217000000Y-43800000D03*
%TO.N,3.3v*%
X175750000Y-98750000D03*
X175300000Y-91600000D03*
%TO.N,SCL*%
X175600000Y-51800000D03*
X175400000Y-89500000D03*
%TO.N,M1_current_sen*%
X188112500Y-46700000D03*
%TO.N,3.3v*%
X179113774Y-41683774D03*
%TO.N,GND*%
X176920000Y-41590000D03*
%TO.N,tst1*%
X227000000Y-90300000D03*
X231000000Y-90800000D03*
%TO.N,3.3v*%
X230800000Y-117100000D03*
%TO.N,GND*%
X243200000Y-94900000D03*
%TO.N,INH2*%
X194750000Y-89500000D03*
%TO.N,GND*%
X196750000Y-127500000D03*
%TO.N,3.3v*%
X192750000Y-133750000D03*
X226000000Y-112500000D03*
%TO.N,SDA*%
X169500000Y-147750000D03*
X171250000Y-138250000D03*
%TO.N,GND*%
X240000000Y-136000000D03*
%TO.N,HV*%
X178500000Y-133750000D03*
%TO.N,buzz*%
X240000000Y-144250000D03*
%TO.N,5v+*%
X212000000Y-155250000D03*
X243975000Y-140652500D03*
X241750000Y-153250000D03*
%TO.N,HV*%
X255750000Y-128500000D03*
%TO.N,SCL*%
X222250000Y-135000000D03*
%TO.N,GND*%
X189000000Y-129750000D03*
%TO.N,5v+*%
X186500000Y-149000000D03*
X186750000Y-130000000D03*
%TO.N,3.3v*%
X179750000Y-128000000D03*
%TO.N,Mcler*%
X197500000Y-121500000D03*
%TO.N,5v+*%
X259750000Y-136750000D03*
%TO.N,HV*%
X245500000Y-148250000D03*
%TO.N,detect*%
X236500000Y-153500000D03*
%TO.N,GND*%
X182500000Y-100250000D03*
%TO.N,SDA*%
X170000000Y-102500000D03*
%TO.N,SCL*%
X171750000Y-103750000D03*
%TO.N,3.3v*%
X175750000Y-98750000D03*
%TO.N,Net-(U3-SR)*%
X202500000Y-67920000D03*
%TO.N,HV*%
X236000000Y-92000000D03*
%TO.N,Net-(C39-Pad1)*%
X226500000Y-107750000D03*
X232250000Y-104750000D03*
%TO.N,Net-(D41-A)*%
X222500000Y-103000000D03*
%TO.N,Net-(D57-K)*%
X240750000Y-95000000D03*
%TO.N,HV*%
X208250000Y-93500000D03*
%TO.N,error 2*%
X206750000Y-97750000D03*
%TO.N,GND*%
X209750000Y-98500000D03*
%TO.N,Net-(D41-K)*%
X210375000Y-90375000D03*
%TO.N,HV*%
X195210000Y-100150000D03*
%TO.N,GND*%
X183250000Y-95000000D03*
X194250000Y-95000000D03*
%TO.N,error 2*%
X200000000Y-62250000D03*
%TO.N,GND*%
X234000000Y-96750000D03*
X212250000Y-104250000D03*
X268500000Y-91250000D03*
%TO.N,Net-(R89-Pad2)*%
X226750000Y-110250000D03*
%TO.N,GND*%
X235500000Y-108250000D03*
%TO.N,Net-(D42-K)*%
X209750000Y-65250000D03*
%TO.N,HV*%
X198720000Y-65630000D03*
X223000000Y-66500000D03*
%TO.N,Net-(D41-K)*%
X234500000Y-64500000D03*
%TO.N,Net-(D41-A)*%
X224500000Y-109000000D03*
%TO.N,PGD*%
X211000000Y-108500000D03*
D92*
X211000000Y-108500000D03*
%TO.N,Net-(D49-K)*%
X217250000Y-102500000D03*
D91*
%TO.N,GND*%
X254570000Y-48130000D03*
%TD*%
D93*
%TO.N,Mcler*%
X183570000Y-39470000D02*
X185500000Y-41400000D01*
X167710000Y-39470000D02*
X183570000Y-39470000D01*
X167100000Y-40080000D02*
X167710000Y-39470000D01*
X166320000Y-40080000D02*
X167100000Y-40080000D01*
D94*
%TO.N,GND*%
X176920000Y-41529996D02*
X176415002Y-41024998D01*
D95*
X183847552Y-44000000D02*
X184200000Y-44000000D01*
X181372550Y-41524998D02*
X183847552Y-44000000D01*
X181224998Y-41524998D02*
X181372550Y-41524998D01*
X179930000Y-40230000D02*
X181224998Y-41524998D01*
X176790000Y-40230000D02*
X179930000Y-40230000D01*
X176770000Y-40210000D02*
X176790000Y-40230000D01*
X176770000Y-40870000D02*
X176770000Y-40210000D01*
X176920000Y-41020000D02*
X176770000Y-40870000D01*
X176920000Y-41590000D02*
X176920000Y-41020000D01*
D94*
X176920000Y-41590000D02*
X176920000Y-41529996D01*
D93*
%TO.N,Mcler*%
X164565000Y-49025000D02*
X163805000Y-49025000D01*
X163805000Y-49025000D02*
X163340000Y-48560000D01*
D95*
X163340000Y-48560000D02*
X163340000Y-49430000D01*
X163340000Y-49430000D02*
X163340000Y-83540000D01*
D93*
X167825000Y-49025000D02*
X164565000Y-49025000D01*
D94*
%TO.N,3.3v*%
X230030000Y-50250000D02*
X229770000Y-50510000D01*
X232750000Y-50250000D02*
X230030000Y-50250000D01*
%TO.N,9v+*%
X204560000Y-47270000D02*
X204380000Y-47270000D01*
X204830000Y-47540000D02*
X204560000Y-47270000D01*
D95*
%TO.N,kill2*%
X221015000Y-55360000D02*
X221000000Y-55375000D01*
X221240000Y-55360000D02*
X221015000Y-55360000D01*
D93*
%TO.N,Net-(D42-A)*%
X216060000Y-39960000D02*
X216000000Y-39900000D01*
X217920000Y-39960000D02*
X216060000Y-39960000D01*
X218570000Y-40610000D02*
X217920000Y-39960000D01*
D94*
%TO.N,Net-(C21-Pad1)*%
X214720000Y-42320000D02*
X214300000Y-41900000D01*
X216210000Y-42320000D02*
X214720000Y-42320000D01*
%TO.N,GND*%
X212272382Y-41072382D02*
X212300000Y-41072382D01*
X212115000Y-40915000D02*
X212272382Y-41072382D01*
X198705000Y-39595000D02*
X198750000Y-39550000D01*
D95*
X198710000Y-40750000D02*
X198600000Y-40860000D01*
X198600000Y-42400000D02*
X198300000Y-42700000D01*
X198600000Y-40860000D02*
X198600000Y-42400000D01*
D93*
%TO.N,kill2*%
X200300000Y-44600000D02*
X200300000Y-44960000D01*
X201100000Y-45930000D02*
X201130000Y-45900000D01*
X201130000Y-45900000D02*
X203130000Y-45900000D01*
X200300000Y-45130000D02*
X201100000Y-45930000D01*
X200300000Y-44960000D02*
X200300000Y-45130000D01*
D94*
%TO.N,tst2*%
X205020000Y-63270000D02*
X205020000Y-65340000D01*
X202250000Y-60500000D02*
X205020000Y-63270000D01*
X202000000Y-59250000D02*
X202000000Y-60500000D01*
X201750000Y-59000000D02*
X202000000Y-59250000D01*
X199570000Y-59000000D02*
X201750000Y-59000000D01*
D96*
X197630000Y-57520000D02*
X197560000Y-57520000D01*
X198700000Y-58590000D02*
X197630000Y-57520000D01*
X199160000Y-58590000D02*
X198700000Y-58590000D01*
D94*
X202000000Y-60500000D02*
X202250000Y-60500000D01*
D96*
X199570000Y-59000000D02*
X199160000Y-58590000D01*
D97*
%TO.N,M2_L*%
X169290000Y-75000000D02*
X168539999Y-75750001D01*
X195899000Y-75000000D02*
X169290000Y-75000000D01*
X195899000Y-75000000D02*
X194548000Y-73649000D01*
X203750000Y-75000000D02*
X195899000Y-75000000D01*
%TO.N,M2_R*%
X167275000Y-82025000D02*
X166250000Y-81000000D01*
%TO.N,M2_L*%
X166250000Y-75750001D02*
X168539999Y-75750001D01*
X168539999Y-75750001D02*
X170641000Y-73649000D01*
X170641000Y-73649000D02*
X174500000Y-73649000D01*
D93*
%TO.N,HV*%
X179900000Y-71030000D02*
X197070000Y-71030000D01*
X176250000Y-67380000D02*
X179900000Y-71030000D01*
D98*
%TO.N,M2_L*%
X186500000Y-77750000D02*
X186500000Y-73649000D01*
D93*
%TO.N,s5v+*%
X195790000Y-64370000D02*
X194580000Y-64370000D01*
X194580000Y-64370000D02*
X194540000Y-64410000D01*
X195785000Y-68330000D02*
X195790000Y-68335000D01*
X185770000Y-68330000D02*
X195785000Y-68330000D01*
X183050000Y-65610000D02*
X185770000Y-68330000D01*
X180155000Y-65610000D02*
X183050000Y-65610000D01*
X195790000Y-68335000D02*
X195790000Y-64370000D01*
%TO.N,Net-(U1-COMP)*%
X194710000Y-66580000D02*
X194540000Y-66410000D01*
X194710000Y-67620000D02*
X194710000Y-66580000D01*
X187115000Y-67620000D02*
X194710000Y-67620000D01*
X185105000Y-65610000D02*
X187115000Y-67620000D01*
D95*
%TO.N,M1_S1*%
X185850000Y-55780000D02*
X183310000Y-55780000D01*
X185930000Y-55860000D02*
X185850000Y-55780000D01*
X185930000Y-55870000D02*
X185930000Y-55860000D01*
X186180000Y-55870000D02*
X185930000Y-55870000D01*
X186270000Y-55960000D02*
X186180000Y-55870000D01*
X188460000Y-55960000D02*
X186270000Y-55960000D01*
X188450000Y-57950000D02*
X188460000Y-57940000D01*
X188450000Y-58870000D02*
X188450000Y-57950000D01*
X187760000Y-59560000D02*
X188450000Y-58870000D01*
X187760000Y-60720000D02*
X187760000Y-59560000D01*
X187890000Y-60850000D02*
X187760000Y-60720000D01*
X188710000Y-61500000D02*
X188060000Y-60850000D01*
X188460000Y-57940000D02*
X188460000Y-55960000D01*
X193040000Y-60730000D02*
X192180000Y-60730000D01*
X188060000Y-60850000D02*
X187890000Y-60850000D01*
X192180000Y-60730000D02*
X191410000Y-61500000D01*
X191410000Y-61500000D02*
X188710000Y-61500000D01*
D93*
%TO.N,GND*%
X187510000Y-64325000D02*
X185120000Y-64325000D01*
X187900000Y-66315000D02*
X187900000Y-66285000D01*
X185120000Y-64325000D02*
X185105000Y-64340000D01*
X191600000Y-66470000D02*
X188055000Y-66470000D01*
X187900000Y-66285000D02*
X187510000Y-65895000D01*
X191630000Y-66500000D02*
X191600000Y-66470000D01*
X188055000Y-66470000D02*
X187900000Y-66315000D01*
X187510000Y-65895000D02*
X187510000Y-64325000D01*
%TO.N,PWM*%
X190640000Y-89340000D02*
X191060000Y-89760000D01*
X188570000Y-89340000D02*
X190640000Y-89340000D01*
X188380000Y-89150000D02*
X188570000Y-89340000D01*
X180080000Y-89150000D02*
X188380000Y-89150000D01*
X175717500Y-61890000D02*
X176300000Y-61890000D01*
X175077500Y-61250000D02*
X175717500Y-61890000D01*
%TO.N,M2_D1*%
X192950000Y-99830000D02*
X194330000Y-98450000D01*
X192950000Y-100110000D02*
X192950000Y-99830000D01*
X194330000Y-98450000D02*
X195950000Y-98450000D01*
X192170000Y-100120000D02*
X192180000Y-100110000D01*
X191270000Y-100120000D02*
X192170000Y-100120000D01*
X188800000Y-97650000D02*
X191270000Y-100120000D01*
X184440000Y-96930000D02*
X185270000Y-96100000D01*
X185310000Y-96140000D02*
X188800000Y-96140000D01*
X180240000Y-96930000D02*
X184440000Y-96930000D01*
X178850000Y-95540000D02*
X180240000Y-96930000D01*
X185270000Y-96100000D02*
X185310000Y-96140000D01*
X188800000Y-96140000D02*
X188800000Y-97650000D01*
X178850000Y-90990000D02*
X178850000Y-95540000D01*
X192180000Y-100110000D02*
X192950000Y-100110000D01*
D96*
%TO.N,HV*%
X188190000Y-101680000D02*
X187097349Y-100587349D01*
X194340000Y-101680000D02*
X188190000Y-101680000D01*
X195210000Y-100150000D02*
X195210000Y-100810000D01*
X195210000Y-100810000D02*
X194340000Y-101680000D01*
X187097349Y-100587349D02*
X187097349Y-98000000D01*
D93*
%TO.N,M2_D1*%
X195950000Y-98450000D02*
X197000000Y-99500000D01*
X176095000Y-57270000D02*
X175487500Y-56662500D01*
%TO.N,5v+*%
X221370000Y-41070000D02*
X221200000Y-40900000D01*
X221370000Y-41410000D02*
X221370000Y-41070000D01*
X182640000Y-52240000D02*
X189080000Y-52240000D01*
X182200000Y-51800000D02*
X182640000Y-52240000D01*
X180970000Y-53030000D02*
X182200000Y-51800000D01*
X179610000Y-53030000D02*
X180970000Y-53030000D01*
X179560000Y-53080000D02*
X179610000Y-53030000D01*
X178220000Y-53080000D02*
X179560000Y-53080000D01*
X177450000Y-53850000D02*
X178220000Y-53080000D01*
X176620000Y-53850000D02*
X177450000Y-53850000D01*
D95*
%TO.N,voltge_sen*%
X179630000Y-50660000D02*
X179630000Y-45310000D01*
X179460000Y-50830000D02*
X179630000Y-50660000D01*
X179460000Y-51730000D02*
X179460000Y-50830000D01*
D93*
%TO.N,M2_current_sen*%
X172122549Y-47450000D02*
X172347551Y-47224998D01*
X170970000Y-47450000D02*
X172122549Y-47450000D01*
D95*
%TO.N,A2*%
X171490000Y-49860000D02*
X173450003Y-47899997D01*
X171490000Y-50300000D02*
X171490000Y-49860000D01*
X170890000Y-50900000D02*
X171490000Y-50300000D01*
X173450003Y-47899997D02*
X176745100Y-47899997D01*
D94*
%TO.N,M2_current_sen*%
X170400000Y-46880000D02*
X170970000Y-47450000D01*
X166630000Y-46880000D02*
X170400000Y-46880000D01*
%TO.N,GND*%
X167485000Y-43950000D02*
X166630000Y-44805000D01*
X170970000Y-43950000D02*
X167485000Y-43950000D01*
X165475000Y-44805000D02*
X166630000Y-44805000D01*
X164650000Y-45630000D02*
X165475000Y-44805000D01*
D95*
X164650000Y-45630000D02*
X165350000Y-45630000D01*
X166120000Y-45130000D02*
X166890000Y-44360000D01*
%TO.N,Mcler*%
X179118400Y-103818400D02*
X179118400Y-109922400D01*
X178300000Y-103000000D02*
X179118400Y-103818400D01*
X178300000Y-101400000D02*
X178300000Y-103000000D01*
X177200000Y-100300000D02*
X178300000Y-101400000D01*
X177200000Y-88200000D02*
X177200000Y-100300000D01*
X165700000Y-87300000D02*
X166600000Y-88200000D01*
X163340000Y-83540000D02*
X165700000Y-85900000D01*
X165700000Y-85900000D02*
X165700000Y-87300000D01*
X163340000Y-40560000D02*
X163340000Y-48560000D01*
X166600000Y-88200000D02*
X177200000Y-88200000D01*
X166320000Y-40080000D02*
X163820000Y-40080000D01*
X163820000Y-40080000D02*
X163340000Y-40560000D01*
D93*
X166320000Y-40080000D02*
X166550000Y-39850000D01*
D95*
%TO.N,A2*%
X168620000Y-64100000D02*
X168450000Y-64270000D01*
X168620000Y-60970000D02*
X168620000Y-64100000D01*
X170570000Y-59020000D02*
X168620000Y-60970000D01*
X170570000Y-56520000D02*
X170570000Y-59020000D01*
X170390000Y-56340000D02*
X170570000Y-56520000D01*
%TO.N,Mcler*%
X176745100Y-45949999D02*
X173819999Y-45949999D01*
X173819999Y-45949999D02*
X173780000Y-45910000D01*
%TO.N,B1*%
X174629999Y-44649999D02*
X176745100Y-44649999D01*
X174090000Y-44030000D02*
X174090000Y-44110000D01*
X174290000Y-43830000D02*
X174090000Y-44030000D01*
X174090000Y-44110000D02*
X174629999Y-44649999D01*
D94*
%TO.N,3.3v*%
X166320000Y-42080000D02*
X174991001Y-42080000D01*
X174991001Y-42080000D02*
X176745100Y-43834099D01*
%TO.N,GND*%
X171120000Y-43800000D02*
X170970000Y-43950000D01*
D95*
%TO.N,3.3v*%
X177720100Y-43024998D02*
X176745100Y-43999998D01*
X177772550Y-43024998D02*
X177720100Y-43024998D01*
X179113774Y-41683774D02*
X177772550Y-43024998D01*
%TO.N,M2_current_sen*%
X198600000Y-47720000D02*
X193680000Y-47720000D01*
X198970000Y-48090000D02*
X198600000Y-47720000D01*
X200570000Y-49690000D02*
X198970000Y-48090000D01*
X201360000Y-49690000D02*
X200570000Y-49690000D01*
D93*
%TO.N,Net-(U3-SR)*%
X202500000Y-65360000D02*
X202480000Y-65340000D01*
X202500000Y-67920000D02*
X202500000Y-65360000D01*
D95*
%TO.N,A1*%
X178510000Y-50840000D02*
X177560000Y-51790000D01*
X178510000Y-46560000D02*
X178510000Y-50840000D01*
X178470003Y-46599997D02*
X178510000Y-46560000D01*
X176745100Y-46599997D02*
X178470003Y-46599997D01*
D94*
%TO.N,GND*%
X179390000Y-56410000D02*
X180080000Y-57100000D01*
X178060000Y-56410000D02*
X179390000Y-56410000D01*
X177970000Y-56320000D02*
X178060000Y-56410000D01*
D95*
%TO.N,voltge_sen*%
X179630000Y-45310000D02*
X179730000Y-45410000D01*
X178520000Y-45310000D02*
X179630000Y-45310000D01*
X176755103Y-45310000D02*
X178520000Y-45310000D01*
X176745100Y-45299997D02*
X176755103Y-45310000D01*
D96*
%TO.N,3.3v*%
X166320000Y-42520000D02*
X166320000Y-42080000D01*
X166040000Y-42800000D02*
X166320000Y-42520000D01*
D95*
%TO.N,Net-(J1-Pad3)*%
X189580000Y-59880000D02*
X189230000Y-60230000D01*
X190640000Y-59880000D02*
X189580000Y-59880000D01*
X190730000Y-59790000D02*
X190640000Y-59880000D01*
%TO.N,Net-(IC1-RC1)*%
X189760000Y-55240000D02*
X192195000Y-57675000D01*
X186280000Y-55240000D02*
X189760000Y-55240000D01*
X184810000Y-53770000D02*
X186280000Y-55240000D01*
X183630000Y-53770000D02*
X184810000Y-53770000D01*
D93*
%TO.N,Net-(U1-RC)*%
X187870000Y-61660000D02*
X185245000Y-61660000D01*
X185245000Y-61660000D02*
X185105000Y-61800000D01*
X188370000Y-62160000D02*
X187870000Y-61660000D01*
X188620000Y-62160000D02*
X188370000Y-62160000D01*
X189230000Y-62770000D02*
X188620000Y-62160000D01*
%TO.N,Net-(IC1-RC1)*%
X193970000Y-59260000D02*
X192190000Y-59260000D01*
X196960000Y-59760000D02*
X196960000Y-59870000D01*
X196960000Y-59870000D02*
X196610000Y-60220000D01*
X196610000Y-60220000D02*
X194930000Y-60220000D01*
X194930000Y-60220000D02*
X193970000Y-59260000D01*
D95*
%TO.N,M1_S1*%
X182440000Y-44800000D02*
X181390000Y-43750000D01*
X182440000Y-46060000D02*
X182440000Y-44800000D01*
X182980000Y-46600000D02*
X182440000Y-46060000D01*
X184200000Y-46600000D02*
X182980000Y-46600000D01*
D93*
%TO.N,Net-(D65-K)*%
X194470000Y-58750000D02*
X195560000Y-58750000D01*
X193812500Y-58092500D02*
X194470000Y-58750000D01*
X193350000Y-58092500D02*
X193812500Y-58092500D01*
%TO.N,tst2*%
X194087500Y-56092500D02*
X194580000Y-55600000D01*
X193350000Y-56092500D02*
X194087500Y-56092500D01*
X194580000Y-55600000D02*
X197560000Y-55600000D01*
X197560000Y-57010000D02*
X197560000Y-55600000D01*
X191662500Y-56092500D02*
X193350000Y-56092500D01*
X190130000Y-54560000D02*
X191662500Y-56092500D01*
X190130000Y-54090000D02*
X190130000Y-54560000D01*
D96*
X197560000Y-57520000D02*
X197560000Y-57010000D01*
D94*
%TO.N,Net-(U3-IN)*%
X201890000Y-56940000D02*
X203500000Y-58550000D01*
X199770000Y-56940000D02*
X201890000Y-56940000D01*
D96*
%TO.N,GND*%
X197780000Y-54000000D02*
X197560000Y-54220000D01*
X201100000Y-54000000D02*
X197780000Y-54000000D01*
X196600000Y-53260000D02*
X197560000Y-54220000D01*
X196600000Y-52565000D02*
X196600000Y-53260000D01*
X197210000Y-54570000D02*
X197560000Y-54220000D01*
X196600000Y-54570000D02*
X197210000Y-54570000D01*
X196600000Y-52565000D02*
X196600000Y-54570000D01*
X196600000Y-54570000D02*
X196550000Y-54620000D01*
X196300000Y-54370000D02*
X196550000Y-54620000D01*
X193990000Y-54370000D02*
X196300000Y-54370000D01*
%TO.N,tst2*%
X190130000Y-54090000D02*
X189860000Y-53820000D01*
X189860000Y-53820000D02*
X187935000Y-53820000D01*
%TO.N,GND*%
X193710000Y-54090000D02*
X193990000Y-54370000D01*
X192130000Y-54090000D02*
X193710000Y-54090000D01*
D95*
%TO.N,tst2*%
X190140000Y-54100000D02*
X188015000Y-54100000D01*
%TO.N,Net-(D1-K)*%
X192120000Y-50500000D02*
X191200000Y-50500000D01*
X193810000Y-52190000D02*
X192120000Y-50500000D01*
D94*
%TO.N,GND*%
X193630000Y-54370000D02*
X194870000Y-54370000D01*
D95*
%TO.N,Net-(IC1-RC1)*%
X181190000Y-45980000D02*
X181190000Y-45850000D01*
X181750000Y-46540000D02*
X181190000Y-45980000D01*
X184200000Y-47249999D02*
X182459999Y-47249999D01*
X182459999Y-47249999D02*
X181750000Y-46540000D01*
%TO.N,Motor1_OFF*%
X181160000Y-47900000D02*
X181150000Y-47890000D01*
X184200000Y-47900000D02*
X181160000Y-47900000D01*
X237500000Y-90640000D02*
X237500000Y-95230000D01*
X237500000Y-95230000D02*
X237540000Y-95270000D01*
X241810000Y-90640000D02*
X237500000Y-90640000D01*
X242210000Y-90240000D02*
X241810000Y-90640000D01*
X193740000Y-87990000D02*
X194050000Y-88300000D01*
X189060000Y-87990000D02*
X193740000Y-87990000D01*
%TO.N,M2_S1*%
X186970000Y-57260000D02*
X186775000Y-57260000D01*
X186775000Y-57260000D02*
X186680000Y-57355000D01*
X186140000Y-48550000D02*
X186140000Y-47630000D01*
X184200001Y-48550000D02*
X186140000Y-48550000D01*
X186140000Y-47630000D02*
X186200000Y-47570000D01*
X184200000Y-48549999D02*
X184200001Y-48550000D01*
D94*
%TO.N,B2*%
X170850000Y-62920000D02*
X171980000Y-64050000D01*
X170850000Y-62170000D02*
X170850000Y-62920000D01*
%TO.N,GND*%
X172890000Y-55820000D02*
X172890000Y-58297500D01*
X171900000Y-54830000D02*
X172890000Y-55820000D01*
X167170000Y-54830000D02*
X171900000Y-54830000D01*
X166250000Y-55750000D02*
X167170000Y-54830000D01*
D95*
%TO.N,M2_current_sen*%
X172347551Y-47224998D02*
X176720102Y-47224998D01*
X176720102Y-47224998D02*
X176745100Y-47249996D01*
X172072550Y-47499999D02*
X172347551Y-47224998D01*
D93*
%TO.N,Net-(C43-Pad1)*%
X166250000Y-65750000D02*
X166550000Y-66050000D01*
X166550000Y-66050000D02*
X171980000Y-66050000D01*
D95*
%TO.N,B2*%
X175030004Y-48549996D02*
X173700000Y-49880000D01*
X176745100Y-48549996D02*
X175030004Y-48549996D01*
D93*
%TO.N,PGD*%
X217400000Y-49750000D02*
X219000000Y-49750000D01*
X217110000Y-49460000D02*
X217400000Y-49750000D01*
X214050000Y-52520000D02*
X217110000Y-49460000D01*
X214050000Y-52770000D02*
X214050000Y-52520000D01*
X207250000Y-52770000D02*
X214050000Y-52770000D01*
X206610000Y-53410000D02*
X207250000Y-52770000D01*
X202170000Y-53410000D02*
X206610000Y-53410000D01*
X198290000Y-49530000D02*
X202170000Y-53410000D01*
X197710000Y-49530000D02*
X198290000Y-49530000D01*
%TO.N,GND*%
X216290000Y-46155634D02*
X216650000Y-45795634D01*
X216290000Y-47070000D02*
X216290000Y-46155634D01*
X216160000Y-52910000D02*
X215880000Y-52910000D01*
X216500000Y-53250000D02*
X216160000Y-52910000D01*
D94*
X213272382Y-48100000D02*
X213850000Y-47522382D01*
X211680000Y-49400000D02*
X212980000Y-48100000D01*
X211500000Y-49400000D02*
X211680000Y-49400000D01*
X212980000Y-48100000D02*
X213272382Y-48100000D01*
D96*
X215970000Y-53780000D02*
X216500000Y-53250000D01*
X212720000Y-53780000D02*
X215970000Y-53780000D01*
X212500000Y-54000000D02*
X212720000Y-53780000D01*
D94*
X204545000Y-54330000D02*
X203625000Y-55250000D01*
X203625000Y-55250000D02*
X203500000Y-55250000D01*
X209090000Y-54330000D02*
X204545000Y-54330000D01*
X209420000Y-54000000D02*
X209090000Y-54330000D01*
D93*
%TO.N,Net-(D42-A)*%
X216500000Y-55325000D02*
X216500000Y-57000000D01*
%TO.N,5v+*%
X248070000Y-130580000D02*
X247322651Y-130580000D01*
X248070000Y-128070000D02*
X248070000Y-130580000D01*
X247322651Y-130580000D02*
X245250000Y-132652651D01*
X256360000Y-119780000D02*
X248070000Y-128070000D01*
X259110000Y-119780000D02*
X256360000Y-119780000D01*
X255500000Y-89630000D02*
X257520000Y-87610000D01*
X255500000Y-90000000D02*
X255500000Y-89630000D01*
%TO.N,tst1*%
X228520000Y-55020000D02*
X228750000Y-55250000D01*
X228520000Y-53310000D02*
X228520000Y-55020000D01*
%TO.N,INH1*%
X247437500Y-92667500D02*
X247437500Y-94250000D01*
X246830000Y-92060000D02*
X247437500Y-92667500D01*
D94*
X246830000Y-92060000D02*
X246830000Y-92530000D01*
%TO.N,M1_S1*%
X239150000Y-61280000D02*
X239150000Y-60350000D01*
X239150000Y-60350000D02*
X238900000Y-60100000D01*
X239080000Y-61350000D02*
X239150000Y-61280000D01*
X248150000Y-89400000D02*
X248150000Y-89380000D01*
X248250000Y-89500000D02*
X248150000Y-89400000D01*
%TO.N,INH1*%
X235120000Y-53750000D02*
X235520000Y-54150000D01*
X232750000Y-53750000D02*
X235120000Y-53750000D01*
%TO.N,9v+*%
X223150000Y-59400000D02*
X223250000Y-59500000D01*
X223150000Y-59280000D02*
X223150000Y-59400000D01*
%TO.N,PGD*%
X218820000Y-49570000D02*
X219000000Y-49750000D01*
%TO.N,CS*%
X187180000Y-63070000D02*
X187280000Y-62970000D01*
X185105000Y-63070000D02*
X187180000Y-63070000D01*
X204017618Y-51722382D02*
X203720000Y-52020000D01*
X205850000Y-51722382D02*
X204017618Y-51722382D01*
%TO.N,Net-(R22-Pad2)*%
X204990000Y-49690000D02*
X203360000Y-49690000D01*
X205000000Y-49700000D02*
X204990000Y-49690000D01*
X207000000Y-49700000D02*
X205000000Y-49700000D01*
%TO.N,GND*%
X175642500Y-59815000D02*
X177380000Y-59815000D01*
X175077500Y-59250000D02*
X175642500Y-59815000D01*
X198300000Y-45540000D02*
X198300000Y-42700000D01*
X200030000Y-47270000D02*
X198300000Y-45540000D01*
X202380000Y-47270000D02*
X200030000Y-47270000D01*
D98*
X259411906Y-45335000D02*
X259811906Y-44935000D01*
X259811906Y-44935000D02*
X259811906Y-42535000D01*
X259911906Y-45835000D02*
X259411906Y-45335000D01*
X261911906Y-45835000D02*
X259911906Y-45835000D01*
X257811906Y-46935000D02*
X259411906Y-45335000D01*
X256711906Y-46935000D02*
X257811906Y-46935000D01*
X254570000Y-48130000D02*
X255516906Y-48130000D01*
X255516906Y-48130000D02*
X256711906Y-46935000D01*
X254570000Y-50020000D02*
X254250000Y-50340000D01*
X254570000Y-48130000D02*
X254570000Y-50020000D01*
X247620000Y-50340000D02*
X246380000Y-49100000D01*
X254250000Y-50340000D02*
X247620000Y-50340000D01*
D94*
%TO.N,9v+*%
X256540000Y-43490000D02*
X256540000Y-44763094D01*
X256540000Y-44763094D02*
X256711906Y-44935000D01*
%TO.N,GND*%
X246380000Y-56290000D02*
X246270000Y-56400000D01*
X246380000Y-49100000D02*
X246380000Y-56290000D01*
D98*
%TO.N,3.3v*%
X234980000Y-52480000D02*
X232750000Y-50250000D01*
X240250000Y-52480000D02*
X234980000Y-52480000D01*
X241270000Y-53500000D02*
X240250000Y-52480000D01*
X241270000Y-56400000D02*
X241270000Y-53500000D01*
D93*
%TO.N,5v+*%
X222210000Y-39890000D02*
X221200000Y-40900000D01*
X225200000Y-39890000D02*
X222210000Y-39890000D01*
X177650000Y-53850000D02*
X176620000Y-53850000D01*
X173820000Y-52290000D02*
X175180000Y-53650000D01*
X165470000Y-52290000D02*
X173820000Y-52290000D01*
X164690000Y-53070000D02*
X165470000Y-52290000D01*
X164690000Y-59190000D02*
X164690000Y-53070000D01*
X166250000Y-60750000D02*
X164690000Y-59190000D01*
D95*
%TO.N,HV*%
X199250000Y-65500000D02*
X199780000Y-65500000D01*
X199080000Y-65670000D02*
X199250000Y-65500000D01*
X198760000Y-65670000D02*
X199080000Y-65670000D01*
X198720000Y-65630000D02*
X198760000Y-65670000D01*
X199780000Y-65500000D02*
X199940000Y-65340000D01*
D93*
%TO.N,GND*%
X192610000Y-66320000D02*
X192610000Y-66470000D01*
X192610000Y-66470000D02*
X192580000Y-66500000D01*
%TO.N,s5v+*%
X194660000Y-64290000D02*
X194540000Y-64410000D01*
X194660000Y-62580000D02*
X194660000Y-64290000D01*
X192595000Y-64410000D02*
X192580000Y-64425000D01*
X194540000Y-64410000D02*
X192595000Y-64410000D01*
%TO.N,5v+*%
X175380000Y-53850000D02*
X175180000Y-53650000D01*
X176620000Y-53850000D02*
X175380000Y-53850000D01*
%TO.N,GND*%
X174125000Y-58297500D02*
X175077500Y-59250000D01*
X172890000Y-58297500D02*
X174125000Y-58297500D01*
X180240000Y-57260000D02*
X180080000Y-57100000D01*
X181927500Y-57260000D02*
X180240000Y-57260000D01*
%TO.N,Net-(Q1-B)*%
X181620000Y-59100000D02*
X180080000Y-59100000D01*
X181930000Y-59410000D02*
X181620000Y-59100000D01*
X179200000Y-58220000D02*
X180080000Y-59100000D01*
X177970000Y-58220000D02*
X179200000Y-58220000D01*
%TO.N,M2_D1*%
X175180000Y-56355000D02*
X175487500Y-56662500D01*
X175180000Y-55650000D02*
X175180000Y-56355000D01*
%TO.N,GND*%
X177970000Y-56320000D02*
X179300000Y-56320000D01*
X179300000Y-56320000D02*
X180080000Y-57100000D01*
X178180000Y-59825000D02*
X180155000Y-61800000D01*
X177390000Y-59825000D02*
X178180000Y-59825000D01*
X177380000Y-59815000D02*
X177390000Y-59825000D01*
%TO.N,PWM*%
X177380000Y-61890000D02*
X176300000Y-61890000D01*
%TO.N,Net-(U1-OUT)*%
X178660000Y-62930000D02*
X180015000Y-62930000D01*
X177730000Y-63860000D02*
X178660000Y-62930000D01*
X180015000Y-62930000D02*
X180155000Y-63070000D01*
X177070000Y-63860000D02*
X177730000Y-63860000D01*
X177015000Y-63170000D02*
X177015000Y-63805000D01*
X177015000Y-63805000D02*
X177070000Y-63860000D01*
%TO.N,Net-(D68-K)*%
X176805000Y-65630000D02*
X177215000Y-65630000D01*
X177215000Y-65630000D02*
X178505000Y-64340000D01*
X176265000Y-65090000D02*
X176805000Y-65630000D01*
X178505000Y-64340000D02*
X180155000Y-64340000D01*
D94*
%TO.N,Net-(D56-K)*%
X184235000Y-59105000D02*
X183930000Y-59410000D01*
X186680000Y-59105000D02*
X184235000Y-59105000D01*
X185227500Y-58112500D02*
X183930000Y-59410000D01*
X185227500Y-57260000D02*
X185227500Y-58112500D01*
%TO.N,Net-(D41-K)*%
X239057349Y-69057349D02*
X239340000Y-69057349D01*
X234500000Y-64500000D02*
X239057349Y-69057349D01*
D93*
%TO.N,GND*%
X191000000Y-65870000D02*
X191630000Y-66500000D01*
X191000000Y-65405000D02*
X191000000Y-65870000D01*
%TO.N,Net-(C2-Pad1)*%
X191000000Y-64500000D02*
X190557500Y-64057500D01*
X191000000Y-64590000D02*
X191000000Y-64500000D01*
X190557500Y-64057500D02*
X189590000Y-65025000D01*
%TO.N,PWM*%
X174530000Y-61797500D02*
X175077500Y-61250000D01*
X172890000Y-61797500D02*
X174530000Y-61797500D01*
%TO.N,GND*%
X192580000Y-66500000D02*
X191630000Y-66500000D01*
%TO.N,Net-(C2-Pad1)*%
X189590000Y-65025000D02*
X189390000Y-65025000D01*
X192035000Y-62580000D02*
X190557500Y-64057500D01*
X189390000Y-65025000D02*
X189240000Y-65175000D01*
X192660000Y-62580000D02*
X192035000Y-62580000D01*
%TO.N,GND*%
X182345000Y-61800000D02*
X182585000Y-62040000D01*
X183445000Y-64330000D02*
X185095000Y-64330000D01*
X180155000Y-61800000D02*
X182345000Y-61800000D01*
X182585000Y-63470000D02*
X183445000Y-64330000D01*
X185095000Y-64330000D02*
X185105000Y-64340000D01*
X182585000Y-62040000D02*
X182585000Y-63470000D01*
%TO.N,PWM*%
X174987500Y-61340000D02*
X175077500Y-61250000D01*
X175015000Y-63170000D02*
X175015000Y-60810000D01*
D98*
%TO.N,9v+*%
X204380000Y-45830000D02*
X204800000Y-45410000D01*
X204380000Y-47270000D02*
X204380000Y-45830000D01*
%TO.N,Net-(U12-IN)*%
X251172500Y-41672500D02*
X249600000Y-40100000D01*
X251172500Y-41700000D02*
X251172500Y-41672500D01*
%TO.N,GND*%
X245900000Y-40100000D02*
X245800000Y-40000000D01*
X247600000Y-40100000D02*
X245900000Y-40100000D01*
%TO.N,5v+*%
X242600000Y-40000000D02*
X240400000Y-40000000D01*
%TO.N,GND*%
X246100000Y-48820000D02*
X246380000Y-49100000D01*
X246100000Y-40000000D02*
X246100000Y-48820000D01*
%TO.N,5v+*%
X238200000Y-40000000D02*
X240400000Y-40000000D01*
D94*
%TO.N,Net-(U12-IN)*%
X248660000Y-42800000D02*
X248900000Y-42800000D01*
X248900000Y-42800000D02*
X250000000Y-41700000D01*
X250000000Y-41700000D02*
X251172500Y-41700000D01*
D98*
%TO.N,5v+*%
X238200000Y-40000000D02*
X238200000Y-42100000D01*
X232600000Y-40000000D02*
X238200000Y-40000000D01*
X232400000Y-39800000D02*
X232600000Y-40000000D01*
D94*
%TO.N,GND*%
X219950000Y-44650000D02*
X219950000Y-45400000D01*
X221200000Y-43400000D02*
X219950000Y-44650000D01*
%TO.N,Mcler*%
X196600000Y-45835000D02*
X196600000Y-45500000D01*
%TO.N,GND*%
X201100000Y-55250000D02*
X201100000Y-54000000D01*
X230000000Y-47050000D02*
X230150000Y-46900000D01*
X230000000Y-48400000D02*
X230000000Y-47050000D01*
X236350000Y-45200000D02*
X236350000Y-44050000D01*
X236350000Y-44050000D02*
X236200000Y-43900000D01*
X200000000Y-55250000D02*
X201100000Y-55250000D01*
X199750000Y-55500000D02*
X200000000Y-55250000D01*
%TO.N,Net-(C93-Pad1)*%
X204730000Y-42800000D02*
X204800000Y-42870000D01*
X200300000Y-42800000D02*
X204730000Y-42800000D01*
X218300000Y-42500000D02*
X217000000Y-43800000D01*
X218300000Y-42150000D02*
X218300000Y-42500000D01*
D96*
%TO.N,GND*%
X236200000Y-42100000D02*
X236200000Y-43900000D01*
D98*
%TO.N,Net-(U5-VI)*%
X232400000Y-41800000D02*
X234000000Y-41800000D01*
X231900000Y-42300000D02*
X232400000Y-41800000D01*
X230150000Y-42300000D02*
X231900000Y-42300000D01*
%TO.N,Net-(U5-VO)*%
X230150000Y-44600000D02*
X223850000Y-44600000D01*
D94*
%TO.N,GND*%
X215800000Y-47522382D02*
X216200000Y-47522382D01*
D98*
X213850000Y-47522382D02*
X216200000Y-47522382D01*
X216450000Y-47522382D02*
X216650000Y-47322382D01*
X216650000Y-47322382D02*
X216650000Y-45795634D01*
X216200000Y-47522382D02*
X216450000Y-47522382D01*
X218595634Y-45795634D02*
X221000000Y-48200000D01*
X216650000Y-45795634D02*
X218595634Y-45795634D01*
X221000000Y-48200000D02*
X219950000Y-47150000D01*
X221000000Y-49500000D02*
X221000000Y-48200000D01*
X219950000Y-45400000D02*
X219950000Y-47150000D01*
%TO.N,5v+*%
X222300000Y-39800000D02*
X221200000Y-40900000D01*
X232400000Y-39800000D02*
X222300000Y-39800000D01*
D96*
X232500000Y-39900000D02*
X232400000Y-39800000D01*
X238200000Y-39900000D02*
X232500000Y-39900000D01*
X238200000Y-42100000D02*
X238200000Y-39900000D01*
D98*
X238250000Y-42150000D02*
X238200000Y-42100000D01*
X238300000Y-42150000D02*
X238250000Y-42150000D01*
D94*
%TO.N,Net-(U5-VI)*%
X233900000Y-42400000D02*
X229500000Y-42400000D01*
X234200000Y-42100000D02*
X233900000Y-42400000D01*
X234200000Y-42000000D02*
X234200000Y-42100000D01*
X234000000Y-41800000D02*
X234200000Y-42000000D01*
%TO.N,GND*%
X219950000Y-47150000D02*
X218595634Y-45795634D01*
%TO.N,Current_limt2*%
X207000000Y-42000000D02*
X206600000Y-41600000D01*
X207000000Y-47700000D02*
X207000000Y-42000000D01*
%TO.N,Net-(R22-Pad2)*%
X207077618Y-49622382D02*
X207000000Y-49700000D01*
X209450000Y-49622382D02*
X207077618Y-49622382D01*
D93*
%TO.N,Net-(R51-Pad2)*%
X203272382Y-44600000D02*
X202300000Y-44600000D01*
X203732382Y-44140000D02*
X203272382Y-44600000D01*
X204800000Y-44140000D02*
X203732382Y-44140000D01*
D94*
%TO.N,Net-(C93-Pad1)*%
X204630000Y-42700000D02*
X204800000Y-42870000D01*
X200922382Y-42700000D02*
X204630000Y-42700000D01*
X200550000Y-43072382D02*
X200922382Y-42700000D01*
%TO.N,GND*%
X205900000Y-39900000D02*
X205400000Y-39400000D01*
X210100000Y-39900000D02*
X205900000Y-39900000D01*
X211272382Y-41072382D02*
X210100000Y-39900000D01*
X212300000Y-41072382D02*
X211272382Y-41072382D01*
X198750000Y-39550000D02*
X198750000Y-39400000D01*
X198500000Y-39800000D02*
X198705000Y-39595000D01*
X192100000Y-39800000D02*
X198500000Y-39800000D01*
X190500000Y-41400000D02*
X192100000Y-39800000D01*
D93*
X198500000Y-39800000D02*
X198500000Y-40797382D01*
D95*
%TO.N,PGC*%
X184200000Y-45300000D02*
X192100000Y-45300000D01*
X192100000Y-45300000D02*
X195500000Y-41900000D01*
X195500000Y-41900000D02*
X195500000Y-41400000D01*
%TO.N,GND*%
X187900000Y-44000000D02*
X190800000Y-41100000D01*
X184200000Y-44000000D02*
X187900000Y-44000000D01*
D94*
%TO.N,Net-(D3-A)*%
X211600000Y-51300000D02*
X211500000Y-51400000D01*
X213200000Y-51300000D02*
X211600000Y-51300000D01*
X213850000Y-50650000D02*
X213200000Y-51300000D01*
X213850000Y-49522382D02*
X213850000Y-50650000D01*
X211277618Y-51622382D02*
X211500000Y-51400000D01*
X209450000Y-51622382D02*
X211277618Y-51622382D01*
D93*
%TO.N,Current_limt2*%
X206600000Y-41600000D02*
X206800000Y-41800000D01*
X204800000Y-41600000D02*
X206600000Y-41600000D01*
%TO.N,Net-(R22-Pad2)*%
X209472382Y-49600000D02*
X209450000Y-49622382D01*
D94*
%TO.N,GND*%
X213850000Y-47522382D02*
X215800000Y-47522382D01*
D93*
%TO.N,Net-(C21-Pad2)*%
X211550000Y-46145634D02*
X212300000Y-45395634D01*
X211550000Y-47322382D02*
X211550000Y-46145634D01*
%TO.N,Mcler*%
X196600000Y-45500000D02*
X196600000Y-45022382D01*
%TO.N,GND*%
X198550000Y-43072382D02*
X198475000Y-42997382D01*
X198475000Y-42997382D02*
X198475000Y-40822382D01*
X198750000Y-39250000D02*
X198500000Y-39500000D01*
X205400000Y-39250000D02*
X198750000Y-39250000D01*
X198500000Y-39500000D02*
X198500000Y-39800000D01*
X210100000Y-39900000D02*
X206050000Y-39900000D01*
X198500000Y-40797382D02*
X198475000Y-40822382D01*
X206050000Y-39900000D02*
X205400000Y-39250000D01*
%TO.N,Net-(D3-A)*%
X207700000Y-51622382D02*
X207600000Y-51722382D01*
X209450000Y-51622382D02*
X207700000Y-51622382D01*
%TO.N,Net-(R22-Pad2)*%
X209150000Y-49322382D02*
X209450000Y-49622382D01*
X209550000Y-49522382D02*
X209450000Y-49622382D01*
X209550000Y-47322382D02*
X209550000Y-49522382D01*
X209550000Y-45610000D02*
X209750000Y-45410000D01*
X209550000Y-47322382D02*
X209550000Y-45610000D01*
%TO.N,Net-(C21-Pad2)*%
X214650000Y-44195634D02*
X214650000Y-45795634D01*
X214950000Y-43895634D02*
X214650000Y-44195634D01*
X211044366Y-44140000D02*
X212300000Y-45395634D01*
X209750000Y-44140000D02*
X211044366Y-44140000D01*
%TO.N,Net-(C21-Pad1)*%
X214776748Y-41795634D02*
X215176748Y-42195634D01*
X213576748Y-41795634D02*
X214776748Y-41795634D01*
X212300000Y-43072382D02*
X213576748Y-41795634D01*
%TO.N,Net-(C21-Pad2)*%
X215050000Y-45395634D02*
X212300000Y-45395634D01*
%TO.N,Net-(C21-Pad1)*%
X209952382Y-43072382D02*
X209750000Y-42870000D01*
X212300000Y-43072382D02*
X209952382Y-43072382D01*
D94*
%TO.N,Current_limt2*%
X201327618Y-41600000D02*
X200550000Y-40822382D01*
X204800000Y-41600000D02*
X201327618Y-41600000D01*
%TO.N,GND*%
X211772382Y-41600000D02*
X212300000Y-41072382D01*
X209750000Y-41600000D02*
X211772382Y-41600000D01*
%TO.N,Net-(U5-VO)*%
X234200000Y-45200000D02*
X234350000Y-45200000D01*
X232700000Y-43700000D02*
X234200000Y-45200000D01*
X232350000Y-43700000D02*
X232700000Y-43700000D01*
%TO.N,GND*%
X240836250Y-46236250D02*
X240836250Y-47536250D01*
X240300000Y-45700000D02*
X240836250Y-46236250D01*
X240836250Y-47536250D02*
X242072500Y-46300000D01*
%TO.N,Net-(D44-K)*%
X238400000Y-43700000D02*
X238300000Y-43800000D01*
X240300000Y-43700000D02*
X238400000Y-43700000D01*
X238300000Y-43800000D02*
X238300000Y-45650000D01*
D98*
%TO.N,GND*%
X246800000Y-48100000D02*
X246600000Y-47900000D01*
X256711906Y-46935000D02*
X255965000Y-46935000D01*
%TO.N,9v+*%
X253650000Y-46350000D02*
X251900000Y-46350000D01*
X255165000Y-44935000D02*
X253700000Y-46400000D01*
X253700000Y-46400000D02*
X253650000Y-46350000D01*
X256711906Y-44935000D02*
X255165000Y-44935000D01*
D94*
%TO.N,GND*%
X264111906Y-46435000D02*
X264111906Y-44535000D01*
%TO.N,Net-(D67-K)*%
X266411906Y-45161906D02*
X266100000Y-44850000D01*
X266411906Y-46635000D02*
X266411906Y-45161906D01*
%TO.N,Net-(ZD8-A)*%
X265311906Y-51235000D02*
X266411906Y-50135000D01*
%TO.N,Net-(U14-IN)*%
X264111906Y-48435000D02*
X261971906Y-48435000D01*
X261971906Y-48435000D02*
X261911906Y-48375000D01*
%TO.N,9v+*%
X256711906Y-42935000D02*
X256711906Y-44935000D01*
%TO.N,Net-(D25-A)*%
X264111906Y-42535000D02*
X264111906Y-39835000D01*
%TO.N,Net-(U14-IN)*%
X262511906Y-51235000D02*
X262511906Y-48975000D01*
X262511906Y-48975000D02*
X261911906Y-48375000D01*
%TO.N,Net-(D25-K)*%
X260611906Y-39635000D02*
X260711906Y-39735000D01*
%TO.N,9v+*%
X256311906Y-39935000D02*
X256311906Y-42535000D01*
%TO.N,Net-(D25-K)*%
X258611906Y-39635000D02*
X260611906Y-39635000D01*
%TO.N,Net-(D25-A)*%
X262671906Y-42535000D02*
X261911906Y-43295000D01*
%TO.N,GND*%
X262085000Y-46435000D02*
X261500000Y-45850000D01*
X264111906Y-46435000D02*
X262085000Y-46435000D01*
%TO.N,Net-(D25-A)*%
X264111906Y-39835000D02*
X264211906Y-39735000D01*
%TO.N,Net-(U14-IN)*%
X261451906Y-48835000D02*
X261911906Y-48375000D01*
%TO.N,GND*%
X261500000Y-45850000D02*
X259926906Y-45850000D01*
%TO.N,Net-(D25-A)*%
X264111906Y-42535000D02*
X262671906Y-42535000D01*
%TO.N,GND*%
X259926906Y-45850000D02*
X259411906Y-45335000D01*
%TO.N,9v+*%
X256311906Y-42535000D02*
X256711906Y-42935000D01*
%TO.N,Net-(D67-K)*%
X268511906Y-47335000D02*
X267811906Y-46635000D01*
X267811906Y-46635000D02*
X266411906Y-46635000D01*
%TO.N,GND*%
X236350000Y-42650000D02*
X236350000Y-45200000D01*
X240372500Y-48000000D02*
X240836250Y-47536250D01*
X238500000Y-48000000D02*
X240372500Y-48000000D01*
%TO.N,Net-(D2-K)*%
X253172500Y-41700000D02*
X253172500Y-43327500D01*
X253172500Y-43327500D02*
X251900000Y-44600000D01*
%TO.N,Net-(U12-OUT)*%
X242372500Y-41600000D02*
X241972500Y-42000000D01*
X244320000Y-41600000D02*
X242372500Y-41600000D01*
X241972500Y-44200000D02*
X242072500Y-44300000D01*
X241972500Y-42000000D02*
X241972500Y-44200000D01*
%TO.N,GND*%
X242072500Y-46300000D02*
X245000000Y-46300000D01*
X245000000Y-46300000D02*
X246600000Y-47900000D01*
%TO.N,9v+*%
X256611906Y-39635000D02*
X256311906Y-39935000D01*
%TO.N,Net-(ZD8-A)*%
X268511906Y-49335000D02*
X267211906Y-49335000D01*
X267211906Y-49335000D02*
X266411906Y-50135000D01*
%TO.N,SCL*%
X171750000Y-100500000D02*
X171250000Y-100000000D01*
X171750000Y-103750000D02*
X171750000Y-100500000D01*
X169000000Y-100000000D02*
X171250000Y-100000000D01*
X168250000Y-100750000D02*
X169000000Y-100000000D01*
X166500000Y-99000000D02*
X168250000Y-100750000D01*
X166500000Y-92400000D02*
X166500000Y-99000000D01*
X169300000Y-89600000D02*
X166500000Y-92400000D01*
X175300000Y-89600000D02*
X169300000Y-89600000D01*
X175400000Y-89500000D02*
X175300000Y-89600000D01*
D93*
X166500000Y-92400000D02*
X167400000Y-91500000D01*
D94*
%TO.N,3.3v*%
X175300000Y-98300000D02*
X175750000Y-98750000D01*
X175300000Y-91600000D02*
X175300000Y-98300000D01*
D93*
%TO.N,SCL*%
X176800000Y-50200000D02*
X175900000Y-50200000D01*
X176800000Y-50600000D02*
X176800000Y-50200000D01*
X175600000Y-51800000D02*
X176800000Y-50600000D01*
D94*
%TO.N,M1_L*%
X253800100Y-78889900D02*
X255917300Y-78889900D01*
X253300000Y-79390000D02*
X253800100Y-78889900D01*
X255917300Y-78889900D02*
X256250000Y-79222600D01*
D93*
%TO.N,M1_R*%
X251986667Y-83513333D02*
X251500000Y-84000000D01*
X251986667Y-81990733D02*
X251986667Y-83513333D01*
X253012500Y-80964900D02*
X251986667Y-81990733D01*
D94*
X253254800Y-80722600D02*
X253012500Y-80964900D01*
X256250000Y-80722600D02*
X253254800Y-80722600D01*
D93*
%TO.N,M1_L*%
X253300000Y-77300000D02*
X251750000Y-75750000D01*
X253300000Y-79492500D02*
X253300000Y-77300000D01*
X246000000Y-76000000D02*
X246250000Y-75750000D01*
X246000000Y-76962500D02*
X246000000Y-76000000D01*
X244000000Y-78962500D02*
X246000000Y-76962500D01*
%TO.N,M1_R*%
X246000000Y-83500000D02*
X245500000Y-84000000D01*
X246000000Y-83037500D02*
X246000000Y-83500000D01*
X244000000Y-81037500D02*
X246000000Y-83037500D01*
D94*
%TO.N,Net-(D33-A1)*%
X239875000Y-79875000D02*
X240500000Y-79250000D01*
X240500000Y-80500000D02*
X239875000Y-79875000D01*
D98*
%TO.N,M2_L*%
X173952500Y-77325000D02*
X175500000Y-77325000D01*
X173877500Y-77250000D02*
X173952500Y-77325000D01*
D95*
%TO.N,Net-(IC1-RB5)*%
X187000000Y-49200000D02*
X187800000Y-48400000D01*
X184200000Y-49200000D02*
X187000000Y-49200000D01*
%TO.N,Motor2_OFF*%
X184850002Y-50500000D02*
X184200000Y-49849998D01*
X187700000Y-50500000D02*
X184850002Y-50500000D01*
%TO.N,M1_current_sen*%
X187362499Y-45949999D02*
X188112500Y-46700000D01*
X184200000Y-45949999D02*
X187362499Y-45949999D01*
%TO.N,PGD*%
X190250001Y-44649999D02*
X193300000Y-41600000D01*
X184200000Y-44649999D02*
X190250001Y-44649999D01*
%TO.N,3.3v*%
X177872550Y-43024998D02*
X176897550Y-43999998D01*
X176897550Y-43999998D02*
X176745100Y-43999998D01*
X179372550Y-41524998D02*
X177872550Y-43024998D01*
D96*
%TO.N,Net-(R109-Pad1)*%
X181285000Y-54100000D02*
X179900000Y-54100000D01*
D94*
%TO.N,tst1*%
X227505000Y-90805000D02*
X227000000Y-90300000D01*
X227505000Y-94375000D02*
X227505000Y-90805000D01*
D93*
X231100000Y-90900000D02*
X231000000Y-90800000D01*
X233900000Y-90900000D02*
X231100000Y-90900000D01*
X235300000Y-89500000D02*
X233900000Y-90900000D01*
X239270000Y-89500000D02*
X235300000Y-89500000D01*
D95*
%TO.N,3.3v*%
X230800000Y-117100000D02*
X230600000Y-117100000D01*
X230600000Y-117100000D02*
X226000000Y-112500000D01*
%TO.N,GND*%
X243650000Y-94900000D02*
X244100000Y-94450000D01*
X243200000Y-94900000D02*
X243650000Y-94900000D01*
D94*
X244100000Y-94450000D02*
X244812500Y-94450000D01*
%TO.N,INH2*%
X193397500Y-89897500D02*
X193000000Y-89500000D01*
X193397500Y-92520000D02*
X193397500Y-89897500D01*
X194750000Y-89500000D02*
X193000000Y-89500000D01*
D99*
%TO.N,M2_R*%
X197875000Y-83125000D02*
X195500000Y-80750000D01*
D97*
X172472499Y-81527501D02*
X174069998Y-83125000D01*
X174069998Y-83125000D02*
X197875000Y-83125000D01*
X195000000Y-84715000D02*
X169965000Y-84715000D01*
X166250000Y-81000000D02*
X173000000Y-81000000D01*
D98*
X194750000Y-81500000D02*
X195500000Y-80750000D01*
X190500000Y-81500000D02*
X194750000Y-81500000D01*
D99*
X199465000Y-84715000D02*
X197875000Y-83125000D01*
D93*
X195500000Y-80750000D02*
X195500000Y-84215000D01*
D99*
X203775000Y-84715000D02*
X199465000Y-84715000D01*
X189952514Y-81000000D02*
X190476257Y-81523743D01*
X186500000Y-81000000D02*
X189952514Y-81000000D01*
X173000000Y-81000000D02*
X186500000Y-81000000D01*
D98*
X186500000Y-81000000D02*
X186500000Y-82000000D01*
D99*
X172472499Y-81527501D02*
X175659998Y-84715000D01*
X172472499Y-81527501D02*
X173000000Y-81000000D01*
D98*
X177500000Y-79500000D02*
X178000000Y-80000000D01*
X173750000Y-79500000D02*
X177500000Y-79500000D01*
X178000000Y-80000000D02*
X178000000Y-82000000D01*
X172945000Y-79500000D02*
X173750000Y-79500000D01*
X171694999Y-80750001D02*
X172945000Y-79500000D01*
%TO.N,M2_L*%
X173877500Y-77250000D02*
X173750000Y-77377500D01*
X186100000Y-77250000D02*
X186500000Y-77650000D01*
D99*
%TO.N,GND*%
X165250000Y-115250000D02*
X165250000Y-108500000D01*
X190243600Y-115250000D02*
X190243600Y-108500000D01*
D95*
%TO.N,SCL*%
X224000000Y-119420000D02*
X227500000Y-122920000D01*
X224000000Y-112750000D02*
X224000000Y-119420000D01*
X197250000Y-118500000D02*
X197250000Y-114500000D01*
X199000000Y-112750000D02*
X224000000Y-112750000D01*
X195250000Y-120500000D02*
X197250000Y-118500000D01*
X186500000Y-112250000D02*
X186500000Y-119750000D01*
X185750000Y-111500000D02*
X186500000Y-112250000D01*
X187250000Y-120500000D02*
X195250000Y-120500000D01*
X176375200Y-113124800D02*
X178000000Y-111500000D01*
X178000000Y-111500000D02*
X185750000Y-111500000D01*
X176375200Y-113827600D02*
X176375200Y-113124800D01*
X197250000Y-114500000D02*
X199000000Y-112750000D01*
X186500000Y-119750000D02*
X187250000Y-120500000D01*
D94*
%TO.N,SDA*%
X227290000Y-130750000D02*
X227500000Y-130540000D01*
X205000000Y-115250000D02*
X205000000Y-123500000D01*
X205000000Y-123500000D02*
X212250000Y-130750000D01*
X212250000Y-130750000D02*
X227290000Y-130750000D01*
X204750000Y-115000000D02*
X205000000Y-115250000D01*
X198250000Y-123000000D02*
X199750000Y-121500000D01*
X178250000Y-123000000D02*
X198250000Y-123000000D01*
X199750000Y-121500000D02*
X199750000Y-115000000D01*
X199750000Y-115000000D02*
X204750000Y-115000000D01*
X175750000Y-125500000D02*
X178250000Y-123000000D01*
X172500000Y-125500000D02*
X175750000Y-125500000D01*
D98*
%TO.N,HV*%
X180490000Y-117912651D02*
X175152651Y-123250000D01*
X180490000Y-116672400D02*
X180490000Y-117912651D01*
%TO.N,GND*%
X172260400Y-118739600D02*
X172260400Y-116672400D01*
X170152651Y-120847349D02*
X172260400Y-118739600D01*
X170152651Y-123250000D02*
X170152651Y-120847349D01*
D96*
X240775000Y-138025000D02*
X247475000Y-138025000D01*
X240000000Y-137250000D02*
X240775000Y-138025000D01*
%TO.N,5v+*%
X244000000Y-136000000D02*
X242250000Y-136000000D01*
X245000000Y-135000000D02*
X244000000Y-136000000D01*
X245250000Y-135000000D02*
X245000000Y-135000000D01*
D93*
X245250000Y-135250000D02*
X245250000Y-132652651D01*
D94*
X254250000Y-135000000D02*
X245250000Y-135000000D01*
X256500000Y-137250000D02*
X254250000Y-135000000D01*
X245250000Y-135000000D02*
X245250000Y-132652651D01*
D93*
%TO.N,GND*%
X191250000Y-127500000D02*
X196750000Y-127500000D01*
X189000000Y-129750000D02*
X191250000Y-127500000D01*
D96*
%TO.N,SW4*%
X201350000Y-127250000D02*
X202100000Y-128000000D01*
X199250000Y-127250000D02*
X201350000Y-127250000D01*
X197250000Y-125250000D02*
X199250000Y-127250000D01*
D94*
%TO.N,Net-(R85-Pad1)*%
X172250000Y-132135000D02*
X174500000Y-134385000D01*
X173250000Y-126750000D02*
X172250000Y-127750000D01*
X177500000Y-125500000D02*
X176250000Y-126750000D01*
X195000000Y-125500000D02*
X177500000Y-125500000D01*
X176250000Y-126750000D02*
X173250000Y-126750000D01*
X172250000Y-127750000D02*
X172250000Y-132135000D01*
X195250000Y-125250000D02*
X195000000Y-125500000D01*
D93*
%TO.N,3.3v*%
X193000000Y-134000000D02*
X192750000Y-133750000D01*
X195000000Y-134000000D02*
X193000000Y-134000000D01*
%TO.N,SW1*%
X197000000Y-134000000D02*
X199750000Y-134000000D01*
D96*
X200420000Y-133080000D02*
X202100000Y-133080000D01*
X196000000Y-136250000D02*
X197250000Y-136250000D01*
X197250000Y-136250000D02*
X200420000Y-133080000D01*
D95*
%TO.N,buzz*%
X230220000Y-145780000D02*
X227500000Y-145780000D01*
X231750000Y-144250000D02*
X230220000Y-145780000D01*
X240000000Y-144250000D02*
X231750000Y-144250000D01*
D93*
%TO.N,Net-(U11-VCC)*%
X238250000Y-140750000D02*
X240000000Y-140750000D01*
X238000000Y-141000000D02*
X238250000Y-140750000D01*
X237750000Y-140750000D02*
X238000000Y-141000000D01*
X234750000Y-141490000D02*
X235490000Y-140750000D01*
X235490000Y-140750000D02*
X237750000Y-140750000D01*
D96*
%TO.N,GND*%
X174865000Y-140750000D02*
X174500000Y-141115000D01*
X176250000Y-140750000D02*
X174865000Y-140750000D01*
X176250000Y-133250000D02*
X176250000Y-140750000D01*
X174750000Y-131750000D02*
X176250000Y-133250000D01*
%TO.N,SDA*%
X169500000Y-154000000D02*
X171094800Y-155594800D01*
X169500000Y-147750000D02*
X169500000Y-154000000D01*
X171094800Y-155594800D02*
X174378400Y-155594800D01*
X170250000Y-137250000D02*
X171250000Y-138250000D01*
X172500000Y-125500000D02*
X170250000Y-127750000D01*
X170250000Y-127750000D02*
X170250000Y-137250000D01*
D94*
%TO.N,SCL*%
X222750000Y-135500000D02*
X222250000Y-135000000D01*
X222750000Y-155000000D02*
X222750000Y-135500000D01*
X188250000Y-158750000D02*
X188500000Y-159000000D01*
X180000000Y-157500000D02*
X181250000Y-158750000D01*
X179250000Y-157500000D02*
X180000000Y-157500000D01*
X181250000Y-158750000D02*
X188250000Y-158750000D01*
X188500000Y-159000000D02*
X218750000Y-159000000D01*
X177344800Y-155594800D02*
X179250000Y-157500000D01*
X218750000Y-159000000D02*
X222750000Y-155000000D01*
X177121600Y-155594800D02*
X177344800Y-155594800D01*
%TO.N,Mcler*%
X206250000Y-146250000D02*
X202570000Y-146250000D01*
X202570000Y-146250000D02*
X202100000Y-145780000D01*
X214000000Y-154000000D02*
X206250000Y-146250000D01*
X214000000Y-157750000D02*
X214000000Y-154000000D01*
X181770000Y-157500000D02*
X188750000Y-157500000D01*
X188750000Y-157500000D02*
X189000000Y-157750000D01*
X179864800Y-155594800D02*
X181770000Y-157500000D01*
X189000000Y-157750000D02*
X214000000Y-157750000D01*
D93*
%TO.N,SCL2*%
X231750000Y-139250000D02*
X231750000Y-136870000D01*
X231750000Y-136870000D02*
X234750000Y-133870000D01*
X227500000Y-143240000D02*
X227760000Y-143240000D01*
X227760000Y-143240000D02*
X231750000Y-139250000D01*
%TO.N,SDA2*%
X230250000Y-135830000D02*
X234750000Y-131330000D01*
X230250000Y-138000000D02*
X230250000Y-135830000D01*
X227550000Y-140700000D02*
X230250000Y-138000000D01*
X227500000Y-140700000D02*
X227550000Y-140700000D01*
%TO.N,FSYC*%
X227920000Y-135620000D02*
X227500000Y-135620000D01*
X234750000Y-128790000D02*
X227920000Y-135620000D01*
%TO.N,int_a*%
X230500000Y-130080000D02*
X227500000Y-133080000D01*
X230500000Y-128500000D02*
X230500000Y-130080000D01*
X232750000Y-126250000D02*
X230500000Y-128500000D01*
X234750000Y-126250000D02*
X232750000Y-126250000D01*
%TO.N,GND*%
X240000000Y-137250000D02*
X240000000Y-136000000D01*
X238325000Y-138925000D02*
X240000000Y-137250000D01*
X238000000Y-138925000D02*
X238325000Y-138925000D01*
%TO.N,5v+*%
X243877500Y-140750000D02*
X243975000Y-140652500D01*
X242000000Y-140750000D02*
X243877500Y-140750000D01*
%TO.N,GND*%
X174365000Y-141250000D02*
X174500000Y-141115000D01*
X167455300Y-141250000D02*
X174365000Y-141250000D01*
X165996400Y-142708900D02*
X167455300Y-141250000D01*
X165996400Y-154172400D02*
X165996400Y-142708900D01*
X238750000Y-136250000D02*
X234910000Y-136250000D01*
X234910000Y-136250000D02*
X234750000Y-136410000D01*
X240250000Y-137750000D02*
X238750000Y-136250000D01*
%TO.N,Net-(D13-A)*%
X242000000Y-134250000D02*
X240250000Y-134250000D01*
X242250000Y-134000000D02*
X242000000Y-134250000D01*
D94*
%TO.N,GND*%
X234750000Y-152750000D02*
X236750000Y-150750000D01*
X232500000Y-152750000D02*
X234750000Y-152750000D01*
X239347500Y-148652500D02*
X237250000Y-150750000D01*
X237250000Y-150750000D02*
X236750000Y-150750000D01*
X241975000Y-148652500D02*
X239347500Y-148652500D01*
%TO.N,HV*%
X242750000Y-146500000D02*
X237500000Y-146500000D01*
X237500000Y-146500000D02*
X236750000Y-145750000D01*
D96*
%TO.N,GND*%
X209000000Y-110500000D02*
X214600000Y-110500000D01*
X214600000Y-110500000D02*
X219000000Y-106100000D01*
X207500000Y-109000000D02*
X209000000Y-110500000D01*
X207500000Y-106000000D02*
X207500000Y-109000000D01*
D95*
%TO.N,SDA*%
X173632000Y-113827600D02*
X172422400Y-113827600D01*
%TO.N,3.3v*%
X181437500Y-133812500D02*
X181250000Y-134000000D01*
D96*
%TO.N,GND*%
X175250000Y-132000000D02*
X183270000Y-132000000D01*
X175000000Y-131750000D02*
X175250000Y-132000000D01*
X183270000Y-132000000D02*
X183520000Y-131750000D01*
D95*
%TO.N,HV*%
X179000000Y-135000000D02*
X179000000Y-149250000D01*
X178500000Y-133750000D02*
X178500000Y-134500000D01*
X178500000Y-134500000D02*
X179000000Y-135000000D01*
X179000000Y-150513600D02*
X179000000Y-149250000D01*
X181236400Y-152750000D02*
X179000000Y-150513600D01*
D94*
X261000000Y-124750000D02*
X261000000Y-110500000D01*
X258000000Y-127750000D02*
X261000000Y-124750000D01*
X261000000Y-110500000D02*
X259750000Y-109250000D01*
X258000000Y-128500000D02*
X258000000Y-127750000D01*
D95*
%TO.N,Net-(R89-Pad2)*%
X237750000Y-108750000D02*
X235750000Y-110750000D01*
X238000000Y-105500000D02*
X237750000Y-105750000D01*
X237750000Y-105750000D02*
X237750000Y-108750000D01*
X242500000Y-105500000D02*
X238000000Y-105500000D01*
%TO.N,5v+*%
X239600000Y-106750000D02*
X239750000Y-106750000D01*
D94*
X202790000Y-155250000D02*
X202100000Y-155940000D01*
X212000000Y-155250000D02*
X202790000Y-155250000D01*
%TO.N,GND*%
X254500000Y-157420000D02*
X254330000Y-157250000D01*
X238750000Y-159000000D02*
X254500000Y-159000000D01*
X232500000Y-152750000D02*
X238750000Y-159000000D01*
X232000000Y-152750000D02*
X232500000Y-152750000D01*
X254500000Y-159000000D02*
X254500000Y-157420000D01*
%TO.N,5v+*%
X242250000Y-153750000D02*
X241750000Y-153250000D01*
X249750000Y-153750000D02*
X242250000Y-153750000D01*
X250000000Y-153500000D02*
X249750000Y-153750000D01*
X250000000Y-151750000D02*
X250000000Y-153500000D01*
%TO.N,detect*%
X238500000Y-155500000D02*
X236500000Y-153500000D01*
X251250000Y-155500000D02*
X238500000Y-155500000D01*
X251790000Y-156040000D02*
X251250000Y-155500000D01*
X251790000Y-157250000D02*
X251790000Y-156040000D01*
%TO.N,HV*%
X258000000Y-128500000D02*
X255750000Y-128500000D01*
X261500000Y-132000000D02*
X258000000Y-128500000D01*
X261750000Y-132250000D02*
X261500000Y-132000000D01*
X261750000Y-137500000D02*
X261750000Y-132250000D01*
X260250000Y-139000000D02*
X261750000Y-137500000D01*
X260250000Y-144750000D02*
X260250000Y-139000000D01*
D93*
%TO.N,GND*%
X268200000Y-146200000D02*
X268200000Y-153150000D01*
X266750000Y-144750000D02*
X268200000Y-146200000D01*
D94*
%TO.N,HV*%
X260500000Y-145000000D02*
X260250000Y-144750000D01*
X260500000Y-148750000D02*
X260500000Y-145000000D01*
X259000000Y-150250000D02*
X260500000Y-148750000D01*
X259000000Y-151500000D02*
X259000000Y-150250000D01*
%TO.N,GND*%
X254475000Y-146325000D02*
X254475000Y-151000000D01*
X254825000Y-145975000D02*
X254475000Y-146325000D01*
X186500000Y-127250000D02*
X189000000Y-129750000D01*
X183037500Y-127250000D02*
X186500000Y-127250000D01*
%TO.N,5v+*%
X186750000Y-130000000D02*
X186750000Y-148750000D01*
X186750000Y-148750000D02*
X186500000Y-149000000D01*
D95*
%TO.N,3.3v*%
X179750000Y-128000000D02*
X179500000Y-128000000D01*
X179500000Y-128000000D02*
X179250000Y-128250000D01*
%TO.N,Mcler*%
X186500000Y-121500000D02*
X197500000Y-121500000D01*
X185700000Y-120700000D02*
X186000000Y-121000000D01*
X185700000Y-112750000D02*
X185700000Y-120700000D01*
X181250000Y-112300000D02*
X185250000Y-112300000D01*
X180500000Y-112300000D02*
X181250000Y-112300000D01*
X179118400Y-113681600D02*
X180500000Y-112300000D01*
X179118400Y-113827600D02*
X179118400Y-113681600D01*
X186000000Y-121000000D02*
X186500000Y-121500000D01*
X185250000Y-112300000D02*
X185700000Y-112750000D01*
D94*
%TO.N,5v+*%
X259250000Y-137250000D02*
X259750000Y-136750000D01*
X256500000Y-137250000D02*
X259250000Y-137250000D01*
%TO.N,HV*%
X245500000Y-148250000D02*
X245500000Y-148627500D01*
X245500000Y-148627500D02*
X245475000Y-148652500D01*
%TO.N,GND*%
X254500000Y-157750000D02*
X256925000Y-155325000D01*
X256925000Y-155325000D02*
X256925000Y-151500000D01*
%TO.N,HV*%
X260650000Y-153150000D02*
X259000000Y-151500000D01*
X261900000Y-153150000D02*
X260650000Y-153150000D01*
%TO.N,Net-(U13-OUT)*%
X250020000Y-149750000D02*
X251225000Y-149750000D01*
X248525000Y-148255000D02*
X250020000Y-149750000D01*
X251225000Y-149750000D02*
X252475000Y-151000000D01*
X245775000Y-151005000D02*
X248525000Y-148255000D01*
X245775000Y-152152500D02*
X245775000Y-151005000D01*
%TO.N,GND*%
X254975000Y-151500000D02*
X254475000Y-151000000D01*
X256925000Y-151500000D02*
X254975000Y-151500000D01*
X256500000Y-144300000D02*
X254825000Y-145975000D01*
X256500000Y-140750000D02*
X256500000Y-144300000D01*
X251822500Y-140750000D02*
X251725000Y-140652500D01*
X256500000Y-140750000D02*
X251822500Y-140750000D01*
X251000000Y-137750000D02*
X251750000Y-138500000D01*
X247750000Y-137750000D02*
X251000000Y-137750000D01*
X247475000Y-138025000D02*
X247750000Y-137750000D01*
X251750000Y-138500000D02*
X251725000Y-138525000D01*
X247475000Y-140652500D02*
X247475000Y-138025000D01*
X251725000Y-138525000D02*
X251725000Y-140652500D01*
%TO.N,Net-(U13-IN)*%
X249725000Y-142495000D02*
X248525000Y-143695000D01*
X249725000Y-140652500D02*
X249725000Y-142495000D01*
X245682500Y-143695000D02*
X244975000Y-144402500D01*
X248525000Y-143695000D02*
X245682500Y-143695000D01*
X243572500Y-143000000D02*
X244975000Y-144402500D01*
X242750000Y-143000000D02*
X243572500Y-143000000D01*
%TO.N,HV*%
X245475000Y-146902500D02*
X244975000Y-146402500D01*
X245475000Y-148652500D02*
X245475000Y-146902500D01*
X244877500Y-146500000D02*
X244975000Y-146402500D01*
X242750000Y-146500000D02*
X244877500Y-146500000D01*
%TO.N,GND*%
X232447349Y-153400000D02*
X227500000Y-153400000D01*
X183385000Y-131885000D02*
X183520000Y-131750000D01*
X183385000Y-138500000D02*
X183385000Y-131885000D01*
%TO.N,SW2*%
X201470000Y-136250000D02*
X202100000Y-135620000D01*
X197000000Y-141500000D02*
X199500000Y-139000000D01*
X199500000Y-136250000D02*
X201470000Y-136250000D01*
X195750000Y-141500000D02*
X197000000Y-141500000D01*
X199500000Y-139000000D02*
X199500000Y-136250000D01*
D96*
%TO.N,SW3*%
X201310000Y-129750000D02*
X202100000Y-130540000D01*
X196500000Y-129750000D02*
X201310000Y-129750000D01*
%TO.N,Net-(D14-A)*%
X175000000Y-128250000D02*
X177250000Y-128250000D01*
%TO.N,3.3v*%
X179962500Y-128250000D02*
X180962500Y-127250000D01*
X179250000Y-128250000D02*
X179962500Y-128250000D01*
%TO.N,GND*%
X183233200Y-100983200D02*
X182500000Y-100250000D01*
X183233200Y-107077600D02*
X183233200Y-100983200D01*
%TO.N,HV*%
X180490000Y-107077600D02*
X180490000Y-100587349D01*
X180490000Y-100587349D02*
X178652651Y-98750000D01*
D95*
%TO.N,SCL*%
X168250000Y-106250000D02*
X168250000Y-100750000D01*
X169250000Y-107250000D02*
X168250000Y-106250000D01*
X169250000Y-111750000D02*
X169250000Y-107250000D01*
X174547600Y-111750000D02*
X169250000Y-111750000D01*
X176375200Y-109922400D02*
X174547600Y-111750000D01*
X176375200Y-109922400D02*
X176406718Y-109890882D01*
%TO.N,SDA*%
X170000000Y-105250000D02*
X170000000Y-102500000D01*
X172750000Y-105250000D02*
X170000000Y-105250000D01*
X173632000Y-109922400D02*
X173632000Y-106132000D01*
X173632000Y-106132000D02*
X172750000Y-105250000D01*
X173632000Y-109922400D02*
X173672400Y-109922400D01*
%TO.N,3.3v*%
X173750000Y-104250000D02*
X175003600Y-104250000D01*
D93*
X175003600Y-104250000D02*
X175003600Y-99496400D01*
X175003600Y-99496400D02*
X175750000Y-98750000D01*
X175003600Y-107077600D02*
X175003600Y-104250000D01*
%TO.N,GND*%
X183979600Y-145709600D02*
X183520000Y-145250000D01*
X183979600Y-152750000D02*
X183979600Y-145709600D01*
%TO.N,5v+*%
X195592500Y-155657500D02*
X195500000Y-155750000D01*
X197750000Y-155657500D02*
X195592500Y-155657500D01*
%TO.N,GND*%
X197750000Y-153650000D02*
X197500000Y-153400000D01*
X197750000Y-154842500D02*
X197750000Y-153650000D01*
X197500000Y-153400000D02*
X191762400Y-153400000D01*
%TO.N,5v+*%
X198032500Y-155940000D02*
X202100000Y-155940000D01*
X197750000Y-155657500D02*
X198032500Y-155940000D01*
%TO.N,GND*%
X191762400Y-153400000D02*
X190990000Y-154172400D01*
X202100000Y-153400000D02*
X197500000Y-153400000D01*
X190990000Y-154172400D02*
X191735100Y-154172400D01*
%TO.N,Net-(R86-Pad1)*%
X194000000Y-145250000D02*
X195750000Y-143500000D01*
X190250000Y-145250000D02*
X194000000Y-145250000D01*
%TO.N,Net-(R84-Pad1)*%
X190365000Y-138250000D02*
X190115000Y-138500000D01*
X196000000Y-138250000D02*
X190365000Y-138250000D01*
%TO.N,Net-(R87-Pad1)*%
X190250000Y-131750000D02*
X196500000Y-131750000D01*
%TO.N,GND*%
X183520000Y-127732500D02*
X183037500Y-127250000D01*
X183520000Y-131750000D02*
X183520000Y-127732500D01*
X183385000Y-145115000D02*
X183385000Y-138500000D01*
X183520000Y-145250000D02*
X183385000Y-145115000D01*
D96*
X225750000Y-57750000D02*
X225250000Y-58250000D01*
X225750000Y-56500000D02*
X225750000Y-57750000D01*
X224750000Y-55500000D02*
X225750000Y-56500000D01*
D94*
X225250000Y-53500000D02*
X223750000Y-52000000D01*
X223750000Y-52000000D02*
X223750000Y-49500000D01*
X225250000Y-55000000D02*
X225250000Y-53500000D01*
X224750000Y-55500000D02*
X225250000Y-55000000D01*
D93*
X204000000Y-55250000D02*
X203500000Y-55250000D01*
X204500000Y-54750000D02*
X204000000Y-55250000D01*
D96*
%TO.N,M2_S1*%
X206250000Y-56500000D02*
X206500000Y-56250000D01*
%TO.N,HV*%
X234960000Y-92000000D02*
X232585000Y-94375000D01*
X236000000Y-92000000D02*
X234960000Y-92000000D01*
X259750000Y-109250000D02*
X261800000Y-107200000D01*
X261800000Y-107200000D02*
X266000000Y-107200000D01*
%TO.N,Net-(D4-K)*%
X256250000Y-109250000D02*
X254250000Y-109250000D01*
D94*
%TO.N,Net-(C39-Pad1)*%
X226500000Y-107750000D02*
X228500000Y-107750000D01*
X228500000Y-107750000D02*
X228750000Y-108000000D01*
%TO.N,Net-(D41-A)*%
X224500000Y-109000000D02*
X224500000Y-108500000D01*
%TO.N,Net-(C39-Pad1)*%
X232250000Y-104750000D02*
X229000000Y-108000000D01*
X229000000Y-108000000D02*
X228750000Y-108000000D01*
%TO.N,Net-(D41-A)*%
X222500000Y-100500000D02*
X222000000Y-100000000D01*
X222500000Y-103000000D02*
X222500000Y-100500000D01*
%TO.N,GND*%
X266000000Y-87670000D02*
X266000000Y-88750000D01*
X266000000Y-88750000D02*
X268500000Y-91250000D01*
X258250000Y-94750000D02*
X256500000Y-94750000D01*
X259250000Y-95750000D02*
X258250000Y-94750000D01*
X259250000Y-96250000D02*
X259250000Y-95750000D01*
X256500000Y-94750000D02*
X255500000Y-93750000D01*
X255500000Y-93750000D02*
X254500000Y-93750000D01*
%TO.N,Net-(D43-K)*%
X257250000Y-98000000D02*
X257250000Y-96250000D01*
%TO.N,Net-(D57-K)*%
X240750000Y-96912500D02*
X240750000Y-95000000D01*
X240787500Y-96950000D02*
X240750000Y-96912500D01*
X239000000Y-95162500D02*
X240787500Y-96950000D01*
X239000000Y-92750000D02*
X239000000Y-95162500D01*
%TO.N,Net-(Q6-B)*%
X242637500Y-92750000D02*
X242937500Y-92450000D01*
X241000000Y-92750000D02*
X242637500Y-92750000D01*
X243787500Y-93300000D02*
X242937500Y-92450000D01*
X245562500Y-93300000D02*
X243787500Y-93300000D01*
D95*
%TO.N,GND*%
X251250000Y-97000000D02*
X252750000Y-95500000D01*
X244600000Y-97000000D02*
X251250000Y-97000000D01*
X244550000Y-96950000D02*
X244600000Y-97000000D01*
D93*
%TO.N,INH1*%
X247437500Y-94687500D02*
X248750000Y-96000000D01*
X247437500Y-94250000D02*
X247437500Y-94687500D01*
%TO.N,Net-(D55-K)*%
X248250000Y-92500000D02*
X248250000Y-91250000D01*
X249000000Y-93250000D02*
X248250000Y-92500000D01*
X248750000Y-91250000D02*
X248250000Y-91250000D01*
X249750000Y-90250000D02*
X248750000Y-91250000D01*
%TO.N,Net-(R110-Pad1)*%
X246250000Y-88000000D02*
X246250000Y-89250000D01*
X246250000Y-89250000D02*
X246000000Y-89500000D01*
X251500000Y-88000000D02*
X246250000Y-88000000D01*
X253500000Y-90000000D02*
X251500000Y-88000000D01*
%TO.N,Net-(Q5-B)*%
X253350000Y-91850000D02*
X254500000Y-91850000D01*
X251750000Y-90250000D02*
X253350000Y-91850000D01*
%TO.N,M1_R*%
X251500000Y-85250000D02*
X251500000Y-84000000D01*
%TO.N,M1_D1*%
X258300000Y-92800000D02*
X256375000Y-92800000D01*
X258750000Y-93250000D02*
X258300000Y-92800000D01*
%TO.N,5v+*%
X258750000Y-91250000D02*
X256750000Y-91250000D01*
X256750000Y-91250000D02*
X255500000Y-90000000D01*
D94*
%TO.N,M1_L*%
X256250000Y-79222600D02*
X256250000Y-75750000D01*
D100*
X256250000Y-75750000D02*
X251750000Y-75750000D01*
X251750000Y-75750000D02*
X246250000Y-75750000D01*
D97*
%TO.N,M1_R*%
X251500000Y-84000000D02*
X254250000Y-84000000D01*
D93*
X248993333Y-83756667D02*
X248750000Y-84000000D01*
D97*
X248750000Y-84000000D02*
X251500000Y-84000000D01*
X245500000Y-84000000D02*
X248750000Y-84000000D01*
X243250000Y-84000000D02*
X245500000Y-84000000D01*
D93*
X242300000Y-80307500D02*
X242300000Y-83677400D01*
X243500000Y-83750000D02*
X243250000Y-84000000D01*
D100*
%TO.N,M1_L*%
X246250000Y-75750000D02*
X240500000Y-75750000D01*
D93*
X242300000Y-79492500D02*
X242300000Y-78677400D01*
X242300000Y-78677400D02*
X239300000Y-75677400D01*
D94*
%TO.N,HV*%
X207585000Y-94165000D02*
X207585000Y-94375000D01*
X208250000Y-93500000D02*
X207585000Y-94165000D01*
%TO.N,error 2*%
X206250000Y-94440000D02*
X206315000Y-94375000D01*
X206250000Y-97250000D02*
X206250000Y-94440000D01*
X206750000Y-97750000D02*
X206250000Y-97250000D01*
%TO.N,GND*%
X209750000Y-98500000D02*
X208500000Y-98500000D01*
X208500000Y-98500000D02*
X208000000Y-99000000D01*
D98*
%TO.N,Net-(D41-K)*%
X215325000Y-85425000D02*
X216225000Y-85425000D01*
X210375000Y-90375000D02*
X215325000Y-85425000D01*
%TO.N,Net-(Q7-C)*%
X213625000Y-98875000D02*
X214000000Y-98500000D01*
X211450000Y-98875000D02*
X213625000Y-98875000D01*
%TO.N,Net-(D41-K)*%
X224965000Y-94165000D02*
X216225000Y-85425000D01*
X224965000Y-94375000D02*
X224965000Y-94165000D01*
X216225000Y-94575000D02*
X216225000Y-85425000D01*
%TO.N,Net-(Q7-C)*%
X213685000Y-98185000D02*
X214000000Y-98500000D01*
X213685000Y-94575000D02*
X213685000Y-98185000D01*
%TO.N,tst2*%
X202000000Y-101500000D02*
X203500000Y-101500000D01*
X201750000Y-101250000D02*
X202000000Y-101500000D01*
X201750000Y-98500000D02*
X201750000Y-101250000D01*
X202505000Y-97745000D02*
X201750000Y-98500000D01*
X202505000Y-94375000D02*
X202505000Y-97745000D01*
D94*
%TO.N,Net-(U2-IN)*%
X200750000Y-97500000D02*
X201000000Y-97250000D01*
X201000000Y-97220000D02*
X201235000Y-96985000D01*
X200250000Y-97500000D02*
X200750000Y-97500000D01*
X198500000Y-99250000D02*
X200250000Y-97500000D01*
X201000000Y-97250000D02*
X201000000Y-97220000D01*
X201235000Y-96985000D02*
X201235000Y-94375000D01*
X198750000Y-99500000D02*
X198500000Y-99250000D01*
X200000000Y-99500000D02*
X198750000Y-99500000D01*
X200000000Y-103750000D02*
X200000000Y-99500000D01*
X199750000Y-104000000D02*
X200000000Y-103750000D01*
X198500000Y-104000000D02*
X199750000Y-104000000D01*
%TO.N,Net-(D58-K)*%
X198500000Y-101250000D02*
X197000000Y-101250000D01*
D96*
%TO.N,Net-(D42-K)*%
X192597349Y-97500000D02*
X192097349Y-98000000D01*
X196000000Y-97500000D02*
X192597349Y-97500000D01*
X199125000Y-94375000D02*
X196000000Y-97500000D01*
X199965000Y-94375000D02*
X199125000Y-94375000D01*
D93*
%TO.N,GND*%
X183250000Y-95000000D02*
X184750000Y-95000000D01*
X184750000Y-95000000D02*
X185250000Y-94500000D01*
%TO.N,HV*%
X179402651Y-98000000D02*
X178652651Y-98750000D01*
X187097349Y-98000000D02*
X179402651Y-98000000D01*
%TO.N,M2_R*%
X177100000Y-81850000D02*
X176800000Y-82150000D01*
X179300000Y-81850000D02*
X177100000Y-81850000D01*
X181750000Y-81850000D02*
X179300000Y-81850000D01*
X183050000Y-83150000D02*
X181750000Y-81850000D01*
%TO.N,GND*%
X193052500Y-95000000D02*
X194250000Y-95000000D01*
X191522500Y-93470000D02*
X193052500Y-95000000D01*
%TO.N,Net-(Q2-B)*%
X188000000Y-92250000D02*
X187250000Y-93000000D01*
X187250000Y-93000000D02*
X182500000Y-93000000D01*
X190842500Y-92250000D02*
X188000000Y-92250000D01*
X191522500Y-91570000D02*
X190842500Y-92250000D01*
%TO.N,Net-(D54-K)*%
X187250000Y-90250000D02*
X187500000Y-90500000D01*
X186000000Y-90250000D02*
X187250000Y-90250000D01*
X185250000Y-91000000D02*
X186000000Y-90250000D01*
X185250000Y-91200000D02*
X185250000Y-91000000D01*
X185050000Y-91000000D02*
X185250000Y-91200000D01*
X182500000Y-91000000D02*
X185050000Y-91000000D01*
%TO.N,M2_R*%
X178050000Y-83150000D02*
X179550000Y-83150000D01*
X177300000Y-83900000D02*
X178050000Y-83150000D01*
X179550000Y-83150000D02*
X179550000Y-85650000D01*
X183050000Y-83150000D02*
X183050000Y-85650000D01*
%TO.N,Net-(D47-K)*%
X220000000Y-57000000D02*
X220000000Y-56500000D01*
X220000000Y-56500000D02*
X219000000Y-55500000D01*
X221000000Y-58000000D02*
X220000000Y-57000000D01*
D95*
%TO.N,Net-(D61-K)*%
X231000000Y-55500000D02*
X230750000Y-55250000D01*
X232750000Y-55500000D02*
X231000000Y-55500000D01*
%TO.N,Net-(U8-IN)*%
X231250000Y-60750000D02*
X232375000Y-61875000D01*
D93*
X232375000Y-61875000D02*
X232500000Y-61750000D01*
D95*
X231250000Y-60000000D02*
X231250000Y-60750000D01*
D96*
%TO.N,GND*%
X231000000Y-58000000D02*
X228500000Y-58000000D01*
X228500000Y-58000000D02*
X228250000Y-58250000D01*
D93*
%TO.N,Net-(U8-IN)*%
X235500000Y-61000000D02*
X236750000Y-59750000D01*
X234000000Y-61000000D02*
X235500000Y-61000000D01*
X233500000Y-61500000D02*
X234000000Y-61000000D01*
X233500000Y-61750000D02*
X233500000Y-61500000D01*
X231315000Y-62935000D02*
X232375000Y-61875000D01*
X231315000Y-65265000D02*
X231315000Y-62935000D01*
X232500000Y-61750000D02*
X233500000Y-61750000D01*
%TO.N,Net-(U8-SR)*%
X227505000Y-60995000D02*
X227505000Y-65265000D01*
X228250000Y-60250000D02*
X227505000Y-60995000D01*
D95*
%TO.N,error 2*%
X201500000Y-63000000D02*
X201210000Y-63290000D01*
X201210000Y-63290000D02*
X201210000Y-65340000D01*
X200750000Y-62250000D02*
X201500000Y-63000000D01*
X200000000Y-62250000D02*
X200750000Y-62250000D01*
D94*
%TO.N,GND*%
X235550000Y-105450000D02*
X236750000Y-104250000D01*
X235550000Y-106750000D02*
X235550000Y-105450000D01*
X236750000Y-104250000D02*
X235500000Y-103000000D01*
X239600000Y-104250000D02*
X236750000Y-104250000D01*
X235175000Y-96750000D02*
X235250000Y-96825000D01*
X234000000Y-96750000D02*
X235175000Y-96750000D01*
X211750000Y-104250000D02*
X211500000Y-104500000D01*
X212250000Y-104250000D02*
X211750000Y-104250000D01*
D93*
X268500000Y-91250000D02*
X268500000Y-97500000D01*
X268500000Y-97500000D02*
X266000000Y-100000000D01*
%TO.N,Net-(R89-Pad2)*%
X227250000Y-110750000D02*
X235750000Y-110750000D01*
X226750000Y-110250000D02*
X227250000Y-110750000D01*
%TO.N,GND*%
X235550000Y-108200000D02*
X235550000Y-106750000D01*
X235500000Y-108250000D02*
X235550000Y-108200000D01*
D95*
%TO.N,Net-(D42-K)*%
X209750000Y-65250000D02*
X209660000Y-65340000D01*
X209660000Y-65340000D02*
X207560000Y-65340000D01*
%TO.N,HV*%
X224235000Y-65265000D02*
X224965000Y-65265000D01*
X223000000Y-66500000D02*
X224235000Y-65265000D01*
%TO.N,Net-(D41-K)*%
X234500000Y-64500000D02*
X233350000Y-64500000D01*
X233350000Y-64500000D02*
X232585000Y-65265000D01*
D93*
%TO.N,GND*%
X184655600Y-108500000D02*
X190243600Y-108500000D01*
X183233200Y-107077600D02*
X184655600Y-108500000D01*
X188810800Y-116500000D02*
X190233200Y-115077600D01*
X166662000Y-116500000D02*
X165239600Y-115077600D01*
X165239600Y-108510400D02*
X165250000Y-108500000D01*
X165239600Y-115077600D02*
X165239600Y-108510400D01*
X190243600Y-115067200D02*
X190243600Y-108500000D01*
X190233200Y-115077600D02*
X190243600Y-115067200D01*
X185402000Y-154172400D02*
X190990000Y-154172400D01*
X183979600Y-152750000D02*
X185402000Y-154172400D01*
%TO.N,Net-(D42-K)*%
X216500000Y-65200000D02*
X216275000Y-65425000D01*
X216500000Y-60500000D02*
X216500000Y-65200000D01*
%TO.N,Net-(Q3-C)*%
X219325000Y-65425000D02*
X218815000Y-65425000D01*
X223250000Y-61500000D02*
X219325000Y-65425000D01*
X220050000Y-64190000D02*
X218815000Y-65425000D01*
X220050000Y-59875000D02*
X220050000Y-64190000D01*
D95*
%TO.N,9v+*%
X222832500Y-59082500D02*
X222832500Y-57250000D01*
X223250000Y-59500000D02*
X222832500Y-59082500D01*
D101*
%TO.N,Net-(D42-A)*%
X211750000Y-60850000D02*
X212500000Y-60100000D01*
X212425000Y-65425000D02*
X211750000Y-64750000D01*
X211750000Y-64750000D02*
X211750000Y-60850000D01*
X213735000Y-65425000D02*
X212425000Y-65425000D01*
D93*
%TO.N,Net-(U2-SR)*%
X205045000Y-98045000D02*
X206000000Y-99000000D01*
X205045000Y-94375000D02*
X205045000Y-98045000D01*
%TO.N,GND*%
X209500000Y-100500000D02*
X208000000Y-99000000D01*
X209500000Y-103500000D02*
X209500000Y-100500000D01*
X210500000Y-104500000D02*
X209500000Y-103500000D01*
X211500000Y-104500000D02*
X210500000Y-104500000D01*
%TO.N,Net-(D41-A)*%
X212400000Y-100750000D02*
X218250000Y-100750000D01*
X218250000Y-100750000D02*
X219000000Y-100000000D01*
%TO.N,PGD*%
X211875000Y-107625000D02*
X211000000Y-108500000D01*
X211875000Y-107000000D02*
X211875000Y-107625000D01*
D96*
%TO.N,Net-(D48-K)*%
X214750000Y-104750000D02*
X214500000Y-104500000D01*
X214000000Y-107000000D02*
X214750000Y-106250000D01*
X214750000Y-106250000D02*
X214750000Y-104750000D01*
X213625000Y-107000000D02*
X214000000Y-107000000D01*
D93*
%TO.N,M2_L*%
X173750000Y-77880000D02*
X173750000Y-74399000D01*
X173750000Y-74399000D02*
X174500000Y-73649000D01*
D95*
X182000000Y-74149000D02*
X182500000Y-73649000D01*
D93*
%TO.N,M2_R*%
X195500000Y-79500000D02*
X195500000Y-80750000D01*
D94*
X177300000Y-85900000D02*
X175800000Y-85900000D01*
D93*
X195500000Y-84215000D02*
X195000000Y-84715000D01*
D99*
X171694999Y-80750001D02*
X172472499Y-81527501D01*
D93*
X190500000Y-81500000D02*
X190500000Y-84715000D01*
D102*
X195000000Y-84715000D02*
X200799000Y-84715000D01*
D99*
X166250000Y-80750001D02*
X171694999Y-80750001D01*
D98*
X186500000Y-79250000D02*
X186500000Y-81000000D01*
D95*
X173750000Y-78695000D02*
X173750000Y-79500000D01*
D96*
%TO.N,GND*%
X221000000Y-49500000D02*
X223750000Y-49500000D01*
X227000000Y-49500000D02*
X229500000Y-47000000D01*
X238500000Y-48000000D02*
X237750000Y-48000000D01*
D94*
X191522500Y-93977500D02*
X191000000Y-94500000D01*
X206500000Y-107000000D02*
X207500000Y-106000000D01*
X234000000Y-101500000D02*
X234000000Y-100500000D01*
D96*
X234000000Y-57700000D02*
X231550000Y-57700000D01*
D94*
X191522500Y-93470000D02*
X191522500Y-93977500D01*
X244550000Y-96950000D02*
X245750000Y-95750000D01*
X236500000Y-47750000D02*
X237500000Y-47750000D01*
X209500000Y-97825000D02*
X209175000Y-97825000D01*
X236500000Y-45350000D02*
X236350000Y-45200000D01*
X196000000Y-106500000D02*
X197700000Y-106500000D01*
X209175000Y-97825000D02*
X208000000Y-99000000D01*
D96*
X234250000Y-57450000D02*
X234000000Y-57700000D01*
D94*
X207500000Y-106000000D02*
X210000000Y-106000000D01*
X252750000Y-95500000D02*
X252300000Y-95050000D01*
D96*
X236350000Y-47700000D02*
X236600000Y-47950000D01*
D94*
X236500000Y-47750000D02*
X236500000Y-45350000D01*
D96*
X237750000Y-48000000D02*
X236650000Y-48000000D01*
D94*
X234000000Y-100500000D02*
X234000000Y-98500000D01*
X185250000Y-94500000D02*
X187750000Y-94500000D01*
X235550000Y-106750000D02*
X235550000Y-108450000D01*
X210000000Y-106000000D02*
X211500000Y-104500000D01*
D96*
X203500000Y-55250000D02*
X201100000Y-55250000D01*
D94*
X237500000Y-47750000D02*
X237750000Y-48000000D01*
X254500000Y-93750000D02*
X252800000Y-93750000D01*
D96*
X231550000Y-57700000D02*
X231250000Y-58000000D01*
D94*
X235500000Y-103000000D02*
X234000000Y-101500000D01*
D96*
X236350000Y-45200000D02*
X236350000Y-47700000D01*
D94*
X235550000Y-108450000D02*
X234500000Y-109500000D01*
X252300000Y-95050000D02*
X252300000Y-93250000D01*
D96*
X225500000Y-58250000D02*
X228250000Y-58250000D01*
D95*
X224250000Y-57250000D02*
X225250000Y-58250000D01*
D94*
X191000000Y-94500000D02*
X188250000Y-94500000D01*
X197700000Y-106500000D02*
X198500000Y-107300000D01*
X188250000Y-94500000D02*
X188000000Y-94250000D01*
X203700000Y-107300000D02*
X204000000Y-107000000D01*
X245750000Y-95387500D02*
X245562500Y-95200000D01*
X234000000Y-98075000D02*
X235250000Y-96825000D01*
X187750000Y-94500000D02*
X188000000Y-94250000D01*
X190243600Y-108500000D02*
X194000000Y-108500000D01*
X204000000Y-107000000D02*
X206500000Y-107000000D01*
X252800000Y-93750000D02*
X252300000Y-93250000D01*
X222500000Y-106600000D02*
X222000000Y-106100000D01*
X194000000Y-108500000D02*
X196000000Y-106500000D01*
X262250000Y-96250000D02*
X266000000Y-100000000D01*
X244812500Y-94450000D02*
X245562500Y-95200000D01*
D96*
X225250000Y-58500000D02*
X225500000Y-58250000D01*
D94*
X244087500Y-96950000D02*
X244550000Y-96950000D01*
D96*
X209420000Y-54000000D02*
X212500000Y-54000000D01*
D94*
X242937500Y-94450000D02*
X244100000Y-94450000D01*
X222500000Y-108500000D02*
X222500000Y-106600000D01*
D96*
X236650000Y-48000000D02*
X236600000Y-47950000D01*
D95*
X223750000Y-57250000D02*
X224250000Y-57250000D01*
D94*
X259250000Y-96250000D02*
X262250000Y-96250000D01*
D96*
X223750000Y-49500000D02*
X227000000Y-49500000D01*
D94*
X253500000Y-106500000D02*
X252250000Y-107750000D01*
X234000000Y-98500000D02*
X234000000Y-98075000D01*
X245750000Y-95750000D02*
X245750000Y-95387500D01*
X198500000Y-107300000D02*
X203700000Y-107300000D01*
X252250000Y-107750000D02*
X252250000Y-109250000D01*
%TO.N,M1_L*%
X232925000Y-74925000D02*
X228775000Y-74925000D01*
X236750000Y-78750000D02*
X232925000Y-74925000D01*
D100*
X234001000Y-75750000D02*
X234001000Y-74925000D01*
X240500000Y-75750000D02*
X234001000Y-75750000D01*
X266000000Y-75750001D02*
X256250000Y-75750000D01*
D97*
%TO.N,M1_R*%
X264000001Y-82750000D02*
X266000000Y-80750001D01*
D94*
X228775000Y-94375000D02*
X228775000Y-84715000D01*
D97*
X234216000Y-84000000D02*
X233501000Y-84715000D01*
D94*
X228775000Y-94375000D02*
X228750000Y-94350000D01*
D97*
X240500000Y-84000000D02*
X243250000Y-84000000D01*
D94*
X236750000Y-80825000D02*
X232665000Y-80825000D01*
D97*
X240500000Y-84000000D02*
X234216000Y-84000000D01*
X254250000Y-84000000D02*
X255500000Y-82750000D01*
X255500000Y-82750000D02*
X264000001Y-82750000D01*
D94*
X232665000Y-80825000D02*
X228775000Y-84715000D01*
%TO.N,Net-(U5-VO)*%
X231550000Y-43700000D02*
X232350000Y-43700000D01*
X223200000Y-44700000D02*
X229500000Y-44700000D01*
X229500000Y-44700000D02*
X230550000Y-44700000D01*
X230550000Y-44700000D02*
X231550000Y-43700000D01*
%TO.N,HV*%
X234875000Y-94375000D02*
X235250000Y-94750000D01*
X208125000Y-94375000D02*
X207585000Y-94375000D01*
X232585000Y-94375000D02*
X234875000Y-94375000D01*
X209500000Y-95750000D02*
X208125000Y-94375000D01*
%TO.N,3.3v*%
X233000000Y-47750000D02*
X233000000Y-46350000D01*
X233000000Y-46350000D02*
X232350000Y-45700000D01*
X233000000Y-47750000D02*
X233000000Y-50000000D01*
X233000000Y-50000000D02*
X232750000Y-50250000D01*
%TO.N,Net-(U7-SR)*%
X230045000Y-96545000D02*
X232000000Y-98500000D01*
X230045000Y-94375000D02*
X230045000Y-96545000D01*
%TO.N,error 1*%
X226235000Y-61235000D02*
X225250000Y-60250000D01*
X226235000Y-65265000D02*
X226235000Y-61235000D01*
%TO.N,Net-(D5-K)*%
X238500000Y-50000000D02*
X238250000Y-50250000D01*
X238250000Y-50250000D02*
X236250000Y-50250000D01*
D98*
%TO.N,Net-(D41-A)*%
X223000000Y-94750000D02*
X222825000Y-94575000D01*
X222825000Y-94575000D02*
X218765000Y-94575000D01*
D94*
%TO.N,Net-(D41-K)*%
X224965000Y-96285000D02*
X223000000Y-98250000D01*
X224965000Y-94375000D02*
X224965000Y-96285000D01*
D93*
%TO.N,Net-(D35-A1)*%
X192250000Y-79750000D02*
X190500000Y-78000000D01*
X191000000Y-78000000D02*
X192750000Y-79750000D01*
X192750000Y-79750000D02*
X192250000Y-79750000D01*
X190500000Y-78000000D02*
X191000000Y-78000000D01*
D94*
%TO.N,Net-(D46-K)*%
X219000000Y-53500000D02*
X219000000Y-51500000D01*
D95*
%TO.N,Net-(D47-K)*%
X219125000Y-55500000D02*
X221000000Y-53625000D01*
X219000000Y-55500000D02*
X219125000Y-55500000D01*
D94*
X221000000Y-53625000D02*
X221000000Y-51500000D01*
%TO.N,Net-(D49-K)*%
X211500000Y-102500000D02*
X210600000Y-101600000D01*
X210600000Y-101600000D02*
X210600000Y-100500000D01*
X214500000Y-102500000D02*
X217250000Y-102500000D01*
X214500000Y-102500000D02*
X211500000Y-102500000D01*
%TO.N,tst2*%
X203500000Y-101500000D02*
X203500000Y-103200000D01*
X203500000Y-103200000D02*
X204000000Y-103700000D01*
X207500000Y-104000000D02*
X204300000Y-104000000D01*
X204300000Y-104000000D02*
X204000000Y-103700000D01*
%TO.N,Net-(U2-IN)*%
X198500000Y-104000000D02*
X196500000Y-104000000D01*
X196500000Y-104000000D02*
X196000000Y-104500000D01*
%TO.N,Net-(U3-IN)*%
X206290000Y-63040000D02*
X204500000Y-61250000D01*
X206290000Y-65340000D02*
X206290000Y-63040000D01*
X204500000Y-59550000D02*
X203500000Y-58550000D01*
X204500000Y-60500000D02*
X204500000Y-59550000D01*
X204500000Y-61250000D02*
X204500000Y-60500000D01*
%TO.N,tst1*%
X232250000Y-109250000D02*
X232500000Y-109500000D01*
X227505000Y-98755000D02*
X228250000Y-99500000D01*
X230045000Y-62545000D02*
X229500000Y-62000000D01*
X227505000Y-94375000D02*
X227505000Y-98755000D01*
X230045000Y-65265000D02*
X230045000Y-62545000D01*
X228500000Y-55500000D02*
X228750000Y-55250000D01*
X226750000Y-55500000D02*
X228500000Y-55500000D01*
X232250000Y-106750000D02*
X232250000Y-109250000D01*
%TO.N,Net-(U7-IN)*%
X226235000Y-99265000D02*
X226235000Y-94375000D01*
X226000000Y-99500000D02*
X226235000Y-99265000D01*
X232200000Y-100700000D02*
X232000000Y-100500000D01*
X232200000Y-103000000D02*
X232200000Y-100700000D01*
%TO.N,Net-(D59-K)*%
X203500000Y-99500000D02*
X204000000Y-99500000D01*
X206000000Y-101500000D02*
X206500000Y-101500000D01*
X204000000Y-99500000D02*
X206000000Y-101500000D01*
%TO.N,Net-(D62-K)*%
X226000000Y-104000000D02*
X226000000Y-101500000D01*
%TO.N,Net-(D63-K)*%
X229250000Y-101500000D02*
X230250000Y-102500000D01*
X230000000Y-105250000D02*
X227750000Y-105250000D01*
X230250000Y-102500000D02*
X230250000Y-105000000D01*
X228250000Y-101500000D02*
X229250000Y-101500000D01*
X230250000Y-105000000D02*
X230000000Y-105250000D01*
%TO.N,Net-(D64-K)*%
X206500000Y-60500000D02*
X206250000Y-60250000D01*
X206250000Y-60250000D02*
X206250000Y-58250000D01*
%TO.N,Net-(D42-A)*%
X219100000Y-58000000D02*
X217500000Y-58000000D01*
X216500000Y-55075000D02*
X216500000Y-57000000D01*
X216500000Y-57000000D02*
X215600000Y-57000000D01*
X217500000Y-58000000D02*
X216500000Y-57000000D01*
X215600000Y-57000000D02*
X212500000Y-60100000D01*
D96*
%TO.N,SDA*%
X173554400Y-113750000D02*
X173632000Y-113827600D01*
X167250000Y-119750000D02*
X169750000Y-117250000D01*
X169750000Y-113750000D02*
X173554400Y-113750000D01*
X167250000Y-124750000D02*
X167250000Y-119750000D01*
X169750000Y-117250000D02*
X169750000Y-113750000D01*
X170250000Y-127750000D02*
X167250000Y-124750000D01*
D99*
%TO.N,M2_R*%
X166250000Y-80750001D02*
X166250000Y-81000000D01*
D97*
X169965000Y-84715000D02*
X167275000Y-82025000D01*
X175659998Y-84715000D02*
X169965000Y-84715000D01*
D94*
%TO.N,Net-(D43-K)*%
X256750000Y-98500000D02*
X257250000Y-98000000D01*
%TO.N,M1_L*%
X252799900Y-78889900D02*
X253300000Y-79390000D01*
%TO.N,M1_R*%
X253012500Y-80964900D02*
X253300000Y-80677400D01*
D93*
X253300000Y-80307500D02*
X253300000Y-80677400D01*
D94*
X253540000Y-80650000D02*
X253300000Y-80410000D01*
D93*
%TO.N,GND*%
X185105000Y-64340000D02*
X186145000Y-64340000D01*
D95*
%TO.N,B1*%
X257812500Y-67810000D02*
X258640000Y-66982500D01*
X246900000Y-67810000D02*
X257812500Y-67810000D01*
X243590000Y-71120000D02*
X246900000Y-67810000D01*
X233950000Y-68400000D02*
X236670000Y-71120000D01*
X206870000Y-69170000D02*
X207640000Y-68400000D01*
X183380000Y-69170000D02*
X206870000Y-69170000D01*
X182990000Y-68780000D02*
X183380000Y-69170000D01*
X183130000Y-67670000D02*
X182990000Y-67810000D01*
X182990000Y-67810000D02*
X182990000Y-68780000D01*
X207640000Y-68400000D02*
X233950000Y-68400000D01*
X236670000Y-71120000D02*
X243590000Y-71120000D01*
%TO.N,A1*%
X260020000Y-68670000D02*
X261070000Y-67620000D01*
X244030000Y-71930000D02*
X247290000Y-68670000D01*
X236370000Y-71930000D02*
X244030000Y-71930000D01*
X247290000Y-68670000D02*
X260020000Y-68670000D01*
X235890000Y-71450000D02*
X236370000Y-71930000D01*
X235890000Y-71440000D02*
X235890000Y-71450000D01*
X208010000Y-69090000D02*
X233540000Y-69090000D01*
X180900000Y-69780000D02*
X207320000Y-69780000D01*
X207320000Y-69780000D02*
X208010000Y-69090000D01*
X180430000Y-69310000D02*
X180900000Y-69780000D01*
X233540000Y-69090000D02*
X235890000Y-71440000D01*
X180430000Y-67930000D02*
X180430000Y-69310000D01*
X180250000Y-67750000D02*
X180430000Y-67930000D01*
D97*
%TO.N,M2_L*%
X174500000Y-73649000D02*
X194548000Y-73649000D01*
%TD*%
M02*
